<?xml version="1.0" standalone="no"?>
<!DOCTYPE svg PUBLIC "-//W3C//DTD SVG 1.1//EN" "http://www.w3.org/Graphics/SVG/1.1/DTD/svg11.dtd" >
<svg xmlns="http://www.w3.org/2000/svg" xmlns:xlink="http://www.w3.org/1999/xlink" version="1.1">
<metadata></metadata>
<defs>
<font id="proxima_nova_sbold_italic" horiz-adv-x="373" >
<font-face units-per-em="1000" ascent="790" descent="-210" />
<missing-glyph horiz-adv-x="240" />
<glyph unicode="ffj" horiz-adv-x="852" d="M805 521q-28 0 -46 17.5t-18 43.5q0 36 25 59t55 23q18 0 32.5 -8.5t23 -22.5t8.5 -30q0 -37 -25 -59.5t-55 -22.5zM35 0l78 350h-75l22 104h75l6 24q8 37 23 66t36 49.5t49 31.5t62 11q60 0 100 -25l-42 -81q-16 12 -43 12q-51 0 -66 -64l-5 -24h93l-24 -104h-92 l-77 -350h-120zM342 0l78 350h-75l23 104h75l5 24q17 75 60.5 116.5t110.5 41.5q60 0 99 -25l-41 -81q-16 12 -43 12q-52 0 -66 -64l-6 -24h93l-23 -104h-92l-78 -350h-120zM494 -174l26 96q14 -6 30 -6q54 0 69 72l105 466h119l-104 -466q-18 -83 -59.5 -127.5 t-115.5 -44.5q-42 0 -70 10z" />
<glyph unicode="fj" horiz-adv-x="545" d="M497 521q-28 0 -46 17.5t-18 43.5q0 36 25 59t55 23q19 0 33.5 -8.5t22.5 -22.5t8 -30q0 -37 -25 -59.5t-55 -22.5zM35 0l78 350h-75l22 104h75l6 24q8 37 23 66t36 49.5t49 31.5t62 11q60 0 100 -25l-42 -81q-16 12 -43 12q-51 0 -66 -64l-5 -24h93l-24 -104h-92 l-77 -350h-120zM186 -174l26 96q15 -6 31 -6q53 0 69 72l104 466h120l-105 -466q-18 -83 -59.5 -127.5t-114.5 -44.5q-42 0 -71 10z" />
<glyph unicode="&#xfb00;" horiz-adv-x="614" d="M35 0l78 350h-75l22 104h75l6 24q8 37 23 66t36 49.5t49 31.5t62 11q60 0 100 -25l-42 -81q-16 12 -43 12q-51 0 -66 -64l-5 -24h93l-24 -104h-92l-77 -350h-120zM342 0l78 350h-75l23 104h75l5 24q17 75 60.5 116.5t110.5 41.5q60 0 99 -25l-41 -81q-16 12 -43 12 q-52 0 -66 -64l-6 -24h93l-23 -104h-92l-78 -350h-120z" />
<glyph unicode="&#xfb01;" horiz-adv-x="720" d="M8 0l114 517h390l-23 -104h-265l-22 -98h260l-23 -105h-260l-46 -210h-125zM487 0l114 517h124l-114 -517h-124z" />
<glyph unicode="&#xfb02;" horiz-adv-x="919" d="M8 0l114 517h390l-23 -104h-265l-22 -98h260l-23 -105h-260l-46 -210h-125zM487 0l114 517h124l-91 -409h228l-24 -108h-351z" />
<glyph unicode="&#xfb03;" horiz-adv-x="852" d="M741 582q0 36 25 59t55 23q18 0 32.5 -8.5t23 -22.5t8.5 -30q0 -37 -25 -59.5t-55 -22.5q-28 0 -46 17.5t-18 43.5zM35 0l78 350h-75l22 104h75l6 24q8 37 23 66t36 49.5t49 31.5t62 11q60 0 100 -25l-42 -81q-16 12 -43 12q-51 0 -66 -64l-5 -24h93l-24 -104h-92 l-77 -350h-120zM342 0l78 350h-75l23 104h75l5 24q17 75 60.5 116.5t110.5 41.5q60 0 99 -25l-41 -81q-16 12 -43 12q-52 0 -66 -64l-6 -24h93l-23 -104h-92l-78 -350h-120zM623 0l101 454h119l-100 -454h-120z" />
<glyph unicode="&#xfb04;" horiz-adv-x="852" d="M35 0l78 350h-75l22 104h75l6 24q8 37 23 66t36 49.5t49 31.5t62 11q60 0 100 -25l-42 -81q-16 12 -43 12q-51 0 -66 -64l-5 -24h93l-24 -104h-92l-77 -350h-120zM342 0l78 350h-75l23 104h75l5 24q17 75 60.5 116.5t110.5 41.5q60 0 99 -25l-41 -81q-16 12 -43 12 q-52 0 -66 -64l-6 -24h93l-23 -104h-92l-78 -350h-120zM623 0l138 627h120l-138 -627h-120z" />
<glyph unicode="fb" horiz-adv-x="858" d="M35 0l78 350h-75l22 104h75l6 24q8 37 23 66t36 49.5t49 31.5t62 11q60 0 100 -25l-42 -81q-16 12 -43 12q-51 0 -66 -64l-5 -24h93l-24 -104h-92l-77 -350h-120zM448 60l-13 -60h-119l138 627h119l-50 -229q57 67 137 67q38 0 69.5 -12.5t54.5 -36t35.5 -59t12.5 -80.5 q0 -52 -16 -102.5t-45.5 -92.5t-76 -67.5t-101.5 -25.5q-46 0 -84 18.5t-61 52.5zM707 253q0 48 -28.5 77t-72.5 29q-59 0 -104 -54l-35 -158q8 -12 18.5 -21.5t24 -16t30 -10.5t33.5 -4q58 0 96 46.5t38 111.5z" />
<glyph unicode="fh" horiz-adv-x="852" d="M35 0l78 350h-75l22 104h75l6 24q8 37 23 66t36 49.5t49 31.5t62 11q60 0 100 -25l-42 -81q-16 12 -43 12q-51 0 -66 -64l-5 -24h93l-24 -104h-92l-77 -350h-120zM623 0l59 273q5 18 5 28q0 30 -20.5 44t-53.5 14q-57 0 -110 -53l-68 -306h-119l138 627h119l-50 -232 q72 70 151 70q65 0 103.5 -31.5t38.5 -84.5q0 -13 -5 -37l-68 -312h-120z" />
<glyph unicode="fk" horiz-adv-x="810" d="M35 0l78 350h-75l22 104h75l6 24q8 37 23 66t36 49.5t49 31.5t62 11q60 0 100 -25l-42 -81q-16 12 -43 12q-51 0 -66 -64l-5 -24h93l-24 -104h-92l-77 -350h-120zM615 0l-84 178l-70 -61l-26 -117h-119l138 627h119l-81 -368l210 195h152l-225 -206l131 -248h-145z" />
<glyph horiz-adv-x="0" />
<glyph horiz-adv-x="333" />
<glyph horiz-adv-x="0" />
<glyph horiz-adv-x="0" />
<glyph unicode="&#xd;" horiz-adv-x="0" />
<glyph unicode=" "  horiz-adv-x="240" />
<glyph unicode="&#x09;" horiz-adv-x="240" />
<glyph unicode="&#xa0;" horiz-adv-x="240" />
<glyph unicode="!" horiz-adv-x="240" d="M161 193h-96l53 324h131zM8 59q0 34 24.5 58.5t58.5 24.5q29 0 49 -20.5t20 -50.5q0 -33 -24.5 -57.5t-58.5 -24.5q-29 0 -49 20.5t-20 49.5z" />
<glyph unicode="&#x22;" horiz-adv-x="381" d="M106 352l9 208q0 22 10 39t27 27t37 10q24 0 40.5 -17t16.5 -42q0 -13 -6 -28l-81 -197h-53zM277 352l9 208q1 33 22 54.5t52 21.5q12 0 22.5 -4.5t18 -12t12 -18.5t4.5 -24t-6 -28l-81 -197h-53z" />
<glyph unicode="#" horiz-adv-x="485" d="M469 313h-75l-59 -106h75l-35 -66h-77l-78 -141h-80l77 141h-70l-77 -141h-81l78 141h-72l35 66h74l60 106h-75l34 65h76l78 139h80l-78 -139h71l78 139h81l-79 -139h72zM243 313l-60 -106h72l58 106h-70z" />
<glyph unicode="$" horiz-adv-x="485" d="M306 306q31 -11 52.5 -21.5t44.5 -27.5t34.5 -42t11.5 -57q0 -72 -58 -120t-155 -49l-13 -59h-85l14 66q-108 18 -164 83l72 90q40 -50 116 -67l26 117q-31 11 -52 21.5t-44 27t-35 41t-12 55.5q0 64 61.5 114t150.5 50l14 62h84l-16 -71q91 -23 140 -78l-73 -84 q-35 38 -90 56zM191 370q0 -23 44 -40l21 93q-20 -2 -35 -9.5t-22.5 -18.5t-7.5 -25zM251 95q35 2 51 18t16 38q0 25 -44 44z" />
<glyph unicode="%" horiz-adv-x="576" d="M174 269q-53 0 -85.5 30t-32.5 83q0 58 41 102t102 44q53 0 86 -30.5t33 -82.5q0 -59 -41.5 -102.5t-102.5 -43.5zM90 0h-66l473 517h68zM196 466q-28 0 -47 -24.5t-19 -57.5q0 -16 5.5 -28t16.5 -18.5t26 -6.5q18 0 33.5 11t24.5 29.5t9 39.5q0 24 -13.5 39.5 t-35.5 15.5zM388 -9q-52 0 -84.5 30t-32.5 82q0 38 18 71.5t51 54.5t73 21q53 0 85.5 -30.5t32.5 -83.5q0 -58 -41 -101.5t-102 -43.5zM410 188q-27 0 -47 -24.5t-20 -57.5q0 -23 13.5 -38t35.5 -15q27 0 47 24t20 56q0 24 -13 39.5t-36 15.5z" />
<glyph unicode="&#x26;" horiz-adv-x="532" d="M501 222q-52 -79 -108 -132q22 -34 65 -90h-130q-1 1 -9 11l-12 15q-66 -36 -133 -36q-78 0 -127.5 37t-49.5 105q0 36 12 65t35 49t47.5 32.5t57.5 24.5q-16 45 -16 80q0 61 48 102.5t117 41.5q59 0 102 -29t43 -77q0 -27 -10 -49t-23.5 -36.5t-37.5 -27.5t-43 -20.5 t-49 -16.5q3 -5 29 -51q24 -39 38 -59q45 48 75 106zM241 383q0 -20 10 -49q31 9 50 18.5t32.5 25t13.5 35.5q0 18 -12.5 28.5t-31.5 10.5q-14 0 -25 -5t-19.5 -13.5t-13 -22t-4.5 -28.5zM192 72q32 0 68 20q-24 38 -42 69q-33 59 -39 72q-65 -32 -65 -88q0 -33 21 -53 t57 -20z" />
<glyph unicode="'" horiz-adv-x="211" d="M106 352l9 208q0 22 10 39t27 27t37 10q24 0 40.5 -17t16.5 -42q0 -13 -6 -28l-81 -197h-53z" />
<glyph unicode="(" horiz-adv-x="279" d="M97 -187q-37 55 -56 130.5t-19 157.5q0 97 31 195.5t89 187.5t136 160l63 -64q-61 -73 -103.5 -155t-66 -173t-23.5 -184q0 -98 35 -205z" />
<glyph unicode=")" horiz-adv-x="279" d="M181 644q37 -55 56.5 -131t19.5 -157q0 -146 -69 -290.5t-189 -252.5l-62 64q92 111 143 242t51 269q0 99 -36 206z" />
<glyph unicode="*" horiz-adv-x="329" d="M159 344l29 107l-100 -45l-17 54l101 35l-80 57l41 47l74 -64l18 101h60l-29 -106l99 45l17 -54l-99 -37l79 -55l-42 -47l-73 64l-17 -102h-61z" />
<glyph unicode="+" horiz-adv-x="473" d="M289 280l-43 -191h-81l43 191h-169l16 74h169l40 184h82l-40 -184h169l-17 -74h-169z" />
<glyph unicode="," horiz-adv-x="240" d="M25 -123l-42 44q28 13 55 34.5t37 44.5h-10q-24 0 -40.5 16t-16.5 45q0 33 25 57t57 24q31 0 52.5 -20.5t21.5 -56.5q0 -53 -40 -106.5t-99 -81.5z" />
<glyph unicode="-" horiz-adv-x="282" d="M16 177l23 101h225l-22 -101h-226z" />
<glyph unicode="." horiz-adv-x="240" d="M8 59q0 34 24.5 58.5t58.5 24.5q29 0 49 -20.5t20 -50.5q0 -33 -24.5 -57.5t-58.5 -24.5q-29 0 -49 20.5t-20 49.5z" />
<glyph unicode="/" horiz-adv-x="309" d="M-56 -19l369 665h90l-370 -665h-89z" />
<glyph unicode="0" horiz-adv-x="582" d="M279 -11q-118 0 -183 60t-65 166q0 43 11.5 87t35.5 84.5t57 72t79.5 50.5t100.5 19q117 0 182 -60t65 -167q0 -54 -18.5 -108.5t-53 -100.5t-90 -74.5t-121.5 -28.5zM313 410q-23 0 -44 -8.5t-36.5 -22.5t-28 -32t-20.5 -39t-12 -42t-4 -40q0 -58 29.5 -88.5t82.5 -30.5 q28 0 52 12t41 31t29 43t17.5 49t5.5 49q0 39 -13 65.5t-38 40t-61 13.5z" />
<glyph unicode="1" horiz-adv-x="386" d="M140 0l75 344l-127 -105l-59 80l242 198h116l-113 -517h-134z" />
<glyph unicode="2" horiz-adv-x="547" d="M-4 0l25 112q179 53 272 111.5t93 114.5q0 34 -28 53t-72 19q-91 0 -167 -61l-56 94q97 85 237 85q66 0 117.5 -18t81.5 -54t30 -86q0 -43 -23.5 -83.5t-64 -72t-84 -55t-92.5 -41.5h198l-26 -118h-441z" />
<glyph unicode="3" horiz-adv-x="551" d="M-44 11l87 79q28 -44 80.5 -68.5t104.5 -24.5q54 0 83 25t29 63q0 67 -114 67q-66 0 -76 -1l27 117q10 -1 87 -1q57 0 89.5 18t32.5 56q0 32 -32.5 52t-90.5 20q-85 0 -152 -53l-48 91q40 35 96.5 56t116.5 21q114 0 181.5 -43.5t67.5 -119.5q0 -60 -52 -103.5 t-118 -51.5q53 -13 85 -47t32 -91q0 -54 -32.5 -98t-87.5 -68.5t-122 -24.5q-88 0 -164 34.5t-110 95.5z" />
<glyph unicode="4" horiz-adv-x="561" d="M412 25l-30 -135h-134l30 135h-300l23 107l335 385h184l-82 -374h80l-26 -118h-80zM360 399l-226 -256h170z" />
<glyph unicode="5" horiz-adv-x="571" d="M-8 -1l94 83q25 -41 69 -64t100 -23q53 0 86 30.5t33 73.5q0 40 -32.5 63t-85.5 23q-63 0 -115 -39l-86 34l74 337h430l-25 -115h-300l-33 -150q51 39 127 39q80 0 133 -47t53 -129q0 -65 -32 -118.5t-92.5 -85.5t-135.5 -32q-180 0 -262 120z" />
<glyph unicode="6" horiz-adv-x="571" d="M37 231q0 77 22.5 149t64 129.5t106.5 92t143 34.5q133 0 211 -85l-81 -92q-22 29 -58.5 45t-78.5 16q-64 0 -110 -46t-66 -110q-7 -12 -9 -27q13 14 30.5 26t38.5 21t45.5 14.5t48.5 5.5q86 0 142 -46.5t56 -125.5q0 -100 -76 -171.5t-183 -71.5q-116 0 -181 64t-65 178 zM402 214q0 38 -33.5 61.5t-85.5 23.5q-64 0 -114 -47q-2 -8 -2 -34q0 -51 32.5 -82t84.5 -31q50 0 84 31.5t34 77.5z" />
<glyph unicode="7" horiz-adv-x="512" d="M33 -110l335 510h-309l27 117h470l-20 -93l-349 -534h-154z" />
<glyph unicode="8" horiz-adv-x="569" d="M13 157q0 41 20 76.5t60 62.5t94 41q-26 11 -47 29t-34.5 43.5t-13.5 52.5q0 44 22 78.5t58.5 55t79 30.5t87.5 10q63 0 117 -16.5t91 -54t37 -89.5q0 -62 -44.5 -106.5t-118.5 -58.5q47 -25 75.5 -61.5t28.5 -80.5q0 -41 -21 -76t-57 -57.5t-82.5 -34.5t-96.5 -12 q-69 0 -125 17t-93 56t-37 95zM440 452q0 30 -31.5 49.5t-77.5 19.5q-43 0 -73.5 -20t-30.5 -54q0 -25 27.5 -45.5t62.5 -28.5q56 4 89.5 25t33.5 54zM390 182q0 30 -28.5 52.5t-69.5 31.5q-38 -2 -69 -13t-49.5 -31t-18.5 -44q0 -36 32.5 -55.5t86.5 -19.5q47 0 81.5 22.5 t34.5 56.5z" />
<glyph unicode="9" horiz-adv-x="571" d="M546 286q0 -44 -7 -86.5t-21.5 -82.5t-35.5 -75.5t-49 -65t-61.5 -51t-75.5 -33t-87 -11.5q-132 0 -209 84l81 93q21 -29 57.5 -45t78.5 -16q64 0 109.5 45.5t67.5 109.5q6 20 7 27q-26 -28 -70.5 -47t-91.5 -19q-86 0 -143 46.5t-57 125.5q0 99 77 171t184 72 q116 0 181 -64t65 -178zM180 303q0 -38 34.5 -61.5t85.5 -23.5q63 0 115 47v33q0 51 -32.5 82.5t-83.5 31.5t-85 -31.5t-34 -77.5z" />
<glyph unicode=":" horiz-adv-x="240" d="M78 379q0 16 7 31.5t18 26.5t26 17.5t32 6.5q29 0 49 -20.5t20 -49.5q0 -23 -11.5 -42t-30.5 -30t-41 -11q-29 0 -49 21t-20 50zM8 59q0 34 24.5 58.5t58.5 24.5q29 0 49 -20.5t20 -50.5q0 -33 -24.5 -57.5t-58.5 -24.5q-29 0 -49 20.5t-20 49.5z" />
<glyph unicode=";" horiz-adv-x="240" d="M78 379q0 16 7 31.5t18 26.5t26 17.5t32 6.5q29 0 49 -20.5t20 -49.5q0 -23 -11.5 -42t-30.5 -30t-41 -11q-29 0 -49 21t-20 50zM25 -123l-42 44q28 13 55 34.5t37 44.5h-10q-24 0 -40.5 16t-16.5 45q0 33 25 57t57 24q31 0 52.5 -20.5t21.5 -56.5q0 -53 -40 -106.5 t-99 -81.5z" />
<glyph unicode="&#x3c;" horiz-adv-x="473" d="M36 272l19 85l461 188l-21 -92l-364 -143l301 -141l-18 -84z" />
<glyph unicode="=" horiz-adv-x="473" d="M57 365l16 75h420l-16 -75h-420zM18 189l17 73h419l-17 -73h-419z" />
<glyph unicode="&#x3e;" horiz-adv-x="473" d="M-6 85l21 92l366 141l-303 143l19 84l378 -188l-19 -85z" />
<glyph unicode="?" horiz-adv-x="372" d="M289 286q-19 -9 -27 -13.5t-19.5 -12.5t-16 -15.5t-4.5 -17.5q0 -11 12 -23l-98 -24q-17 22 -17 47q0 22 7.5 39t24 30t27.5 19.5t33 17.5q15 7 22.5 11t17.5 10.5t14.5 14t4.5 16.5q0 19 -19 30t-50 11q-60 0 -111 -45l-43 81q75 65 173 65q78 0 128.5 -33t50.5 -85 q0 -26 -9.5 -46t-28.5 -35t-33 -23t-39 -19zM71 59q0 17 7 32t18.5 26.5t26.5 18t32 6.5q14 0 27 -5.5t22.5 -15t15 -22.5t5.5 -28q0 -33 -25 -57.5t-59 -24.5q-29 0 -49.5 20.5t-20.5 49.5z" />
<glyph unicode="@" horiz-adv-x="736" d="M52 229q0 98 52 184t138.5 136.5t182.5 50.5q131 0 213.5 -84t82.5 -204q0 -56 -17.5 -102t-45 -73.5t-59.5 -42t-64 -14.5q-40 0 -63.5 20t-27.5 49l-2 6q-25 -35 -61 -55t-74 -20q-67 0 -106 44t-39 114q0 93 64.5 161.5t147.5 68.5q41 0 71.5 -17.5t46.5 -45.5l10 50 h106l-48 -229q-3 -17 -3 -23q0 -21 10 -31.5t25 -10.5q33 0 61 39t28 112q0 112 -71 181.5t-189 69.5q-87 0 -164 -46t-123 -122.5t-46 -163.5q0 -73 34 -132.5t95 -94t136 -34.5q90 0 172 52l20 -29q-92 -59 -195 -59q-128 0 -213 85t-85 210zM453 226l24 110 q-6 11 -15.5 21t-25.5 18.5t-36 8.5q-54 0 -91.5 -41.5t-37.5 -95.5q0 -37 21 -60t57 -23q59 0 104 62z" />
<glyph unicode="A" horiz-adv-x="642" d="M457 0l-16 108h-280l-63 -108h-153l380 627h168l103 -627h-139zM389 512l-166 -288h208z" />
<glyph unicode="B" horiz-adv-x="623" d="M11 0l138 627h305q79 0 124.5 -43.5t45.5 -106.5t-42.5 -110.5t-100.5 -53.5q28 -7 49 -27t31.5 -46t10.5 -54q0 -34 -12.5 -66t-37.5 -59.5t-68.5 -44t-100.5 -16.5h-342zM481 454q0 25 -18.5 42t-46.5 17h-158l-31 -138h169q44 0 64.5 23.5t20.5 55.5zM438 197 q0 28 -19 46t-51 18h-166l-32 -147h172q30 0 52 11.5t33 30.5t11 41z" />
<glyph unicode="C" horiz-adv-x="645" d="M41 270q0 108 50.5 193t133.5 129.5t181 44.5q108 0 178 -49.5t100 -127.5l-128 -44q-19 49 -60.5 76t-95.5 27q-90 0 -155 -69.5t-65 -171.5q0 -74 48.5 -122.5t128.5 -48.5q41 0 81 20t67 53l102 -71q-49 -63 -118.5 -91.5t-138.5 -28.5q-133 0 -221 77.5t-88 203.5z " />
<glyph unicode="D" horiz-adv-x="674" d="M392 627q70 0 131.5 -33t101 -95.5t39.5 -141.5q0 -51 -14 -100t-45 -96t-77 -82.5t-115.5 -57t-154.5 -21.5h-247l138 627h243zM282 118q110 0 176.5 66.5t66.5 164.5q0 69 -44.5 114.5t-113.5 45.5h-109l-87 -391h111z" />
<glyph unicode="E" horiz-adv-x="548" d="M11 0l138 627h444l-26 -115h-309l-30 -136h303l-25 -115h-304l-32 -145h309l-24 -116h-444z" />
<glyph unicode="F" horiz-adv-x="536" d="M11 0l138 627h444l-26 -115h-309l-30 -136h303l-25 -115h-304l-57 -261h-134z" />
<glyph unicode="G" horiz-adv-x="676" d="M41 270q0 158 107 262.5t270 104.5q94 0 160.5 -43t98.5 -109l-123 -53q-17 39 -59.5 63t-94.5 24q-89 0 -154.5 -69.5t-65.5 -171.5q0 -73 48.5 -122t128.5 -49q71 0 127 48l16 76h-167l26 115h300l-55 -243q-46 -54 -111.5 -84t-142.5 -30q-132 0 -220.5 77t-88.5 204z " />
<glyph unicode="H" horiz-adv-x="687" d="M441 0l58 263h-296l-58 -263h-134l138 627h134l-54 -246h296l54 246h134l-138 -627h-134z" />
<glyph unicode="I" horiz-adv-x="257" d="M11 0l138 627h134l-138 -627h-134z" />
<glyph unicode="J" horiz-adv-x="456" d="M-27 59l72 100q8 -11 18.5 -20.5t23 -16.5t28 -11t31.5 -4q44 0 72 26.5t39 74.5l92 419h133l-92 -421q-25 -112 -81.5 -164.5t-153.5 -52.5q-55 0 -104 18t-78 52z" />
<glyph unicode="K" horiz-adv-x="597" d="M391 0l-138 257l-65 -64l-43 -193h-134l138 627h134l-59 -269l273 269h172l-314 -294l193 -333h-157z" />
<glyph unicode="L" horiz-adv-x="491" d="M11 0l138 627h134l-112 -509h264l-25 -118h-399z" />
<glyph unicode="M" horiz-adv-x="803" d="M556 0l101 459l-277 -459h-59l-76 459l-100 -459h-134l138 627h183l64 -399l240 399h193l-138 -627h-135z" />
<glyph unicode="N" horiz-adv-x="685" d="M444 0l-201 445l-98 -445h-134l138 627h138l195 -430l95 430h134l-139 -627h-128z" />
<glyph unicode="O" horiz-adv-x="719" d="M41 270q0 101 48 185.5t131.5 133t185.5 48.5q132 0 219.5 -77t87.5 -203q0 -101 -47 -185.5t-131 -133.5t-185 -49q-133 0 -221 77t-88 204zM574 348q0 77 -49.5 124t-126.5 47q-60 0 -110 -32t-79 -87.5t-29 -121.5q0 -78 50 -124.5t127 -46.5q91 0 154 70t63 171z" />
<glyph unicode="P" horiz-adv-x="586" d="M11 0l138 627h271q88 0 139.5 -50t51.5 -124q0 -30 -8 -60t-27 -61.5t-48 -55.5t-74.5 -39t-101.5 -15h-158l-49 -222h-134zM358 339q35 0 61 13.5t39 36t13 51.5q0 21 -9.5 37t-28 25.5t-41.5 9.5h-134l-38 -173h138z" />
<glyph unicode="Q" horiz-adv-x="719" d="M713 357q0 -89 -37 -165.5t-103 -127.5l32 -51l-107 -52l-29 47q-56 -19 -119 -19q-133 0 -221 77t-88 204q0 101 48 185.5t131.5 133t185.5 48.5q132 0 219.5 -77t87.5 -203zM506 171q68 72 68 177q0 77 -49.5 124t-126.5 47q-60 0 -110 -32t-79 -87.5t-29 -121.5 q0 -78 50 -124.5t127 -46.5q24 0 46 6l-58 93l106 51z" />
<glyph unicode="R" horiz-adv-x="604" d="M371 0l-73 225h-104l-49 -225h-134l138 627h268q80 0 137 -49t57 -128q0 -84 -50.5 -143.5t-128.5 -74.5l87 -232h-148zM359 339q52 0 82 27.5t30 70.5q0 22 -11 39t-29 26.5t-40 9.5h-133l-38 -173h139z" />
<glyph unicode="S" horiz-adv-x="564" d="M-1 105l82 97q33 -44 90.5 -70.5t121.5 -26.5q47 0 70.5 22t23.5 51q0 25 -26.5 42t-80.5 37q-24 8 -39 14t-38 16t-37.5 20t-31.5 24.5t-27 29.5t-16.5 36t-6.5 44q0 76 67 135.5t177 59.5q50 0 96.5 -11.5t86 -34.5t66.5 -55l-83 -93q-31 38 -82 59t-101 21 q-38 0 -62.5 -19.5t-24.5 -46.5q0 -23 26.5 -39.5t80.5 -35.5q23 -9 38.5 -14.5t38.5 -16t38 -20t32.5 -24t27.5 -30t16.5 -35.5t6.5 -43q0 -87 -67 -148t-179 -61q-91 0 -167.5 32t-116.5 84z" />
<glyph unicode="T" horiz-adv-x="547" d="M156 0l112 509h-183l26 118h500l-25 -118h-184l-112 -509h-134z" />
<glyph unicode="U" horiz-adv-x="684" d="M322 -11q-124 0 -191 59t-67 160q0 29 7 65l78 354h136l-78 -355q-7 -24 -7 -51q1 -33 15 -58.5t43.5 -41t71.5 -15.5q130 0 162 148l82 373h136l-83 -376q-11 -48 -26.5 -86t-40 -72t-57 -56.5t-78.5 -35t-103 -12.5z" />
<glyph unicode="V" horiz-adv-x="642" d="M186 0l-103 627h145l68 -482l279 482h159l-380 -627h-168z" />
<glyph unicode="W" horiz-adv-x="862" d="M491 0l-15 431l-204 -431h-142l-42 627h146l10 -453l219 453h105l19 -453l209 453h153l-316 -627h-142z" />
<glyph unicode="X" horiz-adv-x="627" d="M429 0l-114 223l-201 -223h-168l302 330l-149 297h151l102 -208l184 208h168l-285 -313l161 -314h-151z" />
<glyph unicode="Y" horiz-adv-x="606" d="M186 0l57 257l-160 370h144l101 -252l210 252h159l-321 -370l-56 -257h-134z" />
<glyph unicode="Z" horiz-adv-x="556" d="M-11 0l23 108l377 401h-287l25 118h471l-23 -107l-379 -402h297l-27 -118h-477z" />
<glyph unicode="[" horiz-adv-x="263" d="M-47 -179l181 816h203l-17 -80h-117l-146 -656h117l-18 -80h-203z" />
<glyph unicode="\" horiz-adv-x="309" d="M92 646h87l75 -665h-87z" />
<glyph unicode="]" horiz-adv-x="263" d="M-74 -179l18 80h116l146 656h-117l17 80h203l-181 -816h-202z" />
<glyph unicode="^" horiz-adv-x="414" d="M331 313l-50 232l-152 -232h-93l216 314h87l76 -314h-84z" />
<glyph unicode="_" horiz-adv-x="530" d="M-80 -118l19 80h535l-19 -80h-535z" />
<glyph unicode="`" horiz-adv-x="235" d="M217 523l-122 135h110l96 -135h-84z" />
<glyph unicode="a" horiz-adv-x="561" d="M419 517l96 -517h-134l-16 87h-229l-52 -87h-139l323 517h151zM321 406l-126 -213h157z" />
<glyph unicode="b" horiz-adv-x="550" d="M8 0l114 517h262q73 0 116.5 -32.5t43.5 -86.5q0 -49 -32 -89t-85 -48q34 -11 54.5 -39.5t20.5 -61.5q0 -70 -48.5 -115t-132.5 -45h-313zM349 314q28 0 45 17t17 40q0 20 -15.5 32t-41.5 12h-129l-23 -101h147zM307 102q30 0 49.5 17.5t19.5 44.5q0 10 -3.5 18.5 t-10.5 15.5t-17.5 10.5t-23.5 3.5h-141l-25 -110h152z" />
<glyph unicode="c" horiz-adv-x="549" d="M30 225q0 81 41 151t112.5 111t156.5 41q82 0 141 -40t82 -104l-112 -41q-13 34 -45 55t-70 21q-72 0 -125 -54.5t-53 -130.5q0 -62 39.5 -99t101.5 -37q75 0 125 66l93 -57q-37 -52 -95 -85t-130 -33q-118 0 -190 66t-72 170z" />
<glyph unicode="d" horiz-adv-x="588" d="M8 0l114 517h188q111 0 186 -60.5t75 -160.5q0 -41 -10.5 -81t-35.5 -79.5t-62 -69t-95 -48t-129 -18.5h-231zM262 108q45 0 81 16t57 42.5t32.5 57.5t11.5 63q0 56 -39.5 89t-108.5 33h-73l-66 -301h105z" />
<glyph unicode="e" horiz-adv-x="488" d="M8 0l114 517h390l-23 -104h-265l-22 -97h260l-23 -105h-260l-23 -106h265l-22 -105h-391z" />
<glyph unicode="f" horiz-adv-x="478" d="M8 0l114 517h390l-23 -104h-265l-22 -98h260l-23 -105h-260l-46 -210h-125z" />
<glyph unicode="g" horiz-adv-x="579" d="M30 222q0 80 39 150t111.5 113t160.5 43q50 0 93.5 -15.5t75.5 -42.5t50 -63l-110 -49q-17 27 -47.5 44t-69.5 17q-75 0 -124.5 -55.5t-49.5 -130.5q0 -60 41 -97.5t103 -37.5q53 0 89 22l16 74h-124l22 96h246l-51 -231q-93 -70 -204 -70q-114 0 -190.5 63.5 t-76.5 169.5z" />
<glyph unicode="h" horiz-adv-x="611" d="M378 0l47 211h-245l-47 -211h-125l114 517h124l-43 -198h245l44 198h124l-114 -517h-124z" />
<glyph unicode="i" horiz-adv-x="242" d="M8 0l114 517h124l-113 -517h-125z" />
<glyph unicode="j" horiz-adv-x="407" d="M-34 55l71 87q28 -44 81 -44q76 0 94 82l75 337h124l-76 -348q-22 -96 -71.5 -138t-133.5 -42q-113 0 -164 66z" />
<glyph unicode="k" horiz-adv-x="532" d="M332 0l-117 203l-47 -44l-35 -159h-125l114 517h124l-47 -216l229 216h152l-270 -243l170 -274h-148z" />
<glyph unicode="l" horiz-adv-x="440" d="M8 0l114 517h124l-90 -409h228l-24 -108h-352z" />
<glyph unicode="m" horiz-adv-x="710" d="M477 0l77 349l-220 -349h-58l-65 349l-78 -349h-125l114 517h165l60 -321l201 321h167l-113 -517h-125z" />
<glyph unicode="n" horiz-adv-x="609" d="M372 0l-161 359l-78 -359h-125l114 517h134l157 -348l77 348h124l-114 -517h-128z" />
<glyph unicode="o" horiz-adv-x="615" d="M30 227q0 80 39.5 149t109.5 110.5t155 41.5q117 0 189.5 -66t72.5 -172q0 -79 -39.5 -148.5t-109.5 -111t-155 -41.5q-117 0 -189.5 66t-72.5 172zM469 282q0 59 -37.5 98t-100.5 39q-75 0 -124.5 -55.5t-49.5 -128.5q0 -59 37.5 -98t100.5 -39q75 0 124.5 55.5 t49.5 128.5z" />
<glyph unicode="p" horiz-adv-x="520" d="M8 0l114 517h230q82 0 131 -41.5t49 -107.5q0 -50 -23.5 -92.5t-69.5 -69.5t-106 -27h-161l-39 -179h-125zM322 284q38 0 59.5 21.5t21.5 52.5q0 25 -17 40t-49 15h-113l-28 -129h126z" />
<glyph unicode="q" horiz-adv-x="615" d="M596 290q0 -68 -29.5 -129.5t-82.5 -104.5l23 -34l-88 -54l-24 39q-51 -18 -103 -18q-117 0 -189.5 66t-72.5 172q0 80 39.5 149t109.5 110.5t155 41.5q117 0 189.5 -66t72.5 -172zM377 225l44 -70q48 54 48 127q0 59 -37.5 98t-100.5 39q-75 0 -124.5 -55.5 t-49.5 -128.5q0 -59 37.5 -98t100.5 -39q18 0 40 4l-44 68z" />
<glyph unicode="r" horiz-adv-x="538" d="M316 0l-64 179h-80l-39 -179h-125l114 517h230q85 0 133 -41t48 -107q0 -45 -19 -84t-55.5 -65.5t-83.5 -33.5l81 -186h-140zM321 284q25 0 44.5 10.5t28.5 27t9 36.5q0 24 -17 39.5t-47 15.5h-115l-28 -129h125z" />
<glyph unicode="s" horiz-adv-x="485" d="M-12 79l72 90q27 -34 76 -54t106 -20q40 0 58 16t18 40q0 11 -6.5 19.5t-21.5 16t-26.5 12t-36.5 13.5q-21 7 -32 11t-32 12.5t-33 16t-27.5 19.5t-23.5 24.5t-14 30.5t-6 38q0 63 60.5 113.5t151.5 50.5q45 0 88 -11.5t76.5 -31t57.5 -44.5l-73 -84q-26 29 -69.5 47.5 t-85.5 18.5q-33 0 -53.5 -15.5t-20.5 -37.5q0 -12 13.5 -23t29 -17t45.5 -16q31 -10 48 -16t44 -20t41 -29t25.5 -38.5t11.5 -52.5q0 -69 -56 -119t-159 -50q-78 0 -142.5 23t-103.5 67z" />
<glyph unicode="t" horiz-adv-x="456" d="M116 0l89 409h-147l25 108h418l-24 -108h-147l-90 -409h-124z" />
<glyph unicode="u" horiz-adv-x="607" d="M280 -11q-108 0 -168.5 48.5t-60.5 126.5q0 32 6 63l65 290h125l-64 -290q-4 -21 -4 -46q0 -38 30 -60.5t81 -22.5q102 0 129 117l67 302h125l-69 -311q-23 -108 -84 -162.5t-178 -54.5z" />
<glyph unicode="v" horiz-adv-x="561" d="M154 0l-96 517h139l61 -383l230 383h141l-323 -517h-152z" />
<glyph unicode="w" horiz-adv-x="749" d="M414 0l-16 337l-164 -337h-130l-42 517h138l12 -353l176 353h97l21 -354l168 354h139l-270 -517h-129z" />
<glyph unicode="x" horiz-adv-x="548" d="M357 0l-92 182l-172 -182h-148l255 265l-129 252h144l83 -169l157 169h148l-239 -251l138 -266h-145z" />
<glyph unicode="y" horiz-adv-x="531" d="M154 0l47 212l-143 305h138l89 -200l172 200h142l-276 -305l-46 -212h-123z" />
<glyph unicode="z" horiz-adv-x="491" d="M-18 0l20 90l316 318h-246l25 109h418l-19 -90l-316 -318h251l-23 -109h-426z" />
<glyph unicode="{" horiz-adv-x="270" d="M121 -179q-53 0 -91.5 34t-38.5 87q0 16 3 29l37 162q2 11 2 16q0 21 -10 34t-28 13l15 67q50 0 63 63l36 161q17 76 63.5 113t115.5 37h57l-18 -80h-56q-60 0 -75 -69l-41 -183q-17 -70 -62 -84q27 -16 27 -53q0 -17 -3 -32l-36 -164q-2 -11 -2 -18q0 -24 14.5 -38.5 t37.5 -14.5h51l-18 -80h-43z" />
<glyph unicode="|" horiz-adv-x="203" d="M81 -19v665h80v-665h-80z" />
<glyph unicode="}" horiz-adv-x="270" d="M149 637q53 0 91.5 -34t38.5 -86q0 -18 -4 -29l-35 -162q-2 -11 -2 -17q0 -20 10 -33t26 -13l-15 -67q-49 0 -63 -63l-35 -161q-12 -51 -37.5 -85t-60.5 -50t-81 -16h-57l18 80h56q60 0 75 70l42 183q15 70 61 84q-28 15 -28 52q0 17 4 32l36 165q2 11 2 18q0 15 -7 27 t-18.5 18.5t-26.5 6.5h-52l19 80h43z" />
<glyph unicode="~" horiz-adv-x="479" d="M540 618q-49 -231 -177 -231q-24 0 -41 7.5t-26.5 16.5t-16 26t-8.5 28t-5 30q-3 21 -5 30.5t-9 18.5t-18 9q-27 0 -53.5 -49.5t-39.5 -116.5l-80 10q47 229 178 229q19 0 34.5 -4.5t25 -13.5t16 -17.5t11 -23.5t6 -24t4.5 -25q1 -14 3 -23t5.5 -18t9.5 -13t14 -4 q27 0 53.5 50t40.5 117z" />
<glyph unicode="&#xa1;" horiz-adv-x="240" d="M245 458q0 -34 -24.5 -58.5t-58.5 -24.5q-14 0 -27 5.5t-22 15t-14.5 22.5t-5.5 28q0 33 25 57.5t59 24.5q19 0 34.5 -9.5t24.5 -25.5t9 -35zM92 324h96l-53 -324h-130z" />
<glyph unicode="&#xa2;" horiz-adv-x="549" d="M321 102q60 8 103 62l93 -57q-39 -53 -96 -85t-125 -33l-15 -67h-85l16 75q-84 21 -133 82.5t-49 145.5q0 121 87 210t213 93l13 58h86l-15 -67q27 -8 51 -21t42.5 -30.5t33 -39t22.5 -44.5l-112 -41q-18 43 -62 62zM158 234q0 -44 21 -76.5t58 -46.5l68 304 q-61 -11 -104 -62.5t-43 -118.5z" />
<glyph unicode="&#xa3;" horiz-adv-x="423" d="M279 86q33 0 61 29l28 -87q-13 -13 -24.5 -20.5t-30 -12t-43.5 -4.5q-37 0 -89.5 15t-80.5 15q-37 0 -82 -28l-23 76q29 11 52 28t37.5 40.5t14.5 48.5q0 12 -3 25h-86l14 64h49q-15 41 -15 74q0 75 61.5 126.5t139.5 51.5q66 0 116.5 -27.5t67.5 -76.5l-102 -40 q-7 28 -27.5 42t-46.5 14q-37 0 -62 -28t-25 -73q0 -27 15 -63h117l-15 -64h-87q0 -27 -21 -61t-40 -45q10 4 21 4q24 0 57.5 -11.5t51.5 -11.5z" />
<glyph unicode="&#xa4;" horiz-adv-x="585" d="M535 431q21 -42 21 -93q0 -98 -68 -171l52 -65l-79 -64l-56 69q-50 -24 -111 -24q-79 0 -138 36l-92 -74l-62 78l86 70q-21 41 -21 92q0 100 66 173l-52 68l80 64l55 -72q52 24 113 24q79 0 140 -38l89 72l62 -74zM189 292q0 -29 12 -51.5t37.5 -37t61.5 -14.5 q28 0 53.5 11.5t43 31t27.5 45t10 53.5q0 46 -29 75.5t-84 29.5q-58 0 -95 -42t-37 -101z" />
<glyph unicode="&#xa5;" horiz-adv-x="531" d="M599 517l-219 -242h135l-14 -63h-178l-10 -48h178l-14 -62h-178l-22 -102h-123l23 102h-183l14 62h182l11 48h-182l15 63h138l-114 242h138l89 -200l172 200h142z" />
<glyph unicode="&#xa6;" horiz-adv-x="203" d="M81 349v297h80v-297h-80zM81 -19v297h80v-297h-80z" />
<glyph unicode="&#xa7;" horiz-adv-x="454" d="M330 174q56 -32 56 -93q0 -44 -23.5 -80t-67.5 -56.5t-100 -20.5q-70 0 -129 20.5t-96 57.5l67 71q26 -30 68.5 -48t88.5 -18q32 0 52.5 16.5t20.5 39.5q0 11 -6 20.5t-20.5 17.5t-25.5 12.5t-35 12.5q-26 10 -39.5 15.5t-36 17.5t-34 24t-21 31.5t-9.5 42.5q0 46 31 81 t90 51q-33 15 -51.5 40.5t-18.5 59.5q0 64 52.5 105.5t134.5 41.5q130 0 200 -68l-62 -66q-21 24 -57.5 37.5t-75.5 13.5q-23 0 -40 -7t-25 -18.5t-8 -25.5q0 -11 6 -20t20.5 -16t25.5 -11.5t34 -11.5l40.5 -15t36.5 -17t34.5 -24t21 -31.5t9.5 -42.5q0 -47 -29.5 -84.5 t-78.5 -54.5zM250 350q-45 -6 -67 -25.5t-22 -46.5q0 -23 21 -38.5t61 -27.5q36 9 54 29.5t18 44.5q0 41 -65 64z" />
<glyph unicode="&#xa8;" horiz-adv-x="397" d="M171 522q-24 0 -40 16t-16 40q0 28 21.5 49.5t49.5 21.5q25 0 41 -16.5t16 -40.5q0 -27 -22 -48.5t-50 -21.5zM369 522q-15 0 -28 7t-20.5 20t-7.5 29q0 28 22 49.5t50 21.5q24 0 40.5 -16.5t16.5 -40.5q0 -27 -22 -48.5t-51 -21.5z" />
<glyph unicode="&#xa9;" horiz-adv-x="731" d="M384 -10q-88 0 -162.5 43.5t-118 118t-43.5 162.5t43.5 163t118 118t162.5 43t163 -43t118.5 -118t43.5 -163t-43.5 -162.5t-118.5 -118t-163 -43.5zM383.5 604q-119.5 0 -204.5 -85t-85 -205q0 -119 85 -204.5t205 -85.5q58 0 112 23t93 62t62.5 92.5t23.5 112.5 q0 120 -86 205t-205.5 85zM499 166q-61 -50 -131 -50q-81 0 -130 49t-49 124q0 94 66 158.5t153 64.5q104 0 150 -75l-35 -25q-35 63 -117 63q-66 0 -120 -53.5t-54 -131.5q0 -28 9.5 -52.5t27 -43.5t43.5 -30t57 -11q61 0 108 45z" />
<glyph unicode="&#xaa;" horiz-adv-x="389" d="M424 602l-66 -296h-87l7 37q-37 -44 -88 -44q-50 0 -84 32.5t-34 91.5q0 78 46.5 132t112.5 54t98 -44l8 37h87zM163 434q0 -22 8.5 -37t22.5 -22t33 -7q35 0 65 32l26 114q-21 26 -65 26q-38 0 -64 -31.5t-26 -74.5z" />
<glyph unicode="&#xab;" horiz-adv-x="495" d="M140 59l-113 169l188 167h114l-192 -171l109 -165h-106zM319 59l-113 169l187 167h115l-192 -171l109 -165h-106z" />
<glyph unicode="&#xac;" horiz-adv-x="484" d="M437 189h-76l39 176h-343l16 75h420z" />
<glyph unicode="&#xad;" horiz-adv-x="282" d="M16 177l23 101h225l-22 -101h-226z" />
<glyph unicode="&#xae;" horiz-adv-x="464" d="M277 238q-82 0 -140 58.5t-58 140.5q0 83 58.5 141t140.5 58q83 0 141.5 -58t58.5 -141q0 -82 -59 -140.5t-142 -58.5zM277 606q-70 0 -119 -49t-49 -120q0 -70 49 -119.5t119 -49.5q46 0 85.5 22.5t62 61.5t22.5 85q0 70 -50 119.5t-120 49.5zM309 322l-39 91h-42 l-19 -91h-32l50 229h86q19 0 34.5 -8t24.5 -21.5t9 -30.5q0 -32 -23.5 -54.5t-51.5 -22.5l41 -92h-38zM306 523h-53l-19 -81h61q23 0 37.5 13t14.5 33q0 16 -10.5 25.5t-30.5 9.5z" />
<glyph unicode="&#xaf;" horiz-adv-x="341" d="M80 528l16 68h316l-17 -68h-315z" />
<glyph unicode="&#xb0;" horiz-adv-x="292" d="M207 383q-53 0 -89.5 36.5t-36.5 89t37 90t89 37.5q53 0 90.5 -37.5t37.5 -90t-37.5 -89t-90.5 -36.5zM207 572q-25 0 -42.5 -18.5t-17.5 -44.5t17 -44t42 -18q26 0 45 18t19 44t-18.5 44.5t-44.5 18.5z" />
<glyph unicode="&#xb1;" horiz-adv-x="473" d="M294 306l-42 -191h-82l42 191h-169l17 74h169l42 185h81l-42 -185h169l-16 -74h-169zM-24 0l16 73h420l-16 -73h-420z" />
<glyph unicode="&#xb2;" d="M80 396l16 69q146 85 194.5 123t48.5 72q0 22 -17.5 33.5t-46.5 11.5q-20 0 -40 -5.5t-36 -14.5t-28 -20l-38 60q28 25 67.5 38.5t78.5 13.5q67 0 110 -29t43 -80q0 -50 -49.5 -96t-154.5 -104h163l-16 -72h-295z" />
<glyph unicode="&#xb3;" d="M254 389q-57 0 -102 18.5t-66 50.5l55 55q38 -51 108 -51q31 0 47 14t16 35q0 19 -22.5 30t-61.5 11q-25 0 -31 -1l15 71q21 -2 62 -2q13 0 23.5 2t19 6t14 9.5t8 12t2.5 15.5q0 19 -21.5 29.5t-53.5 10.5q-56 0 -97 -34l-31 57q27 22 63.5 35.5t72.5 13.5 q72 0 115 -26.5t43 -73.5q0 -18 -6.5 -34t-19.5 -29.5t-33 -21.5t-44 -10q32 -7 52.5 -28t20.5 -53q0 -44 -40.5 -78t-107.5 -34z" />
<glyph unicode="&#xb4;" horiz-adv-x="235" d="M149 523h-86l156 135h112z" />
<glyph unicode="&#xb5;" horiz-adv-x="555" d="M87 -173h-120l142 627h120l-62 -274q-9 -42 9 -64t56 -22q61 0 114 53l68 307h120l-71 -318q-2 -10 -1 -17.5t5 -13t10.5 -8t15.5 -2.5q7 0 18 2l-15 -102q-28 -6 -57 -6q-99 0 -103 81q-30 -37 -68.5 -59t-78.5 -22q-20 0 -36.5 7t-22.5 18z" />
<glyph unicode="&#xb6;" horiz-adv-x="422" d="M247 -94l147 663h-73l-147 -663h-59l88 398q-53 0 -91 41.5t-38 104.5q0 69 53 123t130 54h209l-160 -721h-59z" />
<glyph unicode="&#xb7;" horiz-adv-x="240" d="M44 224q0 34 24.5 58t59.5 24q28 0 48 -20.5t20 -49.5q0 -33 -24.5 -57.5t-58.5 -24.5q-14 0 -27 5.5t-22 15t-14.5 22.5t-5.5 27z" />
<glyph unicode="&#xb8;" horiz-adv-x="207" d="M-84 -146l33 46q34 -33 79 -33q15 0 25.5 3.5t16 11t5.5 17.5q0 23 -28 23q-16 0 -27 -13l-38 24l45 77h59l-36 -58q13 9 29 9q24 0 39.5 -15.5t15.5 -42.5q0 -39 -30 -63t-76 -24q-35 0 -65 11t-47 27z" />
<glyph unicode="&#xb9;" horiz-adv-x="268" d="M158 396l56 256l-76 -62l-40 56l156 126h78l-83 -376h-91z" />
<glyph unicode="&#xba;" horiz-adv-x="380" d="M71 436q0 73 53.5 123t125.5 50q70 0 111 -38t41 -99q0 -73 -53 -123t-125 -50q-69 0 -111 38.5t-42 98.5zM313 473q0 30 -17.5 47.5t-47.5 17.5q-40 0 -63.5 -32t-23.5 -73q0 -20 8 -34.5t22.5 -22.5t35.5 -8q40 0 63 32t23 73z" />
<glyph unicode="&#xbb;" horiz-adv-x="495" d="M179 395l112 -169l-188 -167h-113l191 171l-109 165h107zM357 395l113 -169l-188 -167h-114l192 171l-109 165h106z" />
<glyph unicode="&#xbc;" horiz-adv-x="761" d="M126 251l56 257l-76 -62l-40 55l156 126h78l-83 -376h-91zM145 0h-72l539 627h72zM656 81l-18 -81h-89l18 81h-185l14 61l200 234h125l-49 -225h49l-15 -70h-50zM614 296l-126 -145h94z" />
<glyph unicode="&#xbd;" horiz-adv-x="808" d="M126 251l56 257l-76 -62l-40 55l156 126h78l-83 -376h-91zM145 0h-72l539 627h72zM428 0l16 70q146 84 194.5 122t48.5 72q0 22 -18 33.5t-46 11.5q-30 0 -58.5 -11.5t-45.5 -28.5l-38 60q19 17 43.5 29t50.5 18t52 6q66 0 109.5 -29.5t43.5 -79.5t-50 -96t-154 -105h163 l-16 -72h-295z" />
<glyph unicode="&#xbe;" horiz-adv-x="848" d="M222 244q-57 0 -102 18.5t-66 50.5l55 55q38 -51 108 -51q31 0 47 14t16 36q0 12 -10 21t-29 14t-45 5q-25 0 -31 -1l15 72q21 -2 62 -2q32 0 49.5 11.5t17.5 32.5q0 13 -10.5 22.5t-27.5 13.5t-37 4q-56 0 -97 -34l-31 57q27 22 63.5 36t73.5 14q71 0 114 -27t43 -74 q0 -37 -27.5 -64.5t-75.5 -30.5q32 -7 52.5 -28t20.5 -53q0 -28 -16.5 -53t-51.5 -42t-80 -17zM232 0h-71l538 627h73zM744 81l-18 -81h-90l18 81h-185l14 61l200 234h125l-48 -225h48l-15 -70h-49zM701 296l-126 -145h94z" />
<glyph unicode="&#xbf;" horiz-adv-x="372" d="M309 458q0 -35 -24 -59t-58 -24q-15 0 -27.5 5.5t-22 15t-15 22.5t-5.5 28q0 33 25 57t59 24q28 0 48 -20.5t20 -48.5zM93 232q33 15 49.5 27.5t16.5 30.5q0 11 -12 23l98 24q17 -23 17 -48q0 -22 -7.5 -39t-24 -30t-27.5 -19t-33 -17q-21 -10 -30 -15t-18.5 -15.5 t-9.5 -22.5q0 -19 18.5 -29.5t49.5 -10.5q62 0 111 44l43 -80q-74 -66 -172 -66q-79 0 -129 33t-50 85q0 26 9 46t28.5 35.5t33 23.5t39.5 20z" />
<glyph unicode="&#xc0;" horiz-adv-x="642" d="M380 680l-122 135h110l95 -135h-83zM457 0l-16 108h-280l-63 -108h-153l380 627h168l103 -627h-139zM389 512l-166 -288h208z" />
<glyph unicode="&#xc1;" horiz-adv-x="642" d="M462 680h-86l156 135h112zM457 0l-16 108h-280l-63 -108h-153l380 627h168l103 -627h-139zM389 512l-166 -288h208z" />
<glyph unicode="&#xc2;" horiz-adv-x="642" d="M492 680l-51 83l-85 -83h-75l116 135h108l58 -135h-71zM457 0l-16 108h-280l-63 -108h-153l380 627h168l103 -627h-139zM389 512l-166 -288h208z" />
<glyph unicode="&#xc3;" horiz-adv-x="642" d="M417 714q-9 10 -13 14t-13 9t-18 5q-29 0 -41 -59h-64q12 63 39 94.5t75 31.5q38 0 69 -36q5 -6 8 -8.5t7.5 -7t8.5 -6.5t9.5 -3.5t10.5 -1.5q29 0 43 58h64q-15 -63 -41.5 -94.5t-73.5 -31.5q-17 0 -31 6t-21 12.5t-18 17.5zM457 0l-16 108h-280l-63 -108h-153l380 627 h168l103 -627h-139zM389 512l-166 -288h208z" />
<glyph unicode="&#xc4;" horiz-adv-x="642" d="M331 679q-24 0 -40.5 16t-16.5 40q0 28 22 49.5t50 21.5q25 0 41 -16.5t16 -40.5q0 -27 -22 -48.5t-50 -21.5zM529 679q-24 0 -40 16t-16 40q0 28 22 49.5t50 21.5q24 0 40.5 -16.5t16.5 -40.5q0 -18 -10.5 -34.5t-27 -26t-35.5 -9.5zM457 0l-16 108h-280l-63 -108h-153 l380 627h168l103 -627h-139zM389 512l-166 -288h208z" />
<glyph unicode="&#xc5;" horiz-adv-x="642" d="M340 746q0 44 32.5 76t75.5 32q40 0 65 -24.5t25 -65.5q0 -44 -32 -76t-76 -32q-40 0 -65 25t-25 65zM482 759q0 8 -2.5 15.5t-7.5 13t-12.5 8.5t-15.5 3q-13 0 -24 -6.5t-17.5 -17.5t-6.5 -23q0 -18 11 -29t28 -11q19 0 33 14t14 33zM457 0l-16 108h-280l-63 -108h-153 l380 627h168l103 -627h-139zM389 512l-166 -288h208z" />
<glyph unicode="&#xc6;" horiz-adv-x="909" d="M376 0l24 108h-221l-88 -108h-150l520 627h497l-26 -115h-309l-30 -136h303l-26 -115h-302l-33 -145h310l-25 -116h-444zM488 511l-222 -287h160z" />
<glyph unicode="&#xc7;" horiz-adv-x="645" d="M357 107q41 0 81 20t67 53l102 -71q-49 -63 -118.5 -91.5t-138.5 -28.5q-17 0 -26 1l-23 -38q13 9 29 9q24 0 39.5 -15.5t15.5 -42.5q0 -39 -30 -63t-76 -24q-35 0 -65 11t-47 27l33 46q34 -33 79 -33q22 0 34.5 8.5t12.5 23.5q0 23 -28 23q-16 0 -27 -13l-38 24l38 64 q-67 14 -118.5 50.5t-81.5 94t-30 128.5q0 108 50.5 193t133.5 129.5t181 44.5q108 0 178 -49.5t100 -127.5l-128 -44q-19 49 -60.5 76t-95.5 27q-90 0 -155 -69.5t-65 -171.5q0 -74 48.5 -122.5t128.5 -48.5z" />
<glyph unicode="&#xc8;" horiz-adv-x="548" d="M348 680l-122 135h110l95 -135h-83zM11 0l138 627h444l-26 -115h-309l-30 -136h303l-25 -115h-304l-32 -145h309l-24 -116h-444z" />
<glyph unicode="&#xc9;" horiz-adv-x="548" d="M430 680h-86l156 135h112zM11 0l138 627h444l-26 -115h-309l-30 -136h303l-25 -115h-304l-32 -145h309l-24 -116h-444z" />
<glyph unicode="&#xca;" horiz-adv-x="548" d="M460 680l-51 83l-85 -83h-75l116 135h108l58 -135h-71zM11 0l138 627h444l-26 -115h-309l-30 -136h303l-25 -115h-304l-32 -145h309l-24 -116h-444z" />
<glyph unicode="&#xcb;" horiz-adv-x="548" d="M299 679q-24 0 -40 16t-16 40q0 28 21.5 49.5t49.5 21.5q25 0 41 -16.5t16 -40.5q0 -27 -22 -48.5t-50 -21.5zM497 679q-24 0 -40 16t-16 40q0 28 22 49.5t50 21.5q24 0 40.5 -16.5t16.5 -40.5q0 -18 -10.5 -34.5t-27 -26t-35.5 -9.5zM11 0l138 627h444l-26 -115h-309 l-30 -136h303l-25 -115h-304l-32 -145h309l-24 -116h-444z" />
<glyph unicode="&#xcc;" horiz-adv-x="257" d="M188 680l-122 135h110l96 -135h-84zM11 0l138 627h134l-138 -627h-134z" />
<glyph unicode="&#xcd;" horiz-adv-x="257" d="M270 680h-86l156 135h112zM11 0l138 627h134l-138 -627h-134z" />
<glyph unicode="&#xce;" horiz-adv-x="257" d="M300 680l-51 83l-85 -83h-75l116 135h108l58 -135h-71zM11 0l138 627h134l-138 -627h-134z" />
<glyph unicode="&#xcf;" horiz-adv-x="257" d="M139 679q-24 0 -40 16t-16 40q0 28 21.5 49.5t49.5 21.5q25 0 41.5 -16.5t16.5 -40.5q0 -27 -22.5 -48.5t-50.5 -21.5zM337 679q-24 0 -40 16t-16 40q0 28 22 49.5t50 21.5q24 0 40.5 -16.5t16.5 -40.5q0 -27 -22 -48.5t-51 -21.5zM11 0l138 627h134l-138 -627h-134z" />
<glyph unicode="&#xd0;" horiz-adv-x="697" d="M415 627q70 0 132 -33t101 -95.5t39 -141.5q0 -51 -13.5 -100t-45 -96t-77.5 -82.5t-116 -57t-155 -21.5h-246l57 259h-77l25 109h77l56 259h243zM305 118q55 0 101.5 18.5t77 50t47.5 73.5t17 89q0 69 -44.5 114.5t-113.5 45.5h-110l-31 -141h139l-23 -109h-140 l-31 -141h111z" />
<glyph unicode="&#xd1;" horiz-adv-x="685" d="M439 714q-9 10 -13.5 14t-13 9t-17.5 5q-29 0 -42 -59h-63q12 63 39 94.5t74 31.5q39 0 70 -36q8 -10 13 -14t13.5 -8.5t17.5 -4.5q29 0 42 58h64q-14 -63 -40.5 -94.5t-73.5 -31.5q-17 0 -31 6t-21.5 12.5t-17.5 17.5zM444 0l-201 445l-98 -445h-134l138 627h138 l195 -430l95 430h134l-139 -627h-128z" />
<glyph unicode="&#xd2;" horiz-adv-x="719" d="M416 680l-122 135h110l96 -135h-84zM41 270q0 101 48 185.5t131.5 133t185.5 48.5q132 0 219.5 -77t87.5 -203q0 -101 -47 -185.5t-131 -133.5t-185 -49q-133 0 -221 77t-88 204zM574 348q0 77 -49.5 124t-126.5 47q-60 0 -110 -32t-79 -87.5t-29 -121.5q0 -78 50 -124.5 t127 -46.5q91 0 154 70t63 171z" />
<glyph unicode="&#xd3;" horiz-adv-x="719" d="M498 680h-85l156 135h112zM41 270q0 101 48 185.5t131.5 133t185.5 48.5q132 0 219.5 -77t87.5 -203q0 -101 -47 -185.5t-131 -133.5t-185 -49q-133 0 -221 77t-88 204zM574 348q0 77 -49.5 124t-126.5 47q-60 0 -110 -32t-79 -87.5t-29 -121.5q0 -78 50 -124.5 t127 -46.5q91 0 154 70t63 171z" />
<glyph unicode="&#xd4;" horiz-adv-x="719" d="M528 680l-50 83l-85 -83h-75l115 135h108l59 -135h-72zM41 270q0 101 48 185.5t131.5 133t185.5 48.5q132 0 219.5 -77t87.5 -203q0 -101 -47 -185.5t-131 -133.5t-185 -49q-133 0 -221 77t-88 204zM574 348q0 77 -49.5 124t-126.5 47q-60 0 -110 -32t-79 -87.5 t-29 -121.5q0 -78 50 -124.5t127 -46.5q91 0 154 70t63 171z" />
<glyph unicode="&#xd5;" horiz-adv-x="719" d="M454 714q-6 7 -8 9t-7.5 7t-9 6.5t-8.5 3.5t-11 2q-29 0 -42 -59h-63q12 63 39 94.5t74 31.5q39 0 70 -36q9 -10 13.5 -14t13 -8.5t17.5 -4.5q29 0 42 58h64q-14 -63 -40.5 -94.5t-73.5 -31.5q-17 0 -31 6t-21.5 12.5t-17.5 17.5zM41 270q0 101 48 185.5t131.5 133 t185.5 48.5q132 0 219.5 -77t87.5 -203q0 -101 -47 -185.5t-131 -133.5t-185 -49q-133 0 -221 77t-88 204zM574 348q0 77 -49.5 124t-126.5 47q-60 0 -110 -32t-79 -87.5t-29 -121.5q0 -78 50 -124.5t127 -46.5q91 0 154 70t63 171z" />
<glyph unicode="&#xd6;" horiz-adv-x="719" d="M368 679q-24 0 -40.5 16t-16.5 40q0 28 22 49.5t50 21.5q24 0 40.5 -16.5t16.5 -40.5q0 -27 -22 -48.5t-50 -21.5zM566 679q-24 0 -40.5 16t-16.5 40q0 28 22 49.5t51 21.5q24 0 40 -16.5t16 -40.5q0 -27 -22 -48.5t-50 -21.5zM41 270q0 101 48 185.5t131.5 133 t185.5 48.5q132 0 219.5 -77t87.5 -203q0 -101 -47 -185.5t-131 -133.5t-185 -49q-133 0 -221 77t-88 204zM574 348q0 77 -49.5 124t-126.5 47q-60 0 -110 -32t-79 -87.5t-29 -121.5q0 -78 50 -124.5t127 -46.5q91 0 154 70t63 171z" />
<glyph unicode="&#xd7;" horiz-adv-x="473" d="M248 261l-163 -134l-46 56l165 136l-102 129l60 49l99 -130l166 134l46 -56l-166 -137l101 -129l-58 -47z" />
<glyph unicode="&#xd8;" horiz-adv-x="719" d="M727 627l-83 -85q69 -75 69 -185q0 -101 -47 -185.5t-131 -133.5t-185 -49q-114 0 -195 56l-45 -45h-96l90 91q-63 75 -63 179q0 101 48 185.5t131.5 133t185.5 48.5q105 0 185 -50l40 40h96zM180 278q0 -50 22 -87l296 302q-44 26 -100 26q-60 0 -110 -32t-79 -87.5 t-29 -121.5zM574 348q0 56 -27 97l-300 -305q46 -33 110 -33q91 0 154 70t63 171z" />
<glyph unicode="&#xd9;" horiz-adv-x="684" d="M400 680l-123 135h110l96 -135h-83zM322 -11q-124 0 -191 59t-67 160q0 29 7 65l78 354h136l-78 -355q-7 -24 -7 -51q1 -33 15 -58.5t43.5 -41t71.5 -15.5q130 0 162 148l82 373h136l-83 -376q-11 -48 -26.5 -86t-40 -72t-57 -56.5t-78.5 -35t-103 -12.5z" />
<glyph unicode="&#xda;" horiz-adv-x="684" d="M481 680h-85l156 135h112zM322 -11q-124 0 -191 59t-67 160q0 29 7 65l78 354h136l-78 -355q-7 -24 -7 -51q1 -33 15 -58.5t43.5 -41t71.5 -15.5q130 0 162 148l82 373h136l-83 -376q-11 -48 -26.5 -86t-40 -72t-57 -56.5t-78.5 -35t-103 -12.5z" />
<glyph unicode="&#xdb;" horiz-adv-x="684" d="M511 680l-50 83l-85 -83h-75l115 135h109l58 -135h-72zM322 -11q-124 0 -191 59t-67 160q0 29 7 65l78 354h136l-78 -355q-7 -24 -7 -51q1 -33 15 -58.5t43.5 -41t71.5 -15.5q130 0 162 148l82 373h136l-83 -376q-11 -48 -26.5 -86t-40 -72t-57 -56.5t-78.5 -35 t-103 -12.5z" />
<glyph unicode="&#xdc;" horiz-adv-x="684" d="M351 679q-24 0 -40.5 16t-16.5 40q0 28 22 49.5t50 21.5q24 0 40.5 -16.5t16.5 -40.5q0 -27 -22 -48.5t-50 -21.5zM549 679q-24 0 -40 16t-16 40q0 18 10 34.5t26.5 26.5t35.5 10q24 0 40 -16.5t16 -40.5q0 -27 -22 -48.5t-50 -21.5zM322 -11q-124 0 -191 59t-67 160 q0 29 7 65l78 354h136l-78 -355q-7 -24 -7 -51q1 -33 15 -58.5t43.5 -41t71.5 -15.5q130 0 162 148l82 373h136l-83 -376q-11 -48 -26.5 -86t-40 -72t-57 -56.5t-78.5 -35t-103 -12.5z" />
<glyph unicode="&#xdd;" horiz-adv-x="606" d="M444 680h-86l156 135h112zM186 0l57 257l-160 370h144l101 -252l210 252h159l-321 -370l-56 -257h-134z" />
<glyph unicode="&#xde;" horiz-adv-x="586" d="M11 0l138 627h134l-22 -102h147q53 0 94.5 -23.5t63.5 -63t22 -86.5q0 -40 -14.5 -79t-43.5 -74t-81 -56t-119 -21h-158l-27 -122h-134zM449 337q0 32 -22 53t-58 21h-134l-38 -173h140q34 0 60.5 14t39 36.5t12.5 48.5z" />
<glyph unicode="&#xdf;" horiz-adv-x="970" d="M-12 79l72 90q27 -34 76 -54t106 -20q40 0 58 16t18 40q0 11 -6.5 19.5t-21.5 16t-26.5 12t-36.5 13.5q-21 7 -32 11t-32 12.5t-33 16t-27.5 19.5t-23.5 24.5t-14 30.5t-6 38q0 63 60.5 113.5t151.5 50.5q45 0 88 -11.5t76.5 -31t57.5 -44.5l-73 -84q-26 29 -69.5 47.5 t-85.5 18.5q-33 0 -53.5 -15.5t-20.5 -37.5q0 -12 13.5 -23t29 -17t45.5 -16q31 -10 48 -16t44 -20t41 -29t25.5 -38.5t11.5 -52.5q0 -69 -56 -119t-159 -50q-78 0 -142.5 23t-103.5 67zM473 79l72 90q27 -34 76 -54t106 -20q40 0 58 16t18 40q0 11 -6.5 19.5t-21.5 16 t-26.5 12t-34.5 12.5q-1 0 -1 1q-22 7 -33 11t-32 12.5t-33 16t-27.5 19.5t-23.5 24.5t-14 30.5t-6 38q0 63 60.5 113.5t151.5 50.5q67 0 126.5 -24t95.5 -63l-73 -84q-26 29 -69.5 47.5t-85.5 18.5q-33 0 -53.5 -15.5t-20.5 -37.5q0 -12 13.5 -23t29 -17t45.5 -16 q31 -10 48 -16t44 -20t41 -29t25.5 -38.5t11.5 -52.5q0 -69 -56 -119t-159 -50q-51 0 -97 10t-84.5 30.5t-64.5 49.5z" />
<glyph unicode="&#xe0;" horiz-adv-x="561" d="M314 570l-122 135h110l96 -135h-84zM419 517l96 -517h-134l-16 87h-229l-52 -87h-139l323 517h151zM321 406l-126 -213h157z" />
<glyph unicode="&#xe1;" horiz-adv-x="561" d="M396 570h-86l156 135h112zM419 517l96 -517h-134l-16 87h-229l-52 -87h-139l323 517h151zM321 406l-126 -213h157z" />
<glyph unicode="&#xe2;" horiz-adv-x="561" d="M426 570l-51 83l-85 -83h-75l116 135h108l58 -135h-71zM419 517l96 -517h-134l-16 87h-229l-52 -87h-139l323 517h151zM321 406l-126 -213h157z" />
<glyph unicode="&#xe3;" horiz-adv-x="561" d="M352 604q-8 8 -10.5 11t-9 8t-12.5 7t-13 2q-29 0 -41 -59h-64q8 42 22 69t37 42t55 15q39 0 69 -36q9 -10 13.5 -14t13 -8.5t18.5 -4.5q28 0 42 58h64q-14 -63 -41 -94.5t-74 -31.5q-17 0 -31 6t-21 12.5t-17 17.5zM419 517l96 -517h-134l-16 87h-229l-52 -87h-139 l323 517h151zM321 406l-126 -213h157z" />
<glyph unicode="&#xe4;" horiz-adv-x="561" d="M265 569q-16 0 -29 7t-20 20t-7 29q0 28 21.5 49.5t49.5 21.5q25 0 41 -16.5t16 -40.5q0 -27 -22 -48.5t-50 -21.5zM463 569q-15 0 -28 7t-20.5 20t-7.5 29q0 28 22 49.5t50 21.5q24 0 40.5 -16.5t16.5 -40.5q0 -27 -22 -48.5t-51 -21.5zM419 517l96 -517h-134l-16 87 h-229l-52 -87h-139l323 517h151zM321 406l-126 -213h157z" />
<glyph unicode="&#xe5;" horiz-adv-x="561" d="M274 636q0 29 15 54t40 39.5t54 14.5q40 0 64.5 -24.5t24.5 -65.5q0 -44 -32 -76t-76 -32q-40 0 -65 25t-25 65zM416 649q0 8 -2.5 15.5t-7.5 13t-12 8.5t-16 3q-13 0 -24 -6.5t-17.5 -17.5t-6.5 -23q0 -18 11 -29t28 -11q19 0 33 14t14 33zM419 517l96 -517h-134l-16 87 h-229l-52 -87h-139l323 517h151zM321 406l-126 -213h157z" />
<glyph unicode="&#xe6;" horiz-adv-x="794" d="M314 0l19 87h-179l-71 -87h-139l435 517h439l-23 -104h-267l-21 -98h260l-23 -104h-260l-23 -106h267l-24 -105h-390zM403 406l-168 -213h121z" />
<glyph unicode="&#xe7;" horiz-adv-x="549" d="M299 98q75 0 125 66l93 -57q-37 -52 -95 -85t-130 -33h-8l-24 -37q14 9 30 9q23 0 39 -15.5t16 -42.5q0 -39 -30 -63t-76 -24q-36 0 -66 11t-46 27l33 46q34 -33 79 -33q22 0 34.5 8.5t12.5 23.5q0 23 -28 23q-16 0 -28 -13l-37 24l35 61q-91 17 -144.5 79.5t-53.5 151.5 q0 81 41 151t112.5 111t156.5 41q82 0 141 -40t82 -104l-112 -41q-13 34 -45 55t-70 21q-72 0 -125 -54.5t-53 -130.5q0 -62 39.5 -99t101.5 -37z" />
<glyph unicode="&#xe8;" horiz-adv-x="488" d="M290 570l-122 135h110l96 -135h-84zM8 0l114 517h390l-23 -104h-265l-22 -97h260l-23 -105h-260l-23 -106h265l-22 -105h-391z" />
<glyph unicode="&#xe9;" horiz-adv-x="488" d="M372 570h-85l156 135h112zM8 0l114 517h390l-23 -104h-265l-22 -97h260l-23 -105h-260l-23 -106h265l-22 -105h-391z" />
<glyph unicode="&#xea;" horiz-adv-x="488" d="M402 570l-50 83l-85 -83h-75l115 135h108l59 -135h-72zM8 0l114 517h390l-23 -104h-265l-22 -97h260l-23 -105h-260l-23 -106h265l-22 -105h-391z" />
<glyph unicode="&#xeb;" horiz-adv-x="488" d="M242 569q-16 0 -29 7t-20.5 20t-7.5 29q0 28 22 49.5t50 21.5q24 0 40.5 -16.5t16.5 -40.5q0 -27 -22 -48.5t-50 -21.5zM440 569q-16 0 -29 7t-20 20t-7 29q0 28 22 49.5t50 21.5q24 0 40 -16.5t16 -40.5q0 -27 -22 -48.5t-50 -21.5zM8 0l114 517h390l-23 -104h-265 l-22 -97h260l-23 -105h-260l-23 -106h265l-22 -105h-391z" />
<glyph unicode="&#xec;" horiz-adv-x="242" d="M155 570l-122 135h110l96 -135h-84zM8 0l114 517h124l-113 -517h-125z" />
<glyph unicode="&#xed;" horiz-adv-x="242" d="M237 570h-86l156 135h112zM8 0l114 517h124l-113 -517h-125z" />
<glyph unicode="&#xee;" horiz-adv-x="242" d="M267 570l-51 83l-84 -83h-76l116 135h108l58 -135h-71zM8 0l114 517h124l-113 -517h-125z" />
<glyph unicode="&#xef;" horiz-adv-x="242" d="M106 569q-24 0 -40 16t-16 40q0 18 10 34.5t26.5 26.5t34.5 10q25 0 41.5 -16.5t16.5 -40.5q0 -11 -4 -21.5t-11 -19t-16 -15.5t-20 -10.5t-22 -3.5zM305 569q-24 0 -40.5 16t-16.5 40q0 18 10.5 34.5t27 26.5t35.5 10q15 0 28 -7.5t20.5 -20.5t7.5 -29q0 -27 -22 -48.5 t-50 -21.5zM8 0l114 517h124l-113 -517h-125z" />
<glyph unicode="&#xf0;" horiz-adv-x="588" d="M310 517q111 0 186 -60.5t75 -160.5q0 -41 -10.5 -81t-35.5 -79.5t-62 -69t-95 -48t-129 -18.5h-231l48 218h-51l19 86h51l47 213h188zM262 108q45 0 81 16t57 42.5t32.5 57.5t11.5 63q0 56 -39.5 89t-108.5 33h-73l-23 -105h105l-19 -86h-105l-24 -110h105z" />
<glyph unicode="&#xf1;" horiz-adv-x="609" d="M376 604q-7 8 -10 11t-9 8t-12 7t-13 2q-29 0 -42 -59h-63q12 63 39 94.5t74 31.5q39 0 70 -36q6 -7 9.5 -10.5t9.5 -8t12 -6.5t13 -2q29 0 42 58h64q-14 -63 -40.5 -94.5t-73.5 -31.5q-17 0 -31 6t-21.5 12.5t-17.5 17.5zM372 0l-161 359l-78 -359h-125l114 517h134 l157 -348l77 348h124l-114 -517h-128z" />
<glyph unicode="&#xf2;" horiz-adv-x="615" d="M340 570l-122 135h110l96 -135h-84zM30 227q0 80 39.5 149t109.5 110.5t155 41.5q117 0 189.5 -66t72.5 -172q0 -79 -39.5 -148.5t-109.5 -111t-155 -41.5q-117 0 -189.5 66t-72.5 172zM469 282q0 59 -37.5 98t-100.5 39q-75 0 -124.5 -55.5t-49.5 -128.5q0 -59 37.5 -98 t100.5 -39q75 0 124.5 55.5t49.5 128.5z" />
<glyph unicode="&#xf3;" horiz-adv-x="615" d="M422 570h-85l156 135h111zM30 227q0 80 39.5 149t109.5 110.5t155 41.5q117 0 189.5 -66t72.5 -172q0 -79 -39.5 -148.5t-109.5 -111t-155 -41.5q-117 0 -189.5 66t-72.5 172zM469 282q0 59 -37.5 98t-100.5 39q-75 0 -124.5 -55.5t-49.5 -128.5q0 -59 37.5 -98 t100.5 -39q75 0 124.5 55.5t49.5 128.5z" />
<glyph unicode="&#xf4;" horiz-adv-x="615" d="M452 570l-51 83l-84 -83h-75l115 135h108l59 -135h-72zM30 227q0 80 39.5 149t109.5 110.5t155 41.5q117 0 189.5 -66t72.5 -172q0 -79 -39.5 -148.5t-109.5 -111t-155 -41.5q-117 0 -189.5 66t-72.5 172zM469 282q0 59 -37.5 98t-100.5 39q-75 0 -124.5 -55.5 t-49.5 -128.5q0 -59 37.5 -98t100.5 -39q75 0 124.5 55.5t49.5 128.5z" />
<glyph unicode="&#xf5;" horiz-adv-x="615" d="M378 604l-14 14t-12.5 9t-17.5 5q-29 0 -42 -59h-64q9 42 22.5 69t36.5 42t55 15q39 0 70 -36q8 -10 13 -14t13.5 -8.5t17.5 -4.5q29 0 42 58h64q-4 -18 -8.5 -32.5t-10.5 -27.5t-13 -23.5t-15.5 -18.5t-18.5 -13.5t-22.5 -8t-26.5 -2.5q-16 0 -30 6t-21.5 12.5 t-17.5 17.5zM30 227q0 80 39.5 149t109.5 110.5t155 41.5q117 0 189.5 -66t72.5 -172q0 -79 -39.5 -148.5t-109.5 -111t-155 -41.5q-117 0 -189.5 66t-72.5 172zM469 282q0 59 -37.5 98t-100.5 39q-75 0 -124.5 -55.5t-49.5 -128.5q0 -59 37.5 -98t100.5 -39 q75 0 124.5 55.5t49.5 128.5z" />
<glyph unicode="&#xf6;" horiz-adv-x="615" d="M291 569q-15 0 -28 7t-20.5 20t-7.5 29q0 28 22 49.5t49 21.5q25 0 41.5 -16.5t16.5 -40.5q0 -27 -22 -48.5t-51 -21.5zM490 569q-16 0 -29 7t-20.5 20t-7.5 29q0 18 10.5 34.5t27 26.5t35.5 10q15 0 28 -7.5t20.5 -20.5t7.5 -29q0 -27 -22 -48.5t-50 -21.5zM30 227 q0 80 39.5 149t109.5 110.5t155 41.5q117 0 189.5 -66t72.5 -172q0 -79 -39.5 -148.5t-109.5 -111t-155 -41.5q-117 0 -189.5 66t-72.5 172zM469 282q0 59 -37.5 98t-100.5 39q-75 0 -124.5 -55.5t-49.5 -128.5q0 -59 37.5 -98t100.5 -39q75 0 124.5 55.5t49.5 128.5z" />
<glyph unicode="&#xf7;" horiz-adv-x="480" d="M239 479q0 26 18 44t44 18q14 0 26 -7t18.5 -19t6.5 -26q0 -17 -8 -31.5t-22.5 -22.5t-31.5 -8q-21 0 -36 15.5t-15 36.5zM39 280l16 74h425l-16 -74h-425zM164 143q0 25 18.5 43.5t44.5 18.5q21 0 36.5 -15.5t15.5 -37.5q0 -25 -19 -43.5t-44 -18.5q-21 0 -36.5 15.5 t-15.5 37.5z" />
<glyph unicode="&#xf8;" horiz-adv-x="615" d="M622 517l-78 -77q52 -60 52 -150q0 -79 -39.5 -148.5t-109.5 -111t-155 -41.5q-93 0 -159 42l-31 -31h-100l79 78q-51 61 -51 149q0 80 39.5 149t109.5 110.5t155 41.5q91 0 158 -41l30 30h100zM157 235q0 -37 16 -66l231 231q-33 19 -73 19q-75 0 -124.5 -55.5 t-49.5 -128.5zM469 282q0 37 -17 67l-231 -231q33 -20 74 -20q75 0 124.5 55.5t49.5 128.5z" />
<glyph unicode="&#xf9;" horiz-adv-x="607" d="M337 570l-123 135h110l96 -135h-83zM280 -11q-108 0 -168.5 48.5t-60.5 126.5q0 32 6 63l65 290h125l-64 -290q-4 -21 -4 -46q0 -38 30 -60.5t81 -22.5q102 0 129 117l67 302h125l-69 -311q-23 -108 -84 -162.5t-178 -54.5z" />
<glyph unicode="&#xfa;" horiz-adv-x="607" d="M418 570h-85l156 135h112zM280 -11q-108 0 -168.5 48.5t-60.5 126.5q0 32 6 63l65 290h125l-64 -290q-4 -21 -4 -46q0 -38 30 -60.5t81 -22.5q102 0 129 117l67 302h125l-69 -311q-23 -108 -84 -162.5t-178 -54.5z" />
<glyph unicode="&#xfb;" horiz-adv-x="607" d="M448 570l-50 83l-85 -83h-75l115 135h109l58 -135h-72zM280 -11q-108 0 -168.5 48.5t-60.5 126.5q0 32 6 63l65 290h125l-64 -290q-4 -21 -4 -46q0 -38 30 -60.5t81 -22.5q102 0 129 117l67 302h125l-69 -311q-23 -108 -84 -162.5t-178 -54.5z" />
<glyph unicode="&#xfc;" horiz-adv-x="607" d="M288 569q-24 0 -40.5 16t-16.5 40q0 18 10.5 34.5t27 26.5t34.5 10q24 0 40.5 -16.5t16.5 -40.5q0 -11 -4 -21.5t-11 -19t-16 -15.5t-19.5 -10.5t-21.5 -3.5zM486 569q-16 0 -29 7t-20 20t-7 29q0 18 10 34.5t26.5 26.5t35.5 10q16 0 29 -7.5t20 -20.5t7 -29 q0 -27 -22 -48.5t-50 -21.5zM280 -11q-108 0 -168.5 48.5t-60.5 126.5q0 32 6 63l65 290h125l-64 -290q-4 -21 -4 -46q0 -38 30 -60.5t81 -22.5q102 0 129 117l67 302h125l-69 -311q-23 -108 -84 -162.5t-178 -54.5z" />
<glyph unicode="&#xfd;" horiz-adv-x="531" d="M381 570h-86l156 135h112zM154 0l47 212l-143 305h138l89 -200l172 200h142l-276 -305l-46 -212h-123z" />
<glyph unicode="&#xfe;" horiz-adv-x="520" d="M8 0l114 517h124l-16 -77h105q80 0 129.5 -40t49.5 -109q0 -76 -54.5 -133t-144.5 -57h-160l-22 -101h-125zM309 209q23 0 40.5 9.5t26.5 26t9 36.5q0 24 -17 37.5t-47 13.5h-115l-27 -123h130z" />
<glyph unicode="&#xff;" horiz-adv-x="531" d="M250 569q-16 0 -29 7t-20 20t-7 29q0 28 21.5 49.5t49.5 21.5q25 0 41 -16.5t16 -40.5q0 -27 -22 -48.5t-50 -21.5zM448 569q-24 0 -40 16t-16 40q0 28 22 49.5t50 21.5q24 0 40.5 -16.5t16.5 -40.5q0 -11 -4 -21.5t-11 -19t-16 -15.5t-20 -10.5t-22 -3.5zM154 0l47 212 l-143 305h138l89 -200l172 200h142l-276 -305l-46 -212h-123z" />
<glyph unicode="&#x152;" horiz-adv-x="1018" d="M484 0l16 71q-73 -82 -195 -82q-112 0 -188 79t-76 202q0 80 29 149t77.5 116.5t113.5 74t136 26.5q146 0 205 -108l20 99h444l-24 -115h-311l-29 -136h303l-26 -115h-302l-33 -145h309l-25 -116h-444zM572 395q-16 58 -60 90.5t-107 32.5q-96 0 -160.5 -70t-64.5 -170 q0 -77 48 -124t123 -47q53 0 101 26.5t78 72.5z" />
<glyph unicode="&#x153;" horiz-adv-x="873" d="M393 0l11 56q-15 -21 -38.5 -36.5t-51 -23t-56.5 -7.5q-101 0 -164.5 66.5t-63.5 171.5q0 79 39 148t109.5 111t157.5 42q49 0 92 -21t64 -61l15 71h390l-24 -104h-266l-20 -98h260l-24 -104h-259l-24 -106h267l-24 -105h-390zM464 325q-12 47 -48.5 70.5t-82.5 23.5 q-75 0 -125.5 -54.5t-50.5 -129.5q0 -62 38.5 -99.5t99.5 -37.5q29 0 54.5 9.5t46.5 28.5t36 45z" />
<glyph unicode="&#x178;" horiz-adv-x="606" d="M313 679q-24 0 -40 16t-16 40q0 18 10 34.5t26.5 26.5t34.5 10q25 0 41 -16.5t16 -40.5q0 -27 -22 -48.5t-50 -21.5zM511 679q-24 0 -40 16t-16 40q0 28 22 49.5t50 21.5q24 0 40.5 -16.5t16.5 -40.5q0 -27 -22 -48.5t-51 -21.5zM186 0l57 257l-160 370h144l101 -252 l210 252h159l-321 -370l-56 -257h-134z" />
<glyph unicode="&#x2b0;" horiz-adv-x="386" d="M266 306l39 175q1 12 1 17q0 38 -48 38q-33 0 -68 -35l-43 -195h-87l90 408h87l-33 -150q45 45 99 45q46 0 71.5 -20.5t25.5 -57.5q0 -6 -3 -28l-45 -197h-86z" />
<glyph unicode="&#x2c6;" horiz-adv-x="282" d="M275 523l-50 83l-85 -83h-75l115 135h109l58 -135h-72z" />
<glyph unicode="&#x2dc;" horiz-adv-x="307" d="M215 557q-7 8 -10 11t-9 8t-12 7t-13 2q-29 0 -41 -59h-64q12 63 39 94.5t75 31.5q38 0 69 -36q9 -10 13.5 -14t13 -8.5t17.5 -4.5q29 0 43 58h64q-10 -42 -23.5 -69t-36.5 -42t-55 -15q-17 0 -31 6t-21 12.5t-18 17.5z" />
<glyph unicode="&#x2000;" horiz-adv-x="427" />
<glyph unicode="&#x2001;" horiz-adv-x="854" />
<glyph unicode="&#x2002;" horiz-adv-x="427" />
<glyph unicode="&#x2003;" horiz-adv-x="854" />
<glyph unicode="&#x2004;" horiz-adv-x="284" />
<glyph unicode="&#x2005;" horiz-adv-x="213" />
<glyph unicode="&#x2006;" horiz-adv-x="142" />
<glyph unicode="&#x2007;" horiz-adv-x="142" />
<glyph unicode="&#x2008;" horiz-adv-x="106" />
<glyph unicode="&#x2009;" horiz-adv-x="170" />
<glyph unicode="&#x200a;" horiz-adv-x="47" />
<glyph unicode="&#x2010;" horiz-adv-x="282" d="M16 177l23 101h225l-22 -101h-226z" />
<glyph unicode="&#x2011;" horiz-adv-x="282" d="M16 177l23 101h225l-22 -101h-226z" />
<glyph unicode="&#x2012;" horiz-adv-x="282" d="M16 177l23 101h225l-22 -101h-226z" />
<glyph unicode="&#x2013;" horiz-adv-x="557" d="M16 177l23 101h501l-23 -101h-501z" />
<glyph unicode="&#x2014;" horiz-adv-x="783" d="M16 177l23 101h726l-22 -101h-727z" />
<glyph unicode="&#x2018;" horiz-adv-x="239" d="M224 636l42 -44q-28 -12 -55 -34t-37 -45q3 1 9 1q25 0 42 -16t17 -45q0 -33 -26 -57t-58 -24q-30 0 -51 20.5t-21 55.5q0 54 39 107t99 81z" />
<glyph unicode="&#x2019;" horiz-adv-x="239" d="M135 371l-43 44q18 8 35.5 20t33.5 28t23 31h-9q-16 0 -29 7t-21 21t-8 34q0 16 7 31t18.5 25.5t27 17t30.5 6.5q20 0 36 -8t27 -26t11 -43q0 -53 -40 -106t-99 -82z" />
<glyph unicode="&#x201a;" horiz-adv-x="240" d="M25 -123l-42 44q28 13 55 34.5t37 44.5h-10q-24 0 -40.5 16t-16.5 45q0 33 25 57t57 24q31 0 52.5 -20.5t21.5 -56.5q0 -53 -40 -106.5t-99 -81.5z" />
<glyph unicode="&#x201c;" horiz-adv-x="431" d="M225 636l43 -44q-18 -8 -35.5 -19.5t-33.5 -27.5t-23 -32q2 1 9 1q25 0 41.5 -16t16.5 -45q0 -33 -25.5 -57t-57.5 -24q-20 0 -36 8.5t-27 26t-11 41.5q0 54 39.5 107t99.5 81zM415 636l43 -44q-18 -8 -35.5 -19.5t-33 -27.5t-22.5 -32q1 1 9 1q24 0 41 -16t17 -45 q0 -33 -25.5 -57t-57.5 -24q-31 0 -52 20.5t-21 55.5q0 54 39 107t98 81z" />
<glyph unicode="&#x201d;" horiz-adv-x="431" d="M135 371l-43 44q18 8 35.5 20t33.5 28t23 31h-9q-16 0 -29 7t-21 21t-8 34q0 16 7 31t18.5 25.5t27 17t30.5 6.5q20 0 36 -8t27 -26t11 -43q0 -53 -40 -106t-99 -82zM326 371l-42 44q28 13 54.5 34.5t37.5 44.5h-10q-25 0 -41.5 16t-16.5 46q0 32 25.5 56t57.5 24 q31 0 52 -20t21 -57q0 -53 -39.5 -106t-98.5 -82z" />
<glyph unicode="&#x201e;" horiz-adv-x="431" d="M25 -123l-42 44q28 13 55 34.5t37 44.5h-10q-24 0 -40.5 16t-16.5 45q0 33 25 57t57 24q31 0 52.5 -20.5t21.5 -56.5q0 -53 -40 -106.5t-99 -81.5zM216 -123l-42 44q28 13 54.5 34.5t37.5 44.5h-9q-25 0 -42 16t-17 45q0 22 12 40.5t31.5 29.5t40.5 11q30 0 51 -20.5 t21 -56.5q0 -53 -39.5 -106.5t-98.5 -81.5z" />
<glyph unicode="&#x2022;" horiz-adv-x="336" d="M156 117q-43 0 -72 28.5t-29 71.5q0 50 37.5 86t87.5 36q29 0 52 -13t36 -36t13 -51q0 -50 -37.5 -86t-87.5 -36z" />
<glyph unicode="&#x2026;" horiz-adv-x="721" d="M8 59q0 34 24.5 58.5t58.5 24.5q29 0 49 -20.5t20 -50.5q0 -33 -24.5 -57.5t-58.5 -24.5q-29 0 -49 20.5t-20 49.5zM248 59q0 34 25 58.5t59 24.5q29 0 48.5 -20.5t19.5 -50.5q0 -33 -24 -57.5t-58 -24.5q-29 0 -49.5 20.5t-20.5 49.5zM489 59q0 34 25 58.5t58 24.5 q29 0 49 -20.5t20 -50.5q0 -33 -24.5 -57.5t-58.5 -24.5q-19 0 -35 9.5t-25 25.5t-9 35z" />
<glyph unicode="&#x202f;" horiz-adv-x="170" />
<glyph unicode="&#x2032;" horiz-adv-x="223" d="M48 372q101 218 111 234q19 28 53 28q27 0 46 -19t19 -46q0 -21 -15 -42l-171 -184z" />
<glyph unicode="&#x2033;" horiz-adv-x="403" d="M48 372q101 218 111 234q19 28 53 28q27 0 46 -19t19 -46q0 -21 -15 -42l-171 -184zM231 372q101 218 111 234q19 28 54 28q27 0 46 -19t19 -46q0 -21 -15 -42l-172 -184z" />
<glyph unicode="&#x2039;" horiz-adv-x="316" d="M140 59l-113 169l188 167h114l-192 -171l109 -165h-106z" />
<glyph unicode="&#x203a;" horiz-adv-x="316" d="M179 395l112 -169l-188 -167h-113l191 171l-109 165h107z" />
<glyph unicode="&#x2044;" horiz-adv-x="149" d="M-141 0h-71l538 627h73z" />
<glyph unicode="&#x205f;" horiz-adv-x="213" />
<glyph unicode="&#x2070;" d="M242 389q-69 0 -107.5 42t-38.5 109q0 35 11 74t32 77t60 62t88 24q68 0 106.5 -41.5t38.5 -107.5q0 -36 -10.5 -75t-32 -77t-60 -62.5t-87.5 -24.5zM283 705q-25 0 -44.5 -18t-30.5 -45.5t-16.5 -55t-5.5 -50.5q0 -74 59 -74q25 0 45 18t30.5 45.5t16 55t5.5 50.5 q0 74 -59 74z" />
<glyph unicode="&#x2074;" d="M355 477l-18 -81h-89l18 81h-185l14 61l200 234h125l-49 -225h49l-15 -70h-50zM313 692l-126 -145h94z" />
<glyph unicode="&#x2075;" d="M244 389q-49 0 -91.5 16.5t-67.5 48.5l57 54q36 -46 101 -46q34 0 53.5 17.5t19.5 43.5q0 16 -8.5 27.5t-23.5 17t-35 5.5q-43 0 -74 -30l-58 20l46 209h272l-16 -73h-181l-20 -87q35 27 76 27q49 0 81.5 -28.5t32.5 -73.5q0 -63 -45 -105.5t-119 -42.5z" />
<glyph unicode="&#x2076;" d="M254 389q-74 0 -115.5 39t-41.5 107q0 100 61 171t148 71q81 0 129 -44l-50 -60q-29 32 -82 32q-49 0 -80 -38t-31 -68v-4q44 50 98 50q52 0 87.5 -30.5t35.5 -80.5q0 -61 -43.5 -103t-115.5 -42zM252 574q-36 0 -66 -33q-2 -4 -2 -16q0 -29 18.5 -46t50.5 -17 q29 0 48.5 18t19.5 42.5t-19 38t-50 13.5z" />
<glyph unicode="&#x2077;" horiz-adv-x="348" d="M218 396h-100l206 303h-196l16 73h296l-14 -62z" />
<glyph unicode="&#x2078;" d="M252 389q-72 0 -120.5 25.5t-48.5 76.5q0 39 31.5 69t81.5 36q-65 25 -65 79q0 50 43 76t103 26q39 0 74.5 -9.5t61.5 -33t26 -55.5q0 -37 -27 -64t-76 -34q28 -11 48 -34t20 -52.5t-16 -53t-51.5 -38t-84.5 -14.5zM280 708q-17 0 -31 -5t-22.5 -15.5t-8.5 -24.5 q0 -19 18.5 -31t36.5 -15q18 1 33 5.5t27.5 16t12.5 27.5q0 19 -18.5 30.5t-47.5 11.5zM258 557q-35 -2 -59 -16.5t-24 -37.5q0 -20 21 -32.5t50 -12.5q32 0 51.5 13t19.5 34q0 18 -18 32.5t-41 19.5z" />
<glyph unicode="&#x2079;" d="M277 778q74 0 115 -39t41 -106q0 -66 -27.5 -121.5t-75.5 -88.5t-104 -33q-82 0 -131 44l51 60q29 -32 82 -32q48 0 79.5 38.5t31.5 68.5v3q-44 -49 -99 -49q-34 0 -61 13t-44 38.5t-17 59.5q0 39 19 71.5t55.5 52.5t84.5 20zM279 592q36 0 65 34q2 5 2 17 q0 28 -18.5 45.5t-49.5 17.5q-29 0 -48.5 -18.5t-19.5 -43.5q0 -16 9 -28t24.5 -18t35.5 -6z" />
<glyph unicode="&#x207d;" horiz-adv-x="180" d="M140 335q-24 33 -37 81t-13 96q0 61 21.5 121.5t57 110.5t81.5 89l49 -22q-121 -160 -121 -333q0 -69 20 -122z" />
<glyph unicode="&#x207e;" horiz-adv-x="180" d="M202 833q24 -34 36.5 -82t12.5 -96q0 -90 -44 -176t-115 -144l-50 21q122 160 122 335q0 67 -21 120z" />
<glyph unicode="&#x207f;" horiz-adv-x="386" d="M266 306l39 175q1 12 1 17q0 38 -48 38q-33 0 -68 -35l-43 -195h-87l65 296h87l-8 -38q45 45 99 45q46 0 71.5 -20.5t25.5 -57.5q0 -6 -3 -28l-45 -197h-86z" />
<glyph unicode="&#x2080;" d="M124 -144q-68 0 -107 42t-39 109q0 35 11 74t32.5 77t60 62t87.5 24q35 0 62.5 -11t46 -31t28 -47.5t9.5 -59.5q0 -36 -11 -75t-32.5 -77t-60 -62.5t-87.5 -24.5zM165 172q-19 0 -36 -12t-28 -31t-18.5 -42.5t-10.5 -44.5t-3 -39q0 -74 59 -74q25 0 44.5 18t30.5 45.5 t16.5 55t5.5 50.5q0 74 -60 74z" />
<glyph unicode="&#x2081;" horiz-adv-x="268" d="M40 -137l57 256l-76 -62l-41 56l156 126h78l-82 -376h-92z" />
<glyph unicode="&#x2082;" d="M-38 -137l16 69q146 85 195 123t49 72q0 22 -18 33.5t-46 11.5q-30 0 -58.5 -11.5t-45.5 -28.5l-38 60q28 25 67.5 38.5t78.5 13.5q66 0 109.5 -29t43.5 -80q0 -50 -50 -96t-154 -104h163l-16 -72h-296z" />
<glyph unicode="&#x2083;" d="M136 -144q-57 0 -102 18.5t-66 50.5l56 55q38 -51 108 -51q31 0 47 14t16 35q0 19 -22.5 30t-61.5 11q-25 0 -31 -1l15 71q21 -2 61 -2q33 0 50.5 12t17.5 33q0 19 -22 29.5t-53 10.5q-57 0 -97 -34l-31 57q26 22 62.5 35.5t73.5 13.5q72 0 115 -26.5t43 -73.5 q0 -37 -27.5 -64.5t-75.5 -30.5q32 -7 52.5 -28t20.5 -53q0 -44 -40.5 -78t-108.5 -34z" />
<glyph unicode="&#x2084;" d="M238 -56l-18 -81h-89l18 81h-186l14 61l201 234h125l-49 -225h49l-15 -70h-50zM196 159l-126 -145h94z" />
<glyph unicode="&#x2085;" d="M127 -144q-50 0 -92.5 16.5t-67.5 48.5l57 54q37 -46 101 -46q35 0 54 17.5t19 43.5q0 24 -18 37t-48 13q-43 0 -75 -30l-58 20l46 209h273l-16 -73h-182l-19 -87q34 27 76 27q48 0 80.5 -28.5t32.5 -73.5q0 -63 -44.5 -105.5t-118.5 -42.5z" />
<glyph unicode="&#x2086;" d="M136 -144q-74 0 -115.5 39t-41.5 107q0 100 61 171t148 71q82 0 130 -44l-50 -60q-29 32 -83 32q-33 0 -60 -20.5t-39 -44.5t-12 -41v-4q45 50 99 50q51 0 86.5 -30.5t35.5 -80.5q0 -61 -43 -103t-116 -42zM134 41q-35 0 -65 -33q-2 -4 -2 -16q0 -29 18.5 -46t49.5 -17 q30 0 49 18t19 42.5t-19 38t-50 13.5z" />
<glyph unicode="&#x2087;" horiz-adv-x="348" d="M101 -137h-101l207 303h-197l16 73h296l-14 -62z" />
<glyph unicode="&#x2088;" d="M134 -144q-71 0 -120 25.5t-49 76.5q0 39 31.5 69t81.5 36q-65 25 -65 79q0 50 43.5 76t103.5 26q28 0 55.5 -5.5t52 -17t39 -31t14.5 -44.5q0 -37 -26.5 -64t-76.5 -34q18 -7 33 -19t25.5 -29.5t10.5 -38.5q0 -46 -39.5 -75.5t-113.5 -29.5zM163 175q-18 0 -32 -5 t-22 -15.5t-8 -24.5q0 -19 18.5 -31t35.5 -15q30 2 51.5 14t21.5 35q0 13 -8.5 22.5t-23.5 14.5t-33 5zM141 24q-35 -2 -59.5 -16.5t-24.5 -37.5q0 -20 21.5 -32.5t50.5 -12.5q31 0 50.5 13t19.5 34q0 18 -18 32.5t-40 19.5z" />
<glyph unicode="&#x2089;" d="M160 245q74 0 115 -39t41 -106q0 -100 -61 -171.5t-147 -71.5q-81 0 -131 44l51 60q29 -31 83 -31q48 0 79.5 38t31.5 68v3q-45 -49 -100 -49q-51 0 -86 30t-35 81q0 39 18.5 71.5t55.5 52.5t85 20zM162 59q35 0 65 34q1 5 1 17q0 28 -18 45.5t-49 17.5 q-30 0 -49.5 -18.5t-19.5 -43.5q0 -8 2.5 -15t7 -13t10.5 -10.5t14 -7.5t17 -4.5t19 -1.5z" />
<glyph unicode="&#x208d;" horiz-adv-x="180" d="M23 -198q-25 33 -37.5 81t-12.5 96q0 90 44 175.5t116 145.5l48 -22q-121 -160 -121 -333q0 -69 21 -122z" />
<glyph unicode="&#x208e;" horiz-adv-x="180" d="M85 300q23 -34 35.5 -82t12.5 -96q0 -90 -44 -176t-114 -144l-50 21q121 160 121 335q0 67 -21 120z" />
<glyph unicode="&#x20ac;" horiz-adv-x="573" d="M322 98q75 0 125 66l93 -57q-37 -52 -95 -85t-129 -33q-103 0 -172.5 52t-86.5 137h-49l13 56h33q0 16 5 48h-28l12 57h33q35 85 113 137t175 52q82 0 141 -40t82 -104l-112 -41q-14 34 -45.5 55t-70.5 21q-42 0 -80.5 -21.5t-63.5 -58.5h184l-13 -57h-198q-5 -16 -7 -48 h195l-12 -56h-169q9 -25 27.5 -43t44 -27.5t55.5 -9.5z" />
<glyph unicode="&#x2122;" horiz-adv-x="426" d="M183 603l-40 -183h-26l40 183h-58l4 24h143l-4 -24h-59zM410 420l37 171l-108 -171h-7l-33 171l-38 -171h-26l45 207h41l27 -150l93 150h40l-45 -207h-26z" />
<glyph unicode="&#x25fc;" horiz-adv-x="517" d="M0 517h517v-517h-517v517z" />
<glyph unicode="&#xf6df;" horiz-adv-x="293" d="M143 -26q19 7 37 28l48 -47q-37 -43 -100 -47l-11 -50h-58l12 56q-43 12 -69 43t-26 76q0 64 45 111t112 50l9 39h57l-10 -46q48 -15 68 -51l-62 -41q-8 16 -20 24zM118 125q-27 -8 -43 -32.5t-16 -55.5q0 -41 27 -57z" />
<glyph unicode="&#xf6e0;" horiz-adv-x="293" d="M260 507q20 7 37 28l49 -47q-38 -43 -101 -47l-11 -50h-57l12 55q-44 13 -69.5 44t-25.5 76q0 64 45 111t112 50l8 39h58l-11 -46q48 -15 68 -51l-62 -41q-7 16 -20 24zM235 658q-26 -8 -42 -32.5t-16 -55.5q0 -41 26 -57z" />
<glyph unicode="&#xf6e1;" horiz-adv-x="147" d="M-37 -214l-26 31q15 7 32.5 20.5t22.5 25.5q-1 -1 -5 -1q-7 0 -13 3t-11.5 8t-9 13.5t-3.5 18.5q0 15 8 27.5t20.5 19.5t27.5 7q18 0 31 -13t13 -34q0 -31 -23 -67.5t-64 -58.5z" />
<glyph unicode="&#xf6e2;" horiz-adv-x="147" d="M81 319l-26 31q15 6 32.5 20t21.5 26q-1 -1 -5 -1q-13 0 -24.5 12t-11.5 31q0 22 16.5 38t38.5 16q12 0 22 -5.5t16 -16.5t6 -25q0 -31 -23 -68t-63 -58z" />
<glyph unicode="&#xf6e3;" horiz-adv-x="360" d="M181 86q24 -8 40 -15t33 -19.5t26 -29.5t9 -39q0 -55 -40 -91t-117 -36h-1l-12 -50h-57l12 55q-41 8 -72 25t-46 40l59 55q27 -37 74 -51l19 88q-25 9 -40.5 16t-33.5 19.5t-27 30t-9 40.5t10.5 44t29.5 38.5t49 27.5t65 10h7l11 52h57l-13 -59q63 -16 98 -56l-60 -49 q-19 24 -53 37zM95 140q0 -20 33 -34l16 73q-22 -3 -35.5 -13t-13.5 -26zM146 -75q22 3 34 13.5t12 25.5q0 20 -30 34z" />
<glyph unicode="&#xf6e4;" horiz-adv-x="360" d="M299 619q23 -8 39 -15.5t33 -19.5t26 -29t9 -39q0 -35 -16 -63t-52.5 -46t-88.5 -18h-1l-11 -50h-57l12 55q-86 16 -119 65l60 55q27 -37 74 -51l19 88q-25 9 -40.5 16t-33.5 19.5t-27 30t-9 40.5q0 48 42 84t112 36h6l12 52h57l-13 -59q62 -16 98 -56l-61 -49 q-18 24 -52 37zM212 673q0 -20 33 -34l16 73q-22 -3 -35.5 -13t-13.5 -26zM263 458q23 3 34.5 13.5t11.5 25.5q0 20 -30 34z" />
<glyph unicode="&#xf6e5;" horiz-adv-x="172" d="M-31 16l15 67h138l-15 -67h-138z" />
<glyph unicode="&#xf6e6;" horiz-adv-x="172" d="M86 549l16 67h138l-15 -67h-139z" />
<glyph unicode="&#xf6e7;" horiz-adv-x="148" d="M-3 -142q-19 0 -32.5 13t-13.5 32q0 23 17.5 39.5t39.5 16.5q20 0 33 -13t13 -32q0 -15 -8 -28t-21.5 -20.5t-27.5 -7.5z" />
<glyph unicode="&#xf6e8;" horiz-adv-x="148" d="M115 391q-20 0 -33 13t-13 32q0 23 17 39.5t40 16.5q19 0 32 -13t13 -33q0 -21 -17 -38t-39 -17z" />
<glyph unicode="&#xf6eb;" horiz-adv-x="389" d="M448 714l-90 -408h-87l7 37q-37 -44 -88 -44q-50 0 -84 32.5t-34 91.5q0 78 46.5 132t112.5 54t98 -44l33 149h86zM163 434q0 -22 8.5 -37t22.5 -22t33 -7q35 0 65 32l26 114q-21 26 -65 26q-38 0 -64 -31.5t-26 -74.5z" />
<glyph unicode="&#xf6f1;" horiz-adv-x="242" d="M60 306l65 296h87l-9 -38q52 46 107 46l-18 -78q-5 2 -21 2q-22 0 -45.5 -9.5t-35.5 -23.5l-43 -195h-87z" />
<glyph unicode="&#xf6f2;" horiz-adv-x="315" d="M45 357l47 49q15 -19 43.5 -33.5t58.5 -14.5q19 0 31 8t12 20q0 10 -9 17.5t-19.5 12t-28.5 11.5q-21 6 -34 12t-29 15.5t-23.5 24t-7.5 32.5q0 41 33.5 69.5t92.5 28.5q21 0 40.5 -3.5t36 -10t30.5 -15.5t23 -20l-43 -47q-15 16 -39 26.5t-48 10.5q-20 0 -31 -8t-11 -21 q0 -12 13.5 -19t40.5 -15q21 -6 34.5 -11t30.5 -15t25.5 -25.5t8.5 -35.5q0 -42 -35.5 -71.5t-96.5 -29.5q-91 0 -146 58z" />
<glyph unicode="&#xf6f3;" horiz-adv-x="220" d="M86 365q0 10 3 21l34 154h-50l13 62h50l18 80h88l-18 -80h61l-13 -62h-61l-31 -138q-2 -9 -2 -13q0 -21 26 -21q15 0 23 7l5 -60q-20 -16 -56 -16q-39 0 -64.5 15.5t-25.5 50.5z" />
<glyph horiz-adv-x="582" d="M632 627l-87 -99q32 -59 32 -144q0 -102 -38 -192t-110.5 -146.5t-161.5 -56.5q-90 0 -149 50l-35 -39h-96l85 98q-32 59 -32 144q0 102 39 191.5t111.5 146t161.5 56.5q91 0 148 -49l36 40h96zM176 235q0 -12 1 -19l237 272q-26 30 -75 30q-21 0 -41.5 -9.5t-36.5 -25.5 t-30 -38t-24 -47.5t-17 -53t-10.5 -55.5t-3.5 -54zM443 391q0 13 -1 20l-238 -273q27 -31 75 -31q49 0 88 46.5t57.5 110t18.5 127.5z" />
<glyph horiz-adv-x="585" d="M42 242q0 102 39 191.5t111.5 146t161.5 56.5q104 0 164.5 -66t60.5 -186q0 -102 -38 -192t-110.5 -146.5t-161.5 -56.5q-104 0 -165.5 66.5t-61.5 186.5zM445 391q0 59 -25.5 93t-78.5 34q-22 0 -42 -9.5t-36 -25.5t-30 -38t-24 -47.5t-17 -53t-10.5 -55.5t-3.5 -54 q0 -59 25 -93.5t78 -34.5q49 0 88 46.5t57.5 110t18.5 127.5z" />
<glyph horiz-adv-x="585" d="M224 0l99 455l-148 -125l-60 81l265 216h115l-138 -627h-133z" />
<glyph horiz-adv-x="585" d="M12 0l27 124q66 37 107 61t88.5 53t75.5 48.5t56.5 42.5t43 41t23.5 37t9 38q0 34 -31.5 54t-81.5 20q-89 0 -156 -57l-56 96q27 24 63 41.5t76.5 27t81.5 9.5q103 0 173.5 -48t70.5 -134q0 -89 -85.5 -170.5t-248.5 -165.5h261l-25 -118h-472z" />
<glyph horiz-adv-x="585" d="M11 119l88 79q28 -44 80.5 -68.5t104.5 -24.5q53 0 82.5 25t29.5 63q0 67 -115 67q-66 0 -75 -1l26 117q11 -1 88 -1q27 0 49 4.5t38.5 13t25.5 23t9 33.5q0 32 -33 52t-90 20q-86 0 -153 -53l-48 91q40 36 97 56.5t117 20.5q75 0 130.5 -19t86.5 -56t31 -88 q0 -60 -51.5 -103.5t-117.5 -51.5q53 -13 84.5 -47t31.5 -91q0 -82 -69.5 -136.5t-171.5 -54.5q-89 0 -164.5 34.5t-110.5 95.5z" />
<glyph horiz-adv-x="585" d="M282 0l28 130h-300l27 116l324 381h193l-85 -380h81l-25 -117h-81l-29 -130h-133zM394 509l-228 -262h170z" />
<glyph horiz-adv-x="585" d="M22 109l93 83q10 -17 23 -30.5t29 -24t34.5 -17.5t39 -11t43.5 -4q53 0 86 30.5t33 73.5q0 39 -32.5 62.5t-85.5 23.5q-63 0 -115 -39l-86 34l74 337h430l-25 -115h-300l-33 -150q51 39 127 39q80 0 133 -47t53 -129q0 -99 -73 -167.5t-187 -68.5q-180 0 -261 120z" />
<glyph horiz-adv-x="585" d="M46 231q0 77 22.5 149t64 129.5t106.5 92t144 34.5q132 0 210 -85l-81 -92q-22 29 -58.5 45t-78.5 16q-64 0 -110 -46t-66 -110q-6 -12 -8 -27q26 29 70.5 48t91.5 19q57 0 101.5 -20.5t71 -60t26.5 -91.5q0 -100 -76.5 -171.5t-183.5 -71.5q-116 0 -181 64t-65 178z M412 214q0 38 -34 61.5t-86 23.5q-63 0 -113 -47q-2 -8 -2 -34q0 -51 32 -82t84 -31q50 0 84.5 31.5t34.5 77.5z" />
<glyph horiz-adv-x="585" d="M93 0l336 509h-310l27 118h471l-21 -93l-349 -534h-154z" />
<glyph horiz-adv-x="585" d="M21 157q0 62 46 110.5t128 69.5q-41 18 -68 51t-27 74q0 23 5.5 43t16.5 36t25.5 30t32 24.5t37.5 18t42 12.5t44 7.5t44 2.5q62 0 116 -16.5t91 -54t37 -89.5q0 -62 -44.5 -106.5t-117.5 -58.5q46 -25 75 -61.5t29 -80.5q0 -55 -37 -97t-95 -62.5t-126 -20.5 q-50 0 -95 10t-81 29.5t-57 52.5t-21 76zM447 452q0 30 -31 49.5t-78 19.5q-42 0 -73 -20t-31 -54q0 -25 27.5 -45.5t62.5 -28.5q56 4 89.5 25t33.5 54zM398 182q0 30 -29 52.5t-69 31.5q-59 -3 -98 -27t-39 -61q0 -36 32 -55.5t86 -19.5q47 0 82 22.5t35 56.5z" />
<glyph horiz-adv-x="585" d="M577 395q0 -62 -14 -120.5t-42 -110t-68 -90.5t-95 -61.5t-118 -22.5q-132 0 -209 84l81 93q21 -29 57.5 -45t78.5 -16q64 0 109.5 45.5t67.5 109.5q6 20 7 27q-26 -28 -70.5 -47t-91.5 -19q-86 0 -143 46.5t-57 125.5q0 99 77 171t184 72q116 0 181 -64t65 -178z M211 412q0 -38 34.5 -61.5t85.5 -23.5q63 0 115 47v33q0 51 -32.5 82.5t-83.5 31.5t-85 -31.5t-34 -77.5z" />
<glyph horiz-adv-x="582" d="M40 242q0 102 39 191.5t111.5 146t161.5 56.5q104 0 164.5 -66t60.5 -186q0 -102 -38 -192t-110.5 -146.5t-161.5 -56.5q-104 0 -165.5 66.5t-61.5 186.5zM443 391q0 59 -25.5 93t-78.5 34q-21 0 -41.5 -9.5t-36.5 -25.5t-30 -38t-24 -47.5t-17 -53t-10.5 -55.5t-3.5 -54 q0 -59 25.5 -93.5t77.5 -34.5q49 0 88 46.5t57.5 110t18.5 127.5z" />
<glyph horiz-adv-x="386" d="M140 0l100 455l-127 -106l-59 80l241 198h117l-138 -627h-134z" />
<glyph horiz-adv-x="564" d="M-7 0l28 124q77 44 123 70.5t98 59t80.5 55t54 47t36 46t10.5 43.5q0 34 -31.5 54t-81.5 20q-89 0 -156 -57l-56 96q20 18 46 32.5t54.5 24.5t59.5 15.5t62 5.5q66 0 120 -20t88.5 -62t34.5 -100q0 -89 -85.5 -170.5t-248.5 -165.5h262l-26 -118h-472z" />
<glyph horiz-adv-x="551" d="M-12 119l87 79q28 -44 80.5 -68.5t104.5 -24.5q36 0 62 12t38 31.5t12 44.5q0 67 -114 67q-66 0 -76 -1l27 117q10 -1 87 -1q57 0 89.5 18t32.5 56q0 32 -33 52t-90 20q-85 0 -152 -53l-48 91q39 36 96 56.5t117 20.5q75 0 131 -19t86.5 -56t30.5 -88q0 -60 -51.5 -103.5 t-117.5 -51.5q53 -13 85 -47t32 -91q0 -82 -70 -136.5t-172 -54.5q-88 0 -164 34.5t-110 95.5z" />
<glyph horiz-adv-x="561" d="M273 0l28 130h-300l26 116l325 381h192l-84 -380h80l-25 -117h-81l-28 -130h-133zM384 509l-227 -262h169z" />
<glyph horiz-adv-x="571" d="M17 109l93 83q26 -41 69.5 -64t99.5 -23q54 0 87 30.5t33 73.5q0 39 -32.5 62.5t-86.5 23.5q-62 0 -115 -39l-86 34l74 337h431l-26 -115h-300l-32 -150q51 39 126 39q81 0 134 -47t53 -129q0 -99 -73.5 -167.5t-187.5 -68.5q-179 0 -261 120z" />
<glyph horiz-adv-x="571" d="M37 231q0 77 22.5 149t64 129.5t106.5 92t143 34.5q133 0 211 -85l-81 -92q-22 29 -58.5 45t-78.5 16q-64 0 -110 -46t-66 -110q-7 -12 -9 -27q13 14 30.5 26t38.5 21t45.5 14.5t48.5 5.5q86 0 142 -46.5t56 -125.5q0 -100 -76 -171.5t-183 -71.5q-116 0 -181 64t-65 178 zM402 214q0 38 -33.5 61.5t-85.5 23.5q-64 0 -114 -47q-2 -8 -2 -34q0 -51 32.5 -82t84.5 -31q50 0 84 31.5t34 77.5z" />
<glyph horiz-adv-x="512" d="M57 0l336 509h-309l26 118h471l-21 -93l-348 -534h-155z" />
<glyph horiz-adv-x="569" d="M13 157q0 41 20 76.5t60 62.5t94 41q-26 11 -47 29t-34.5 43.5t-13.5 52.5q0 44 22 78.5t58.5 55t79 30.5t87.5 10q63 0 117 -16.5t91 -54t37 -89.5q0 -62 -44.5 -106.5t-118.5 -58.5q47 -25 75.5 -61.5t28.5 -80.5q0 -41 -21 -76t-57 -57.5t-82.5 -34.5t-96.5 -12 q-69 0 -125 17t-93 56t-37 95zM440 452q0 30 -31.5 49.5t-77.5 19.5q-43 0 -73.5 -20t-30.5 -54q0 -25 27.5 -45.5t62.5 -28.5q56 4 89.5 25t33.5 54zM390 182q0 30 -28.5 52.5t-69.5 31.5q-38 -2 -69 -13t-49.5 -31t-18.5 -44q0 -36 32.5 -55.5t86.5 -19.5q47 0 81.5 22.5 t34.5 56.5z" />
<glyph horiz-adv-x="571" d="M571 395q0 -62 -14 -120.5t-42.5 -110t-68 -90.5t-94.5 -61.5t-119 -22.5q-132 0 -209 84l81 93q22 -29 58 -45t79 -16q64 0 109.5 45.5t66.5 109.5q7 20 8 27q-26 -28 -71 -47t-92 -19q-41 0 -77.5 12t-63.5 33.5t-42.5 54.5t-15.5 72q0 99 77 171t183 72 q116 0 181.5 -64t65.5 -178zM204 412q0 -38 34.5 -61.5t85.5 -23.5q63 0 115 47q1 8 1 33q0 51 -32.5 82.5t-84.5 31.5q-33 0 -60.5 -14.5t-43 -39.5t-15.5 -55z" />
<glyph horiz-adv-x="699" d="M41 270q0 107 50.5 191.5t137 130t192.5 45.5q62 0 115.5 -22t87.5 -55.5t53 -74.5l-123 -53q-17 39 -59 63t-92 24q-44 0 -84.5 -18.5t-71 -50t-49 -76.5t-18.5 -96q0 -74 47.5 -122.5t124.5 -48.5q65 0 110.5 34.5t65.5 89.5h-195l26 115h336q-28 -176 -119.5 -266.5 t-239.5 -90.5q-124 0 -209.5 77.5t-85.5 203.5z" />
<glyph horiz-adv-x="510" d="M289 0l10 46q-54 -57 -135 -57q-40 0 -73.5 14t-55 44.5t-21.5 72.5q0 50 23 88.5t61 58t84 19.5q97 0 156 -61l12 51q2 12 2 24q0 31 -29 49.5t-76 18.5q-66 0 -127 -43l-29 85q79 55 181 55q56 0 100 -13.5t73.5 -47.5t29.5 -83q0 -24 -6 -48l-60 -273h-120zM313 107 l12 56q-13 19 -40.5 30.5t-61.5 11.5q-39 0 -63 -21t-24 -54q0 -29 22 -44.5t60 -15.5q59 0 95 37z" />
<glyph horiz-adv-x="280" d="M31 86q0 14 3 32l113 509h119l-105 -478q-3 -9 -3 -18q0 -16 12.5 -26t32.5 -10q23 0 34 9l4 -96q-25 -19 -75 -19q-64 0 -99.5 25.5t-35.5 71.5z" />
<glyph horiz-adv-x="544" d="M-26 -105l70 80q21 -30 62 -45.5t86 -15.5q55 0 85 29t44 88l10 46q-35 -32 -70 -50.5t-81 -18.5q-63 0 -102 30t-39 86q0 14 4 38l66 292h119l-57 -256q-3 -17 -3 -26q0 -57 77 -57q54 0 107 52l63 287h120l-91 -413q-52 -225 -250 -225q-145 0 -220 79z" />
<glyph horiz-adv-x="550" d="M409 394l12 60h120l-100 -454h-120l13 56q-58 -67 -137 -67q-78 0 -125.5 49.5t-47.5 138.5q0 52 16 103t45.5 92.5t76 67t102.5 25.5q30 0 57.5 -8.5t50 -24.5t37.5 -38zM149 201q0 -48 28.5 -77t72.5 -29q62 0 104 54l35 157q-10 16 -25.5 27.5t-36.5 18.5t-44 7 q-57 0 -95.5 -47t-38.5 -111z" />
<glyph horiz-adv-x="550" d="M141 60l-13 -60h-120l139 627h119l-51 -229q58 67 137 67q78 0 125.5 -49.5t47.5 -138.5q0 -52 -16.5 -102.5t-45.5 -92.5t-75.5 -67.5t-101.5 -25.5q-47 0 -84.5 18.5t-60.5 52.5zM400 253q0 48 -28.5 77t-72.5 29q-60 0 -104 -54l-35 -158q15 -24 43 -38t63 -14 q38 0 69 22t48 58t17 78z" />
<glyph horiz-adv-x="469" d="M26 196q0 112 76.5 190.5t187.5 78.5q131 0 185 -89l-90 -69q-30 52 -95 52q-63 0 -102.5 -46t-39.5 -112q0 -50 32 -78t81 -28q57 0 95 45l65 -80q-68 -71 -172 -71q-101 0 -162 56.5t-61 150.5z" />
<glyph horiz-adv-x="550" d="M409 394l51 233h120l-139 -627h-120l13 56q-58 -67 -137 -67q-78 0 -125.5 49.5t-47.5 138.5q0 52 16 103t45.5 92.5t76 67t102.5 25.5q30 0 57.5 -8.5t50 -24.5t37.5 -38zM149 201q0 -48 28.5 -77t72.5 -29q62 0 104 54l35 157q-10 16 -25.5 27.5t-36.5 18.5t-44 7 q-57 0 -95.5 -47t-38.5 -111z" />
<glyph horiz-adv-x="519" d="M26 193q0 112 75.5 192t187.5 80q88 0 146 -55t58 -148q0 -43 -10 -73h-337v-11q0 -34 33 -64t91 -30q30 0 62 9t52 25l38 -82q-69 -47 -161 -47q-107 0 -171 54.5t-64 149.5zM385 270v9q0 37 -26.5 64t-77.5 27q-46 0 -80.5 -30t-42.5 -70h227z" />
<glyph horiz-adv-x="307" d="M35 0l78 350h-75l22 104h75l6 24q8 37 23 66t36 49.5t49 31.5t62 11q60 0 100 -25l-42 -81q-16 12 -43 12q-51 0 -66 -64l-5 -24h93l-24 -104h-92l-77 -350h-120z" />
<glyph horiz-adv-x="549" d="M-21 -105l71 80q8 -12 20.5 -22t27 -17.5t31 -12.5t34 -7t34.5 -2q103 0 129 117l10 41q-57 -68 -140 -68q-74 0 -122.5 45.5t-48.5 138.5q0 71 27.5 133t82.5 103t125 41q42 0 82.5 -19t64.5 -52l13 60h120l-94 -423q-13 -62 -39.5 -106t-61.5 -66.5t-70.5 -32.5 t-75.5 -10q-146 0 -220 79zM355 162l32 141q-16 26 -45.5 41t-65.5 15q-55 0 -91 -43t-36 -105q0 -46 28.5 -73.5t75.5 -27.5q19 0 38.5 7t35.5 18.5t28 26.5z" />
<glyph horiz-adv-x="545" d="M316 0l59 273q5 18 5 28q0 30 -21 44t-53 14q-57 0 -110 -53l-68 -306h-120l139 627h119l-51 -232q73 70 152 70q43 0 75 -14t49.5 -40.5t17.5 -61.5q0 -13 -5 -37l-69 -312h-119z" />
<glyph horiz-adv-x="237" d="M126 582q0 36 25 59t55 23q11 0 21 -3.5t17.5 -9t13.5 -13t9 -17t3 -18.5q0 -37 -25 -59.5t-55 -22.5q-28 0 -46 17.5t-18 43.5zM8 0l101 454h119l-100 -454h-120z" />
<glyph horiz-adv-x="237" d="M190 521q-28 0 -46 17.5t-18 43.5q0 36 25 59t55 23q11 0 21 -3.5t17.5 -9t13.5 -13t9 -17t3 -18.5q0 -37 -25 -59.5t-55 -22.5zM-121 -174l26 96q14 -6 30 -6q54 0 70 72l104 466h119l-104 -466q-9 -40 -22.5 -70.5t-34.5 -54t-50.5 -35.5t-67.5 -12q-42 0 -70 10z" />
<glyph horiz-adv-x="502" d="M307 0l-83 178l-71 -61l-25 -117h-120l139 627h119l-82 -368l211 195h152l-226 -206l131 -248h-145z" />
<glyph horiz-adv-x="237" d="M8 0l139 627h119l-138 -627h-120z" />
<glyph horiz-adv-x="800" d="M572 0l61 274q3 23 3 31q0 16 -9 29t-23.5 19t-31.5 6q-48 0 -95 -53l-67 -306h-120l61 274q4 24 4 33q0 15 -8 26.5t-23 18.5t-35 7q-47 0 -93 -53l-68 -306h-120l101 454h119l-13 -59q66 70 138 70q32 0 57.5 -10t39.5 -24.5t21 -27t7 -19.5v-3q69 84 157 84 q55 0 92.5 -31t37.5 -85q0 -18 -5 -37l-68 -312h-120z" />
<glyph horiz-adv-x="544" d="M315 0l60 271q5 21 5 30q0 29 -20 43.5t-50 14.5q-60 0 -114 -53l-68 -306h-120l101 454h119l-13 -59q73 70 152 70q43 0 75 -14t49.5 -40.5t17.5 -61.5q0 -13 -5 -37l-70 -312h-119z" />
<glyph horiz-adv-x="539" d="M25 195q0 70 33.5 132t94 100t135.5 38q105 0 165 -57.5t60 -149.5q0 -70 -33 -131.5t-94 -99.5t-136 -38q-106 0 -165.5 57t-59.5 149zM389 253q0 24 -7 44t-20.5 33.5t-33.5 21t-44 7.5q-59 0 -97 -47.5t-38 -110.5q0 -19 4.5 -36t13.5 -30t21.5 -22t29.5 -13.5 t37 -4.5q38 0 69.5 22.5t48 58.5t16.5 77z" />
<glyph horiz-adv-x="548" d="M141 60l-52 -233h-119l139 627h119l-13 -56q58 67 137 67q78 0 125.5 -49.5t47.5 -138.5q0 -52 -16.5 -102.5t-45.5 -92.5t-75.5 -67.5t-101.5 -25.5q-47 0 -84.5 18.5t-60.5 52.5zM400 253q0 48 -28.5 77t-72.5 29q-60 0 -104 -54l-35 -158q15 -24 43 -38t63 -14 q38 0 69 22t48 58t17 78z" />
<glyph horiz-adv-x="548" d="M409 394l12 60h120l-139 -627h-120l52 229q-58 -67 -137 -67q-78 0 -125.5 49.5t-47.5 138.5q0 52 16 103t45.5 92.5t76 67t102.5 25.5q30 0 57.5 -8.5t50 -24.5t37.5 -38zM149 201q0 -48 28.5 -77t72.5 -29q62 0 104 54l35 157q-10 16 -25.5 27.5t-36.5 18.5t-44 7 q-57 0 -95.5 -47t-38.5 -111z" />
<glyph horiz-adv-x="338" d="M8 0l101 454h119l-14 -60q66 70 161 70l-25 -118q-23 6 -44 6q-13 0 -26 -3t-25 -8t-23.5 -12t-21 -15t-17.5 -17l-65 -297h-120z" />
<glyph horiz-adv-x="448" d="M-8 70l65 79q23 -26 68.5 -47.5t91.5 -21.5q30 0 48 14t18 34q0 18 -21 30t-63 26q-20 7 -33.5 12t-33 13.5t-31.5 18t-24.5 22t-18 28t-5.5 34.5q0 63 50 108t137 45q57 0 108 -20t83 -54l-59 -75q-11 14 -31.5 27.5t-48.5 22t-54 8.5q-31 0 -48.5 -12.5t-17.5 -31.5 q0 -15 19.5 -26.5t58.5 -24.5q26 -8 42.5 -14t39.5 -17.5t36.5 -24t23.5 -32.5t10 -43q0 -68 -53 -113.5t-143 -45.5q-63 0 -120 21t-94 60z" />
<glyph horiz-adv-x="317" d="M55 87q0 16 4 31l51 233h-75l23 103h75l28 124h120l-27 -124h92l-25 -103h-92l-43 -198q-2 -11 -2 -19q0 -39 44 -39q22 0 33 9l5 -96q-29 -19 -75 -19q-63 0 -99.5 24.5t-36.5 73.5z" />
<glyph horiz-adv-x="544" d="M228 454l-61 -274q-3 -16 -3 -27q0 -29 21 -43.5t55 -14.5q52 0 108 54l67 305h120l-101 -454h-119l13 59q-72 -70 -151 -70q-66 0 -104 31.5t-38 84.5q0 16 4 37l69 312h120z" />
<glyph horiz-adv-x="482" d="M126 0l-82 454h124l48 -316l190 316h132l-283 -454h-129z" />
<glyph horiz-adv-x="722" d="M407 0l-28 309l-164 -309h-128l-37 454h119l18 -305l167 305h107l31 -305l153 305h128l-239 -454h-127z" />
<glyph horiz-adv-x="473" d="M293 0l-69 153l-138 -153h-137l212 233l-102 221h129l63 -140l125 140h137l-202 -221l112 -233h-130z" />
<glyph horiz-adv-x="482" d="M-6 -70q17 -7 46 -7q35 0 57 32l28 42l-81 457h124l48 -316l190 316h132l-331 -528q-25 -41 -51.5 -65t-56.5 -34.5t-68 -10.5q-44 0 -76 11z" />
<glyph horiz-adv-x="450" d="M-11 0l19 89l259 261h-200l22 104h367l-19 -86l-262 -264h207l-23 -104h-370z" />
<glyph horiz-adv-x="714" d="M270 680h-86l156 135h112zM727 680h-86l156 135h112zM11 0l138 627h134l-138 -627h-134zM230 59l73 100q7 -11 17.5 -20.5t23.5 -16.5t28 -11t31 -4q44 0 72 26.5t39 74.5l92 419h134l-92 -421q-25 -112 -82 -164.5t-153 -52.5q-56 0 -104.5 18t-78.5 52z" />
<glyph horiz-adv-x="510" d="M368 523h-86l156 135h112zM289 0l10 46q-54 -57 -135 -57q-40 0 -73.5 14t-55 44.5t-21.5 72.5q0 50 23 88.5t61 58t84 19.5q97 0 156 -61l12 51q2 12 2 24q0 31 -29 49.5t-76 18.5q-66 0 -127 -43l-29 85q79 55 181 55q56 0 100 -13.5t73.5 -47.5t29.5 -83q0 -24 -6 -48 l-60 -273h-120zM313 107l12 56q-13 19 -40.5 30.5t-61.5 11.5q-39 0 -63 -21t-24 -54q0 -29 22 -44.5t60 -15.5q59 0 95 37z" />
<glyph horiz-adv-x="510" d="M398 523l-51 83l-85 -83h-75l116 135h108l58 -135h-71zM289 0l10 46q-54 -57 -135 -57q-40 0 -73.5 14t-55 44.5t-21.5 72.5q0 50 23 88.5t61 58t84 19.5q97 0 156 -61l12 51q2 12 2 24q0 31 -29 49.5t-76 18.5q-66 0 -127 -43l-29 85q79 55 181 55q56 0 100 -13.5 t73.5 -47.5t29.5 -83q0 -24 -6 -48l-60 -273h-120zM313 107l12 56q-13 19 -40.5 30.5t-61.5 11.5q-39 0 -63 -21t-24 -54q0 -29 22 -44.5t60 -15.5q59 0 95 37z" />
<glyph horiz-adv-x="510" d="M237 522q-24 0 -40.5 16t-16.5 40q0 18 10.5 34.5t27 26.5t34.5 10q12 0 22.5 -4.5t18.5 -12t12 -18t4 -22.5q0 -18 -10 -34.5t-27 -26t-35 -9.5zM435 522q-24 0 -40 16t-16 40q0 28 22 49.5t50 21.5q24 0 40.5 -16.5t16.5 -40.5q0 -18 -10.5 -34.5t-27 -26t-35.5 -9.5z M289 0l10 46q-54 -57 -135 -57q-40 0 -73.5 14t-55 44.5t-21.5 72.5q0 50 23 88.5t61 58t84 19.5q97 0 156 -61l12 51q2 12 2 24q0 31 -29 49.5t-76 18.5q-66 0 -127 -43l-29 85q79 55 181 55q56 0 100 -13.5t73.5 -47.5t29.5 -83q0 -24 -6 -48l-60 -273h-120zM313 107 l12 56q-13 19 -40.5 30.5t-61.5 11.5q-39 0 -63 -21t-24 -54q0 -29 22 -44.5t60 -15.5q59 0 95 37z" />
<glyph horiz-adv-x="510" d="M286 523l-122 135h110l95 -135h-83zM289 0l10 46q-54 -57 -135 -57q-40 0 -73.5 14t-55 44.5t-21.5 72.5q0 50 23 88.5t61 58t84 19.5q97 0 156 -61l12 51q2 12 2 24q0 31 -29 49.5t-76 18.5q-66 0 -127 -43l-29 85q79 55 181 55q56 0 100 -13.5t73.5 -47.5t29.5 -83 q0 -24 -6 -48l-60 -273h-120zM313 107l12 56q-13 19 -40.5 30.5t-61.5 11.5q-39 0 -63 -21t-24 -54q0 -29 22 -44.5t60 -15.5q59 0 95 37z" />
<glyph horiz-adv-x="510" d="M246 589q0 29 15 54t40 39.5t53 14.5q40 0 65 -24.5t25 -65.5q0 -44 -32 -76t-76 -32q-40 0 -65 25t-25 65zM388 602q0 8 -2.5 15.5t-7.5 13t-12.5 8.5t-15.5 3q-13 0 -24 -6.5t-17.5 -17.5t-6.5 -23q0 -18 11 -29t28 -11q19 0 33 14t14 33zM289 0l10 46 q-54 -57 -135 -57q-40 0 -73.5 14t-55 44.5t-21.5 72.5q0 50 23 88.5t61 58t84 19.5q97 0 156 -61l12 51q2 12 2 24q0 31 -29 49.5t-76 18.5q-66 0 -127 -43l-29 85q79 55 181 55q56 0 100 -13.5t73.5 -47.5t29.5 -83q0 -24 -6 -48l-60 -273h-120zM313 107l12 56 q-13 19 -40.5 30.5t-61.5 11.5q-39 0 -63 -21t-24 -54q0 -29 22 -44.5t60 -15.5q59 0 95 37z" />
<glyph horiz-adv-x="510" d="M323 557q-9 10 -13 14t-13 9t-18 5q-29 0 -41 -59h-64q12 63 39 94.5t75 31.5q38 0 69 -36q9 -10 13.5 -14t13 -8.5t17.5 -4.5q29 0 43 58h64q-15 -63 -41.5 -94.5t-73.5 -31.5q-17 0 -31 6t-21 12.5t-18 17.5zM289 0l10 46q-54 -57 -135 -57q-40 0 -73.5 14t-55 44.5 t-21.5 72.5q0 50 23 88.5t61 58t84 19.5q97 0 156 -61l12 51q2 12 2 24q0 31 -29 49.5t-76 18.5q-66 0 -127 -43l-29 85q79 55 181 55q56 0 100 -13.5t73.5 -47.5t29.5 -83q0 -24 -6 -48l-60 -273h-120zM313 107l12 56q-13 19 -40.5 30.5t-61.5 11.5q-39 0 -63 -21t-24 -54 q0 -29 22 -44.5t60 -15.5q59 0 95 37z" />
<glyph horiz-adv-x="827" d="M467 189q-1 -5 -1 -12q0 -34 32.5 -63.5t88.5 -29.5q62 0 105 34l37 -82q-62 -47 -141 -47q-134 0 -195 87q-34 -42 -84.5 -64.5t-108.5 -22.5q-79 0 -132.5 33.5t-53.5 97.5q0 76 53.5 121t123.5 45q103 0 160 -61l8 38q5 18 5 37q0 31 -30.5 49.5t-76.5 18.5 q-76 0 -137 -43l-29 85q77 55 190 55q131 0 156 -91q65 91 179 91q81 0 132.5 -52.5t51.5 -150.5q0 -26 -9 -73h-324zM693 269q1 4 1 10q0 38 -25 64.5t-69 26.5q-48 0 -78 -30t-42 -71h213zM337 163q-13 19 -42 30.5t-63 11.5q-37 0 -66.5 -20t-29.5 -50q0 -25 24 -39.5 t60 -14.5q19 0 38 5t35 14.5t27.5 23t15.5 28.5z" />
<glyph horiz-adv-x="587" d="M35 0l78 350h-75l22 104h75l6 24q8 37 23 66t36 49.5t49 31.5t62 11q60 0 100 -25l-42 -81q-16 12 -43 12q-51 0 -66 -64l-5 -24h93l-24 -104h-92l-77 -350h-120zM338 86q0 14 3 32l113 509h119l-105 -478q-3 -9 -3 -18q0 -16 13 -26t32 -10q23 0 34 9l4 -96 q-25 -19 -74 -19q-64 0 -100 25.5t-36 71.5z" />
<glyph horiz-adv-x="894" d="M35 0l78 350h-75l22 104h75l6 24q8 37 23 66t36 49.5t49 31.5t62 11q60 0 100 -25l-42 -81q-16 12 -43 12q-51 0 -66 -64l-5 -24h93l-24 -104h-92l-77 -350h-120zM342 0l78 350h-75l23 104h75l5 24q17 75 60.5 116.5t110.5 41.5q60 0 99 -25l-41 -81q-16 12 -43 12 q-52 0 -66 -64l-6 -24h93l-23 -104h-92l-78 -350h-120zM646 86q0 14 3 32l112 509h120l-105 -478q-3 -9 -3 -18q0 -16 12.5 -26t32.5 -10q22 0 34 9l3 -96q-25 -19 -74 -19q-64 0 -99.5 25.5t-35.5 71.5z" />
<glyph horiz-adv-x="237" d="M126 582q0 36 25 59t55 23q11 0 21 -3.5t17.5 -9t13.5 -13t9 -17t3 -18.5q0 -37 -25 -59.5t-55 -22.5q-28 0 -46 17.5t-18 43.5zM8 0l101 454h119l-100 -454h-120z" />
<glyph horiz-adv-x="649" d="M237 570h-86l156 135h112zM646 570h-86l156 135h112zM8 0l114 517h124l-113 -517h-125zM209 55l70 87q29 -44 82 -44q75 0 94 82l74 337h124l-76 -348q-21 -96 -70.5 -138t-134.5 -42q-112 0 -163 66z" />
<glyph horiz-adv-x="544" d="M379 523h-86l156 135h112zM-26 -105l70 80q21 -30 62 -45.5t86 -15.5q55 0 85 29t44 88l10 46q-35 -32 -70 -50.5t-81 -18.5q-63 0 -102 30t-39 86q0 14 4 38l66 292h119l-57 -256q-3 -17 -3 -26q0 -57 77 -57q54 0 107 52l63 287h120l-91 -413q-52 -225 -250 -225 q-145 0 -220 79z" />
<glyph horiz-adv-x="544" d="M248 522q-24 0 -40 16t-16 40q0 28 21.5 49.5t49.5 21.5q25 0 41.5 -16.5t16.5 -40.5q0 -27 -22.5 -48.5t-50.5 -21.5zM446 522q-15 0 -28 7t-20.5 20t-7.5 29q0 28 22 49.5t50 21.5q24 0 40.5 -16.5t16.5 -40.5q0 -27 -22 -48.5t-51 -21.5zM-26 -105l70 80 q21 -30 62 -45.5t86 -15.5q55 0 85 29t44 88l10 46q-35 -32 -70 -50.5t-81 -18.5q-63 0 -102 30t-39 86q0 14 4 38l66 292h119l-57 -256q-3 -17 -3 -26q0 -57 77 -57q54 0 107 52l63 287h120l-91 -413q-52 -225 -250 -225q-145 0 -220 79z" />
<glyph horiz-adv-x="550" d="M383 523h-86l156 135h112zM409 394l12 60h120l-100 -454h-120l13 56q-58 -67 -137 -67q-78 0 -125.5 49.5t-47.5 138.5q0 52 16 103t45.5 92.5t76 67t102.5 25.5q30 0 57.5 -8.5t50 -24.5t37.5 -38zM149 201q0 -48 28.5 -77t72.5 -29q62 0 104 54l35 157 q-10 16 -25.5 27.5t-36.5 18.5t-44 7q-57 0 -95.5 -47t-38.5 -111z" />
<glyph horiz-adv-x="550" d="M413 523l-51 83l-85 -83h-75l116 135h108l58 -135h-71zM409 394l12 60h120l-100 -454h-120l13 56q-58 -67 -137 -67q-78 0 -125.5 49.5t-47.5 138.5q0 52 16 103t45.5 92.5t76 67t102.5 25.5q30 0 57.5 -8.5t50 -24.5t37.5 -38zM149 201q0 -48 28.5 -77t72.5 -29 q62 0 104 54l35 157q-10 16 -25.5 27.5t-36.5 18.5t-44 7q-57 0 -95.5 -47t-38.5 -111z" />
<glyph horiz-adv-x="550" d="M252 522q-24 0 -40 16t-16 40q0 28 21.5 49.5t49.5 21.5q25 0 41 -16.5t16 -40.5q0 -27 -22 -48.5t-50 -21.5zM450 522q-24 0 -40 16t-16 40q0 28 22 49.5t50 21.5q24 0 40.5 -16.5t16.5 -40.5q0 -18 -10.5 -34.5t-27 -26t-35.5 -9.5zM409 394l12 60h120l-100 -454h-120 l13 56q-58 -67 -137 -67q-78 0 -125.5 49.5t-47.5 138.5q0 52 16 103t45.5 92.5t76 67t102.5 25.5q30 0 57.5 -8.5t50 -24.5t37.5 -38zM149 201q0 -48 28.5 -77t72.5 -29q62 0 104 54l35 157q-10 16 -25.5 27.5t-36.5 18.5t-44 7q-57 0 -95.5 -47t-38.5 -111z" />
<glyph horiz-adv-x="550" d="M301 523l-122 135h110l95 -135h-83zM409 394l12 60h120l-100 -454h-120l13 56q-58 -67 -137 -67q-78 0 -125.5 49.5t-47.5 138.5q0 52 16 103t45.5 92.5t76 67t102.5 25.5q30 0 57.5 -8.5t50 -24.5t37.5 -38zM149 201q0 -48 28.5 -77t72.5 -29q62 0 104 54l35 157 q-10 16 -25.5 27.5t-36.5 18.5t-44 7q-57 0 -95.5 -47t-38.5 -111z" />
<glyph horiz-adv-x="550" d="M261 589q0 29 15 54t40 39.5t53 14.5q41 0 65.5 -24.5t24.5 -65.5q0 -44 -32 -76t-76 -32q-40 0 -65 25t-25 65zM403 602q0 8 -2.5 15.5t-7.5 13t-12.5 8.5t-15.5 3q-13 0 -24 -6.5t-17.5 -17.5t-6.5 -23q0 -18 11 -29t28 -11q19 0 33 14t14 33zM409 394l12 60h120 l-100 -454h-120l13 56q-58 -67 -137 -67q-78 0 -125.5 49.5t-47.5 138.5q0 52 16 103t45.5 92.5t76 67t102.5 25.5q30 0 57.5 -8.5t50 -24.5t37.5 -38zM149 201q0 -48 28.5 -77t72.5 -29q62 0 104 54l35 157q-10 16 -25.5 27.5t-36.5 18.5t-44 7q-57 0 -95.5 -47t-38.5 -111 z" />
<glyph horiz-adv-x="550" d="M338 557q-9 10 -13 14t-13 9t-18 5q-29 0 -41 -59h-64q12 63 39 94.5t75 31.5q38 0 69 -36q9 -10 13.5 -14t13 -8.5t17.5 -4.5q29 0 43 58h64q-14 -63 -41 -94.5t-74 -31.5q-17 0 -31 6t-21 12.5t-18 17.5zM409 394l12 60h120l-100 -454h-120l13 56q-58 -67 -137 -67 q-78 0 -125.5 49.5t-47.5 138.5q0 52 16 103t45.5 92.5t76 67t102.5 25.5q30 0 57.5 -8.5t50 -24.5t37.5 -38zM149 201q0 -48 28.5 -77t72.5 -29q62 0 104 54l35 157q-10 16 -25.5 27.5t-36.5 18.5t-44 7q-57 0 -95.5 -47t-38.5 -111z" />
<glyph horiz-adv-x="859" d="M441 0h-120l13 56q-58 -67 -137 -67q-78 0 -125.5 49.5t-47.5 138.5q0 52 16 103t45.5 92.5t76 67t102.5 25.5q30 0 57.5 -8.5t50 -24.5t37.5 -38l12 60h120l-12 -55q60 66 138 66q80 0 123.5 -50t43.5 -144q0 -49 -11 -82h-335q-1 -5 -1 -11q0 -34 34 -63t94 -29 q68 0 109 34l37 -84q-32 -22 -71.5 -34.5t-71.5 -12.5q-120 0 -160 88zM725 270q1 2 1 9q0 38 -26.5 64.5t-76.5 26.5q-46 0 -80.5 -30t-42.5 -70h225zM149 201q0 -48 28.5 -77t72.5 -29q62 0 104 54l35 157q-10 16 -25.5 27.5t-36.5 18.5t-44 7q-57 0 -95.5 -47t-38.5 -111 z" />
<glyph horiz-adv-x="469" d="M261 95q57 0 95 45l65 -80q-68 -71 -172 -71h-6l-23 -37q13 9 29 9q24 0 40 -15.5t16 -42.5q0 -39 -30.5 -63t-76.5 -24q-35 0 -65 11t-47 27l33 46q34 -33 79 -33q15 0 25.5 3.5t16 11t5.5 17.5q0 23 -28 23q-15 0 -27 -13l-38 24l36 61q-75 17 -118.5 70.5t-43.5 131.5 q0 112 76.5 190.5t187.5 78.5q131 0 185 -89l-90 -69q-30 52 -95 52q-63 0 -102.5 -46t-39.5 -112q0 -50 32 -78t81 -28z" />
<glyph horiz-adv-x="519" d="M371 523h-85l156 135h112zM26 193q0 112 75.5 192t187.5 80q88 0 146 -55t58 -148q0 -43 -10 -73h-337v-11q0 -34 33 -64t91 -30q30 0 62 9t52 25l38 -82q-69 -47 -161 -47q-107 0 -171 54.5t-64 149.5zM385 270v9q0 37 -26.5 64t-77.5 27q-46 0 -80.5 -30t-42.5 -70h227 z" />
<glyph horiz-adv-x="519" d="M401 523l-50 83l-85 -83h-75l115 135h109l58 -135h-72zM26 193q0 112 75.5 192t187.5 80q88 0 146 -55t58 -148q0 -43 -10 -73h-337v-11q0 -34 33 -64t91 -30q30 0 62 9t52 25l38 -82q-69 -47 -161 -47q-107 0 -171 54.5t-64 149.5zM385 270v9q0 37 -26.5 64t-77.5 27 q-46 0 -80.5 -30t-42.5 -70h227z" />
<glyph horiz-adv-x="519" d="M241 522q-24 0 -40.5 16t-16.5 40q0 18 10.5 34.5t27 26.5t34.5 10q12 0 22.5 -4.5t18 -12t12 -18t4.5 -22.5q0 -18 -10 -34.5t-27 -26t-35 -9.5zM439 522q-16 0 -29 7t-20 20t-7 29q0 18 10 34.5t26.5 26.5t35.5 10q16 0 29 -7.5t20 -20.5t7 -29q0 -27 -22 -48.5 t-50 -21.5zM26 193q0 112 75.5 192t187.5 80q88 0 146 -55t58 -148q0 -43 -10 -73h-337v-11q0 -34 33 -64t91 -30q30 0 62 9t52 25l38 -82q-69 -47 -161 -47q-107 0 -171 54.5t-64 149.5zM385 270v9q0 37 -26.5 64t-77.5 27q-46 0 -80.5 -30t-42.5 -70h227z" />
<glyph horiz-adv-x="519" d="M290 523l-123 135h110l96 -135h-83zM26 193q0 112 75.5 192t187.5 80q88 0 146 -55t58 -148q0 -43 -10 -73h-337v-11q0 -34 33 -64t91 -30q30 0 62 9t52 25l38 -82q-69 -47 -161 -47q-107 0 -171 54.5t-64 149.5zM385 270v9q0 37 -26.5 64t-77.5 27q-46 0 -80.5 -30 t-42.5 -70h227z" />
<glyph horiz-adv-x="237" d="M224 523h-86l156 135h112zM8 0l101 454h119l-100 -454h-120z" />
<glyph horiz-adv-x="237" d="M142 523l-122 135h110l96 -135h-84zM8 0l101 454h119l-100 -454h-120z" />
<glyph horiz-adv-x="237" d="M254 523l-51 83l-85 -83h-75l116 135h108l58 -135h-71zM8 0l101 454h119l-100 -454h-120z" />
<glyph horiz-adv-x="237" d="M93 522q-24 0 -40 16t-16 40q0 28 21.5 49.5t49.5 21.5q25 0 41 -16.5t16 -40.5q0 -27 -22 -48.5t-50 -21.5zM291 522q-24 0 -40 16t-16 40q0 18 10 34.5t27 26.5t35 10q16 0 29 -7.5t20.5 -20.5t7.5 -29q0 -27 -22 -48.5t-51 -21.5zM8 0l101 454h119l-100 -454h-120z " />
<glyph horiz-adv-x="544" d="M335 557l-14 14t-12.5 9t-18.5 5q-29 0 -41 -59h-64q8 42 22 69t37 42t55 15q39 0 69 -36l10.5 -10.5t9.5 -8t12 -6.5t13 -2q28 0 42 58h64q-9 -42 -23 -69t-37 -42t-55 -15q-16 0 -30.5 6t-21.5 12.5t-17 17.5zM315 0l60 271q5 21 5 30q0 29 -20 43.5t-50 14.5 q-60 0 -114 -53l-68 -306h-120l101 454h119l-13 -59q73 70 152 70q43 0 75 -14t49.5 -40.5t17.5 -61.5q0 -13 -5 -37l-70 -312h-119z" />
<glyph horiz-adv-x="539" d="M375 523h-85l156 135h111zM25 195q0 70 33.5 132t94 100t135.5 38q105 0 165 -57.5t60 -149.5q0 -70 -33 -131.5t-94 -99.5t-136 -38q-106 0 -165.5 57t-59.5 149zM389 253q0 24 -7 44t-20.5 33.5t-33.5 21t-44 7.5q-59 0 -97 -47.5t-38 -110.5q0 -19 4.5 -36t13.5 -30 t21.5 -22t29.5 -13.5t37 -4.5q38 0 69.5 22.5t48 58.5t16.5 77z" />
<glyph horiz-adv-x="539" d="M405 523l-51 83l-84 -83h-75l115 135h108l59 -135h-72zM25 195q0 70 33.5 132t94 100t135.5 38q105 0 165 -57.5t60 -149.5q0 -70 -33 -131.5t-94 -99.5t-136 -38q-106 0 -165.5 57t-59.5 149zM389 253q0 24 -7 44t-20.5 33.5t-33.5 21t-44 7.5q-59 0 -97 -47.5 t-38 -110.5q0 -19 4.5 -36t13.5 -30t21.5 -22t29.5 -13.5t37 -4.5q38 0 69.5 22.5t48 58.5t16.5 77z" />
<glyph horiz-adv-x="539" d="M244 522q-24 0 -40 16t-16 40q0 28 22 49.5t49 21.5q17 0 30 -7.5t20.5 -20.5t7.5 -29q0 -27 -22 -48.5t-51 -21.5zM443 522q-16 0 -29 7t-20.5 20t-7.5 29q0 18 10.5 34.5t27 26.5t35.5 10q24 0 40 -16.5t16 -40.5q0 -27 -22 -48.5t-50 -21.5zM25 195q0 70 33.5 132 t94 100t135.5 38q105 0 165 -57.5t60 -149.5q0 -70 -33 -131.5t-94 -99.5t-136 -38q-106 0 -165.5 57t-59.5 149zM389 253q0 24 -7 44t-20.5 33.5t-33.5 21t-44 7.5q-59 0 -97 -47.5t-38 -110.5q0 -19 4.5 -36t13.5 -30t21.5 -22t29.5 -13.5t37 -4.5q38 0 69.5 22.5t48 58.5 t16.5 77z" />
<glyph horiz-adv-x="539" d="M293 523l-122 135h110l96 -135h-84zM25 195q0 70 33.5 132t94 100t135.5 38q105 0 165 -57.5t60 -149.5q0 -70 -33 -131.5t-94 -99.5t-136 -38q-106 0 -165.5 57t-59.5 149zM389 253q0 24 -7 44t-20.5 33.5t-33.5 21t-44 7.5q-59 0 -97 -47.5t-38 -110.5q0 -19 4.5 -36 t13.5 -30t21.5 -22t29.5 -13.5t37 -4.5q38 0 69.5 22.5t48 58.5t16.5 77z" />
<glyph horiz-adv-x="539" d="M550 454l-75 -70q38 -53 38 -126q0 -70 -33 -131.5t-94 -99.5t-136 -38q-92 0 -151 46l-36 -35h-78l77 72q-37 50 -37 123q0 70 33.5 132t94 100t135.5 38q89 0 148 -43l35 32h79zM149 201q0 -23 7 -42l193 181q-26 19 -65 19q-59 0 -97 -47.5t-38 -110.5zM389 253 q0 25 -8 45l-194 -182q25 -21 68 -21q38 0 69.5 22.5t48 58.5t16.5 77z" />
<glyph horiz-adv-x="539" d="M331 557q-8 8 -10.5 11t-9 8t-12 7t-12.5 2q-29 0 -42 -59h-64q9 42 22.5 69t36.5 42t55 15q39 0 70 -36q8 -10 13 -14t13.5 -8.5t17.5 -4.5q29 0 42 58h64q-9 -42 -23 -69t-36.5 -42t-55.5 -15q-16 0 -30 6t-21.5 12.5t-17.5 17.5zM25 195q0 70 33.5 132t94 100 t135.5 38q105 0 165 -57.5t60 -149.5q0 -70 -33 -131.5t-94 -99.5t-136 -38q-106 0 -165.5 57t-59.5 149zM389 253q0 24 -7 44t-20.5 33.5t-33.5 21t-44 7.5q-59 0 -97 -47.5t-38 -110.5q0 -19 4.5 -36t13.5 -30t21.5 -22t29.5 -13.5t37 -4.5q38 0 69.5 22.5t48 58.5 t16.5 77z" />
<glyph horiz-adv-x="875" d="M508 189q0 -1 -0.5 -5t-0.5 -6q0 -36 33 -65t90 -29q19 0 40 4t39.5 11.5t32.5 18.5l37 -82q-66 -47 -159 -47q-68 0 -118 30.5t-68 69.5q-21 -23 -33.5 -35t-37 -30t-53 -26.5t-62.5 -8.5q-100 0 -161.5 55t-61.5 151q0 69 31.5 130t92.5 100.5t137 39.5q64 0 110.5 -31 t65.5 -70q18 21 33 35t38.5 31.5t52.5 26t62 8.5q86 0 144 -53.5t58 -149.5q0 -33 -9 -73h-333zM743 270q1 3 1 9q0 38 -26.5 64.5t-76.5 26.5q-24 0 -46 -9.5t-37.5 -24t-25.5 -32t-13 -34.5h224zM282 359q-27 0 -52 -12.5t-43 -33.5t-28 -50t-10 -62q0 -49 27.5 -77.5 t76.5 -28.5q57 0 94.5 46.5t37.5 111.5q0 53 -29 79.5t-74 26.5z" />
<glyph horiz-adv-x="544" d="M377 523h-86l156 135h112zM228 454l-61 -274q-3 -16 -3 -27q0 -29 21 -43.5t55 -14.5q52 0 108 54l67 305h120l-101 -454h-119l13 59q-72 -70 -151 -70q-66 0 -104 31.5t-38 84.5q0 16 4 37l69 312h120z" />
<glyph horiz-adv-x="544" d="M407 523l-51 83l-84 -83h-76l116 135h108l58 -135h-71zM228 454l-61 -274q-3 -16 -3 -27q0 -29 21 -43.5t55 -14.5q52 0 108 54l67 305h120l-101 -454h-119l13 59q-72 -70 -151 -70q-66 0 -104 31.5t-38 84.5q0 16 4 37l69 312h120z" />
<glyph horiz-adv-x="544" d="M246 522q-24 0 -40 16t-16 40q0 28 22 49.5t49 21.5q25 0 41.5 -16.5t16.5 -40.5q0 -27 -22.5 -48.5t-50.5 -21.5zM445 522q-24 0 -40.5 16t-16.5 40q0 18 10.5 34.5t27 26.5t35.5 10q24 0 40 -16.5t16 -40.5q0 -27 -22 -48.5t-50 -21.5zM228 454l-61 -274q-3 -16 -3 -27 q0 -29 21 -43.5t55 -14.5q52 0 108 54l67 305h120l-101 -454h-119l13 59q-72 -70 -151 -70q-66 0 -104 31.5t-38 84.5q0 16 4 37l69 312h120z" />
<glyph horiz-adv-x="544" d="M295 523l-122 135h110l96 -135h-84zM228 454l-61 -274q-3 -16 -3 -27q0 -29 21 -43.5t55 -14.5q52 0 108 54l67 305h120l-101 -454h-119l13 59q-72 -70 -151 -70q-66 0 -104 31.5t-38 84.5q0 16 4 37l69 312h120z" />
<glyph horiz-adv-x="482" d="M347 523h-86l156 135h112zM-6 -70q17 -7 46 -7q35 0 57 32l28 42l-81 457h124l48 -316l190 316h132l-331 -528q-25 -41 -51.5 -65t-56.5 -34.5t-68 -10.5q-44 0 -76 11z" />
<glyph horiz-adv-x="482" d="M216 522q-24 0 -40 16t-16 40q0 28 21.5 49.5t49.5 21.5q25 0 41.5 -16.5t16.5 -40.5q0 -27 -22.5 -48.5t-50.5 -21.5zM415 522q-16 0 -29 7t-20.5 20t-7.5 29q0 18 10.5 34.5t27 26.5t35.5 10q15 0 28 -7.5t20.5 -20.5t7.5 -29q0 -27 -22 -48.5t-50 -21.5zM-6 -70 q17 -7 46 -7q35 0 57 32l28 42l-81 457h124l48 -316l190 316h132l-331 -528q-25 -41 -51.5 -65t-56.5 -34.5t-68 -10.5q-44 0 -76 11z" />
<glyph horiz-adv-x="539" d="M421 538q97 -120 97 -250q0 -82 -31.5 -149.5t-92.5 -108.5t-141 -41q-104 0 -166.5 54t-62.5 143q0 103 66 174.5t162 71.5q53 0 93 -26t61 -76q-16 75 -111 171l-151 -45l-14 54l116 35q-34 28 -50 41l84 87q60 -47 101 -88l101 30l14 -55zM255 95q55 0 92 39t37 97 q0 40 -29 67.5t-82 27.5q-54 0 -90 -38.5t-36 -94.5q0 -46 28 -72t80 -26z" />
<glyph horiz-adv-x="548" d="M141 60l-52 -233h-119l177 800h119l-51 -229q58 67 137 67q78 0 125.5 -49.5t47.5 -138.5q0 -52 -16.5 -102.5t-45.5 -92.5t-75.5 -67.5t-101.5 -25.5q-47 0 -84.5 18.5t-60.5 52.5zM400 253q0 48 -28.5 77t-72.5 29q-60 0 -104 -54l-35 -158q15 -24 43 -38t63 -14 q38 0 69 22t48 58t17 78z" />
<glyph horiz-adv-x="607" d="M576 249q-60 -85 -119 -142q25 -38 75 -107h-142l-12 16t-14 19q-79 -46 -156 -46q-91 0 -147 41t-56 124q0 44 14 78.5t41 58.5t56 40t68 31q-16 52 -16 99q0 74 55.5 124.5t135.5 50.5q69 0 116.5 -33.5t47.5 -93.5q0 -32 -12 -58t-28 -43t-45 -33t-51.5 -25t-58.5 -21 q15 -31 35 -65q15 -27 43 -76q52 56 85 115zM289 462q0 -29 10 -62q57 19 86.5 41t29.5 56q0 13 -3.5 23.5t-11 16.5t-16.5 9.5t-20 3.5q-30 0 -52.5 -23.5t-22.5 -64.5zM227 83q40 0 85 27q-38 58 -53 85q-28 53 -44 88q-80 -42 -80 -115q0 -41 26.5 -63t65.5 -22z" />
<glyph horiz-adv-x="580" d="M179 0l89 159h-89l-89 -159h-88l89 159h-91l41 76h92l86 156h-91l39 75h94l89 161h88l-88 -161h88l88 161h90l-91 -161h93l-40 -75h-94l-86 -156h95l-41 -76h-97l-87 -159h-89zM396 391h-89l-86 -156h88z" />
<glyph horiz-adv-x="711" d="M77 454q0 80 51 131t123 51q62 0 105.5 -35.5t43.5 -93.5q0 -80 -50.5 -131.5t-122.5 -51.5q-30 0 -57.5 9t-48 25.5t-32.5 41.5t-12 54zM71 0l539 627h72l-540 -627h-71zM316 498q0 28 -19.5 46t-49.5 18q-35 0 -60 -28t-25 -72q0 -28 19 -46t49 -18q36 0 61 28t25 72z M347 119q0 40 14 74.5t38 58t55.5 37t66.5 13.5q63 0 107 -36t44 -95q0 -80 -51.5 -131t-122.5 -51q-63 0 -107 36t-44 94zM587 164q0 27 -19.5 45t-48.5 18q-36 0 -61 -28t-25 -72q0 -28 19 -46.5t48 -18.5q36 0 61.5 28.5t25.5 73.5z" />
<glyph horiz-adv-x="279" d="M116 -102q-37 54 -56.5 129.5t-19.5 157.5q0 147 69 291.5t188 251.5l63 -63q-61 -74 -104 -155.5t-66.5 -173t-23.5 -184.5q0 -97 36 -205z" />
<glyph horiz-adv-x="279" d="M200 728q36 -54 55.5 -130t19.5 -157q0 -147 -68.5 -291.5t-188.5 -251.5l-62 63q92 111 142.5 242.5t50.5 269.5q0 99 -35 206z" />
<glyph horiz-adv-x="263" d="M-28 -94l181 816h203l-18 -80h-116l-146 -656h117l-18 -80h-203z" />
<glyph horiz-adv-x="263" d="M-55 -94l17 80h117l146 656h-117l17 80h203l-181 -816h-202z" />
<glyph horiz-adv-x="270" d="M140 -94q-54 0 -92.5 34t-38.5 86q0 17 4 29l37 162q2 11 2 17q0 20 -10.5 33t-27.5 13l15 68q50 0 63 63l36 161q17 75 63.5 112.5t114.5 37.5h58l-18 -80h-56q-60 0 -76 -70l-40 -183q-17 -70 -62 -83q27 -16 27 -53q0 -17 -4 -32l-35 -165q-2 -11 -2 -17 q0 -24 14.5 -38.5t36.5 -14.5h52l-19 -80h-42z" />
<glyph horiz-adv-x="270" d="M167 722q35 0 65 -15t48 -43t18 -62q0 -18 -4 -30l-36 -161q-1 -11 -1 -17q0 -21 10 -33.5t26 -12.5l-15 -68q-49 0 -63 -63l-35 -161q-18 -75 -64 -112.5t-115 -37.5h-57l17 80h57q59 0 75 69l41 184q15 69 62 83q-28 16 -28 53q0 17 4 32l36 165q2 11 2 17q0 23 -15 38 t-37 15h-52l19 80h42z" />
<glyph horiz-adv-x="240" d="M268 567q0 -16 -7 -31.5t-18 -26.5t-26.5 -17.5t-32.5 -6.5q-28 0 -48 20.5t-20 50.5q0 22 11 41t30.5 30t40.5 11q30 0 50 -20.5t20 -50.5zM214 422l-73 -422h-145l113 422h105z" />
<glyph horiz-adv-x="240" d="M61 204l74 423h144l-113 -423h-105zM8 59q0 34 24.5 58.5t58.5 24.5q29 0 49 -20.5t20 -50.5q0 -33 -24.5 -57.5t-58.5 -24.5q-29 0 -49 20.5t-20 49.5z" />
<glyph horiz-adv-x="240" d="M230 394q0 -16 -6.5 -31.5t-18 -26.5t-27 -17.5t-31.5 -6.5q-15 0 -27.5 5.5t-21.5 15t-14.5 22.5t-5.5 28q0 33 24.5 57.5t58.5 24.5q14 0 27 -5.5t22.5 -15t14.5 -23t5 -27.5zM177 249l-74 -422h-144l112 422h106z" />
<glyph horiz-adv-x="428" d="M366 567q0 -34 -25 -58.5t-59 -24.5q-28 0 -48.5 21t-20.5 50q0 33 25 57.5t59 24.5q29 0 49 -20.5t20 -49.5zM307 434q15 -27 15 -66q0 -28 -9 -50.5t-28.5 -40t-33.5 -26t-39 -22.5q-19 -10 -28.5 -15.5t-21.5 -15t-17 -19.5t-5 -21q0 -24 19.5 -37.5t57.5 -13.5 q66 0 114 45l56 -92q-84 -70 -191 -70q-84 0 -141 37.5t-57 101.5q0 27 8.5 50t18.5 38t30.5 31t32 23t35.5 20q23 13 33.5 19t25 17.5t20.5 23.5t6 27t-11 26z" />
<glyph horiz-adv-x="428" d="M159 192q-16 29 -16 66q0 28 9 50.5t28.5 39.5t34 26t39.5 23q19 10 28 15.5t21 15t17 19.5t5 22q0 23 -19.5 36.5t-56.5 13.5q-65 0 -115 -45l-56 92q84 70 191 70q84 0 141 -37.5t57 -101.5q0 -27 -8 -50t-18.5 -38t-30.5 -31t-32.5 -23t-36.5 -20q-22 -13 -32.5 -19.5 t-25 -17.5t-20 -23t-5.5 -27q0 -16 10 -26zM100 59q0 34 24.5 58.5t58.5 24.5q29 0 49 -20.5t20 -50.5q0 -33 -24.5 -57.5t-59.5 -24.5q-18 0 -34 9.5t-25 25.5t-9 35z" />
<glyph horiz-adv-x="374" d="M327 394q0 -34 -24.5 -58.5t-59.5 -24.5q-28 0 -48 21t-20 50q0 16 6.5 31.5t18 26.5t27 17.5t31.5 6.5q19 0 35 -9.5t25 -25.5t9 -35zM269 261q15 -27 15 -65q0 -29 -9 -51.5t-29 -39.5t-33.5 -26t-39.5 -23q-18 -10 -27.5 -15.5t-21.5 -15t-17 -19.5t-5 -21 q0 -24 19.5 -37.5t57.5 -13.5q65 0 113 45l57 -92q-84 -70 -191 -70q-84 0 -141 37.5t-57 101.5q0 27 8 50t18 38t30.5 31t32.5 23t36 20q23 13 33 19t24.5 17.5t20.5 23.5t6 27t-10 26z" />
<glyph horiz-adv-x="495" d="M161 152l-113 169l188 167h114l-192 -171l109 -165h-106zM339 152l-112 169l187 167h114l-191 -171l109 -165h-107z" />
<glyph horiz-adv-x="495" d="M198 488l113 -169l-188 -167h-114l192 171l-109 165h106zM377 488l113 -169l-188 -167h-114l192 171l-109 165h106z" />
<glyph horiz-adv-x="316" d="M161 152l-113 169l188 167h114l-192 -171l109 -165h-106z" />
<glyph horiz-adv-x="316" d="M199 488l113 -169l-188 -167h-114l192 171l-109 165h106z" />
<glyph horiz-adv-x="282" d="M37 270l22 101h226l-23 -101h-225z" />
<glyph horiz-adv-x="557" d="M37 270l22 101h501l-22 -101h-501z" />
<glyph horiz-adv-x="783" d="M37 270l22 101h727l-23 -101h-726z" />
<glyph horiz-adv-x="240" d="M64 316q0 34 24.5 58.5t59.5 24.5q28 0 48 -20.5t20 -50.5q0 -33 -25 -57.5t-58 -24.5q-15 0 -27.5 6t-21.5 15t-14.5 22t-5.5 27z" />
<glyph horiz-adv-x="336" d="M177 210q-43 0 -72 28.5t-29 71.5q0 50 37.5 86t87.5 36q43 0 72 -28.5t29 -71.5q0 -50 -37.5 -86t-87.5 -36z" />
<glyph horiz-adv-x="577" d="M370 373q29 -11 50 -20.5t44.5 -25t38.5 -32t25.5 -40.5t10.5 -52q0 -94 -71.5 -155.5t-181.5 -58.5l-19 -83h-89l20 92q-61 13 -111 41t-79 66l83 98q47 -63 134 -86l33 147q-37 14 -61.5 26.5t-51.5 32.5t-40.5 47.5t-13.5 61.5q0 88 72.5 147.5t176.5 56.5l19 86h89 l-21 -96q102 -24 160 -91l-84 -94q-39 46 -103 66zM294 402l27 119q-36 1 -62 -17.5t-26 -46.5q0 -29 61 -55zM303 105q45 1 69.5 22.5t24.5 49.5q0 13 -9 24t-22 19t-34 17z" />
<glyph horiz-adv-x="469" d="M299 183q44 6 76 43l65 -80q-63 -67 -162 -71l-19 -83h-87l22 92q-70 19 -109.5 71t-39.5 126q0 109 72.5 187t178.5 83l15 66h88l-18 -75q77 -21 113 -80l-90 -69q-16 28 -49 42zM166 287q0 -65 52 -90l54 241q-48 -12 -77 -54t-29 -97z" />
<glyph horiz-adv-x="469" d="M280 98q44 5 76 42l65 -80q-28 -29 -69 -48.5t-93 -21.5l-18 -84h-88l22 92q-70 19 -109.5 71.5t-39.5 126.5q0 109 72.5 186.5t178.5 82.5l15 66h88l-18 -74q78 -22 113 -81l-90 -69q-16 29 -48 43zM148 201q0 -64 51 -89l54 240q-48 -11 -76.5 -53.5t-28.5 -97.5z" />
<glyph horiz-adv-x="517" d="M357 107q44 0 76 34l29 -106q-45 -47 -115 -47q-42 0 -121 24q-61 17 -86 17q-44 0 -104 -36l-26 92q58 24 95 67t37 90v11h-116l17 76h74q0 1 -2 5q-11 22 -15 31.5t-9 29.5t-5 37q0 85 72.5 144.5t173.5 59.5q81 0 142 -33t80 -93l-122 -49q-6 31 -32 48.5t-62 17.5 q-45 0 -76 -31t-31 -79q0 -22 18 -67q1 -3 4.5 -10t4.5 -11h134l-18 -76h-106q-6 -38 -32 -72t-56 -50q20 6 42 6q30 0 71 -16q43 -14 64 -14z" />
<glyph horiz-adv-x="606" d="M699 627l-258 -296h167l-17 -74h-213l-17 -76h213l-17 -73h-212l-24 -108h-134l24 108h-217l16 73h217l16 76h-215l16 74h168l-127 296h144l101 -252l210 252h159z" />
<glyph horiz-adv-x="666" d="M375 -11q-115 0 -198 60.5t-104 162.5h-57l16 73h36q1 33 6 58h-29l16 73h34q42 103 133.5 162t202.5 59q109 0 179 -49.5t101 -127.5l-129 -44q-18 49 -60 76t-97 27q-53 0 -100 -27.5t-76 -75.5h237l-17 -73h-255q-6 -22 -7 -58h249l-16 -73h-218q8 -24 23 -43.5 t35.5 -33t46.5 -21t56 -7.5q40 0 80.5 20t66.5 53l104 -71q-51 -63 -120 -91.5t-139 -28.5z" />
<glyph d="M210 244q-69 0 -107.5 42.5t-38.5 108.5q0 35 11 74t32 77t60 62.5t88 24.5q68 0 106.5 -42t38.5 -108q0 -36 -10.5 -75t-32 -77t-60 -62.5t-87.5 -24.5zM251 560q-25 0 -44.5 -18t-30.5 -45.5t-16.5 -55t-5.5 -50.5q0 -74 59 -74q25 0 45 18t30.5 45.5t16 55t5.5 50.5 q0 74 -59 74z" />
<glyph horiz-adv-x="268" d="M126 251l56 257l-76 -62l-40 55l156 126h78l-83 -376h-91z" />
<glyph d="M48 251l16 70q100 57 148 88.5t71.5 57t23.5 48.5q0 22 -17.5 33.5t-46.5 11.5q-20 0 -40 -5.5t-36 -14.5t-28 -20l-37 60q27 25 66.5 39t78.5 14q67 0 110 -29.5t43 -79.5t-49.5 -96t-154.5 -105h163l-16 -72h-295z" />
<glyph d="M222 244q-57 0 -102 18.5t-66 50.5l55 55q38 -51 108 -51q31 0 47 14t16 36q0 12 -10 21t-29 14t-45 5q-25 0 -31 -1l15 72q21 -2 62 -2q32 0 49.5 11.5t17.5 32.5q0 13 -10.5 22.5t-27.5 13.5t-37 4q-56 0 -97 -34l-31 57q27 22 63.5 36t73.5 14q71 0 114 -27t43 -74 q0 -37 -27.5 -64.5t-75.5 -30.5q32 -7 52.5 -28t20.5 -53q0 -28 -16.5 -53t-51.5 -42t-80 -17z" />
<glyph d="M323 332l-17 -81h-90l18 81h-185l14 61l200 234h125l-49 -225h49l-15 -70h-50zM281 547l-126 -145h94z" />
<glyph d="M212 244q-49 0 -91.5 16.5t-67.5 48.5l57 54q36 -46 101 -46q34 0 53.5 17.5t19.5 43.5q0 25 -18 38t-49 13q-43 0 -74 -30l-58 19l46 209h272l-16 -72h-181l-20 -88q35 27 76 27q49 0 81.5 -28t32.5 -74q0 -63 -44.5 -105.5t-119.5 -42.5z" />
<glyph d="M222 244q-74 0 -115.5 39.5t-41.5 106.5q0 100 61 171.5t148 71.5q81 0 129 -45l-50 -60q-28 32 -82 32q-49 0 -80 -38t-31 -68v-4q44 50 98 50q52 0 87.5 -30t35.5 -81q0 -39 -18.5 -72t-55.5 -53t-85 -20zM220 430q-36 0 -66 -33q-2 -5 -2 -17q0 -29 18.5 -46t50.5 -17 q29 0 48.5 18t19.5 43t-19 38.5t-50 13.5z" />
<glyph horiz-adv-x="348" d="M186 251h-100l206 304h-196l16 72h296l-14 -62z" />
<glyph d="M220 244q-46 0 -83 10.5t-61.5 34t-24.5 57.5q0 39 31.5 69.5t81.5 35.5q-65 25 -65 79q0 50 43 76.5t103 26.5q39 0 74.5 -10t61.5 -33t26 -56q0 -36 -27 -63.5t-76 -34.5q28 -11 48 -34t20 -52q0 -46 -39 -76t-113 -30zM248 563q-27 0 -44.5 -12t-17.5 -33 q0 -13 11 -24t22.5 -15.5t21.5 -6.5q29 2 51 14t22 35q0 13 -9 22.5t-23.5 14.5t-33.5 5zM227 413q-35 -3 -59.5 -17.5t-24.5 -37.5q0 -20 21 -32.5t50 -12.5q32 0 51.5 13t19.5 34q0 18 -18 32.5t-40 20.5z" />
<glyph d="M245 634q74 0 115 -39t41 -107q0 -100 -60.5 -171.5t-146.5 -71.5q-81 0 -131 45l51 60q29 -32 82 -32q48 0 79.5 38t31.5 68v4q-44 -50 -99 -50q-25 0 -47 7.5t-38.5 21.5t-26.5 35t-10 47q0 60 43.5 102.5t115.5 42.5zM247 447q36 0 65 34q2 5 2 17q0 28 -18.5 45.5 t-49.5 17.5q-29 0 -48.5 -18.5t-19.5 -43.5q0 -24 19.5 -38t49.5 -14z" />
<glyph d="M154 -7q-68 0 -107 42.5t-39 108.5q0 35 11 74t32.5 77t60 62.5t87.5 24.5q69 0 107.5 -42t38.5 -108q0 -36 -11 -75t-32.5 -77t-60 -62.5t-87.5 -24.5zM196 309q-25 0 -44.5 -18t-30.5 -45.5t-16.5 -55t-5.5 -50.5q0 -74 59 -74q25 0 44.5 18t30.5 45.5t16.5 55 t5.5 50.5q0 74 -59 74z" />
<glyph horiz-adv-x="268" d="M70 0l57 257l-76 -62l-41 55l156 126h78l-82 -376h-92z" />
<glyph d="M-8 0l16 70q146 84 195 122t49 72q0 22 -18 33.5t-46 11.5q-30 0 -58.5 -11.5t-45.5 -28.5l-38 60q28 25 67.5 39t78.5 14q66 0 109.5 -29.5t43.5 -79.5t-50 -96t-154 -105h163l-16 -72h-296z" />
<glyph d="M166 -7q-57 0 -102 18.5t-66 50.5l56 56q38 -52 108 -52q31 0 47 14t16 36q0 19 -22.5 29.5t-61.5 10.5q-25 0 -31 -1l15 72q21 -2 61 -2q33 0 50.5 11.5t17.5 32.5q0 19 -22 29.5t-53 10.5q-57 0 -97 -34l-31 57q17 15 39 26t47.5 17.5t49.5 6.5q72 0 115 -27t43 -74 q0 -24 -11.5 -44.5t-35.5 -34.5t-56 -16q32 -7 52.5 -28t20.5 -53q0 -44 -40.5 -78t-108.5 -34z" />
<glyph d="M268 81l-18 -81h-89l18 81h-186l15 61l200 234h125l-49 -225h49l-15 -70h-50zM226 296l-126 -145h94z" />
<glyph d="M157 -7q-50 0 -92.5 16.5t-67.5 48.5l58 54q36 -46 100 -46q35 0 54 17.5t19 43.5q0 25 -18 38t-48 13q-43 0 -75 -30l-58 19l46 209h273l-16 -72h-182l-19 -88q34 27 76 27q48 0 81 -28t33 -74q0 -63 -45 -105.5t-119 -42.5z" />
<glyph d="M166 -7q-74 0 -115.5 39.5t-41.5 106.5q0 100 61 171.5t148 71.5q82 0 130 -45l-50 -60q-29 32 -83 32q-48 0 -79.5 -38t-31.5 -68v-4q45 50 99 50q51 0 86.5 -30t35.5 -81q0 -61 -43 -103t-116 -42zM164 179q-35 0 -65 -33q-2 -5 -2 -17q0 -29 18.5 -46t49.5 -17 q30 0 49 18t19 43q0 16 -9 28t-24.5 18t-35.5 6z" />
<glyph horiz-adv-x="348" d="M131 0h-101l207 304h-197l16 72h296l-14 -62z" />
<glyph d="M164 -7q-71 0 -120 26t-49 76q0 39 31.5 69.5t81.5 35.5q-65 25 -65 79q0 50 43.5 76.5t103.5 26.5q39 0 74.5 -10t61.5 -33t26 -56q0 -24 -11.5 -44t-35.5 -34.5t-57 -19.5q29 -11 49 -34t20 -52q0 -46 -39.5 -76t-113.5 -30zM193 312q-27 0 -44.5 -12t-17.5 -33 q0 -13 11 -24t22 -15.5t21 -6.5q30 3 51.5 14.5t21.5 34.5q0 10 -5 18t-14 13t-20.5 8t-25.5 3zM171 162q-23 -2 -41.5 -8.5t-30.5 -18.5t-12 -28q0 -20 21.5 -32.5t50.5 -12.5q31 0 50.5 13t19.5 34q0 18 -18 32.5t-40 20.5z" />
<glyph d="M190 383q49 0 84.5 -18t53.5 -50.5t18 -77.5q0 -100 -60.5 -171.5t-147.5 -71.5q-81 0 -130 45l50 60q29 -32 83 -32q48 0 79.5 38t31.5 68v4q-45 -50 -100 -50q-51 0 -86 30t-35 81q0 60 43.5 102.5t115.5 42.5zM192 196q35 0 65 34q1 5 1 17q0 28 -18 45.5t-49 17.5 q-20 0 -36 -8.5t-24.5 -22.5t-8.5 -31q0 -24 19.5 -38t50.5 -14z" />
</font>
</defs>
</svg>
