<?xml version="1.0" standalone="no"?>
<!DOCTYPE svg PUBLIC "-//W3C//DTD SVG 1.1//EN" "http://www.w3.org/Graphics/SVG/1.1/DTD/svg11.dtd" >
<svg xmlns="http://www.w3.org/2000/svg" xmlns:xlink="http://www.w3.org/1999/xlink" version="1.1">
<metadata></metadata>
<defs>
<font id="proxima_novabold_italic" horiz-adv-x="424" >
<font-face units-per-em="1000" ascent="790" descent="-210" />
<missing-glyph horiz-adv-x="273" />
<glyph unicode="ffj" horiz-adv-x="970" d="M916 593q-32 0 -52.5 20t-20.5 49q0 28 14.5 50t35 32.5t41.5 10.5q32 0 52.5 -20t20.5 -49q0 -42 -28.5 -67.5t-62.5 -25.5zM40 0l88 398h-85l25 119h86l6 28q13 55 38.5 95t65 62t90.5 22q69 0 114 -28l-47 -93q-19 14 -50 14q-58 0 -75 -72l-6 -28h106l-27 -119h-105 l-87 -398h-137zM389 0l89 398h-85l25 119h86l6 28q19 84 68.5 131.5t125.5 47.5q69 0 113 -28l-47 -93q-18 14 -49 14q-58 0 -75 -72l-6 -28h106l-27 -119h-105l-88 -398h-137zM562 -198l30 109q16 -6 34 -6q61 0 79 81l119 531h136l-119 -531q-21 -94 -68 -145t-131 -51 q-48 0 -80 12z" />
<glyph unicode="fj" horiz-adv-x="620" d="M566 593q-32 0 -52.5 20t-20.5 49q0 42 28.5 67.5t62.5 25.5q32 0 52.5 -20t20.5 -49q0 -42 -28.5 -67.5t-62.5 -25.5zM40 0l88 398h-85l25 119h86l6 28q13 55 38.5 95t65 62t90.5 22q69 0 114 -28l-47 -93q-19 14 -50 14q-58 0 -75 -72l-6 -28h106l-27 -119h-105 l-87 -398h-137zM212 -198l30 109q16 -6 34 -6q61 0 79 81l119 531h136l-119 -531q-20 -94 -67.5 -145t-131.5 -51q-48 0 -80 12z" />
<glyph unicode="&#xfb00;" horiz-adv-x="699" d="M40 0l88 398h-85l25 119h86l6 28q13 55 38.5 95t65 62t90.5 22q69 0 114 -28l-47 -93q-19 14 -50 14q-58 0 -75 -72l-6 -28h106l-27 -119h-105l-87 -398h-137zM389 0l89 398h-85l25 119h86l6 28q19 84 68.5 131.5t125.5 47.5q69 0 113 -28l-47 -93q-18 14 -49 14 q-58 0 -75 -72l-6 -28h106l-27 -119h-105l-88 -398h-137z" />
<glyph unicode="&#xfb01;" horiz-adv-x="620" d="M493 662q0 42 28.5 67.5t62.5 25.5q32 0 52.5 -20t20.5 -49q0 -42 -28.5 -67.5t-62.5 -25.5q-32 0 -52.5 20t-20.5 49zM40 0l88 398h-85l25 119h86l6 28q13 55 38.5 95t65 62t90.5 22q69 0 114 -28l-47 -93q-19 14 -50 14q-58 0 -75 -72l-6 -28h106l-27 -119h-105 l-87 -398h-137zM360 0l114 517h136l-115 -517h-135z" />
<glyph unicode="&#xfb02;" horiz-adv-x="620" d="M40 0l88 398h-85l25 119h86l6 28q13 55 38.5 95t65 62t90.5 22q69 0 114 -28l-47 -93q-19 14 -50 14q-58 0 -75 -72l-6 -28h106l-27 -119h-105l-87 -398h-137zM360 0l157 714h136l-158 -714h-135z" />
<glyph unicode="&#xfb03;" horiz-adv-x="970" d="M843 662q0 28 14.5 50t35 32.5t41.5 10.5q32 0 52.5 -20t20.5 -49q0 -42 -28.5 -67.5t-62.5 -25.5q-32 0 -52.5 20t-20.5 49zM40 0l88 398h-85l25 119h86l6 28q13 55 38.5 95t65 62t90.5 22q69 0 114 -28l-47 -93q-19 14 -50 14q-58 0 -75 -72l-6 -28h106l-27 -119h-105 l-87 -398h-137zM389 0l89 398h-85l25 119h86l6 28q19 84 68.5 131.5t125.5 47.5q69 0 113 -28l-47 -93q-18 14 -49 14q-58 0 -75 -72l-6 -28h106l-27 -119h-105l-88 -398h-137zM709 0l115 517h136l-115 -517h-136z" />
<glyph unicode="&#xfb04;" horiz-adv-x="970" d="M40 0l88 398h-85l25 119h86l6 28q13 55 38.5 95t65 62t90.5 22q69 0 114 -28l-47 -93q-19 14 -50 14q-58 0 -75 -72l-6 -28h106l-27 -119h-105l-87 -398h-137zM389 0l89 398h-85l25 119h86l6 28q19 84 68.5 131.5t125.5 47.5q69 0 113 -28l-47 -93q-18 14 -49 14 q-58 0 -75 -72l-6 -28h106l-27 -119h-105l-88 -398h-137zM709 0l158 714h136l-158 -714h-136z" />
<glyph unicode="fb" horiz-adv-x="976" d="M40 0l88 398h-85l25 119h86l6 28q13 55 38.5 95t65 62t90.5 22q69 0 114 -28l-47 -93q-19 14 -50 14q-58 0 -75 -72l-6 -28h106l-27 -119h-105l-87 -398h-137zM510 68l-15 -68h-135l157 714h136l-58 -261q66 77 156 77q89 0 142.5 -57t53.5 -157q0 -60 -18.5 -117.5 t-51.5 -105t-86 -77t-116 -29.5q-53 0 -96 21.5t-69 59.5zM805 288q0 54 -32.5 87.5t-82.5 33.5q-68 0 -119 -62l-39 -180q17 -27 49 -43t72 -16q66 0 109 53t43 127z" />
<glyph unicode="fh" horiz-adv-x="970" d="M40 0l88 398h-85l25 119h86l6 28q13 55 38.5 95t65 62t90.5 22q69 0 114 -28l-47 -93q-19 14 -50 14q-58 0 -75 -72l-6 -28h106l-27 -119h-105l-87 -398h-137zM709 0l68 310q5 22 5 32q0 34 -23.5 50.5t-60.5 16.5q-65 0 -126 -61l-77 -348h-135l157 714h136l-58 -265 q82 81 172 81q75 0 118.5 -36.5t43.5 -96.5q0 -15 -6 -42l-78 -355h-136z" />
<glyph unicode="fk" horiz-adv-x="922" d="M40 0l88 398h-85l25 119h86l6 28q13 55 38.5 95t65 62t90.5 22q69 0 114 -28l-47 -93q-19 14 -50 14q-58 0 -75 -72l-6 -28h106l-27 -119h-105l-87 -398h-137zM700 0l-95 202l-81 -69l-29 -133h-135l157 714h136l-93 -419l239 222h174l-257 -235l149 -282h-165z" />
<glyph horiz-adv-x="0" />
<glyph horiz-adv-x="333" />
<glyph horiz-adv-x="0" />
<glyph horiz-adv-x="0" />
<glyph unicode="&#xd;" horiz-adv-x="0" />
<glyph unicode=" "  horiz-adv-x="273" />
<glyph unicode="&#x09;" horiz-adv-x="273" />
<glyph unicode="&#xa0;" horiz-adv-x="273" />
<glyph unicode="!" horiz-adv-x="273" d="M70 232l84 482h164l-129 -482h-119zM9 67q0 26 13 47.5t35 34.5t47 13q32 0 55 -24t23 -57q0 -38 -28 -66t-66 -28q-33 0 -56 23.5t-23 56.5z" />
<glyph unicode="&#x22;" horiz-adv-x="434" d="M121 401l10 237q0 37 24.5 61.5t59.5 24.5q27 0 46 -19t19 -48q0 -15 -7 -32l-92 -224h-60zM316 401l9 237q2 37 26 61.5t59 24.5q27 0 46 -19t19 -48q0 -15 -7 -32l-92 -224h-60z" />
<glyph unicode="#" horiz-adv-x="661" d="M203 0l102 181h-102l-100 -181h-101l102 181h-104l47 87h104l98 177h-103l44 86h107l101 183h101l-101 -183h101l100 183h102l-103 -183h105l-45 -86h-107l-98 -177h108l-46 -87h-111l-99 -181h-102zM450 445h-100l-99 -177h101z" />
<glyph unicode="$" horiz-adv-x="656" d="M422 425q41 -16 70 -31t59 -38t46 -54.5t16 -70.5q0 -107 -81.5 -177t-206.5 -67l-21 -94h-102l24 105q-71 14 -127.5 46t-89.5 76l95 111q53 -72 152 -98l37 168q-26 10 -46 19t-43.5 21.5t-40 27.5t-31 33t-21.5 41t-7 49q0 100 82.5 167.5t200.5 64.5l22 98h101 l-24 -109q116 -27 182 -104l-96 -107q-44 52 -116 75zM335 458l30 135q-27 1 -49.5 -8t-36.5 -26.5t-14 -38.5q0 -13 9.5 -24.5t24 -20t36.5 -17.5zM345 120q52 1 79.5 25.5t27.5 55.5q0 22 -19 37.5t-55 31.5z" />
<glyph unicode="%" horiz-adv-x="809" d="M88 517q0 91 58 149t140 58q71 0 120.5 -40t49.5 -107q0 -91 -58 -149.5t-140 -58.5q-71 0 -120.5 40.5t-49.5 107.5zM81 0l613 714h82l-614 -714h-81zM360 567q0 32 -22 52.5t-57 20.5q-40 0 -68.5 -32t-28.5 -83q0 -31 22 -51.5t56 -20.5q41 0 69.5 32t28.5 82z M395 136q0 91 58.5 149t139.5 58q71 0 121.5 -40.5t50.5 -107.5q0 -91 -58.5 -149.5t-139.5 -58.5q-72 0 -122 41t-50 108zM668 186q0 32 -22 52.5t-55 20.5q-41 0 -69.5 -32t-28.5 -83q0 -32 21.5 -52.5t54.5 -20.5q41 0 70 32t29 83z" />
<glyph unicode="&#x26;" horiz-adv-x="691" d="M656 284q-68 -97 -136 -162q29 -44 86 -122h-162q-4 5 -14 18t-16 22q-89 -53 -178 -53q-103 0 -167 47t-64 141q0 50 16.5 89.5t47 67t63.5 45.5t78 35q-18 59 -18 112q0 85 63 142.5t154 57.5q78 0 132 -38t54 -107q0 -23 -4.5 -43t-14.5 -36.5t-21.5 -30t-29 -25.5 t-33 -21t-38 -18.5t-39.5 -15.5t-42 -15q18 -35 40 -73q17 -31 49 -87q60 64 97 131zM328 525q0 -32 12 -69q65 21 99 46t34 64q0 29 -16.5 44.5t-42.5 15.5q-33 0 -59.5 -27t-26.5 -74zM259 94q45 0 96 31q-43 66 -60 96q-32 62 -50 101q-91 -47 -91 -130q0 -32 14.5 -54.5 t38 -33t52.5 -10.5z" />
<glyph unicode="'" horiz-adv-x="240" d="M121 401l10 237q0 37 24.5 61.5t59.5 24.5q27 0 46 -19t19 -48q0 -15 -7 -32l-92 -224h-60z" />
<glyph unicode="(" horiz-adv-x="317" d="M110 -213q-42 62 -63.5 148t-21.5 179q0 167 78 331.5t214 287.5l71 -73q-105 -126 -162.5 -275.5t-57.5 -307.5q0 -111 41 -233z" />
<glyph unicode=")" horiz-adv-x="317" d="M207 733q41 -63 63 -149t22 -178q0 -167 -78.5 -331.5t-214.5 -287.5l-71 73q105 126 163 275.5t58 306.5q0 112 -41 234z" />
<glyph unicode="*" horiz-adv-x="375" d="M181 392l33 122l-113 -52l-20 61l115 41l-91 64l46 54l84 -73l21 115h68l-33 -121l113 52l20 -62l-114 -42l91 -63l-48 -54l-83 73l-20 -115h-69z" />
<glyph unicode="+" horiz-adv-x="539" d="M328 319l-48 -217h-92l48 217h-192l18 84h193l46 209h93l-46 -209h192l-19 -84h-193z" />
<glyph unicode="," horiz-adv-x="273" d="M29 -140l-48 50q32 14 62.5 39t42.5 51h-12q-28 0 -46.5 18.5t-18.5 51.5q0 37 28.5 64.5t65.5 27.5q22 0 40.5 -10t30.5 -30t12 -48q0 -61 -45 -121.5t-112 -92.5z" />
<glyph unicode="-" horiz-adv-x="321" d="M18 201l26 116h257l-26 -116h-257z" />
<glyph unicode="." horiz-adv-x="273" d="M9 67q0 26 13 47.5t35 34.5t47 13q32 0 55 -24t23 -57q0 -38 -28 -66t-66 -28q-33 0 -56 23.5t-23 56.5z" />
<glyph unicode="/" horiz-adv-x="352" d="M-64 -21l420 756h103l-422 -756h-101z" />
<glyph unicode="0" horiz-adv-x="663" d="M46 275q0 86 26 167.5t72 144t113 100t144 37.5q78 0 135.5 -33t89 -98t31.5 -155q0 -69 -16.5 -135.5t-47.5 -123.5t-73.5 -100t-98 -67.5t-117.5 -24.5q-118 0 -188 76t-70 212zM504 445q0 44 -11.5 75.5t-38.5 50.5t-68 19q-56 0 -100 -53t-65 -125t-21 -144 q0 -33 7 -59t20.5 -46t36.5 -30.5t54 -10.5q56 0 100 52.5t65 125t21 145.5z" />
<glyph unicode="1" horiz-adv-x="439" d="M159 0l114 518l-145 -121l-67 91l275 226h133l-158 -714h-152z" />
<glyph unicode="2" horiz-adv-x="642" d="M-7 0l31 141q87 50 139.5 80.5t112 67.5t91.5 62t61.5 53.5t41.5 52.5t12 49q0 26 -16.5 45t-45.5 29.5t-67 10.5q-102 0 -178 -65l-64 110q19 16 41.5 30t48 24.5t52 18t55 11.5t56.5 4q75 0 137 -23t101 -71t39 -113q0 -101 -97.5 -194t-282.5 -189h298l-29 -134h-537z " />
<glyph unicode="3" horiz-adv-x="628" d="M-14 136l100 90q32 -50 91.5 -78t118.5 -28q41 0 70.5 13.5t43.5 35.5t14 50q0 35 -31 56t-100 21q-75 0 -85 -1l30 133q11 -1 99 -1q64 0 101.5 20.5t37.5 63.5q0 24 -16 42.5t-48.5 29t-75.5 10.5q-97 0 -173 -60l-55 104q45 40 109.5 63.5t133.5 23.5 q129 0 205.5 -49.5t76.5 -136.5q0 -68 -58.5 -117.5t-133.5 -58.5q60 -15 96.5 -53.5t36.5 -103.5q0 -93 -80 -155.5t-195 -62.5q-101 0 -187.5 39.5t-125.5 109.5z" />
<glyph unicode="4" horiz-adv-x="638" d="M310 0l32 148h-341l30 132l369 434h220l-97 -433h92l-29 -133h-92l-32 -148h-152zM438 579l-259 -298h192z" />
<glyph unicode="5" horiz-adv-x="650" d="M19 124l106 94q29 -47 79 -72.5t114 -25.5q61 0 98.5 34.5t37.5 83.5q0 30 -17 52t-47.5 34t-70.5 12q-71 0 -131 -45l-98 40l84 383h490l-28 -131h-342l-37 -171q58 45 144 45q91 0 151.5 -53.5t60.5 -147.5q0 -113 -83 -191t-213 -78q-205 0 -298 137z" />
<glyph unicode="6" horiz-adv-x="650" d="M42 263q0 70 16 137t48 125.5t77 103t107.5 70t134.5 25.5q151 0 239 -97l-92 -105q-25 33 -66.5 51.5t-89.5 18.5q-73 0 -125 -52.5t-75 -125.5q-7 -14 -9 -30q29 32 79.5 54t105.5 22q98 0 161.5 -53t63.5 -143q0 -114 -86.5 -195.5t-208.5 -81.5q-132 0 -206 73 t-74 203zM458 244q0 43 -38.5 69.5t-97.5 26.5q-72 0 -129 -53q-3 -9 -3 -39q0 -58 37 -93t96 -35q57 0 96 36t39 88z" />
<glyph unicode="7" horiz-adv-x="583" d="M65 0l382 580h-352l30 134h536l-23 -106l-397 -608h-176z" />
<glyph unicode="8" horiz-adv-x="648" d="M15 179q0 70 52.5 125t145.5 79q-46 21 -77 59t-31 84q0 50 25 89.5t66 62.5t90 34.5t100 11.5q53 0 101.5 -11t88.5 -33t64 -57.5t24 -81.5q0 -27 -8.5 -53t-24.5 -47t-38.5 -38.5t-51.5 -29.5t-62 -19q54 -28 86.5 -70t32.5 -91q0 -63 -42 -111t-108 -71.5t-143 -23.5 q-58 0 -109 11.5t-92 34t-65 60t-24 86.5zM501 515q0 33 -36 55.5t-88 22.5q-49 0 -84 -23t-35 -61q0 -29 31 -52t72 -32q63 4 101.5 28t38.5 62zM444 208q0 22 -16 42t-41 33t-54 20q-33 -2 -61.5 -10t-49.5 -20.5t-33 -31t-12 -39.5q0 -40 36.5 -62t97.5 -22q54 0 93.5 25 t39.5 65z" />
<glyph unicode="9" horiz-adv-x="650" d="M649 449q0 -69 -15.5 -136t-48 -126t-77.5 -103t-107.5 -70t-135.5 -26q-150 0 -237 97l92 105q24 -33 65 -51t90 -18q73 0 125 51.5t76 124.5q8 23 9 30q-30 -31 -81 -52.5t-104 -21.5q-98 0 -162.5 53t-64.5 142q0 114 87.5 195.5t208.5 81.5q132 0 206 -72.5 t74 -203.5zM232 469q0 -22 11 -40t29.5 -30.5t43.5 -19.5t53 -7q72 0 131 54q1 8 1 37q0 58 -37.5 94t-95.5 36t-97 -36t-39 -88z" />
<glyph unicode=":" horiz-adv-x="273" d="M89 431q0 38 28 65.5t66 27.5q33 0 56 -23t23 -56q0 -26 -13 -47.5t-35 -34t-47 -12.5q-33 0 -55.5 23.5t-22.5 56.5zM9 67q0 26 13 47.5t35 34.5t47 13q32 0 55 -24t23 -57q0 -38 -28 -66t-66 -28q-33 0 -56 23.5t-23 56.5z" />
<glyph unicode=";" horiz-adv-x="273" d="M89 431q0 38 28 65.5t66 27.5q33 0 56 -23t23 -56q0 -26 -13 -47.5t-35 -34t-47 -12.5q-33 0 -55.5 23.5t-22.5 56.5zM29 -140l-48 50q32 14 62.5 39t42.5 51h-12q-28 0 -46.5 18.5t-18.5 51.5q0 37 28.5 64.5t65.5 27.5q22 0 40.5 -10t30.5 -30t12 -48q0 -61 -45 -121.5 t-112 -92.5z" />
<glyph unicode="&#x3c;" horiz-adv-x="539" d="M41 309l22 98l524 214l-23 -105l-415 -163l343 -160l-21 -97z" />
<glyph unicode="=" horiz-adv-x="539" d="M65 415l18 86h478l-19 -86h-477zM20 215l20 84h477l-19 -84h-478z" />
<glyph unicode="&#x3e;" horiz-adv-x="539" d="M-6 96l23 105l416 161l-344 162l21 97l430 -214l-21 -98z" />
<glyph unicode="?" horiz-adv-x="487" d="M181 218q-18 33 -18 75q0 26 8 49t19 37.5t30.5 30t32.5 23t36 19.5q21 11 32 17.5t24.5 17t19 22t5.5 25.5q0 17 -9.5 29.5t-29 20t-47.5 7.5q-75 0 -131 -52l-64 105q95 80 217 80q96 0 161 -42.5t65 -115.5q0 -31 -9.5 -57.5t-21 -43t-34.5 -34.5t-37 -26.5t-42 -23.5 q-25 -14 -37 -21.5t-28 -20.5t-23 -26.5t-7 -30.5q0 -18 12 -29zM113 67q0 26 13 47.5t35 34.5t48 13q21 0 39 -11t28.5 -29.5t10.5 -40.5q0 -38 -28 -66t-67 -28q-33 0 -56 23.5t-23 56.5z" />
<glyph unicode="@" horiz-adv-x="837" d="M59 261q0 84 35 162t93.5 134.5t136.5 91t160 34.5q99 0 177 -45t119 -119.5t41 -163.5q0 -64 -20 -116.5t-51.5 -83.5t-68 -47.5t-72.5 -16.5q-45 0 -72 23t-32 56l-2 7q-28 -40 -69 -63t-84 -23q-77 0 -121.5 50t-44.5 130q0 106 73.5 184t168.5 78q31 0 58 -9.5 t45.5 -25.5t30.5 -37l11 57h121l-54 -261q-3 -19 -3 -26q0 -24 10.5 -36t28.5 -12q17 0 34 10t32 30t25 54.5t10 77.5q0 128 -81 207t-215 79q-99 0 -186.5 -52.5t-139.5 -140t-52 -185.5q0 -126 85.5 -211.5t215.5 -85.5q103 0 196 59l23 -32q-105 -68 -223 -68 q-145 0 -242 96.5t-97 239.5zM516 257l26 125q-10 22 -32 38.5t-54 16.5q-62 0 -105 -47.5t-43 -108.5q0 -42 24 -68t65 -26q68 0 119 70z" />
<glyph unicode="A" horiz-adv-x="731" d="M520 0l-18 123h-319l-72 -123h-174l433 714h191l117 -714h-158zM443 583l-189 -328h236z" />
<glyph unicode="B" horiz-adv-x="709" d="M13 0l157 714h347q89 0 141 -50t52 -122q0 -71 -48 -125t-114 -61q48 -12 75.5 -53t27.5 -91q0 -39 -14.5 -75.5t-42.5 -67.5t-78 -50t-114 -19h-389zM548 517q0 28 -21 47.5t-53 19.5h-180l-35 -157h191q51 0 74.5 26.5t23.5 63.5zM499 225q0 32 -21.5 52t-58.5 20h-189 l-36 -168h195q51 0 80.5 28t29.5 68z" />
<glyph unicode="C" horiz-adv-x="735" d="M47 307q0 92 33.5 171.5t90.5 133t132.5 83.5t158.5 30q123 0 203 -56.5t114 -145.5l-147 -49q-20 56 -67.5 86.5t-109.5 30.5q-103 0 -176.5 -79.5t-73.5 -194.5q0 -85 55.5 -140t146.5 -55q46 0 91.5 22.5t76.5 59.5l116 -80q-56 -72 -135 -104.5t-158 -32.5 q-73 0 -137.5 23t-111.5 64t-74.5 101.5t-27.5 131.5z" />
<glyph unicode="D" horiz-adv-x="768" d="M446 714q80 0 150 -37.5t114.5 -109t44.5 -160.5q0 -59 -15.5 -115t-51 -109.5t-87.5 -93.5t-131.5 -64.5t-176.5 -24.5h-280l157 714h276zM321 134q125 0 200.5 76t75.5 187q0 79 -50.5 131t-129.5 52h-124l-98 -446h126z" />
<glyph unicode="E" horiz-adv-x="623" d="M13 0l157 714h505l-30 -131h-352l-33 -155h345l-29 -131h-346l-36 -165h352l-28 -132h-505z" />
<glyph unicode="F" horiz-adv-x="610" d="M13 0l157 714h505l-30 -131h-352l-33 -155h345l-29 -131h-346l-65 -297h-152z" />
<glyph unicode="G" horiz-adv-x="770" d="M47 307q0 89 32.5 167t89 133t136.5 86.5t171 31.5q107 0 182.5 -49t111.5 -124l-140 -60q-19 44 -67.5 71.5t-107.5 27.5q-101 0 -175.5 -79.5t-74.5 -194.5q0 -84 55 -139.5t147 -55.5q80 0 144 55l18 86h-190l30 131h341l-62 -276q-35 -42 -80 -71t-98.5 -44.5 t-111.5 -15.5q-98 0 -177 38.5t-126.5 112t-47.5 169.5z" />
<glyph unicode="H" horiz-adv-x="782" d="M502 0l66 300h-337l-66 -300h-152l157 714h152l-61 -281h336l62 281h153l-157 -714h-153z" />
<glyph unicode="I" horiz-adv-x="293" d="M13 0l157 714h152l-157 -714h-152z" />
<glyph unicode="J" horiz-adv-x="520" d="M-31 67l82 114q18 -27 48.5 -43t66.5 -16q50 0 82 30.5t44 83.5l105 478h152l-105 -480q-19 -85 -53.5 -139t-87.5 -81t-126 -27q-63 0 -119 20.5t-89 59.5z" />
<glyph unicode="K" horiz-adv-x="680" d="M445 0l-157 292l-74 -73l-49 -219h-152l157 714h152l-67 -306l311 306h196l-358 -335l220 -379h-179z" />
<glyph unicode="L" horiz-adv-x="559" d="M13 0l157 714h152l-127 -580h300l-28 -134h-454z" />
<glyph unicode="M" horiz-adv-x="914" d="M633 0l115 522l-316 -522h-66l-87 522l-114 -522h-152l157 714h208l72 -454l274 454h220l-158 -714h-153z" />
<glyph unicode="N" horiz-adv-x="780" d="M505 0l-229 506l-111 -506h-152l157 714h156l223 -489l108 489h152l-157 -714h-147z" />
<glyph unicode="O" horiz-adv-x="818" d="M47 307q0 115 54.5 211t150 151.5t210.5 55.5q74 0 138 -22.5t111 -63t74 -101t27 -131.5q0 -116 -54 -212t-149 -152t-211 -56q-99 0 -178.5 38.5t-126 112t-46.5 169.5zM654 396q0 88 -57 141.5t-144 53.5q-104 0 -176 -80t-72 -194q0 -89 57 -142t145 -53 q103 0 175 79.5t72 194.5z" />
<glyph unicode="P" horiz-adv-x="667" d="M13 0l157 714h308q100 0 159 -57t59 -141q0 -34 -9 -68.5t-31 -70t-55 -63t-85 -44.5t-116 -17h-180l-55 -253h-152zM408 386q39 0 68.5 15.5t44.5 41t15 58.5q0 36 -24.5 59t-65.5 23h-153l-43 -197h158z" />
<glyph unicode="Q" horiz-adv-x="818" d="M812 407q0 -102 -42.5 -189.5t-116.5 -144.5l36 -58l-122 -59l-33 54q-64 -23 -136 -23q-99 0 -178.5 38.5t-126 112t-46.5 169.5q0 115 54.5 211t150 151.5t210.5 55.5q74 0 138 -22.5t111 -63t74 -101t27 -131.5zM576 195q78 81 78 201q0 88 -57 141.5t-144 53.5 q-104 0 -176 -80t-72 -194q0 -89 57 -142t145 -53q26 0 52 6l-66 106l121 58z" />
<glyph unicode="R" horiz-adv-x="688" d="M423 0l-84 256h-119l-55 -256h-152l157 714h305q90 0 155.5 -56t65.5 -145q0 -96 -57.5 -164t-146.5 -85l99 -264h-168zM409 386q39 0 68 14.5t44 39.5t15 58q0 24 -12.5 44t-33 30.5t-45.5 10.5h-152l-43 -197h159z" />
<glyph unicode="S" horiz-adv-x="642" d="M-1 120l93 110q38 -50 103.5 -80t138.5 -30q53 0 80 24.5t27 57.5q0 16 -9 28.5t-28 24t-37 19t-48 18.5q-27 10 -44 16.5t-43.5 18.5t-43 22.5t-36 27t-31 34t-19 41t-7.5 50.5q0 41 19 80.5t53.5 71t88.5 51t117 19.5q86 0 161.5 -30t122.5 -85l-94 -106q-36 43 -94 67 t-115 24q-43 0 -71 -22.5t-28 -52.5q0 -14 8.5 -26t27.5 -22.5t37.5 -18.5t48.5 -19q26 -9 43.5 -16t44 -18.5t43.5 -22.5t36.5 -27.5t31 -33.5t19 -40t7.5 -49q0 -99 -76 -169t-204 -70q-103 0 -190 36.5t-133 96.5z" />
<glyph unicode="T" horiz-adv-x="622" d="M178 0l127 580h-209l30 134h570l-29 -134h-209l-127 -580h-153z" />
<glyph unicode="U" horiz-adv-x="778" d="M367 -13q-141 0 -217.5 67.5t-76.5 181.5q0 33 8 74l89 404h154l-89 -405q-7 -27 -7 -58q0 -28 9.5 -51.5t28 -41t46.5 -27.5t64 -10q147 0 184 168l94 425h154l-94 -428q-16 -69 -40.5 -120.5t-64.5 -93.5t-101 -63.5t-141 -21.5z" />
<glyph unicode="V" horiz-adv-x="731" d="M212 0l-118 714h166l77 -549l318 549h181l-433 -714h-191z" />
<glyph unicode="W" horiz-adv-x="982" d="M559 0l-18 490l-232 -490h-161l-47 714h165l12 -516l250 516h118l22 -516l238 516h175l-361 -714h-161z" />
<glyph unicode="X" horiz-adv-x="714" d="M488 0l-130 254l-229 -254h-190l343 376l-170 338h173l116 -237l209 237h191l-324 -357l183 -357h-172z" />
<glyph unicode="Y" horiz-adv-x="690" d="M212 0l64 292l-182 422h165l114 -287l239 287h182l-366 -422l-64 -292h-152z" />
<glyph unicode="Z" horiz-adv-x="633" d="M-13 0l27 123l429 457h-327l28 134h537l-26 -122l-431 -458h337l-30 -134h-544z" />
<glyph unicode="[" horiz-adv-x="299" d="M-54 -203l207 928h231l-20 -90h-133l-166 -747h133l-20 -91h-232z" />
<glyph unicode="\" horiz-adv-x="352" d="M105 735h98l86 -756h-99z" />
<glyph unicode="]" horiz-adv-x="299" d="M-85 -203l21 91h132l166 747h-132l19 90h231l-206 -928h-231z" />
<glyph unicode="^" horiz-adv-x="471" d="M377 356l-57 265l-173 -265h-106l246 358h99l86 -358h-95z" />
<glyph unicode="_" horiz-adv-x="603" d="M-91 -134l21 91h609l-21 -91h-609z" />
<glyph unicode="`" horiz-adv-x="268" d="M247 595l-139 154h125l109 -154h-95z" />
<glyph unicode="a" horiz-adv-x="627" d="M465 448l14 69h137l-114 -517h-137l15 64q-66 -77 -155 -77q-90 0 -143.5 56.5t-53.5 157.5q0 60 18 117.5t51.5 105t86.5 77t117 29.5q34 0 65 -9.5t56.5 -28t42.5 -44.5zM170 229q0 -55 32.5 -88t82.5 -33q70 0 118 61l40 180q-18 27 -49.5 43.5t-71.5 16.5 q-65 0 -108.5 -53.5t-43.5 -126.5z" />
<glyph unicode="b" horiz-adv-x="627" d="M160 68l-14 -68h-136l157 714h136l-58 -261q66 77 156 77q89 0 142.5 -57t53.5 -157q0 -60 -18.5 -117.5t-51.5 -105t-86 -77t-116 -29.5q-53 0 -96 21.5t-69 59.5zM455 288q0 54 -32.5 87.5t-82.5 33.5q-68 0 -119 -62l-39 -180q17 -27 49 -43t72 -16q66 0 109 53 t43 127z" />
<glyph unicode="c" horiz-adv-x="533" d="M30 223q0 128 87 217.5t214 89.5q51 0 93 -13.5t70 -36t46 -52.5l-101 -78q-16 27 -44.5 43t-63.5 16q-48 0 -85.5 -25t-57.5 -65.5t-20 -89.5q0 -57 36.5 -89t92.5 -32q65 0 109 51l73 -91q-33 -34 -82.5 -57.5t-112.5 -23.5q-77 0 -134.5 29.5t-88.5 82.5t-31 124z" />
<glyph unicode="d" horiz-adv-x="627" d="M465 448l58 266h137l-158 -714h-137l15 64q-66 -77 -155 -77q-90 0 -143.5 56.5t-53.5 157.5q0 60 18 117.5t51.5 105t86.5 77t117 29.5q34 0 65 -9.5t56.5 -28t42.5 -44.5zM170 229q0 -55 32.5 -88t82.5 -33q70 0 118 61l40 180q-18 27 -49.5 43.5t-71.5 16.5 q-65 0 -108.5 -53.5t-43.5 -126.5z" />
<glyph unicode="e" horiz-adv-x="591" d="M30 219q0 84 38 155t107 113.5t153 42.5q102 0 167.5 -62.5t65.5 -168.5q0 -50 -11 -84h-384v-13q0 -38 38 -72.5t103 -34.5q35 0 71 10.5t60 28.5l42 -93q-78 -54 -183 -54q-80 0 -140.5 28t-93.5 80.5t-33 123.5zM439 307v11q0 42 -30.5 73t-88.5 31q-52 0 -91.5 -35 t-48.5 -80h259z" />
<glyph unicode="f" horiz-adv-x="349" d="M40 0l88 398h-85l25 119h86l6 28q13 55 38.5 95t65 62t90.5 22q69 0 114 -28l-47 -93q-19 14 -50 14q-58 0 -75 -72l-6 -28h106l-27 -119h-105l-87 -398h-137z" />
<glyph unicode="g" horiz-adv-x="625" d="M-24 -120l81 91q24 -33 69.5 -51t98.5 -18q116 0 146 133l11 47q-64 -78 -158 -78q-85 0 -140 52t-55 158q0 80 31 151.5t93.5 118t142.5 46.5q48 0 94 -22t73 -60l15 69h137l-107 -482q-12 -56 -35 -100t-50 -71t-61.5 -44t-66.5 -23.5t-68 -6.5q-166 0 -251 90z M404 184l37 161q-19 30 -52 47t-74 17q-63 0 -104 -49t-41 -120q0 -35 14.5 -61t41.5 -40t62 -14q32 0 63.5 16.5t52.5 42.5z" />
<glyph unicode="h" horiz-adv-x="620" d="M360 0l67 310q5 22 5 32q0 34 -23.5 50.5t-60.5 16.5q-64 0 -125 -61l-77 -348h-136l157 714h136l-58 -265q82 81 172 81q75 0 118.5 -36.5t43.5 -96.5q0 -15 -5 -42l-79 -355h-135z" />
<glyph unicode="i" horiz-adv-x="270" d="M143 662q0 28 14.5 50t35 32.5t41.5 10.5q32 0 52.5 -20t20.5 -49q0 -42 -28 -67.5t-63 -25.5q-32 0 -52.5 20t-20.5 49zM10 0l114 517h136l-114 -517h-136z" />
<glyph unicode="j" horiz-adv-x="270" d="M216 593q-32 0 -52.5 20t-20.5 49q0 28 14.5 50t35 32.5t41.5 10.5q32 0 52.5 -20t20.5 -49q0 -42 -28 -67.5t-63 -25.5zM-138 -198l30 109q16 -6 34 -6q61 0 79 81l119 531h136l-119 -531q-20 -94 -67.5 -145t-131.5 -51q-48 0 -80 12z" />
<glyph unicode="k" horiz-adv-x="572" d="M350 0l-95 202l-81 -69l-28 -133h-136l157 714h136l-93 -419l239 222h174l-257 -235l149 -282h-165z" />
<glyph unicode="l" horiz-adv-x="270" d="M10 0l157 714h136l-157 -714h-136z" />
<glyph unicode="m" horiz-adv-x="911" d="M651 0l69 312q4 26 4 35q0 28 -21 45t-52 17q-55 0 -109 -60l-75 -349h-137l69 312q5 27 5 38q0 26 -20.5 42.5t-55.5 16.5q-52 0 -105 -60l-77 -349h-136l114 517h136l-15 -68q75 81 157 81q36 0 65 -12t45 -28t24.5 -30.5t8.5 -22.5v-4q77 97 178 97q40 0 73 -15 t54 -46t21 -72q0 -20 -5 -42l-78 -355h-137z" />
<glyph unicode="n" horiz-adv-x="619" d="M358 0l69 308q5 24 5 34q0 34 -22.5 50.5t-56.5 16.5q-68 0 -130 -60l-77 -349h-136l114 517h136l-15 -68q82 81 172 81q75 0 118.5 -36.5t43.5 -96.5q0 -15 -5 -42l-80 -355h-136z" />
<glyph unicode="o" horiz-adv-x="614" d="M29 221q0 81 37.5 151.5t107 114t153.5 43.5q121 0 189 -66t68 -170q0 -80 -37.5 -150t-107 -113.5t-154.5 -43.5q-121 0 -188.5 65t-67.5 169zM443 288q0 56 -32 88.5t-88 32.5q-67 0 -110.5 -54t-43.5 -126q0 -56 32 -88.5t89 -32.5q66 0 109.5 54t43.5 126z" />
<glyph unicode="p" horiz-adv-x="623" d="M160 68l-58 -265h-136l158 714h136l-15 -64q66 77 156 77q89 0 142.5 -57t53.5 -157q0 -60 -18.5 -117.5t-51.5 -105t-86 -77t-116 -29.5q-53 0 -96 21.5t-69 59.5zM455 288q0 54 -32.5 87.5t-82.5 33.5q-68 0 -119 -62l-39 -180q17 -27 49 -43t72 -16q66 0 109 53 t43 127z" />
<glyph unicode="q" horiz-adv-x="623" d="M465 448l14 69h137l-158 -714h-137l59 261q-66 -77 -155 -77q-90 0 -143.5 56.5t-53.5 157.5q0 60 18 117.5t51.5 105t86.5 77t117 29.5q34 0 65 -9.5t56.5 -28t42.5 -44.5zM170 229q0 -55 32.5 -88t82.5 -33q70 0 118 61l40 180q-18 27 -49.5 43.5t-71.5 16.5 q-65 0 -108.5 -53.5t-43.5 -126.5z" />
<glyph unicode="r" horiz-adv-x="385" d="M10 0l114 517h136l-16 -69q75 81 183 81l-29 -135q-26 6 -50 6q-36 0 -70 -17.5t-59 -44.5l-73 -338h-136z" />
<glyph unicode="s" horiz-adv-x="510" d="M-10 80l75 90q26 -30 78 -54.5t104 -24.5q34 0 54.5 15.5t20.5 39.5q0 20 -23.5 34t-71.5 30q-29 9 -46.5 16t-43.5 20.5t-40.5 27t-25.5 35t-11 46.5q0 72 57 123.5t156 51.5q65 0 123.5 -23t94.5 -62l-67 -85q-21 25 -64.5 45.5t-88.5 20.5q-35 0 -55 -14.5t-20 -35.5 q0 -17 22 -30t67 -28q29 -9 47.5 -16t45 -20.5t42 -27.5t27 -36.5t11.5 -49.5q0 -77 -60.5 -129t-163.5 -52q-72 0 -136.5 24t-107.5 69z" />
<glyph unicode="t" horiz-adv-x="361" d="M63 100q0 18 4 35l58 264h-85l26 118h86l31 141h137l-31 -141h105l-28 -118h-105l-49 -225q-2 -12 -2 -21q0 -45 50 -45q25 0 37 11l6 -109q-33 -23 -86 -23q-71 0 -112.5 28.5t-41.5 84.5z" />
<glyph unicode="u" horiz-adv-x="619" d="M260 517l-70 -312q-4 -19 -4 -31q0 -33 24 -49.5t63 -16.5q60 0 123 61l77 348h136l-115 -517h-136l15 67q-82 -80 -172 -80q-74 0 -117.5 36t-43.5 97q0 17 5 42l78 355h137z" />
<glyph unicode="v" horiz-adv-x="548" d="M143 0l-93 517h142l54 -360l216 360h150l-322 -517h-147z" />
<glyph unicode="w" horiz-adv-x="822" d="M463 0l-32 352l-186 -352h-145l-43 517h136l20 -348l190 348h121l36 -348l174 348h146l-272 -517h-145z" />
<glyph unicode="x" horiz-adv-x="539" d="M334 0l-79 174l-158 -174h-155l241 265l-116 252h147l72 -160l142 160h156l-230 -252l128 -265h-148z" />
<glyph unicode="y" horiz-adv-x="548" d="M-6 -79q18 -9 52 -9q39 0 64 37l32 48l-92 520h142l54 -360l216 360h150l-377 -602q-42 -68 -88.5 -96.5t-111.5 -28.5q-49 0 -86 13z" />
<glyph unicode="z" horiz-adv-x="512" d="M-13 0l23 102l294 296h-228l26 119h417l-21 -99l-299 -299h235l-25 -119h-422z" />
<glyph unicode="{" horiz-adv-x="308" d="M138 -203q-61 0 -105 38.5t-44 98.5q0 19 5 33l41 184q2 13 2 19q0 23 -11.5 38t-30.5 15l17 77q56 0 71 71l41 183q20 86 72.5 128.5t130.5 42.5h66l-21 -90h-64q-67 0 -85 -80l-46 -208q-19 -80 -71 -96q31 -17 31 -59q0 -20 -4 -37l-41 -187q-2 -13 -2 -20 q0 -18 7.5 -32t21 -21t30.5 -7h59l-22 -91h-48z" />
<glyph unicode="|" horiz-adv-x="231" d="M92 -21v756h91v-756h-91z" />
<glyph unicode="}" horiz-adv-x="308" d="M169 725q30 0 57 -10t47.5 -27.5t32.5 -43.5t12 -56q0 -20 -4 -33l-41 -184q-2 -13 -2 -19q0 -23 11 -37.5t30 -14.5l-17 -77q-56 0 -71 -72l-41 -183q-20 -86 -72.5 -128.5t-130.5 -42.5h-66l21 91h64q68 0 86 79l47 208q17 80 69 96q-31 17 -31 60q0 19 4 36l41 187 q2 13 2 21q0 26 -16.5 43t-42.5 17h-58l21 90h48z" />
<glyph unicode="~" horiz-adv-x="545" d="M615 703q-57 -262 -202 -262q-27 0 -46.5 8t-30 18.5t-18 30t-10 32t-5.5 34.5q-3 18 -4.5 26.5t-5.5 19t-10.5 15t-16.5 4.5q-30 0 -60 -56t-46 -132l-90 11q10 53 26 96.5t39.5 82t58.5 60.5t78 22q22 0 39 -5t28.5 -15.5t19 -20.5t12 -26.5t7 -27.5t4.5 -28 q3 -22 5.5 -34.5t10.5 -22.5t21 -10q31 0 61 57.5t45 133.5z" />
<glyph unicode="&#xa1;" horiz-adv-x="273" d="M262 448q0 -37 -28.5 -65t-66.5 -28q-33 0 -55.5 23.5t-22.5 56.5q0 26 13 47.5t34.5 34.5t46.5 13q13 0 25.5 -4.5t22 -12t16.5 -17.5t11 -22t4 -26zM201 284l-83 -481h-165l128 481h120z" />
<glyph unicode="&#xa2;" horiz-adv-x="533" d="M319 111q50 6 87 48l73 -91q-72 -76 -184 -80l-21 -95h-100l25 105q-79 22 -124 81.5t-45 143.5q0 124 82.5 212.5t203.5 94.5l17 75h99l-20 -85q88 -24 128 -92l-101 -78q-19 32 -56 48zM168 229q0 -73 59 -102l61 274q-55 -13 -87.5 -61t-32.5 -111z" />
<glyph unicode="&#xa3;" horiz-adv-x="588" d="M407 122q50 0 86 38l33 -120q-51 -54 -131 -54q-48 0 -138 28q-69 19 -98 19q-50 0 -118 -40l-29 103q65 28 107.5 77t42.5 102v13h-132l19 86h84q0 2 -2 6q-12 25 -17 36t-11 33.5t-6 42.5q0 96 83 164t198 68q93 0 162 -37.5t90 -105.5l-138 -57q-7 36 -36.5 56 t-70.5 20q-52 0 -87 -35t-35 -90q0 -25 21 -77q1 -3 4.5 -11t5.5 -13h152l-20 -86h-121q-7 -44 -36.5 -82.5t-63.5 -56.5q23 7 48 7q34 0 81 -18q48 -16 73 -16z" />
<glyph unicode="&#xa4;" horiz-adv-x="666" d="M609 491q23 -49 23 -106q0 -112 -77 -195l60 -74l-91 -73l-63 79q-57 -28 -126 -28q-91 0 -157 42l-105 -85l-71 89l99 79q-25 48 -25 105q0 114 76 197l-60 78l91 73l63 -82q59 27 128 27q91 0 160 -43l102 82l70 -85zM215 333q0 -51 33 -84.5t93 -33.5q44 0 79 22.5 t54.5 59t19.5 79.5q0 52 -33 85.5t-96 33.5q-66 0 -108 -48t-42 -114z" />
<glyph unicode="&#xa5;" horiz-adv-x="690" d="M796 714l-294 -337h190l-19 -85h-243l-19 -85h243l-19 -84h-242l-27 -123h-153l27 123h-246l18 84h247l18 85h-245l18 85h191l-145 337h165l115 -287l238 287h182z" />
<glyph unicode="&#xa6;" horiz-adv-x="231" d="M92 397v338h91v-338h-91zM92 -21v338h91v-338h-91z" />
<glyph unicode="&#xa7;" horiz-adv-x="517" d="M376 198q64 -36 64 -106q0 -77 -61 -128t-158 -51q-79 0 -146 23.5t-109 65.5l76 81q19 -22 48 -39.5t62.5 -27t67.5 -9.5q38 0 61 19t23 46q0 9 -3 16.5t-11 14t-15 11.5t-21 10.5t-22.5 9t-26.5 9.5l-31.5 12t-31 13.5t-31 16.5t-25 19t-22 24t-13 28.5t-5.5 35.5 q0 53 35 93t102 58q-18 8 -32.5 19.5t-25 25.5t-16 31.5t-5.5 36.5q0 73 59.5 120.5t153.5 47.5q148 0 228 -78l-71 -75q-24 27 -66 42.5t-86 15.5q-39 0 -61 -16.5t-22 -41.5q0 -12 7 -22t23.5 -18.5t29 -13.5t38.5 -13l33 -12t31 -12.5t31 -15.5t26 -19t22 -24t13 -29 t6 -36q0 -53 -33.5 -96t-89.5 -62zM285 398q-51 -7 -76.5 -29t-25.5 -52q0 -27 24 -44.5t69 -31.5q42 11 62 34t20 50q0 48 -73 73z" />
<glyph unicode="&#xa8;" horiz-adv-x="452" d="M195 594q-28 0 -46 18.5t-18 45.5q0 32 24.5 56t56.5 24q28 0 46.5 -18.5t18.5 -45.5q0 -31 -25 -55.5t-57 -24.5zM421 594q-28 0 -46.5 18.5t-18.5 45.5q0 32 25 56t58 24q27 0 45.5 -18.5t18.5 -45.5q0 -20 -11.5 -39t-31 -30t-39.5 -11z" />
<glyph unicode="&#xa9;" horiz-adv-x="832" d="M437 -12q-75 0 -143.5 29.5t-117.5 79t-78.5 117.5t-29.5 143q0 101 49.5 186t134.5 134.5t185 49.5t185.5 -49.5t135 -134.5t49.5 -186q0 -100 -49.5 -185t-135 -134.5t-185.5 -49.5zM436.5 688q-89.5 0 -165.5 -44.5t-120 -120.5t-44 -166q0 -89 44 -165t120 -120.5 t166 -44.5q67 0 128 26.5t105.5 70.5t71 105.5t26.5 127.5q0 90 -44.5 166t-121 120.5t-166 44.5zM568 189q-69 -57 -149 -57q-92 0 -148 55.5t-56 140.5q0 108 75 181.5t174 73.5q37 0 69 -9t58.5 -28.5t44.5 -47.5l-41 -29q-39 71 -133 71q-75 0 -136.5 -61t-61.5 -149 q0 -31 11 -59t30.5 -49.5t49.5 -34.5t66 -13q68 0 121 52z" />
<glyph unicode="&#xaa;" horiz-adv-x="442" d="M483 685l-75 -336h-100l9 42q-43 -51 -101 -51q-56 0 -95 37t-39 105q0 88 53 149.5t128 61.5t111 -50l9 42h100zM185 494q0 -37 20 -56.5t53 -19.5q40 0 75 37l29 130q-24 30 -74 30q-44 0 -73.5 -36t-29.5 -85z" />
<glyph unicode="&#xab;" horiz-adv-x="563" d="M159 67l-128 193l214 189h129l-218 -194l124 -188h-121zM363 67l-129 193l213 189h131l-218 -194l124 -188h-121z" />
<glyph unicode="&#xac;" horiz-adv-x="551" d="M498 215h-87l45 200h-391l18 86h478z" />
<glyph unicode="&#xad;" horiz-adv-x="321" d="M18 201l26 116h257l-26 -116h-257z" />
<glyph unicode="&#xae;" horiz-adv-x="528" d="M316 271q-94 0 -160 66.5t-66 160.5t66.5 160t160.5 66t160.5 -66t66.5 -160t-67 -160.5t-161 -66.5zM316 690q-53 0 -97 -25.5t-69.5 -70t-25.5 -96.5q0 -80 56 -136.5t136 -56.5q79 0 136 56.5t57 136.5t-57 136t-136 56zM352 367l-45 103h-47l-22 -103h-37l57 260h98 q34 0 55.5 -19.5t21.5 -48.5q0 -25 -12.5 -45.5t-32 -31.5t-40.5 -11l47 -104h-43zM349 595h-61l-22 -92h70q26 0 42.5 15t16.5 37q0 18 -12 29t-34 11z" />
<glyph unicode="&#xaf;" horiz-adv-x="388" d="M91 601l18 77h360l-20 -77h-358z" />
<glyph unicode="&#xb0;" horiz-adv-x="332" d="M235 435q-59 0 -101 42t-42 102q0 39 19 72.5t52 53t72 19.5q61 0 103.5 -42.5t42.5 -102.5t-42.5 -102t-103.5 -42zM235 651q-28 0 -48 -21t-20 -51q0 -29 19.5 -49.5t47.5 -20.5q30 0 51.5 20.5t21.5 49.5q0 30 -21 51t-51 21z" />
<glyph unicode="&#xb1;" horiz-adv-x="539" d="M335 349l-48 -218h-93l48 218h-193l19 83h193l47 211h92l-47 -211h193l-18 -83h-193zM-27 0l18 83h478l-19 -83h-477z" />
<glyph unicode="&#xb2;" d="M91 450l18 80q166 96 221.5 139t55.5 82q0 25 -20.5 38t-51.5 13q-35 0 -67 -12.5t-52 -33.5l-43 69q21 19 49 32.5t58 20.5t59 7q75 0 124.5 -33.5t49.5 -90.5q0 -30 -15 -58t-47 -56.5t-72 -55t-98 -58.5h185l-18 -83h-336z" />
<glyph unicode="&#xb3;" d="M289 443q-65 0 -116.5 21t-75.5 57l63 63q22 -29 55 -44t69 -15q35 0 53 16t18 41q0 22 -25.5 34t-69.5 12q-29 0 -35 -1l17 81q23 -2 69 -2q38 0 57.5 13.5t19.5 36.5t-24.5 34.5t-60.5 11.5q-64 0 -110 -38l-36 64q15 13 33 23t38 18t42 12t42 4q82 0 131 -30.5 t49 -84.5q0 -42 -31.5 -73t-86.5 -35q37 -7 60.5 -31.5t23.5 -60.5q0 -50 -46 -88.5t-123 -38.5z" />
<glyph unicode="&#xb4;" horiz-adv-x="268" d="M169 595h-97l177 154h128z" />
<glyph unicode="&#xb5;" horiz-adv-x="632" d="M100 -197h-137l161 714h137l-71 -313q-10 -47 10.5 -72t63.5 -25q36 0 70 17.5t60 42.5l77 350h137l-80 -362q-5 -22 3.5 -34.5t29.5 -12.5q8 0 21 2l-17 -115q-32 -8 -65 -8q-113 0 -118 92q-34 -41 -77.5 -66.5t-89.5 -25.5q-23 0 -41.5 8t-25.5 21z" />
<glyph unicode="&#xb6;" horiz-adv-x="480" d="M281 -107l167 754h-83l-167 -754h-67l100 453q-39 0 -72.5 21t-53.5 59.5t-20 86.5q0 78 60 139.5t147 61.5h239l-182 -821h-68z" />
<glyph unicode="&#xb7;" horiz-adv-x="273" d="M50 255q0 39 28 66.5t68 27.5q32 0 55 -23.5t23 -56.5q0 -38 -28.5 -66t-67.5 -28q-21 0 -39 11t-28.5 29.5t-10.5 39.5z" />
<glyph unicode="&#xb8;" horiz-adv-x="236" d="M-95 -166l37 53q39 -39 90 -39q25 0 39.5 10t14.5 28q0 25 -32 25q-18 0 -32 -15l-42 28l51 88h67l-41 -67q15 11 33 11q27 0 45 -18t18 -48q0 -45 -34.5 -72.5t-86.5 -27.5q-40 0 -74 12.5t-53 31.5z" />
<glyph unicode="&#xb9;" horiz-adv-x="306" d="M180 450l64 293l-87 -71l-46 63l178 143h89l-94 -428h-104z" />
<glyph unicode="&#xba;" horiz-adv-x="433" d="M81 496q0 83 61 140t143 57q79 0 126 -43.5t47 -112.5q0 -83 -60.5 -140t-142.5 -57q-79 0 -126.5 43.5t-47.5 112.5zM356 538q0 35 -19.5 54.5t-54.5 19.5q-46 0 -72.5 -36t-26.5 -83q0 -34 20 -54t55 -20q46 0 72 36.5t26 82.5z" />
<glyph unicode="&#xbb;" horiz-adv-x="563" d="M203 449l129 -192l-214 -190h-130l219 195l-125 187h121zM407 449l128 -192l-214 -190h-129l218 195l-124 187h121z" />
<glyph unicode="&#xbc;" horiz-adv-x="866" d="M143 286l65 292l-87 -71l-46 63l178 144h88l-94 -428h-104zM165 0h-82l614 714h82zM747 92l-20 -92h-102l20 92h-211l16 70l228 266h143l-56 -256h56l-17 -80h-57zM699 337l-144 -165h107z" />
<glyph unicode="&#xbd;" horiz-adv-x="920" d="M143 286l65 292l-87 -71l-46 63l178 144h88l-94 -428h-104zM165 0h-82l614 714h82zM487 0l18 79q166 96 221.5 139.5t55.5 82.5q0 24 -20.5 37.5t-52.5 13.5q-34 0 -66 -13t-52 -33l-43 68q21 19 49 33t58 20.5t59 6.5q75 0 124.5 -33t49.5 -91q0 -56 -57 -108.5 t-175 -119.5h185l-18 -82h-336z" />
<glyph unicode="&#xbe;" horiz-adv-x="966" d="M253 278q-65 0 -116.5 21t-75.5 57l63 63q22 -29 55 -43.5t68 -14.5t53.5 16t18.5 40q0 22 -25.5 34t-69.5 12q-29 0 -36 -1l17 82q24 -3 70 -3q37 0 57 13.5t20 37.5q0 22 -24.5 34t-61.5 12q-64 0 -110 -39l-35 64q30 26 72 41.5t83 15.5q54 0 94 -13.5t63 -39.5 t23 -61q0 -28 -13.5 -51t-40.5 -39t-64 -18q37 -8 60.5 -32t23.5 -60q0 -51 -46.5 -89.5t-122.5 -38.5zM264 0h-81l613 714h82zM846 92l-20 -92h-102l21 92h-211l16 70l228 266h142l-55 -256h55l-17 -80h-57zM798 337l-143 -165h107z" />
<glyph unicode="&#xbf;" horiz-adv-x="425" d="M372 448q0 -38 -28 -66t-67 -28q-32 0 -55 23.5t-23 56.5q0 39 28.5 67t66.5 28q33 0 55.5 -24t22.5 -57zM306 297q17 -31 17 -74q0 -27 -8.5 -49.5t-19 -37.5t-30.5 -30t-32.5 -22t-35.5 -20q-21 -11 -31.5 -17.5t-24.5 -17.5t-19.5 -22t-5.5 -24q0 -18 9.5 -31t29 -20 t48.5 -7q75 0 130 51l64 -104q-95 -81 -217 -81q-96 0 -161 43t-65 116q0 30 9.5 56.5t21 43.5t34.5 35t36.5 26.5t40.5 23.5q26 14 38 21t28.5 20t23.5 26.5t7 30.5t-12 30z" />
<glyph unicode="&#xc0;" horiz-adv-x="731" d="M432 774l-139 154h125l110 -154h-96zM520 0l-18 123h-319l-72 -123h-174l433 714h191l117 -714h-158zM443 583l-189 -328h236z" />
<glyph unicode="&#xc1;" horiz-adv-x="731" d="M525 774h-97l178 154h127zM520 0l-18 123h-319l-72 -123h-174l433 714h191l117 -714h-158zM443 583l-189 -328h236z" />
<glyph unicode="&#xc2;" horiz-adv-x="731" d="M560 774l-58 95l-96 -95h-86l132 154h123l66 -154h-81zM520 0l-18 123h-319l-72 -123h-174l433 714h191l117 -714h-158zM443 583l-189 -328h236z" />
<glyph unicode="&#xc3;" horiz-adv-x="731" d="M475 813q-8 9 -11.5 12l-10.5 9t-13.5 8t-14.5 2q-33 0 -47 -66h-73q14 71 44.5 107t84.5 36q44 0 80 -41q9 -11 14.5 -16t15 -9.5t20.5 -4.5q32 0 48 65h73q-8 -35 -18.5 -61t-26 -45t-37 -28.5t-49.5 -9.5q-19 0 -35 7t-24 14.5t-20 20.5zM520 0l-18 123h-319l-72 -123 h-174l433 714h191l117 -714h-158zM443 583l-189 -328h236z" />
<glyph unicode="&#xc4;" horiz-adv-x="731" d="M377 773q-28 0 -46.5 18t-18.5 46q0 32 25 56t57 24q28 0 46.5 -18.5t18.5 -45.5q0 -32 -25 -56t-57 -24zM602 773q-27 0 -45.5 18t-18.5 46q0 32 25 56t58 24q27 0 45.5 -18.5t18.5 -45.5q0 -32 -25 -56t-58 -24zM520 0l-18 123h-319l-72 -123h-174l433 714h191 l117 -714h-158zM443 583l-189 -328h236z" />
<glyph unicode="&#xc5;" horiz-adv-x="731" d="M387 850q0 32 17 60.5t45.5 45.5t60.5 17q46 0 74 -28.5t28 -74.5q0 -51 -36 -87t-87 -36q-45 0 -73.5 28.5t-28.5 74.5zM549 863q0 21 -12 34t-32 13q-22 0 -38.5 -16.5t-16.5 -37.5t12.5 -33.5t32.5 -12.5q22 0 38 16t16 37zM520 0l-18 123h-319l-72 -123h-174l433 714 h191l117 -714h-158zM443 583l-189 -328h236z" />
<glyph unicode="&#xc6;" horiz-adv-x="1035" d="M428 0l28 123h-253l-99 -123h-171l591 714h566l-29 -131h-352l-34 -155h345l-29 -131h-345l-37 -165h353l-29 -132h-505zM555 582l-252 -327h182z" />
<glyph unicode="&#xc7;" horiz-adv-x="735" d="M407 122q46 0 91.5 22.5t76.5 59.5l116 -80q-56 -72 -135 -104.5t-158 -32.5q-19 0 -29 1l-27 -43q16 11 34 11q27 0 45 -18t18 -48q0 -45 -34.5 -72.5t-86.5 -27.5q-41 0 -75 12.5t-53 31.5l38 53q38 -39 90 -39q25 0 39 10t14 28q0 25 -32 25q-18 0 -31 -15l-43 28 l43 73q-117 24 -189 107t-72 203q0 92 33.5 171.5t90.5 133t132.5 83.5t158.5 30q123 0 203 -56.5t114 -145.5l-147 -49q-20 56 -67.5 86.5t-109.5 30.5q-103 0 -176.5 -79.5t-73.5 -194.5q0 -85 55.5 -140t146.5 -55z" />
<glyph unicode="&#xc8;" horiz-adv-x="623" d="M396 774l-139 154h125l109 -154h-95zM13 0l157 714h505l-30 -131h-352l-33 -155h345l-29 -131h-346l-36 -165h352l-28 -132h-505z" />
<glyph unicode="&#xc9;" horiz-adv-x="623" d="M489 774h-97l177 154h128zM13 0l157 714h505l-30 -131h-352l-33 -155h345l-29 -131h-346l-36 -165h352l-28 -132h-505z" />
<glyph unicode="&#xca;" horiz-adv-x="623" d="M523 774l-58 95l-96 -95h-85l131 154h123l67 -154h-82zM13 0l157 714h505l-30 -131h-352l-33 -155h345l-29 -131h-346l-36 -165h352l-28 -132h-505z" />
<glyph unicode="&#xcb;" horiz-adv-x="623" d="M340 773q-27 0 -45.5 18t-18.5 46q0 32 25 56t56 24q28 0 47 -18.5t19 -45.5q0 -32 -25.5 -56t-57.5 -24zM566 773q-27 0 -45.5 18t-18.5 46q0 32 25 56t57 24q28 0 46 -18.5t18 -45.5q0 -32 -25 -56t-57 -24zM13 0l157 714h505l-30 -131h-352l-33 -155h345l-29 -131 h-346l-36 -165h352l-28 -132h-505z" />
<glyph unicode="&#xcc;" horiz-adv-x="293" d="M214 774l-139 154h125l109 -154h-95zM13 0l157 714h152l-157 -714h-152z" />
<glyph unicode="&#xcd;" horiz-adv-x="293" d="M307 774h-97l177 154h128zM13 0l157 714h152l-157 -714h-152z" />
<glyph unicode="&#xce;" horiz-adv-x="293" d="M341 774l-57 95l-97 -95h-85l131 154h123l67 -154h-82zM13 0l157 714h152l-157 -714h-152z" />
<glyph unicode="&#xcf;" horiz-adv-x="293" d="M158 773q-27 0 -45.5 18t-18.5 46q0 32 25 56t56 24q28 0 47 -18.5t19 -45.5q0 -32 -25.5 -56t-57.5 -24zM384 773q-27 0 -45.5 18t-18.5 46q0 32 25 56t57 24q28 0 46.5 -18.5t18.5 -45.5q0 -32 -25.5 -56t-57.5 -24zM13 0l157 714h152l-157 -714h-152z" />
<glyph unicode="&#xd0;" horiz-adv-x="793" d="M472 714q59 0 115 -22.5t99.5 -61.5t69.5 -97.5t26 -125.5q0 -59 -15.5 -115t-51 -109.5t-88 -93.5t-132 -64.5t-176.5 -24.5h-280l65 295h-88l28 123h88l64 296h276zM347 134q125 0 201 76t76 187q0 78 -51 130.5t-129 52.5h-125l-35 -162h158l-27 -123h-159l-36 -161 h127z" />
<glyph unicode="&#xd1;" horiz-adv-x="780" d="M500 813q-11 12 -15.5 16.5t-14.5 9.5t-21 5q-33 0 -47 -66h-72q14 71 44.5 107t84.5 36q27 0 45 -11t34 -30q10 -11 15.5 -16t15 -9.5t19.5 -4.5q33 0 49 65h72q-16 -72 -46 -108t-84 -36q-19 0 -35 7t-24.5 14.5t-19.5 20.5zM505 0l-229 506l-111 -506h-152l157 714 h156l223 -489l108 489h152l-157 -714h-147z" />
<glyph unicode="&#xd2;" horiz-adv-x="818" d="M474 774l-139 154h125l109 -154h-95zM47 307q0 115 54.5 211t150 151.5t210.5 55.5q74 0 138 -22.5t111 -63t74 -101t27 -131.5q0 -116 -54 -212t-149 -152t-211 -56q-99 0 -178.5 38.5t-126 112t-46.5 169.5zM654 396q0 88 -57 141.5t-144 53.5q-104 0 -176 -80 t-72 -194q0 -89 57 -142t145 -53q103 0 175 79.5t72 194.5z" />
<glyph unicode="&#xd3;" horiz-adv-x="818" d="M567 774h-97l177 154h128zM47 307q0 115 54.5 211t150 151.5t210.5 55.5q74 0 138 -22.5t111 -63t74 -101t27 -131.5q0 -116 -54 -212t-149 -152t-211 -56q-99 0 -178.5 38.5t-126 112t-46.5 169.5zM654 396q0 88 -57 141.5t-144 53.5q-104 0 -176 -80t-72 -194 q0 -89 57 -142t145 -53q103 0 175 79.5t72 194.5z" />
<glyph unicode="&#xd4;" horiz-adv-x="818" d="M601 774l-57 95l-97 -95h-85l131 154h123l67 -154h-82zM47 307q0 115 54.5 211t150 151.5t210.5 55.5q74 0 138 -22.5t111 -63t74 -101t27 -131.5q0 -116 -54 -212t-149 -152t-211 -56q-99 0 -178.5 38.5t-126 112t-46.5 169.5zM654 396q0 88 -57 141.5t-144 53.5 q-104 0 -176 -80t-72 -194q0 -89 57 -142t145 -53q103 0 175 79.5t72 194.5z" />
<glyph unicode="&#xd5;" horiz-adv-x="818" d="M517 813l-12 12t-10 9t-13.5 8t-14.5 2q-34 0 -48 -66h-72q14 71 44.5 107t84.5 36q44 0 79 -41q10 -11 15.5 -16t15 -9.5t20.5 -4.5q32 0 48 65h73q-17 -72 -47 -108t-84 -36q-19 0 -35 7t-24 14.5t-20 20.5zM47 307q0 115 54.5 211t150 151.5t210.5 55.5 q74 0 138 -22.5t111 -63t74 -101t27 -131.5q0 -116 -54 -212t-149 -152t-211 -56q-99 0 -178.5 38.5t-126 112t-46.5 169.5zM654 396q0 88 -57 141.5t-144 53.5q-104 0 -176 -80t-72 -194q0 -89 57 -142t145 -53q103 0 175 79.5t72 194.5z" />
<glyph unicode="&#xd6;" horiz-adv-x="818" d="M418 773q-27 0 -45.5 18t-18.5 46q0 32 25 56t56 24q28 0 47 -18.5t19 -45.5q0 -32 -25.5 -56t-57.5 -24zM644 773q-27 0 -45.5 18t-18.5 46q0 32 25 56t57 24q28 0 46.5 -18.5t18.5 -45.5q0 -32 -25.5 -56t-57.5 -24zM47 307q0 115 54.5 211t150 151.5t210.5 55.5 q74 0 138 -22.5t111 -63t74 -101t27 -131.5q0 -116 -54 -212t-149 -152t-211 -56q-99 0 -178.5 38.5t-126 112t-46.5 169.5zM654 396q0 88 -57 141.5t-144 53.5q-104 0 -176 -80t-72 -194q0 -89 57 -142t145 -53q103 0 175 79.5t72 194.5z" />
<glyph unicode="&#xd7;" horiz-adv-x="539" d="M282 297l-186 -153l-52 65l188 154l-115 147l67 56l113 -149l189 153l52 -64l-188 -155l114 -148l-66 -53z" />
<glyph unicode="&#xd8;" horiz-adv-x="818" d="M827 714l-94 -97q79 -86 79 -210q0 -116 -54 -212t-149 -152t-211 -56q-129 0 -221 64l-52 -51h-109l103 104q-72 85 -72 203q0 115 54.5 211t150 151.5t210.5 55.5q120 0 211 -57l45 46h109zM205 317q0 -57 25 -100l337 344q-50 30 -114 30q-104 0 -176 -80t-72 -194z M654 396q0 64 -31 110l-342 -347q53 -37 126 -37q103 0 175 79.5t72 194.5z" />
<glyph unicode="&#xd9;" horiz-adv-x="778" d="M455 774l-139 154h125l109 -154h-95zM367 -13q-141 0 -217.5 67.5t-76.5 181.5q0 33 8 74l89 404h154l-89 -405q-7 -27 -7 -58q0 -28 9.5 -51.5t28 -41t46.5 -27.5t64 -10q147 0 184 168l94 425h154l-94 -428q-16 -69 -40.5 -120.5t-64.5 -93.5t-101 -63.5t-141 -21.5z " />
<glyph unicode="&#xda;" horiz-adv-x="778" d="M548 774h-98l178 154h127zM367 -13q-141 0 -217.5 67.5t-76.5 181.5q0 33 8 74l89 404h154l-89 -405q-7 -27 -7 -58q0 -28 9.5 -51.5t28 -41t46.5 -27.5t64 -10q147 0 184 168l94 425h154l-94 -428q-16 -69 -40.5 -120.5t-64.5 -93.5t-101 -63.5t-141 -21.5z" />
<glyph unicode="&#xdb;" horiz-adv-x="778" d="M582 774l-58 95l-96 -95h-86l132 154h123l66 -154h-81zM367 -13q-141 0 -217.5 67.5t-76.5 181.5q0 33 8 74l89 404h154l-89 -405q-7 -27 -7 -58q0 -28 9.5 -51.5t28 -41t46.5 -27.5t64 -10q147 0 184 168l94 425h154l-94 -428q-16 -69 -40.5 -120.5t-64.5 -93.5 t-101 -63.5t-141 -21.5z" />
<glyph unicode="&#xdc;" horiz-adv-x="778" d="M399 773q-27 0 -45.5 18t-18.5 46q0 32 25 56t56 24q28 0 47 -18.5t19 -45.5q0 -32 -25.5 -56t-57.5 -24zM625 773q-27 0 -45.5 18t-18.5 46q0 32 25 56t57 24q27 0 45.5 -18.5t18.5 -45.5q0 -32 -25 -56t-57 -24zM367 -13q-141 0 -217.5 67.5t-76.5 181.5q0 33 8 74 l89 404h154l-89 -405q-7 -27 -7 -58q0 -28 9.5 -51.5t28 -41t46.5 -27.5t64 -10q147 0 184 168l94 425h154l-94 -428q-16 -69 -40.5 -120.5t-64.5 -93.5t-101 -63.5t-141 -21.5z" />
<glyph unicode="&#xdd;" horiz-adv-x="690" d="M505 774h-97l177 154h128zM212 0l64 292l-182 422h165l114 -287l239 287h182l-366 -422l-64 -292h-152z" />
<glyph unicode="&#xde;" horiz-adv-x="667" d="M13 0l157 714h152l-25 -116h167q91 0 148.5 -57.5t57.5 -139.5q0 -37 -10 -72.5t-32.5 -70t-55.5 -61t-84 -42.5t-112 -16h-180l-31 -139h-152zM511 384q0 14 -4 27t-12 23.5t-19 18t-25.5 11.5t-29.5 4h-153l-43 -197h158q59 0 93.5 33t34.5 80z" />
<glyph unicode="&#xdf;" horiz-adv-x="688" d="M434 -13q-74 0 -129 22.5t-100 71.5l75 86q62 -74 158 -74q35 0 56.5 17t21.5 40q0 19 -21 31t-64 26q-26 8 -41.5 13.5t-38.5 17.5t-36 25t-23 33t-10 44q0 25 8 47t17.5 36t28 29.5t29.5 22t32 18.5q31 18 46.5 31t15.5 29t-11.5 29t-31 20t-43.5 7q-30 0 -54 -13 t-39 -35t-22 -53l-112 -508h-136l111 508q22 96 87.5 156t174.5 60q42 0 81.5 -10.5t71 -29.5t50.5 -47.5t19 -61.5q0 -25 -8 -46t-18.5 -34.5t-29 -28t-30.5 -21.5t-33 -18q-20 -11 -27 -15.5t-19.5 -13.5t-17 -17.5t-4.5 -18.5q0 -12 12 -21.5t25.5 -15t39.5 -14.5 q19 -6 27 -9t26 -9.5t27.5 -12t23.5 -14.5t22 -18.5t16.5 -21.5t12 -27t3.5 -32q0 -74 -61.5 -127t-157.5 -53z" />
<glyph unicode="&#xe0;" horiz-adv-x="627" d="M342 595l-139 154h125l110 -154h-96zM465 448l14 69h137l-114 -517h-137l15 64q-66 -77 -155 -77q-90 0 -143.5 56.5t-53.5 157.5q0 60 18 117.5t51.5 105t86.5 77t117 29.5q34 0 65 -9.5t56.5 -28t42.5 -44.5zM170 229q0 -55 32.5 -88t82.5 -33q70 0 118 61l40 180 q-18 27 -49.5 43.5t-71.5 16.5q-65 0 -108.5 -53.5t-43.5 -126.5z" />
<glyph unicode="&#xe1;" horiz-adv-x="627" d="M435 595h-97l178 154h127zM465 448l14 69h137l-114 -517h-137l15 64q-66 -77 -155 -77q-90 0 -143.5 56.5t-53.5 157.5q0 60 18 117.5t51.5 105t86.5 77t117 29.5q34 0 65 -9.5t56.5 -28t42.5 -44.5zM170 229q0 -55 32.5 -88t82.5 -33q70 0 118 61l40 180 q-18 27 -49.5 43.5t-71.5 16.5q-65 0 -108.5 -53.5t-43.5 -126.5z" />
<glyph unicode="&#xe2;" horiz-adv-x="627" d="M470 595l-58 95l-96 -95h-86l132 154h123l66 -154h-81zM465 448l14 69h137l-114 -517h-137l15 64q-66 -77 -155 -77q-90 0 -143.5 56.5t-53.5 157.5q0 60 18 117.5t51.5 105t86.5 77t117 29.5q34 0 65 -9.5t56.5 -28t42.5 -44.5zM170 229q0 -55 32.5 -88t82.5 -33 q70 0 118 61l40 180q-18 27 -49.5 43.5t-71.5 16.5q-65 0 -108.5 -53.5t-43.5 -126.5z" />
<glyph unicode="&#xe3;" horiz-adv-x="627" d="M385 635q-8 9 -11 12t-10.5 8.5t-14 8t-14.5 2.5q-33 0 -47 -67h-73q14 72 44.5 108t85.5 36q27 0 44.5 -11.5t34.5 -30.5q10 -11 15 -16t14.5 -9.5t20.5 -4.5q33 0 48 65h73q-16 -72 -46.5 -107.5t-84.5 -35.5q-14 0 -26 3t-22 10t-16 13t-15 16zM465 448l14 69h137 l-114 -517h-137l15 64q-66 -77 -155 -77q-90 0 -143.5 56.5t-53.5 157.5q0 60 18 117.5t51.5 105t86.5 77t117 29.5q34 0 65 -9.5t56.5 -28t42.5 -44.5zM170 229q0 -55 32.5 -88t82.5 -33q70 0 118 61l40 180q-18 27 -49.5 43.5t-71.5 16.5q-65 0 -108.5 -53.5t-43.5 -126.5 z" />
<glyph unicode="&#xe4;" horiz-adv-x="627" d="M287 594q-28 0 -46 18.5t-18 45.5q0 32 24.5 56t56.5 24q28 0 46.5 -18.5t18.5 -45.5q0 -20 -11.5 -39t-30.5 -30t-40 -11zM513 594q-28 0 -46.5 18.5t-18.5 45.5q0 32 25 56t58 24q27 0 45.5 -18.5t18.5 -45.5q0 -20 -11.5 -39t-30.5 -30t-40 -11zM465 448l14 69h137 l-114 -517h-137l15 64q-66 -77 -155 -77q-90 0 -143.5 56.5t-53.5 157.5q0 60 18 117.5t51.5 105t86.5 77t117 29.5q34 0 65 -9.5t56.5 -28t42.5 -44.5zM170 229q0 -55 32.5 -88t82.5 -33q70 0 118 61l40 180q-18 27 -49.5 43.5t-71.5 16.5q-65 0 -108.5 -53.5t-43.5 -126.5 z" />
<glyph unicode="&#xe5;" horiz-adv-x="627" d="M297 671q0 49 37 86t87 37q45 0 73 -28.5t28 -74.5q0 -25 -9.5 -47.5t-26.5 -39t-39.5 -26.5t-47.5 -10q-30 0 -53 13t-36 36.5t-13 53.5zM459 685q0 20 -12 33t-32 13q-14 0 -26.5 -7.5t-20 -20t-7.5 -26.5q0 -20 12 -33t33 -13t37 16t16 38zM465 448l14 69h137 l-114 -517h-137l15 64q-66 -77 -155 -77q-90 0 -143.5 56.5t-53.5 157.5q0 60 18 117.5t51.5 105t86.5 77t117 29.5q34 0 65 -9.5t56.5 -28t42.5 -44.5zM170 229q0 -55 32.5 -88t82.5 -33q70 0 118 61l40 180q-18 27 -49.5 43.5t-71.5 16.5q-65 0 -108.5 -53.5t-43.5 -126.5 z" />
<glyph unicode="&#xe6;" horiz-adv-x="977" d="M502 0h-137l15 64q-66 -77 -155 -77q-90 0 -143.5 56.5t-53.5 157.5q0 60 18 117.5t51.5 105t86.5 77t117 29.5q34 0 65 -9.5t56.5 -28t42.5 -44.5l14 69h137l-14 -63q68 76 158 76q91 0 140 -57t49 -165q0 -55 -12 -93h-382q-1 -5 -1 -13q0 -38 39 -71t107 -33 q77 0 124 39l43 -96q-38 -25 -82.5 -39.5t-81.5 -14.5q-71 0 -116 27.5t-66 73.5zM825 307q1 2 1 11q0 42 -30 73t-87 31q-52 0 -91 -35t-49 -80h256zM170 229q0 -55 32.5 -88t82.5 -33q70 0 118 61l40 180q-18 27 -49.5 43.5t-71.5 16.5q-65 0 -108.5 -53.5t-43.5 -126.5z " />
<glyph unicode="&#xe7;" horiz-adv-x="533" d="M297 108q65 0 109 51l73 -91q-33 -34 -82.5 -57.5t-112.5 -23.5h-7l-27 -42q16 11 34 11q27 0 45 -18t18 -48q0 -45 -34.5 -72.5t-86.5 -27.5q-41 0 -75 12.5t-53 31.5l38 53q38 -39 90 -39q25 0 39 10t14 28q0 25 -32 25q-18 0 -31 -15l-43 28l41 70q-85 18 -134.5 79 t-49.5 150q0 128 87 217.5t214 89.5q51 0 93 -13.5t70 -36t46 -52.5l-101 -78q-16 27 -44.5 43t-63.5 16q-48 0 -85.5 -25t-57.5 -65.5t-20 -89.5q0 -57 36.5 -89t92.5 -32z" />
<glyph unicode="&#xe8;" horiz-adv-x="591" d="M330 595l-140 154h126l109 -154h-95zM30 219q0 84 38 155t107 113.5t153 42.5q102 0 167.5 -62.5t65.5 -168.5q0 -50 -11 -84h-384v-13q0 -38 38 -72.5t103 -34.5q35 0 71 10.5t60 28.5l42 -93q-78 -54 -183 -54q-80 0 -140.5 28t-93.5 80.5t-33 123.5zM439 307v11 q0 42 -30.5 73t-88.5 31q-52 0 -91.5 -35t-48.5 -80h259z" />
<glyph unicode="&#xe9;" horiz-adv-x="591" d="M423 595h-98l178 154h127zM30 219q0 84 38 155t107 113.5t153 42.5q102 0 167.5 -62.5t65.5 -168.5q0 -50 -11 -84h-384v-13q0 -38 38 -72.5t103 -34.5q35 0 71 10.5t60 28.5l42 -93q-78 -54 -183 -54q-80 0 -140.5 28t-93.5 80.5t-33 123.5zM439 307v11q0 42 -30.5 73 t-88.5 31q-52 0 -91.5 -35t-48.5 -80h259z" />
<glyph unicode="&#xea;" horiz-adv-x="591" d="M457 595l-58 95l-96 -95h-86l132 154h123l66 -154h-81zM30 219q0 84 38 155t107 113.5t153 42.5q102 0 167.5 -62.5t65.5 -168.5q0 -50 -11 -84h-384v-13q0 -38 38 -72.5t103 -34.5q35 0 71 10.5t60 28.5l42 -93q-78 -54 -183 -54q-80 0 -140.5 28t-93.5 80.5t-33 123.5z M439 307v11q0 42 -30.5 73t-88.5 31q-52 0 -91.5 -35t-48.5 -80h259z" />
<glyph unicode="&#xeb;" horiz-adv-x="591" d="M274 594q-27 0 -45.5 18.5t-18.5 45.5q0 32 24.5 56t56.5 24q28 0 46.5 -18.5t18.5 -45.5q0 -31 -25 -55.5t-57 -24.5zM500 594q-28 0 -46.5 18.5t-18.5 45.5q0 32 25.5 56t57.5 24q27 0 45.5 -18.5t18.5 -45.5q0 -20 -11.5 -39t-30.5 -30t-40 -11zM30 219q0 84 38 155 t107 113.5t153 42.5q102 0 167.5 -62.5t65.5 -168.5q0 -50 -11 -84h-384v-13q0 -38 38 -72.5t103 -34.5q35 0 71 10.5t60 28.5l42 -93q-78 -54 -183 -54q-80 0 -140.5 28t-93.5 80.5t-33 123.5zM439 307v11q0 42 -30.5 73t-88.5 31q-52 0 -91.5 -35t-48.5 -80h259z" />
<glyph unicode="&#xec;" horiz-adv-x="270" d="M162 595l-140 154h126l109 -154h-95zM10 0l114 517h136l-114 -517h-136z" />
<glyph unicode="&#xed;" horiz-adv-x="270" d="M255 595h-98l178 154h127zM10 0l114 517h136l-114 -517h-136z" />
<glyph unicode="&#xee;" horiz-adv-x="270" d="M289 595l-58 95l-96 -95h-86l132 154h123l66 -154h-81zM10 0l114 517h136l-114 -517h-136z" />
<glyph unicode="&#xef;" horiz-adv-x="270" d="M106 594q-18 0 -32.5 8.5t-23 23t-8.5 32.5q0 32 24.5 56t56.5 24q28 0 46.5 -18.5t18.5 -45.5q0 -31 -25 -55.5t-57 -24.5zM332 594q-28 0 -46 18.5t-18 45.5q0 32 25 56t57 24q27 0 45.5 -18.5t18.5 -45.5q0 -31 -25 -55.5t-57 -24.5zM10 0l114 517h136l-114 -517h-136 z" />
<glyph unicode="&#xf0;" horiz-adv-x="614" d="M479 612q111 -136 111 -285q0 -92 -36 -169t-105.5 -124t-160.5 -47q-118 0 -189.5 62t-71.5 163q0 77 34 141.5t94 101.5t132 37q61 0 106 -29.5t69 -86.5q-18 85 -126 194l-172 -51l-16 62l132 40q-38 32 -57 46l96 99q68 -53 114 -100l116 34l16 -62zM290 108 q63 0 105 44.5t42 110.5q0 45 -33 76.5t-94 31.5t-102 -44t-41 -108q0 -52 32 -81.5t91 -29.5z" />
<glyph unicode="&#xf1;" horiz-adv-x="619" d="M381 635l-12 12t-10 8.5t-13.5 8t-14.5 2.5q-34 0 -47 -67h-73q14 72 44.5 108t84.5 36q44 0 79 -42q10 -11 15.5 -16t15 -9.5t20.5 -4.5q32 0 48 65h73q-16 -72 -46.5 -107.5t-84.5 -35.5q-19 0 -35 7t-24 14t-20 21zM358 0l69 308q5 24 5 34q0 34 -22.5 50.5 t-56.5 16.5q-68 0 -130 -60l-77 -349h-136l114 517h136l-15 -68q82 81 172 81q75 0 118.5 -36.5t43.5 -96.5q0 -15 -5 -42l-80 -355h-136z" />
<glyph unicode="&#xf2;" horiz-adv-x="614" d="M334 595l-139 154h125l109 -154h-95zM29 221q0 81 37.5 151.5t107 114t153.5 43.5q121 0 189 -66t68 -170q0 -80 -37.5 -150t-107 -113.5t-154.5 -43.5q-121 0 -188.5 65t-67.5 169zM443 288q0 56 -32 88.5t-88 32.5q-67 0 -110.5 -54t-43.5 -126q0 -56 32 -88.5 t89 -32.5q66 0 109.5 54t43.5 126z" />
<glyph unicode="&#xf3;" horiz-adv-x="614" d="M427 595h-97l177 154h128zM29 221q0 81 37.5 151.5t107 114t153.5 43.5q121 0 189 -66t68 -170q0 -80 -37.5 -150t-107 -113.5t-154.5 -43.5q-121 0 -188.5 65t-67.5 169zM443 288q0 56 -32 88.5t-88 32.5q-67 0 -110.5 -54t-43.5 -126q0 -56 32 -88.5t89 -32.5 q66 0 109.5 54t43.5 126z" />
<glyph unicode="&#xf4;" horiz-adv-x="614" d="M461 595l-58 95l-96 -95h-86l132 154h123l66 -154h-81zM29 221q0 81 37.5 151.5t107 114t153.5 43.5q121 0 189 -66t68 -170q0 -80 -37.5 -150t-107 -113.5t-154.5 -43.5q-121 0 -188.5 65t-67.5 169zM443 288q0 56 -32 88.5t-88 32.5q-67 0 -110.5 -54t-43.5 -126 q0 -56 32 -88.5t89 -32.5q66 0 109.5 54t43.5 126z" />
<glyph unicode="&#xf5;" horiz-adv-x="614" d="M377 635l-15.5 15.5t-14.5 10t-21 5.5q-33 0 -47 -67h-72q14 72 44.5 108t84.5 36q44 0 79 -42q10 -11 15.5 -16t15 -9.5t19.5 -4.5q33 0 49 65h72q-16 -72 -46 -107.5t-84 -35.5q-19 0 -35 7t-24.5 14t-19.5 21zM29 221q0 81 37.5 151.5t107 114t153.5 43.5 q121 0 189 -66t68 -170q0 -80 -37.5 -150t-107 -113.5t-154.5 -43.5q-121 0 -188.5 65t-67.5 169zM443 288q0 56 -32 88.5t-88 32.5q-67 0 -110.5 -54t-43.5 -126q0 -56 32 -88.5t89 -32.5q66 0 109.5 54t43.5 126z" />
<glyph unicode="&#xf6;" horiz-adv-x="614" d="M278 594q-27 0 -45.5 18.5t-18.5 45.5q0 32 25 56t56 24q28 0 47 -18.5t19 -45.5q0 -31 -25.5 -55.5t-57.5 -24.5zM504 594q-27 0 -45.5 18.5t-18.5 45.5q0 32 25 56t57 24q27 0 45.5 -18.5t18.5 -45.5q0 -20 -11.5 -39t-30.5 -30t-40 -11zM29 221q0 81 37.5 151.5 t107 114t153.5 43.5q121 0 189 -66t68 -170q0 -80 -37.5 -150t-107 -113.5t-154.5 -43.5q-121 0 -188.5 65t-67.5 169zM443 288q0 56 -32 88.5t-88 32.5q-67 0 -110.5 -54t-43.5 -126q0 -56 32 -88.5t89 -32.5q66 0 109.5 54t43.5 126z" />
<glyph unicode="&#xf7;" horiz-adv-x="546" d="M272 546q0 29 21 49.5t49 20.5q25 0 42 -17.5t17 -42.5q0 -29 -20.5 -49.5t-49.5 -20.5q-17 0 -30.5 8t-21 22t-7.5 30zM44 319l18 84h485l-18 -84h-485zM187 163q0 29 21 49.5t50 20.5q25 0 42.5 -17.5t17.5 -42.5q0 -29 -21.5 -49.5t-50.5 -20.5q-24 0 -41.5 17.5 t-17.5 42.5z" />
<glyph unicode="&#xf8;" horiz-adv-x="614" d="M626 517l-86 -80q44 -61 44 -143q0 -80 -37.5 -150t-107 -113.5t-154.5 -43.5q-105 0 -173 53l-40 -40h-89l88 82q-42 57 -42 139q0 81 37.5 151.5t107 114t153.5 43.5q102 0 169 -50l40 37h90zM169 229q0 -26 9 -48l219 206q-30 22 -74 22q-67 0 -110.5 -54t-43.5 -126z M443 288q0 29 -10 51l-220 -207q28 -24 77 -24q66 0 109.5 54t43.5 126z" />
<glyph unicode="&#xf9;" horiz-adv-x="619" d="M336 595l-139 154h125l109 -154h-95zM260 517l-70 -312q-4 -19 -4 -31q0 -33 24 -49.5t63 -16.5q60 0 123 61l77 348h136l-115 -517h-136l15 67q-82 -80 -172 -80q-74 0 -117.5 36t-43.5 97q0 17 5 42l78 355h137z" />
<glyph unicode="&#xfa;" horiz-adv-x="619" d="M429 595h-97l177 154h128zM260 517l-70 -312q-4 -19 -4 -31q0 -33 24 -49.5t63 -16.5q60 0 123 61l77 348h136l-115 -517h-136l15 67q-82 -80 -172 -80q-74 0 -117.5 36t-43.5 97q0 17 5 42l78 355h137z" />
<glyph unicode="&#xfb;" horiz-adv-x="619" d="M463 595l-57 95l-97 -95h-85l131 154h123l67 -154h-82zM260 517l-70 -312q-4 -19 -4 -31q0 -33 24 -49.5t63 -16.5q60 0 123 61l77 348h136l-115 -517h-136l15 67q-82 -80 -172 -80q-74 0 -117.5 36t-43.5 97q0 17 5 42l78 355h137z" />
<glyph unicode="&#xfc;" horiz-adv-x="619" d="M280 594q-27 0 -45.5 18.5t-18.5 45.5q0 32 25 56t56 24q28 0 47 -18.5t19 -45.5q0 -20 -11.5 -39t-31 -30t-40.5 -11zM506 594q-27 0 -45.5 18.5t-18.5 45.5q0 32 25 56t57 24q28 0 46 -18.5t18 -45.5q0 -20 -11.5 -39t-30.5 -30t-40 -11zM260 517l-70 -312 q-4 -19 -4 -31q0 -33 24 -49.5t63 -16.5q60 0 123 61l77 348h136l-115 -517h-136l15 67q-82 -80 -172 -80q-74 0 -117.5 36t-43.5 97q0 17 5 42l78 355h137z" />
<glyph unicode="&#xfd;" horiz-adv-x="548" d="M395 595h-98l178 154h127zM-6 -79q18 -9 52 -9q39 0 64 37l32 48l-92 520h142l54 -360l216 360h150l-377 -602q-42 -68 -88.5 -96.5t-111.5 -28.5q-49 0 -86 13z" />
<glyph unicode="&#xfe;" horiz-adv-x="623" d="M160 68l-58 -265h-136l201 911h136l-58 -261q66 77 156 77q89 0 142.5 -57t53.5 -157q0 -60 -18.5 -117.5t-51.5 -105t-86 -77t-116 -29.5q-53 0 -96 21.5t-69 59.5zM455 288q0 54 -32.5 87.5t-82.5 33.5q-68 0 -119 -62l-39 -180q17 -27 49 -43t72 -16q66 0 109 53 t43 127z" />
<glyph unicode="&#xff;" horiz-adv-x="548" d="M246 594q-27 0 -45.5 18.5t-18.5 45.5q0 32 25 56t56 24q28 0 46.5 -18.5t18.5 -45.5q0 -31 -25 -55.5t-57 -24.5zM472 594q-27 0 -45.5 18.5t-18.5 45.5q0 32 25 56t57 24q27 0 45.5 -18.5t18.5 -45.5q0 -31 -25 -55.5t-57 -24.5zM-6 -79q18 -9 52 -9q39 0 64 37l32 48 l-92 520h142l54 -360l216 360h150l-377 -602q-42 -68 -88.5 -96.5t-111.5 -28.5q-49 0 -86 13z" />
<glyph unicode="&#x152;" horiz-adv-x="1159" d="M551 0l18 81q-83 -94 -222 -94q-128 0 -214 90t-86 230q0 91 33 170t88.5 132.5t129 84t154.5 30.5q166 0 233 -123l23 113h505l-27 -131h-354l-33 -155h345l-29 -131h-345l-37 -165h352l-29 -132h-505zM651 449q-12 44 -39 76t-65.5 48.5t-85.5 16.5q-110 0 -183 -80 t-73 -193q0 -88 54.5 -141.5t139.5 -53.5q61 0 115.5 30t88.5 82z" />
<glyph unicode="&#x153;" horiz-adv-x="996" d="M578 215q0 -1 -0.5 -5.5t-0.5 -7.5q0 -40 38 -73.5t102 -33.5q34 0 69 10.5t58 28.5l43 -93q-76 -54 -181 -54q-78 0 -134.5 35t-77.5 80q-19 -21 -29.5 -32t-32.5 -29.5t-41.5 -28t-48.5 -17.5t-60 -8q-114 0 -183.5 62.5t-69.5 171.5q0 79 36 149t105 115t155 45 q74 0 126.5 -36t73.5 -80q10 11 18 19.5t19 20t21.5 19.5t24 17.5t27.5 16t30 12t34.5 8.5t37.5 3q47 0 88.5 -15t73 -43.5t50 -73t18.5 -99.5q0 -38 -9 -84h-380zM845 307q1 3 1 11q0 42 -29.5 73t-86.5 31q-53 0 -92.5 -36.5t-46.5 -78.5h254zM321 409q-42 0 -77 -24 t-55 -65.5t-20 -90.5q0 -56 32 -88.5t87 -32.5q64 0 107.5 53t43.5 127q0 60 -33 90.5t-85 30.5z" />
<glyph unicode="&#x178;" horiz-adv-x="690" d="M356 773q-27 0 -45.5 18t-18.5 46q0 32 25 56t56 24q28 0 47 -18.5t19 -45.5q0 -32 -25.5 -56t-57.5 -24zM582 773q-27 0 -45.5 18t-18.5 46q0 32 25 56t57 24q28 0 46 -18.5t18 -45.5q0 -32 -25 -56t-57 -24zM212 0l64 292l-182 422h165l114 -287l239 287h182l-366 -422 l-64 -292h-152z" />
<glyph unicode="&#x2b0;" horiz-adv-x="439" d="M303 349l44 199q2 13 2 19q0 43 -55 43q-38 0 -78 -40l-49 -221h-99l103 464h99l-38 -171q52 51 113 51q52 0 81.5 -23.5t29.5 -64.5q0 -7 -4 -33l-51 -223h-98z" />
<glyph unicode="&#x2c6;" horiz-adv-x="321" d="M314 595l-58 95l-97 -95h-85l131 154h123l67 -154h-81z" />
<glyph unicode="&#x2dc;" horiz-adv-x="349" d="M245 635q-8 9 -11.5 12t-10.5 8.5t-13.5 8t-14.5 2.5q-33 0 -47 -67h-73q14 72 44.5 108t84.5 36q28 0 45.5 -11.5t34.5 -30.5q9 -11 14.5 -16t15 -9.5t20.5 -4.5q32 0 48 65h73q-16 -72 -46.5 -107.5t-84.5 -35.5q-19 0 -35 7t-24 14t-20 21z" />
<glyph unicode="&#x2000;" horiz-adv-x="486" />
<glyph unicode="&#x2001;" horiz-adv-x="973" />
<glyph unicode="&#x2002;" horiz-adv-x="486" />
<glyph unicode="&#x2003;" horiz-adv-x="973" />
<glyph unicode="&#x2004;" horiz-adv-x="324" />
<glyph unicode="&#x2005;" horiz-adv-x="243" />
<glyph unicode="&#x2006;" horiz-adv-x="162" />
<glyph unicode="&#x2007;" horiz-adv-x="162" />
<glyph unicode="&#x2008;" horiz-adv-x="121" />
<glyph unicode="&#x2009;" horiz-adv-x="194" />
<glyph unicode="&#x200a;" horiz-adv-x="54" />
<glyph unicode="&#x2010;" horiz-adv-x="321" d="M18 201l26 116h257l-26 -116h-257z" />
<glyph unicode="&#x2011;" horiz-adv-x="321" d="M18 201l26 116h257l-26 -116h-257z" />
<glyph unicode="&#x2012;" horiz-adv-x="321" d="M18 201l26 116h257l-26 -116h-257z" />
<glyph unicode="&#x2013;" horiz-adv-x="634" d="M18 201l26 116h570l-26 -116h-570z" />
<glyph unicode="&#x2014;" horiz-adv-x="891" d="M18 201l26 116h827l-26 -116h-827z" />
<glyph unicode="&#x2018;" horiz-adv-x="272" d="M255 724l48 -50q-32 -14 -62.5 -39t-42.5 -51q3 1 11 1q18 0 32.5 -7.5t24 -24t9.5 -37.5q0 -25 -13.5 -46.5t-35.5 -33.5t-46 -12q-17 0 -31.5 5.5t-26 16t-18.5 27.5t-7 37q0 61 45 121.5t113 92.5z" />
<glyph unicode="&#x2019;" horiz-adv-x="272" d="M154 423l-49 50q32 14 62.5 39t42.5 51h-11q-28 0 -47 18t-19 51q0 37 29 64.5t66 27.5q34 0 58.5 -23t24.5 -64q0 -61 -45 -121.5t-112 -92.5z" />
<glyph unicode="&#x201a;" horiz-adv-x="273" d="M29 -140l-48 50q32 14 62.5 39t42.5 51h-12q-28 0 -46.5 18.5t-18.5 51.5q0 37 28.5 64.5t65.5 27.5q22 0 40.5 -10t30.5 -30t12 -48q0 -61 -45 -121.5t-112 -92.5z" />
<glyph unicode="&#x201c;" horiz-adv-x="491" d="M256 724l49 -50q-32 -14 -62.5 -39t-42.5 -51q2 1 11 1q18 0 32.5 -7.5t24 -24t9.5 -37.5q0 -38 -29 -65t-66 -27q-34 0 -59 23t-25 63q0 61 45 121.5t113 92.5zM473 724l48 -50q-20 -9 -39.5 -22.5t-38 -31.5t-26.5 -36q2 1 11 1q18 0 33 -7.5t24 -24t9 -37.5 q0 -38 -29 -65t-66 -27q-35 0 -58.5 23t-23.5 63q0 62 44.5 122t111.5 92z" />
<glyph unicode="&#x201d;" horiz-adv-x="491" d="M154 423l-49 50q32 14 62.5 39t42.5 51h-11q-28 0 -47 18t-19 51q0 37 29 64.5t66 27.5q34 0 58.5 -23t24.5 -64q0 -61 -45 -121.5t-112 -92.5zM371 423l-48 50q20 9 40.5 22.5t38.5 31.5t26 36h-12q-28 0 -46.5 18t-18.5 51q0 38 28.5 65t65.5 27q35 0 59.5 -23 t24.5 -64q0 -61 -45 -121.5t-113 -92.5z" />
<glyph unicode="&#x201e;" horiz-adv-x="491" d="M29 -140l-48 50q32 14 62.5 39t42.5 51h-12q-28 0 -46.5 18.5t-18.5 51.5q0 37 28.5 64.5t65.5 27.5q22 0 40.5 -10t30.5 -30t12 -48q0 -61 -45 -121.5t-112 -92.5zM246 -140l-48 50q32 14 62.5 39t42.5 51h-11q-28 0 -47 18.5t-19 51.5q0 37 29 64.5t66 27.5 q34 0 58 -23.5t24 -64.5q0 -40 -20.5 -82t-56.5 -76.5t-80 -55.5z" />
<glyph unicode="&#x2022;" horiz-adv-x="383" d="M178 133q-49 0 -82 32.5t-33 81.5q0 57 42.5 98t99.5 41q49 0 82 -32.5t33 -81.5q0 -57 -42.5 -98t-99.5 -41z" />
<glyph unicode="&#x2026;" horiz-adv-x="821" d="M9 67q0 26 13 47.5t35 34.5t47 13q32 0 55 -24t23 -57q0 -38 -28 -66t-66 -28q-33 0 -56 23.5t-23 56.5zM282 67q0 39 28.5 67t67.5 28q32 0 55 -24t23 -57q0 -38 -28 -66t-66 -28q-33 0 -56.5 23.5t-23.5 56.5zM556 67q0 39 28.5 67t67.5 28q32 0 55 -24t23 -57 q0 -38 -28 -66t-66 -28q-17 0 -31.5 6.5t-25 17.5t-17 25.5t-6.5 30.5z" />
<glyph unicode="&#x202f;" horiz-adv-x="194" />
<glyph unicode="&#x2032;" horiz-adv-x="254" d="M55 424q114 248 126 266q21 31 61 31q31 0 52.5 -21.5t21.5 -52.5q0 -23 -17 -47q-4 -5 -53 -57.5t-95 -102.5l-47 -49z" />
<glyph unicode="&#x2033;" horiz-adv-x="459" d="M55 424q114 248 126 266q21 31 61 31q31 0 52.5 -21.5t21.5 -52.5q0 -23 -17 -47q-4 -5 -53 -57.5t-95 -102.5l-47 -49zM263 424q115 248 126 266q22 31 61 31q15 0 29 -5.5t24 -15.5t15.5 -23.5t5.5 -29.5q0 -23 -17 -47q-4 -5 -52.5 -57.5t-95.5 -102.5l-47 -49z" />
<glyph unicode="&#x2039;" horiz-adv-x="360" d="M159 67l-128 193l214 189h129l-218 -194l124 -188h-121z" />
<glyph unicode="&#x203a;" horiz-adv-x="360" d="M203 449l129 -192l-214 -190h-130l219 195l-125 187h121z" />
<glyph unicode="&#x2044;" horiz-adv-x="170" d="M-160 0h-82l613 714h83z" />
<glyph unicode="&#x205f;" horiz-adv-x="243" />
<glyph unicode="&#x2070;" d="M275 443q-78 0 -122 48t-44 123q0 32 7.5 67t24 71.5t41 66t62 48t82.5 18.5q78 0 122 -47.5t44 -122.5q0 -32 -7 -67t-24 -72t-41.5 -66.5t-62 -48t-82.5 -18.5zM322 802q-28 0 -50.5 -20.5t-34.5 -51.5t-18.5 -62.5t-6.5 -57.5q0 -85 67 -85q29 0 51.5 21t34.5 52 t18 62.5t6 57.5q0 84 -67 84z" />
<glyph unicode="&#x2074;" d="M404 542l-20 -92h-102l21 92h-211l16 70l228 266h142l-55 -255h55l-17 -81h-57zM356 788l-143 -165h107z" />
<glyph unicode="&#x2075;" d="M278 443q-57 0 -105 18.5t-77 55.5l66 61q41 -53 114 -53q39 0 61.5 20t22.5 50q0 19 -10 32t-27 19.5t-39 6.5q-49 0 -85 -35l-66 23l52 237h310l-18 -82h-206l-23 -99q39 31 87 31q55 0 92 -32.5t37 -84.5q0 -71 -50.5 -119.5t-135.5 -48.5z" />
<glyph unicode="&#x2076;" d="M289 443q-84 0 -131.5 44.5t-47.5 121.5q0 114 69.5 195t168.5 81q93 0 147 -50l-56 -69q-33 36 -94 36q-38 0 -69 -23t-44.5 -50t-13.5 -47v-5q51 57 113 57q58 0 98.5 -34.5t40.5 -91.5q0 -69 -49.5 -117t-131.5 -48zM287 654q-41 0 -75 -38q-2 -5 -2 -19q0 -32 21 -52 t57 -20q33 0 55 21t22 49t-21.5 43.5t-56.5 15.5z" />
<glyph unicode="&#x2077;" horiz-adv-x="396" d="M248 450h-114l235 346h-223l18 82h337l-16 -70z" />
<glyph unicode="&#x2078;" d="M287 443q-82 0 -137.5 29t-55.5 87q0 44 36 78.5t93 40.5q-74 29 -74 90q0 29 14 52t38 37t53 21t62 7q44 0 84 -11t70 -37.5t30 -63.5q0 -42 -31 -73t-87 -39q33 -12 55.5 -38t22.5 -60q0 -53 -44.5 -86.5t-128.5 -33.5zM319 806q-31 0 -51 -14t-20 -38q0 -15 12.5 -27 t25.5 -17.5t24 -7.5q34 3 59 16t25 40q0 22 -21.5 35t-53.5 13zM294 635q-25 -2 -46.5 -9.5t-35 -21.5t-13.5 -32q0 -15 11.5 -26.5t30 -18t39.5 -6.5q36 0 58.5 15t22.5 39q0 20 -20.5 36.5t-46.5 23.5z" />
<glyph unicode="&#x2079;" d="M316 886q84 0 130.5 -44.5t46.5 -121.5q0 -114 -69 -195t-167 -81q-93 0 -149 50l58 69q33 -37 94 -37q29 0 54 14t40 34t23.5 39.5t8.5 33.5v5q-50 -57 -113 -57q-58 0 -98 34.5t-40 91.5q0 69 49.5 117t131.5 48zM318 674q40 0 74 39q2 5 2 19q0 32 -21 52t-56 20 q-23 0 -41 -10t-27.5 -26t-9.5 -35q0 -14 6 -25t16.5 -18.5t25 -11.5t31.5 -4z" />
<glyph unicode="&#x207d;" horiz-adv-x="205" d="M159 381q-18 25 -31 60t-19 70.5t-6 71.5q0 103 50.5 200t131.5 165l55 -25q-138 -181 -138 -379q0 -78 24 -138z" />
<glyph unicode="&#x207e;" horiz-adv-x="205" d="M230 948q27 -39 41.5 -93.5t14.5 -108.5q0 -103 -50.5 -201t-130.5 -164l-57 25q138 181 138 380q0 77 -23 137z" />
<glyph unicode="&#x207f;" horiz-adv-x="439" d="M303 349l44 199q2 13 2 19q0 43 -55 43q-38 0 -78 -40l-49 -221h-99l74 336h99l-9 -43q52 51 113 51q52 0 81.5 -23.5t29.5 -64.5q0 -7 -4 -33l-51 -223h-98z" />
<glyph unicode="&#x2080;" d="M141 -164q-78 0 -122 48t-44 123q0 32 7.5 67t24.5 71.5t41 66t62 48t83 18.5q78 0 121.5 -47.5t43.5 -122.5q0 -32 -7 -67t-24 -72t-41 -66t-62 -48t-83 -19zM188 196q-28 0 -50 -21t-34.5 -52t-19 -62.5t-6.5 -57.5q0 -84 68 -84q28 0 50.5 20.5t34.5 52t18.5 62.5 t6.5 57q0 85 -68 85z" />
<glyph unicode="&#x2081;" horiz-adv-x="306" d="M46 -156l64 292l-86 -71l-46 63l177 144h89l-94 -428h-104z" />
<glyph unicode="&#x2082;" d="M-43 -156l18 79q166 96 222 139.5t56 81.5q0 25 -20.5 38.5t-52.5 13.5q-34 0 -66.5 -13t-52.5 -33l-43 68q32 29 77 44.5t89 15.5q76 0 125 -33t49 -91q0 -57 -56.5 -109.5t-175.5 -118.5h185l-18 -82h-336z" />
<glyph unicode="&#x2083;" d="M155 -164q-65 0 -116 21t-75 57l63 64q21 -30 54 -44.5t69 -14.5q35 0 53 16t18 40q0 22 -25 34t-70 12q-29 0 -35 -1l17 82q24 -2 70 -2q15 0 27 2t21.5 6.5t15.5 10.5t9.5 13.5t3.5 17.5q0 22 -25 34t-61 12q-64 0 -110 -39l-35 64q30 26 71.5 41.5t83.5 15.5 q81 0 130 -30.5t49 -83.5q0 -28 -13 -51t-40.5 -39t-63.5 -18q36 -8 59.5 -32t23.5 -60q0 -50 -46 -89t-123 -39z" />
<glyph unicode="&#x2084;" d="M271 -64l-21 -92h-101l20 92h-211l16 69l228 267h143l-56 -256h56l-18 -80h-56zM223 181l-144 -165h107z" />
<glyph unicode="&#x2085;" d="M144 -164q-56 0 -104.5 19t-76.5 55l65 61q41 -52 114 -52q40 0 62 20t22 49q0 28 -20.5 43t-55.5 15q-49 0 -85 -34l-66 22l52 238h311l-19 -83h-206l-23 -99q40 31 87 31q55 0 92.5 -32.5t37.5 -84.5q0 -71 -51 -119.5t-136 -48.5z" />
<glyph unicode="&#x2086;" d="M155 -164q-84 0 -131.5 44.5t-47.5 121.5q0 114 69.5 195t168.5 81q93 0 148 -50l-57 -69q-33 37 -94 37q-29 0 -54.5 -14t-40.5 -33.5t-23 -39.5t-8 -34v-4q50 56 112 56q58 0 98.5 -34t40.5 -92q0 -69 -49.5 -117t-131.5 -48zM153 47q-41 0 -75 -37q-2 -6 -2 -20 q0 -32 21 -51.5t57 -19.5q34 0 55.5 20.5t21.5 48.5t-21.5 43.5t-56.5 15.5z" />
<glyph unicode="&#x2087;" horiz-adv-x="396" d="M114 -156h-114l235 345h-223l18 83h337l-16 -71z" />
<glyph unicode="&#x2088;" d="M153 -164q-82 0 -137.5 29.5t-55.5 86.5q0 44 36 78.5t93 41.5q-74 28 -74 90q0 56 49 86t118 30q44 0 84.5 -11t70 -37.5t29.5 -63.5q0 -41 -30.5 -72.5t-87.5 -38.5q33 -13 55.5 -39t22.5 -60q0 -52 -44.5 -86t-128.5 -34zM185 199q-31 0 -51 -13.5t-20 -37.5 q0 -12 7.5 -22t18 -16t20 -9.5t17.5 -5.5q33 3 58 16.5t25 39.5q0 15 -10 26t-27 16.5t-38 5.5zM160 28q-39 -3 -67 -19.5t-28 -42.5q0 -23 24 -37.5t58 -14.5q35 0 57.5 15t22.5 39q0 21 -20.5 37t-46.5 23z" />
<glyph unicode="&#x2089;" d="M182 279q84 0 131 -44.5t47 -121.5q0 -113 -69.5 -194.5t-167.5 -81.5q-92 0 -149 51l58 68q33 -36 94 -36q38 0 68.5 23.5t44.5 50.5t14 47v4q-51 -57 -114 -57q-58 0 -98 34.5t-40 91.5q0 69 49.5 117t131.5 48zM184 67q40 0 74 39q2 5 2 19q0 32 -21 52t-56 20 q-22 0 -40.5 -10t-28 -26t-9.5 -35q0 -27 22 -43t57 -16z" />
<glyph unicode="&#x208d;" horiz-adv-x="205" d="M26 -226q-28 38 -42.5 92.5t-14.5 109.5q0 103 50.5 200.5t131.5 164.5l56 -24q-139 -182 -139 -380q0 -78 24 -138z" />
<glyph unicode="&#x208e;" horiz-adv-x="205" d="M96 341q27 -38 41.5 -92.5t14.5 -109.5q0 -103 -50 -200.5t-131 -164.5l-57 25q138 182 138 381q0 76 -23 137z" />
<glyph unicode="&#x20ac;" horiz-adv-x="758" d="M427 -13q-131 0 -225.5 69t-118.5 185h-65l18 83h41q2 38 8 67h-34l19 83h38q32 77 90 134t133.5 87t159.5 30q124 0 204 -56.5t114 -145.5l-147 -49q-20 55 -68 86t-110 31q-61 0 -114 -31.5t-86 -85.5h269l-19 -83h-290q-7 -26 -9 -67h284l-18 -83h-248q19 -55 67 -87 t115 -32q47 0 93 22.5t75 59.5l118 -80q-57 -72 -136 -104.5t-158 -32.5z" />
<glyph unicode="&#x2122;" horiz-adv-x="485" d="M209 686l-46 -208h-30l46 208h-67l6 28h162l-5 -28h-66zM467 478l42 195l-123 -195h-8l-38 195l-43 -195h-29l51 236h46l31 -172l106 172h46l-52 -236h-29z" />
<glyph unicode="&#x25fc;" horiz-adv-x="518" d="M0 519h519v-519h-519v519z" />
<glyph unicode="&#xf6df;" horiz-adv-x="333" d="M163 -30q22 9 41 32l56 -53q-43 -49 -114 -54l-13 -57h-66l14 64q-49 14 -78.5 49.5t-29.5 85.5q0 48 23 89t64 66.5t92 27.5l10 45h65l-12 -52q55 -17 77 -58l-71 -47q-8 18 -22 28zM134 142q-30 -9 -48.5 -37t-18.5 -63q0 -46 30 -64z" />
<glyph unicode="&#xf6e0;" horiz-adv-x="333" d="M296 577q22 9 42 32l56 -54q-43 -49 -115 -53l-13 -57h-65l14 63q-49 14 -78.5 49.5t-29.5 86.5q0 73 51 126.5t128 56.5l9 45h66l-12 -52q54 -17 77 -58l-71 -47q-8 18 -22 28zM268 749q-30 -10 -48.5 -37.5t-18.5 -63.5q0 -45 30 -64z" />
<glyph unicode="&#xf6e1;" horiz-adv-x="167" d="M-42 -244l-30 35q18 8 37.5 23.5t24.5 29.5q-1 -1 -5 -1q-16 0 -29 13.5t-13 35.5q0 25 19 43t44 18q21 0 36 -14.5t15 -39.5q0 -35 -26.5 -76.5t-72.5 -66.5z" />
<glyph unicode="&#xf6e2;" horiz-adv-x="167" d="M92 363l-30 35q17 8 37 23.5t25 28.5q-1 -1 -5 -1q-16 0 -29 14t-13 36q0 25 19 43t44 18q10 0 19 -4t16 -10.5t11 -16.5t4 -23q0 -22 -10.5 -48t-33.5 -52t-54 -43z" />
<glyph unicode="&#xf6e3;" horiz-adv-x="409" d="M207 98q26 -9 44 -17.5t37.5 -22t29.5 -33t10 -44.5q0 -63 -45 -104t-133 -41h-1l-13 -56h-65l14 62q-98 18 -135 73l67 64q31 -43 85 -58l21 99q-28 10 -45.5 18.5t-38.5 22.5t-31 34t-10 46q0 55 47.5 96t127.5 41h8l13 59h65l-15 -67q71 -18 111 -63l-68 -57 q-21 28 -60 43zM108 159q0 -22 38 -38l18 82q-26 -2 -41 -13.5t-15 -30.5zM166 -86q17 2 29 8.5t17.5 16t5.5 20.5q0 23 -34 39z" />
<glyph unicode="&#xf6e4;" horiz-adv-x="409" d="M340 705q27 -9 45 -17.5t37.5 -22.5t29.5 -33.5t10 -44.5q0 -62 -45.5 -103t-132.5 -41h-2l-12 -57h-66l14 62q-98 19 -135 74l68 63q31 -42 84 -57l22 99q-28 10 -46 18t-38.5 22.5t-30.5 34.5t-10 46q0 54 47.5 95.5t127.5 41.5h8l12 59h66l-15 -68q71 -17 111 -63 l-68 -57q-22 29 -60 43zM242 766q0 -22 37 -38l18 82q-25 -2 -40 -14t-15 -30zM300 521q25 3 38.5 15.5t13.5 29.5q0 22 -34 39z" />
<glyph unicode="&#xf6e5;" horiz-adv-x="195" d="M-35 18l17 76h157l-17 -76h-157z" />
<glyph unicode="&#xf6e6;" horiz-adv-x="195" d="M98 625l18 76h157l-17 -76h-158z" />
<glyph unicode="&#xf6e7;" horiz-adv-x="169" d="M-3 -162q-23 0 -38 15t-15 37q0 25 20 44t46 19q21 0 36 -14.5t15 -36.5q0 -25 -19.5 -44.5t-44.5 -19.5z" />
<glyph unicode="&#xf6e8;" horiz-adv-x="169" d="M131 445q-23 0 -38 15t-15 36q0 26 20 45t45 19q15 0 26.5 -6.5t18.5 -18.5t7 -27q0 -25 -19.5 -44t-44.5 -19z" />
<glyph unicode="&#xf6eb;" horiz-adv-x="442" d="M510 813l-102 -464h-100l9 42q-43 -51 -101 -51q-56 0 -95 37t-39 105q0 88 53 149.5t128 61.5t111 -50l38 170h98zM185 494q0 -37 20 -56.5t53 -19.5q40 0 75 37l29 130q-24 30 -74 30q-44 0 -73.5 -36t-29.5 -85z" />
<glyph unicode="&#xf6f1;" horiz-adv-x="276" d="M68 349l74 336h99l-10 -43q60 52 122 52l-20 -88q-7 2 -25 2q-25 0 -51.5 -10.5t-40.5 -27.5l-49 -221h-99z" />
<glyph unicode="&#xf6f2;" horiz-adv-x="359" d="M51 407l54 55q16 -21 48.5 -37.5t66.5 -16.5q23 0 36.5 9t13.5 23q0 10 -10.5 19t-22 14t-33.5 13q-23 7 -38 13.5t-33 18t-27 27.5t-9 37q0 22 9.5 42t27.5 35.5t46 24.5t62 9q46 0 86 -15.5t61 -39.5l-49 -54q-17 19 -44 30.5t-55 11.5q-22 0 -34.5 -9t-12.5 -24 q0 -13 15 -21.5t46 -17.5q24 -7 39.5 -12.5t35 -17t29 -29t9.5 -40.5q0 -48 -40.5 -81.5t-110.5 -33.5q-103 0 -166 67z" />
<glyph unicode="&#xf6f3;" horiz-adv-x="251" d="M98 415q0 12 4 25l38 174h-57l15 71h57l20 92h100l-20 -92h69l-15 -71h-69l-36 -156q-2 -11 -2 -15q0 -25 30 -25q17 0 26 9l6 -69q-23 -18 -64 -18q-44 0 -73 18t-29 57z" />
<glyph horiz-adv-x="663" d="M719 714l-98 -113q36 -67 36 -163q0 -69 -16.5 -135.5t-47.5 -123.5t-73.5 -100t-98 -67.5t-117.5 -24.5q-103 0 -170 58l-40 -45h-109l97 111q-36 68 -36 164q0 86 26 167.5t72 144t113 100t144 37.5q103 0 168 -56l41 46h109zM200 268q0 -14 1 -22l270 309 q-29 35 -85 35t-100 -53t-65 -125t-21 -144zM504 445q0 15 -1 23l-271 -311q30 -35 86 -35t100 52.5t65 125t21 145.5z" />
<glyph horiz-adv-x="666" d="M48 275q0 86 26.5 167.5t72 144t113 100t143.5 37.5q78 0 135.5 -33t89 -98t31.5 -155q0 -69 -16 -135.5t-47.5 -123.5t-74 -100t-98 -67.5t-117.5 -24.5q-118 0 -188 76t-70 212zM506 445q0 44 -11.5 75.5t-38.5 50.5t-68 19q-56 0 -100 -53t-65 -125t-21 -144 q0 -68 29 -107t89 -39q56 0 100 52.5t65 125t21 145.5z" />
<glyph horiz-adv-x="666" d="M255 0l113 518l-169 -142l-68 92l301 246h132l-157 -714h-152z" />
<glyph horiz-adv-x="666" d="M14 0l31 141q87 50 139.5 80.5t112 67.5t92 62t61.5 53.5t41 52.5t12 49q0 39 -35.5 62t-93.5 23q-101 0 -177 -65l-64 110q47 41 114.5 64.5t137.5 23.5q75 0 137 -23t101 -71t39 -113q0 -101 -97.5 -194t-282.5 -189h298l-29 -134h-537z" />
<glyph horiz-adv-x="666" d="M13 136l99 90q32 -50 92 -78t119 -28q41 0 70.5 13.5t43 35.5t13.5 50q0 35 -30.5 56t-99.5 21q-75 0 -86 -1l30 133q12 -1 100 -1q64 0 101.5 20.5t37.5 63.5q0 24 -16.5 42.5t-48.5 29t-75 10.5q-97 0 -174 -60l-54 104q45 40 109.5 63.5t133.5 23.5q129 0 205.5 -49.5 t76.5 -136.5q0 -68 -58.5 -117.5t-133.5 -58.5q60 -15 96 -53.5t36 -103.5q0 -93 -79.5 -155.5t-195.5 -62.5q-101 0 -187 39.5t-125 109.5z" />
<glyph horiz-adv-x="666" d="M321 0l32 148h-341l30 132l369 434h219l-96 -433h92l-29 -133h-92l-32 -148h-152zM448 579l-259 -298h193z" />
<glyph horiz-adv-x="666" d="M25 124l106 94q29 -47 78.5 -72.5t113.5 -25.5q61 0 98.5 34.5t37.5 83.5q0 45 -37 71.5t-98 26.5q-71 0 -130 -45l-99 40l85 383h490l-29 -131h-341l-38 -171q58 45 145 45q59 0 106.5 -23t76 -69t28.5 -109q0 -113 -83 -191t-213 -78q-204 0 -297 137z" />
<glyph horiz-adv-x="666" d="M52 263q0 70 16 137t48.5 125.5t77.5 103t107.5 70t133.5 25.5q151 0 240 -97l-92 -105q-25 33 -66.5 51.5t-89.5 18.5q-38 0 -71.5 -15.5t-58 -41.5t-42.5 -56.5t-28 -64.5q-8 -14 -10 -30q30 32 80.5 54t104.5 22q98 0 162 -53t64 -143q0 -114 -86.5 -195.5 t-208.5 -81.5q-132 0 -206.5 73t-74.5 203zM469 244q0 29 -18 51t-49 33.5t-69 11.5q-73 0 -130 -53q-2 -9 -2 -39q0 -38 17 -67.5t47 -45t69 -15.5q37 0 68 16.5t49 45t18 62.5z" />
<glyph horiz-adv-x="666" d="M106 0l382 580h-352l30 134h536l-24 -106l-397 -608h-175z" />
<glyph horiz-adv-x="666" d="M24 179q0 46 22.5 86.5t67.5 71t107 46.5q-46 21 -77 59t-31 84q0 50 25 89.5t66.5 62.5t90 34.5t100.5 11.5q71 0 132.5 -18.5t103.5 -61.5t42 -103q0 -69 -51 -120t-134 -67q34 -18 60 -41.5t42.5 -55t16.5 -64.5q0 -63 -42 -111t-108 -71.5t-143 -23.5 q-79 0 -142.5 19.5t-105.5 64t-42 108.5zM509 515q0 33 -35.5 55.5t-88.5 22.5q-49 0 -84 -23t-35 -61q0 -29 31.5 -52t71.5 -32q64 4 102 28t38 62zM453 208q0 33 -33 58.5t-79 36.5q-67 -3 -111.5 -30.5t-44.5 -70.5q0 -40 37 -62t98 -22q34 0 64.5 10.5t49.5 31.5t19 48z " />
<glyph horiz-adv-x="666" d="M657 449q0 -69 -16 -136t-48 -126t-77 -103t-108 -70t-135 -26q-150 0 -238 97l92 105q25 -33 66 -51t89 -18q73 0 125 51.5t77 124.5q7 23 8 30q-30 -31 -80.5 -52.5t-104.5 -21.5q-97 0 -162 53t-65 142q0 114 87.5 195.5t209.5 81.5q132 0 206 -72.5t74 -203.5z M240 469q0 -44 39 -70.5t98 -26.5q71 0 130 54q1 8 1 37q0 58 -37 94t-95 36t-97 -36t-39 -88z" />
<glyph horiz-adv-x="663" d="M318 -13q-134 0 -208.5 68.5t-74.5 189.5q0 49 13 98.5t40.5 96t65 82.5t90.5 57.5t114 21.5q134 0 208 -68.5t74 -190.5q0 -48 -13 -97.5t-40 -96t-64.5 -82.5t-91 -57.5t-113.5 -21.5zM356 467q-52 0 -91 -35t-56 -81.5t-17 -93.5q0 -44 15 -74.5t43.5 -45.5t68.5 -15 q52 0 91 34.5t56.5 81t17.5 94.5q0 66 -33 100.5t-95 34.5z" />
<glyph horiz-adv-x="439" d="M159 0l86 392l-144 -120l-68 91l275 225h133l-130 -588h-152z" />
<glyph horiz-adv-x="622" d="M-4 0l28 127q203 61 309.5 127.5t106.5 130.5q0 38 -32 60t-83 22q-103 0 -189 -70l-64 107q110 97 269 97q115 0 188 -47.5t73 -131.5q0 -50 -26.5 -96t-72.5 -82t-95.5 -62.5t-105.5 -47.5h226l-30 -134h-502z" />
<glyph horiz-adv-x="628" d="M-50 13l99 90q32 -51 92 -78.5t119 -27.5q41 0 70.5 13.5t43 35.5t13.5 50q0 35 -30.5 56t-99.5 21q-75 0 -86 -1l30 133q12 -1 100 -1q64 0 101.5 20.5t37.5 63.5q0 24 -16.5 42.5t-48.5 29t-75 10.5q-98 0 -174 -60l-54 104q45 40 109.5 63.5t133.5 23.5 q129 0 205.5 -49.5t76.5 -136.5q0 -68 -58.5 -117.5t-134.5 -58.5q61 -15 97 -53.5t36 -103.5q0 -93 -79.5 -155.5t-195.5 -62.5q-101 0 -187 39.5t-125 109.5z" />
<glyph horiz-adv-x="638" d="M469 29l-35 -154h-152l35 154h-342l26 121l381 438h210l-93 -425h91l-30 -134h-91zM410 454l-257 -291h193z" />
<glyph horiz-adv-x="650" d="M-9 -1l106 94q29 -47 79 -72.5t114 -25.5q61 0 98.5 34t37.5 83q0 46 -37 72.5t-98 26.5q-71 0 -131 -45l-98 39l85 383h490l-29 -130h-342l-37 -171q58 45 144 45q92 0 152 -54t60 -147q0 -113 -83 -191t-213 -78q-205 0 -298 137z" />
<glyph horiz-adv-x="650" d="M42 263q0 70 16 137t48 125.5t77 103t107.5 70t134.5 25.5q151 0 239 -97l-92 -105q-25 33 -66.5 51.5t-89.5 18.5q-73 0 -125 -52.5t-75 -125.5q-7 -14 -9 -30q29 32 79.5 54t105.5 22q98 0 161.5 -53t63.5 -143q0 -114 -86.5 -195.5t-208.5 -81.5q-132 0 -206 73 t-74 203zM458 244q0 43 -38.5 69.5t-97.5 26.5q-72 0 -129 -53q-3 -9 -3 -39q0 -58 37 -93t96 -35q57 0 96 36t39 88z" />
<glyph horiz-adv-x="583" d="M37 -125l382 580h-352l30 133h536l-23 -105l-397 -608h-176z" />
<glyph horiz-adv-x="648" d="M15 179q0 70 52.5 125t145.5 79q-46 21 -77 59t-31 84q0 50 25 89.5t66 62.5t90 34.5t100 11.5q53 0 101.5 -11t88.5 -33t64 -57.5t24 -81.5q0 -27 -8.5 -53t-24.5 -47t-38.5 -38.5t-51.5 -29.5t-62 -19q54 -28 86.5 -70t32.5 -91q0 -63 -42 -111t-108 -71.5t-143 -23.5 q-58 0 -109 11.5t-92 34t-65 60t-24 86.5zM501 515q0 33 -36 55.5t-88 22.5q-49 0 -84 -23t-35 -61q0 -29 31 -52t72 -32q63 4 101.5 28t38.5 62zM444 208q0 22 -16 42t-41 33t-54 20q-33 -2 -61.5 -10t-49.5 -20.5t-33 -31t-12 -39.5q0 -40 36.5 -62t97.5 -22q54 0 93.5 25 t39.5 65z" />
<glyph horiz-adv-x="650" d="M622 325q0 -58 -11.5 -114.5t-33 -107.5t-55 -95t-75 -76t-95.5 -50t-114 -18q-150 0 -238 96l92 106q24 -33 65.5 -51t89.5 -18q73 0 125 51.5t76 124.5q8 23 9 30q-14 -15 -34.5 -28.5t-44 -23.5t-51.5 -16.5t-55 -6.5q-98 0 -162.5 53.5t-64.5 142.5q0 74 40 138 t108.5 101.5t147.5 37.5q88 0 151 -32.5t96.5 -94.5t33.5 -149zM204 345q0 -44 39.5 -70.5t97.5 -26.5q72 0 131 54q1 8 1 37q0 39 -17 68.5t-47 45.5t-69 16q-38 0 -69 -16.5t-49 -45t-18 -62.5z" />
<glyph horiz-adv-x="796" d="M47 307q0 122 57.5 218t156 148t218.5 52q105 0 181 -49.5t110 -123.5l-140 -60q-19 44 -66.5 71.5t-104.5 27.5q-103 0 -178.5 -79t-75.5 -195q0 -84 54.5 -139.5t141.5 -55.5q74 0 125.5 39t74.5 102h-222l30 131h382q-32 -201 -136.5 -304t-272.5 -103 q-68 0 -129.5 23t-107 63.5t-72 101t-26.5 132.5z" />
<glyph horiz-adv-x="581" d="M328 0l12 52q-62 -65 -154 -65q-71 0 -120.5 39t-49.5 111q0 57 26.5 100.5t69.5 65.5t96 22q109 0 177 -69l13 59q3 12 3 26q0 12 -4 22.5t-11 19t-18 15.5t-24 11.5t-29 7t-34 2.5q-75 0 -144 -49l-33 97q90 63 205 63q48 0 88.5 -9.5t73 -28.5t51 -51.5t18.5 -75.5 q0 -27 -6 -55l-69 -310h-137zM356 122l14 63q-15 22 -46.5 35t-69.5 13q-30 0 -52.5 -11t-34.5 -30t-12 -44q0 -17 6.5 -30t19 -21.5t29.5 -13t38 -4.5q67 0 108 43z" />
<glyph horiz-adv-x="318" d="M35 97q0 17 4 38l128 579h136l-120 -544q-3 -11 -3 -21q0 -19 14 -30t37 -11q26 0 39 11l4 -109q-29 -23 -85 -23q-73 0 -113.5 29t-40.5 81z" />
<glyph horiz-adv-x="619" d="M-30 -120l80 91q24 -33 71 -51t97 -18q63 0 97.5 33.5t49.5 99.5l12 53q-40 -37 -79.5 -57.5t-92.5 -20.5q-72 0 -116.5 34t-44.5 97q0 16 5 43l75 333h136l-65 -291q-3 -19 -3 -30q0 -65 87 -65q61 0 121 59l73 327h136l-104 -470q-28 -122 -98 -189.5t-187 -67.5 q-165 0 -250 90z" />
<glyph horiz-adv-x="638" d="M477 588l109 -588h-153l-18 100h-260l-60 -100h-158l368 588h172zM366 462l-145 -243h180z" />
<glyph horiz-adv-x="627" d="M10 0l129 588h299q82 0 132 -36.5t50 -98.5q0 -36 -16 -69t-47 -57t-71 -30q19 -6 35.5 -18t27.5 -27.5t16.5 -33.5t5.5 -36q0 -79 -55 -130.5t-150 -51.5h-356zM397 357q17 0 30.5 6t22 15t13.5 20.5t5 24.5q0 23 -18 36t-47 13h-147l-26 -115h167zM350 117 q34 0 56 19.5t22 49.5q0 24 -17 40t-46 16h-161l-27 -125h173z" />
<glyph horiz-adv-x="625" d="M34 256q0 92 46.5 171.5t128 126.5t178.5 47q62 0 114.5 -21.5t87.5 -58t52 -84.5l-127 -46q-16 38 -52 62t-80 24q-81 0 -141.5 -62.5t-60.5 -148.5q0 -46 20.5 -81.5t57 -54.5t82.5 -19q86 0 143 76l105 -65q-42 -60 -108 -97.5t-147 -37.5q-135 0 -217 75t-82 194z " />
<glyph horiz-adv-x="669" d="M10 0l129 588h214q127 0 211.5 -68.5t84.5 -182.5q0 -47 -11.5 -92.5t-40 -90.5t-70.5 -78.5t-108 -54.5t-147 -21h-262zM299 123q51 0 91.5 18.5t65 48.5t37 65t12.5 71q0 64 -45 101.5t-123 37.5h-83l-75 -342h120z" />
<glyph horiz-adv-x="556" d="M10 0l129 588h444l-27 -118h-301l-25 -110h296l-26 -120h-297l-25 -120h301l-25 -120h-444z" />
<glyph horiz-adv-x="544" d="M10 0l129 588h444l-27 -118h-301l-25 -112h295l-25 -119h-297l-52 -239h-141z" />
<glyph horiz-adv-x="659" d="M34 253q0 91 44.5 170.5t127 128.5t182.5 49q85 0 151.5 -37.5t98.5 -100.5l-125 -55q-20 31 -54.5 50t-79.5 19q-85 0 -141.5 -63.5t-56.5 -148.5q0 -68 46.5 -111t117.5 -43q61 0 101 26l18 83h-141l25 110h280l-58 -263q-106 -80 -232 -80q-130 0 -217 73t-87 193z " />
<glyph horiz-adv-x="696" d="M430 0l54 240h-280l-53 -240h-141l129 588h141l-49 -225h279l50 225h141l-130 -588h-141z" />
<glyph horiz-adv-x="276" d="M10 0l129 588h141l-129 -588h-141z" />
<glyph horiz-adv-x="463" d="M-39 63l81 99q32 -51 93 -51q86 0 107 93l84 384h142l-87 -395q-24 -110 -80.5 -158t-152.5 -48q-128 0 -187 76z" />
<glyph horiz-adv-x="605" d="M378 0l-133 231l-53 -50l-41 -181h-141l129 588h141l-53 -246l260 246h173l-307 -277l194 -311h-169z" />
<glyph horiz-adv-x="501" d="M10 0l129 588h141l-102 -465h259l-27 -123h-400z" />
<glyph horiz-adv-x="808" d="M542 0l88 397l-250 -397h-65l-75 397l-89 -397h-141l129 588h187l69 -364l229 364h190l-129 -588h-143z" />
<glyph horiz-adv-x="693" d="M424 0l-184 409l-89 -409h-141l129 588h152l179 -395l87 395h142l-130 -588h-145z" />
<glyph horiz-adv-x="700" d="M34 258q0 91 45 170t125 126t176 47q134 0 216 -75.5t82 -194.5q0 -91 -44.5 -170t-124.5 -126.5t-176 -47.5q-134 0 -216.5 75.5t-82.5 195.5zM534 321q0 67 -42.5 111.5t-114.5 44.5q-86 0 -142 -63t-56 -146q0 -68 42.5 -112.5t114.5 -44.5q85 0 141.5 63.5 t56.5 146.5z" />
<glyph horiz-adv-x="592" d="M10 0l129 588h262q93 0 149 -47t56 -123q0 -87 -62.5 -151t-164.5 -64h-183l-45 -203h-141zM367 323q42 0 67 24.5t25 60.5q0 28 -19.5 45t-55.5 17h-129l-32 -147h144z" />
<glyph horiz-adv-x="700" d="M678 331q0 -78 -33.5 -148t-93.5 -119l26 -39l-100 -61l-28 43q-57 -20 -116 -20q-134 0 -216.5 75.5t-82.5 195.5q0 91 45 170t125 126t176 47q134 0 216 -75.5t82 -194.5zM429 256l50 -79q55 61 55 144q0 67 -42.5 111.5t-114.5 44.5q-86 0 -142 -63t-56 -146 q0 -68 42.5 -112.5t114.5 -44.5q20 0 45 6l-49 77z" />
<glyph horiz-adv-x="613" d="M360 0l-73 203h-91l-45 -203h-141l129 588h262q96 0 151 -46.5t55 -120.5q0 -80 -49.5 -138.5t-130.5 -70.5l92 -212h-159zM365 323q44 0 69 24.5t25 60.5q0 27 -19.5 44.5t-53.5 17.5h-131l-32 -147h142z" />
<glyph horiz-adv-x="552" d="M-14 90l82 103q31 -39 86.5 -62t120.5 -23q46 0 66.5 18.5t20.5 45.5q0 12 -7.5 21.5t-24.5 18.5t-30 14t-41 15q-25 8 -37.5 12.5t-36.5 14.5t-37 18t-31 22t-27 28.5t-16 34.5t-7 43q0 73 69 130t172 57q77 0 144.5 -27.5t108.5 -71.5l-83 -95q-29 32 -79 53.5 t-97 21.5q-25 0 -44.5 -8.5t-30 -22t-10.5 -29.5q0 -21 24.5 -34t76.5 -31q25 -8 38 -12.5t37 -14.5t37.5 -18.5t31 -22.5t27 -29t16 -35.5t6.5 -44.5t-6.5 -47.5t-19.5 -45t-34 -39.5t-47.5 -32t-61.5 -21.5t-76 -7.5q-88 0 -162 26.5t-118 76.5z" />
<glyph horiz-adv-x="520" d="M132 0l101 465h-167l28 123h476l-28 -123h-166l-103 -465h-141z" />
<glyph horiz-adv-x="691" d="M319 -13q-82 0 -142 26t-89.5 71t-29.5 103q0 36 7 71l74 330h142l-72 -330q-6 -23 -6 -51q0 -44 34.5 -70t93.5 -26q115 0 146 134l76 343h143l-79 -354q-27 -123 -96.5 -185t-201.5 -62z" />
<glyph horiz-adv-x="638" d="M175 0l-109 588h159l68 -435l262 435h161l-368 -588h-173z" />
<glyph horiz-adv-x="852" d="M471 0l-18 383l-187 -383h-147l-48 588h157l13 -402l201 402h110l24 -403l191 403h159l-308 -588h-147z" />
<glyph horiz-adv-x="624" d="M407 0l-105 208l-196 -208h-168l290 302l-147 286h164l94 -192l179 192h169l-273 -285l157 -303h-164z" />
<glyph horiz-adv-x="604" d="M175 0l54 242l-163 346h158l100 -227l196 227h162l-314 -346l-52 -242h-141z" />
<glyph horiz-adv-x="559" d="M-20 0l22 103l360 361h-280l28 124h476l-21 -102l-360 -362h286l-27 -124h-484z" />
<glyph horiz-adv-x="813" d="M307 774h-97l177 154h128zM827 774h-97l177 154h128zM13 0l157 714h152l-157 -714h-152zM262 67l83 114q17 -27 47.5 -43t66.5 -16q50 0 82 30.5t44 83.5l105 478h152l-105 -480q-28 -127 -93 -187t-174 -60q-63 0 -119 20.5t-89 59.5z" />
<glyph horiz-adv-x="581" d="M418 595h-97l178 154h127zM328 0l12 52q-62 -65 -154 -65q-71 0 -120.5 39t-49.5 111q0 57 26.5 100.5t69.5 65.5t96 22q109 0 177 -69l13 59q3 12 3 26q0 12 -4 22.5t-11 19t-18 15.5t-24 11.5t-29 7t-34 2.5q-75 0 -144 -49l-33 97q90 63 205 63q48 0 88.5 -9.5 t73 -28.5t51 -51.5t18.5 -75.5q0 -27 -6 -55l-69 -310h-137zM356 122l14 63q-15 22 -46.5 35t-69.5 13q-30 0 -52.5 -11t-34.5 -30t-12 -44q0 -17 6.5 -30t19 -21.5t29.5 -13t38 -4.5q67 0 108 43z" />
<glyph horiz-adv-x="581" d="M453 595l-58 95l-96 -95h-86l132 154h123l66 -154h-81zM328 0l12 52q-62 -65 -154 -65q-71 0 -120.5 39t-49.5 111q0 57 26.5 100.5t69.5 65.5t96 22q109 0 177 -69l13 59q3 12 3 26q0 12 -4 22.5t-11 19t-18 15.5t-24 11.5t-29 7t-34 2.5q-75 0 -144 -49l-33 97 q90 63 205 63q48 0 88.5 -9.5t73 -28.5t51 -51.5t18.5 -75.5q0 -27 -6 -55l-69 -310h-137zM356 122l14 63q-15 22 -46.5 35t-69.5 13q-30 0 -52.5 -11t-34.5 -30t-12 -44q0 -17 6.5 -30t19 -21.5t29.5 -13t38 -4.5q67 0 108 43z" />
<glyph horiz-adv-x="581" d="M270 594q-28 0 -46.5 18.5t-18.5 45.5q0 32 25 56t57 24q28 0 46.5 -18.5t18.5 -45.5q0 -31 -25 -55.5t-57 -24.5zM495 594q-27 0 -45.5 18.5t-18.5 45.5q0 32 25 56t58 24q27 0 45.5 -18.5t18.5 -45.5q0 -20 -11.5 -39t-31 -30t-40.5 -11zM328 0l12 52q-62 -65 -154 -65 q-71 0 -120.5 39t-49.5 111q0 57 26.5 100.5t69.5 65.5t96 22q109 0 177 -69l13 59q3 12 3 26q0 12 -4 22.5t-11 19t-18 15.5t-24 11.5t-29 7t-34 2.5q-75 0 -144 -49l-33 97q90 63 205 63q48 0 88.5 -9.5t73 -28.5t51 -51.5t18.5 -75.5q0 -27 -6 -55l-69 -310h-137z M356 122l14 63q-15 22 -46.5 35t-69.5 13q-30 0 -52.5 -11t-34.5 -30t-12 -44q0 -17 6.5 -30t19 -21.5t29.5 -13t38 -4.5q67 0 108 43z" />
<glyph horiz-adv-x="581" d="M325 595l-139 154h125l110 -154h-96zM328 0l12 52q-62 -65 -154 -65q-71 0 -120.5 39t-49.5 111q0 57 26.5 100.5t69.5 65.5t96 22q109 0 177 -69l13 59q3 12 3 26q0 12 -4 22.5t-11 19t-18 15.5t-24 11.5t-29 7t-34 2.5q-75 0 -144 -49l-33 97q90 63 205 63 q48 0 88.5 -9.5t73 -28.5t51 -51.5t18.5 -75.5q0 -27 -6 -55l-69 -310h-137zM356 122l14 63q-15 22 -46.5 35t-69.5 13q-30 0 -52.5 -11t-34.5 -30t-12 -44q0 -17 6.5 -30t19 -21.5t29.5 -13t38 -4.5q67 0 108 43z" />
<glyph horiz-adv-x="581" d="M280 671q0 49 37 86t86 37q46 0 74 -28.5t28 -74.5q0 -50 -36 -86.5t-87 -36.5q-30 0 -53 13t-36 36.5t-13 53.5zM442 685q0 20 -12 33t-32 13q-22 0 -38.5 -16.5t-16.5 -37t12.5 -33.5t32.5 -13q22 0 38 16t16 38zM328 0l12 52q-62 -65 -154 -65q-71 0 -120.5 39 t-49.5 111q0 57 26.5 100.5t69.5 65.5t96 22q109 0 177 -69l13 59q3 12 3 26q0 12 -4 22.5t-11 19t-18 15.5t-24 11.5t-29 7t-34 2.5q-75 0 -144 -49l-33 97q90 63 205 63q48 0 88.5 -9.5t73 -28.5t51 -51.5t18.5 -75.5q0 -27 -6 -55l-69 -310h-137zM356 122l14 63 q-15 22 -46.5 35t-69.5 13q-30 0 -52.5 -11t-34.5 -30t-12 -44q0 -17 6.5 -30t19 -21.5t29.5 -13t38 -4.5q67 0 108 43z" />
<glyph horiz-adv-x="581" d="M368 635q-8 9 -11.5 12t-10.5 8.5t-13.5 8t-14.5 2.5q-33 0 -47 -67h-73q14 72 44.5 108t84.5 36q44 0 80 -42q9 -11 14.5 -16t15 -9.5t20.5 -4.5q32 0 48 65h73q-16 -72 -46.5 -107.5t-84.5 -35.5q-19 0 -35 7t-24 14t-20 21zM328 0l12 52q-62 -65 -154 -65 q-71 0 -120.5 39t-49.5 111q0 57 26.5 100.5t69.5 65.5t96 22q109 0 177 -69l13 59q3 12 3 26q0 12 -4 22.5t-11 19t-18 15.5t-24 11.5t-29 7t-34 2.5q-75 0 -144 -49l-33 97q90 63 205 63q48 0 88.5 -9.5t73 -28.5t51 -51.5t18.5 -75.5q0 -27 -6 -55l-69 -310h-137z M356 122l14 63q-15 22 -46.5 35t-69.5 13q-30 0 -52.5 -11t-34.5 -30t-12 -44q0 -17 6.5 -30t19 -21.5t29.5 -13t38 -4.5q67 0 108 43z" />
<glyph horiz-adv-x="941" d="M532 215q-1 -5 -1 -14q0 -38 37 -72t100 -34q70 0 120 39l42 -93q-70 -54 -160 -54q-154 0 -223 100q-39 -48 -96.5 -74t-122.5 -26q-91 0 -151.5 38.5t-60.5 111.5q0 87 60.5 137.5t140.5 50.5q117 0 182 -69l10 44q5 20 5 41q0 36 -34.5 57t-87.5 21q-85 0 -155 -49 l-33 97q88 63 216 63q149 0 178 -104q73 104 203 104q93 0 151.5 -60.5t58.5 -170.5q0 -30 -11 -84h-368zM789 306q1 4 1 12q0 43 -28.5 73.5t-78.5 30.5q-55 0 -89 -34.5t-47 -81.5h242zM384 185q-15 23 -48 35.5t-72 12.5q-42 0 -75.5 -22.5t-33.5 -56.5q0 -29 27 -45.5 t68 -16.5q29 0 57.5 10t49 29t25.5 42z" />
<glyph horiz-adv-x="668" d="M40 0l88 398h-85l25 119h86l6 28q13 55 38.5 95t65 62t90.5 22q69 0 114 -28l-47 -93q-19 14 -50 14q-58 0 -75 -72l-6 -28h106l-27 -119h-105l-87 -398h-137zM385 97q0 17 3 38l129 579h136l-120 -544q-3 -11 -3 -21q0 -19 14 -30t37 -11q26 0 39 11l4 -109 q-29 -23 -85 -23q-73 0 -113.5 29t-40.5 81z" />
<glyph horiz-adv-x="1018" d="M40 0l88 398h-85l25 119h86l6 28q13 55 38.5 95t65 62t90.5 22q69 0 114 -28l-47 -93q-19 14 -50 14q-58 0 -75 -72l-6 -28h106l-27 -119h-105l-87 -398h-137zM389 0l89 398h-85l25 119h86l6 28q19 84 68.5 131.5t125.5 47.5q69 0 113 -28l-47 -93q-18 14 -49 14 q-58 0 -75 -72l-6 -28h106l-27 -119h-105l-88 -398h-137zM735 97q0 17 3 38l129 579h136l-120 -544q-3 -11 -3 -21q0 -19 14 -30t37 -11q26 0 38 11l5 -109q-29 -23 -85 -23q-73 0 -113.5 29t-40.5 81z" />
<glyph horiz-adv-x="270" d="M143 662q0 28 14.5 50t35 32.5t41.5 10.5q32 0 52.5 -20t20.5 -49q0 -42 -28 -67.5t-63 -25.5q-32 0 -52.5 20t-20.5 49zM10 0l114 517h136l-114 -517h-136z" />
<glyph horiz-adv-x="541" d="M255 595h-98l178 154h127zM525 595h-97l178 154h127zM10 0l114 517h136l-114 -517h-136zM133 -198l30 109q16 -6 34 -6q61 0 79 81l119 531h136l-119 -531q-21 -94 -68 -145t-131 -51q-48 0 -80 12z" />
<glyph horiz-adv-x="619" d="M431 595h-97l177 154h128zM-30 -120l80 91q24 -33 71 -51t97 -18q63 0 97.5 33.5t49.5 99.5l12 53q-40 -37 -79.5 -57.5t-92.5 -20.5q-72 0 -116.5 34t-44.5 97q0 16 5 43l75 333h136l-65 -291q-3 -19 -3 -30q0 -65 87 -65q61 0 121 59l73 327h136l-104 -470 q-28 -122 -98 -189.5t-187 -67.5q-165 0 -250 90z" />
<glyph horiz-adv-x="619" d="M282 594q-27 0 -45.5 18.5t-18.5 45.5q0 32 25 56t57 24q28 0 46.5 -18.5t18.5 -45.5q0 -31 -25 -55.5t-58 -24.5zM508 594q-27 0 -45.5 18.5t-18.5 45.5q0 32 25 56t57 24q28 0 46.5 -18.5t18.5 -45.5q0 -20 -12 -39t-31 -30t-40 -11zM-30 -120l80 91q24 -33 71 -51 t97 -18q63 0 97.5 33.5t49.5 99.5l12 53q-40 -37 -79.5 -57.5t-92.5 -20.5q-72 0 -116.5 34t-44.5 97q0 16 5 43l75 333h136l-65 -291q-3 -19 -3 -30q0 -65 87 -65q61 0 121 59l73 327h136l-104 -470q-28 -122 -98 -189.5t-187 -67.5q-165 0 -250 90z" />
<glyph horiz-adv-x="638" d="M450 648h-97l178 154h127zM477 588l109 -588h-153l-18 100h-260l-60 -100h-158l368 588h172zM366 462l-145 -243h180z" />
<glyph horiz-adv-x="638" d="M485 648l-58 96l-96 -96h-86l132 154h123l66 -154h-81zM477 588l109 -588h-153l-18 100h-260l-60 -100h-158l368 588h172zM366 462l-145 -243h180z" />
<glyph horiz-adv-x="638" d="M302 647q-28 0 -46 18.5t-18 46.5q0 31 24.5 55.5t56.5 24.5q28 0 46.5 -18.5t18.5 -45.5q0 -32 -25 -56.5t-57 -24.5zM528 647q-28 0 -46.5 18.5t-18.5 46.5q0 31 25 55.5t58 24.5q27 0 45.5 -18.5t18.5 -45.5q0 -32 -25 -56.5t-57 -24.5zM477 588l109 -588h-153 l-18 100h-260l-60 -100h-158l368 588h172zM366 462l-145 -243h180z" />
<glyph horiz-adv-x="638" d="M357 648l-139 154h125l110 -154h-96zM477 588l109 -588h-153l-18 100h-260l-60 -100h-158l368 588h172zM366 462l-145 -243h180z" />
<glyph horiz-adv-x="638" d="M312 724q0 50 37 86.5t86 36.5q46 0 74 -28t28 -74q0 -51 -36 -87t-87 -36q-45 0 -73.5 28.5t-28.5 73.5zM474 738q0 21 -12 33.5t-32 12.5q-21 0 -37.5 -16t-16.5 -37t12 -33.5t33 -12.5t37 16t16 37zM477 588l109 -588h-153l-18 100h-260l-60 -100h-158l368 588h172z M366 462l-145 -243h180z" />
<glyph horiz-adv-x="638" d="M400 688l-15.5 15.5t-14.5 10t-20 5.5q-33 0 -47 -66h-73q14 71 44.5 107t85.5 36q44 0 79 -42l15 -15t14.5 -10t20.5 -5q33 0 48 66h73q-16 -72 -46.5 -108t-84.5 -36q-19 0 -35 7t-24 14.5t-20 20.5zM477 588l109 -588h-153l-18 100h-260l-60 -100h-158l368 588h172z M366 462l-145 -243h180z" />
<glyph horiz-adv-x="904" d="M357 0l22 100h-204l-81 -100h-158l495 588h500l-26 -118h-304l-24 -112h296l-27 -118h-295l-27 -120h304l-27 -120h-444zM459 462l-191 -243h138z" />
<glyph horiz-adv-x="625" d="M340 111q86 0 143 76l105 -65q-42 -60 -108 -97.5t-147 -37.5h-10l-27 -42q16 11 34 11q27 0 45 -18t18 -48q0 -45 -34.5 -72.5t-86.5 -27.5q-41 0 -75 12.5t-53 31.5l38 53q38 -39 90 -39q16 0 28 4.5t18.5 13t6.5 20.5q0 25 -32 25q-18 0 -31 -15l-43 28l41 70 q-69 12 -120 48.5t-78.5 91.5t-27.5 122q0 92 46.5 171.5t128 126.5t178.5 47q62 0 114.5 -21.5t87.5 -58t52 -84.5l-127 -46q-16 38 -52 62t-80 24q-81 0 -141.5 -62.5t-60.5 -148.5q0 -46 20.5 -81.5t57 -54.5t82.5 -19z" />
<glyph horiz-adv-x="556" d="M424 648h-98l178 154h127zM10 0l129 588h444l-27 -118h-301l-25 -110h296l-26 -120h-297l-25 -120h301l-25 -120h-444z" />
<glyph horiz-adv-x="556" d="M458 648l-58 96l-96 -96h-86l132 154h123l66 -154h-81zM10 0l129 588h444l-27 -118h-301l-25 -110h296l-26 -120h-297l-25 -120h301l-25 -120h-444z" />
<glyph horiz-adv-x="556" d="M275 647q-27 0 -45.5 18.5t-18.5 46.5q0 31 25 55.5t56 24.5q28 0 46.5 -18.5t18.5 -45.5q0 -32 -25 -56.5t-57 -24.5zM501 647q-28 0 -46 18.5t-18 46.5q0 31 25 55.5t57 24.5q27 0 45.5 -18.5t18.5 -45.5q0 -32 -25 -56.5t-57 -24.5zM10 0l129 588h444l-27 -118h-301 l-25 -110h296l-26 -120h-297l-25 -120h301l-25 -120h-444z" />
<glyph horiz-adv-x="556" d="M331 648l-139 154h125l109 -154h-95zM10 0l129 588h444l-27 -118h-301l-25 -110h296l-26 -120h-297l-25 -120h301l-25 -120h-444z" />
<glyph horiz-adv-x="276" d="M270 648h-98l178 154h127zM10 0l129 588h141l-129 -588h-141z" />
<glyph horiz-adv-x="276" d="M177 648l-140 154h126l109 -154h-95zM10 0l129 588h141l-129 -588h-141z" />
<glyph horiz-adv-x="276" d="M304 648l-58 96l-96 -96h-86l132 154h123l66 -154h-81zM10 0l129 588h141l-129 -588h-141z" />
<glyph horiz-adv-x="276" d="M121 647q-27 0 -45.5 18.5t-18.5 46.5q0 31 24.5 55.5t56.5 24.5q28 0 46.5 -18.5t18.5 -45.5q0 -32 -25 -56.5t-57 -24.5zM347 647q-28 0 -46.5 18.5t-18.5 46.5q0 20 12 39t31 30t40 11q27 0 45.5 -18.5t18.5 -45.5q0 -32 -25 -56.5t-57 -24.5zM10 0l129 588h141 l-129 -588h-141z" />
<glyph horiz-adv-x="693" d="M428 688l-15.5 15.5t-14.5 10t-20 5.5q-33 0 -47 -66h-73q7 35 17.5 60.5t26 44.5t37 28.5t48.5 9.5q44 0 80 -42q7 -8 11 -11.5t10.5 -8.5t13.5 -7.5t15 -2.5q32 0 48 66h73q-16 -72 -46.5 -108t-84.5 -36q-19 0 -35 7t-24 14.5t-20 20.5zM424 0l-184 409l-89 -409h-141 l129 588h152l179 -395l87 395h142l-130 -588h-145z" />
<glyph horiz-adv-x="700" d="M480 648h-97l178 154h127zM34 258q0 91 45 170t125 126t176 47q134 0 216 -75.5t82 -194.5q0 -91 -44.5 -170t-124.5 -126.5t-176 -47.5q-134 0 -216.5 75.5t-82.5 195.5zM534 321q0 67 -42.5 111.5t-114.5 44.5q-86 0 -142 -63t-56 -146q0 -68 42.5 -112.5t114.5 -44.5 q85 0 141.5 63.5t56.5 146.5z" />
<glyph horiz-adv-x="700" d="M515 648l-58 96l-96 -96h-86l132 154h123l66 -154h-81zM34 258q0 91 45 170t125 126t176 47q134 0 216 -75.5t82 -194.5q0 -91 -44.5 -170t-124.5 -126.5t-176 -47.5q-134 0 -216.5 75.5t-82.5 195.5zM534 321q0 67 -42.5 111.5t-114.5 44.5q-86 0 -142 -63t-56 -146 q0 -68 42.5 -112.5t114.5 -44.5q85 0 141.5 63.5t56.5 146.5z" />
<glyph horiz-adv-x="700" d="M332 647q-28 0 -46 18.5t-18 46.5q0 31 24.5 55.5t56.5 24.5q28 0 46.5 -18.5t18.5 -45.5q0 -32 -25 -56.5t-57 -24.5zM557 647q-27 0 -45.5 18.5t-18.5 46.5q0 31 25 55.5t58 24.5q27 0 45.5 -18.5t18.5 -45.5q0 -32 -25 -56.5t-58 -24.5zM34 258q0 91 45 170t125 126 t176 47q134 0 216 -75.5t82 -194.5q0 -91 -44.5 -170t-124.5 -126.5t-176 -47.5q-134 0 -216.5 75.5t-82.5 195.5zM534 321q0 67 -42.5 111.5t-114.5 44.5q-86 0 -142 -63t-56 -146q0 -68 42.5 -112.5t114.5 -44.5q85 0 141.5 63.5t56.5 146.5z" />
<glyph horiz-adv-x="700" d="M387 648l-139 154h125l110 -154h-96zM34 258q0 91 45 170t125 126t176 47q134 0 216 -75.5t82 -194.5q0 -91 -44.5 -170t-124.5 -126.5t-176 -47.5q-134 0 -216.5 75.5t-82.5 195.5zM534 321q0 67 -42.5 111.5t-114.5 44.5q-86 0 -142 -63t-56 -146q0 -68 42.5 -112.5 t114.5 -44.5q85 0 141.5 63.5t56.5 146.5z" />
<glyph horiz-adv-x="700" d="M708 588l-88 -87q58 -69 58 -170q0 -91 -44.5 -170t-124.5 -126.5t-176 -47.5q-106 0 -181 48l-35 -35h-115l90 89q-58 69 -58 169q0 91 45 170t125 126t176 47q104 0 180 -47l34 34h114zM179 268q0 -42 18 -75l263 263q-37 21 -83 21q-86 0 -142 -63t-56 -146zM534 321 q0 42 -19 76l-264 -263q38 -23 85 -23q85 0 141.5 63.5t56.5 146.5z" />
<glyph horiz-adv-x="700" d="M430 688l-15.5 15.5t-14.5 10t-20 5.5q-33 0 -47 -66h-73q14 71 44.5 107t84.5 36q45 0 80 -42l15 -15t14.5 -10t20.5 -5q33 0 48 66h73q-16 -72 -46.5 -108t-84.5 -36q-19 0 -35 7t-24 14.5t-20 20.5zM34 258q0 91 45 170t125 126t176 47q134 0 216 -75.5t82 -194.5 q0 -91 -44.5 -170t-124.5 -126.5t-176 -47.5q-134 0 -216.5 75.5t-82.5 195.5zM534 321q0 67 -42.5 111.5t-114.5 44.5q-86 0 -142 -63t-56 -146q0 -68 42.5 -112.5t114.5 -44.5q85 0 141.5 63.5t56.5 146.5z" />
<glyph horiz-adv-x="994" d="M447 0l13 64q-26 -37 -71 -57t-96 -20q-114 0 -186.5 76t-72.5 195q0 90 44 168.5t125 126.5t179 48q18 0 35.5 -2.5t35 -7.5t33 -12.5t29 -18t25 -23.5t20.5 -29l17 80h444l-27 -118h-303l-23 -112h296l-27 -118h-295l-27 -120h303l-27 -120h-444zM529 370 q-15 53 -56.5 80t-93.5 27q-42 0 -79.5 -17t-64 -45.5t-41.5 -67t-15 -79.5q0 -71 43.5 -114t113.5 -43q49 0 90 25t66 71z" />
<glyph horiz-adv-x="691" d="M476 648h-97l177 154h128zM319 -13q-82 0 -142 26t-89.5 71t-29.5 103q0 36 7 71l74 330h142l-72 -330q-6 -23 -6 -51q0 -44 34.5 -70t93.5 -26q115 0 146 134l76 343h143l-79 -354q-27 -123 -96.5 -185t-201.5 -62z" />
<glyph horiz-adv-x="691" d="M510 648l-57 96l-97 -96h-85l131 154h123l67 -154h-82zM319 -13q-82 0 -142 26t-89.5 71t-29.5 103q0 36 7 71l74 330h142l-72 -330q-6 -23 -6 -51q0 -44 34.5 -70t93.5 -26q115 0 146 134l76 343h143l-79 -354q-27 -123 -96.5 -185t-201.5 -62z" />
<glyph horiz-adv-x="691" d="M327 647q-27 0 -45.5 18.5t-18.5 46.5q0 31 25 55.5t57 24.5q28 0 46.5 -18.5t18.5 -45.5q0 -32 -25 -56.5t-58 -24.5zM553 647q-27 0 -45.5 18.5t-18.5 46.5q0 31 25 55.5t57 24.5q28 0 46.5 -18.5t18.5 -45.5q0 -21 -12 -39.5t-31 -30t-40 -11.5zM319 -13 q-82 0 -142 26t-89.5 71t-29.5 103q0 36 7 71l74 330h142l-72 -330q-6 -23 -6 -51q0 -44 34.5 -70t93.5 -26q115 0 146 134l76 343h143l-79 -354q-27 -123 -96.5 -185t-201.5 -62z" />
<glyph horiz-adv-x="691" d="M383 648l-139 154h125l109 -154h-95zM319 -13q-82 0 -142 26t-89.5 71t-29.5 103q0 36 7 71l74 330h142l-72 -330q-6 -23 -6 -51q0 -44 34.5 -70t93.5 -26q115 0 146 134l76 343h143l-79 -354q-27 -123 -96.5 -185t-201.5 -62z" />
<glyph horiz-adv-x="604" d="M433 648h-97l178 154h127zM175 0l54 242l-163 346h158l100 -227l196 227h162l-314 -346l-52 -242h-141z" />
<glyph horiz-adv-x="604" d="M285 647q-28 0 -46.5 18.5t-18.5 46.5q0 31 25 55.5t57 24.5q28 0 46.5 -18.5t18.5 -45.5q0 -32 -25 -56.5t-57 -24.5zM510 647q-27 0 -45.5 18.5t-18.5 46.5q0 31 25 55.5t58 24.5q27 0 45.5 -18.5t18.5 -45.5q0 -32 -25.5 -56.5t-57.5 -24.5zM175 0l54 242l-163 346 h158l100 -227l196 227h162l-314 -346l-52 -242h-141z" />
<glyph horiz-adv-x="669" d="M353 588q127 0 211.5 -68.5t84.5 -182.5q0 -47 -11.5 -92.5t-40 -90.5t-70.5 -78.5t-108 -54.5t-147 -21h-262l54 248h-59l22 98h59l53 242h214zM299 123q51 0 91.5 18.5t65 48.5t37 65t12.5 71q0 64 -45 101.5t-123 37.5h-83l-26 -119h119l-22 -98h-118l-28 -125h120z " />
<glyph horiz-adv-x="592" d="M10 0l129 588h141l-18 -87h119q91 0 147.5 -46t56.5 -123q0 -87 -62 -152.5t-165 -65.5h-181l-26 -114h-141zM352 238q39 0 63 23.5t24 58.5q0 18 -9 31.5t-25.5 20t-38.5 6.5h-132l-31 -140h149z" />
<glyph horiz-adv-x="606" d="M570 253q-59 -91 -123 -150q26 -39 74 -103h-148q-1 2 -10 13t-13 17q-75 -42 -152 -42q-89 0 -145 42.5t-56 119.5q0 42 13.5 74.5t39.5 55t54 37.5t66 28q-18 51 -18 90q0 71 54 118t133 47q44 0 81 -14t60.5 -42t23.5 -65q0 -30 -11 -55t-26.5 -41.5t-43 -31.5 t-49 -23.5t-55.5 -19.5q3 -6 33 -58q27 -44 43 -67q52 55 85 121zM274 435q0 -22 12 -55q35 11 56.5 21.5t37 28t15.5 40.5q0 21 -14 33t-36 12q-32 0 -51.5 -21.5t-19.5 -58.5zM218 82q37 0 78 23q-28 43 -48 78q-37 67 -45 82q-74 -37 -74 -100q0 -37 24.5 -60t64.5 -23z " />
<glyph horiz-adv-x="553" d="M534 356h-86l-67 -121h86l-40 -75h-88l-89 -160h-91l88 160h-80l-88 -160h-92l89 160h-81l39 75h85l67 121h-84l38 74h87l89 158h91l-89 -158h80l89 158h92l-90 -158h82zM276 356l-67 -121h81l66 121h-80z" />
<glyph horiz-adv-x="655" d="M198 306q-39 0 -69 15t-47.5 44.5t-17.5 68.5q0 67 46.5 117t116.5 50q59 0 97 -35t38 -94q0 -67 -47 -116.5t-117 -49.5zM103 0h-76l539 588h77zM223 531q-31 0 -53 -28t-22 -65q0 -28 14.5 -44.5t39.5 -16.5q31 0 54 27t23 64q0 27 -15 45t-41 18zM442 -11 q-39 0 -69 15t-47.5 44.5t-17.5 69.5q0 67 46.5 117t115.5 50q60 0 97.5 -35t37.5 -95q0 -67 -46.5 -116.5t-116.5 -49.5zM467 214q-32 0 -54 -28t-22 -65q0 -27 15 -44t40 -17q31 0 53.5 27.5t22.5 64.5q0 27 -15 44.5t-40 17.5z" />
<glyph horiz-adv-x="317" d="M132 -117q-42 63 -64 148.5t-22 179.5q0 166 78 330.5t214 287.5l72 -73q-105 -126 -163 -275.5t-58 -307.5q0 -111 41 -233z" />
<glyph horiz-adv-x="317" d="M228 829q41 -62 63.5 -148.5t22.5 -178.5q0 -167 -78.5 -331.5t-215.5 -287.5l-70 73q69 83 118 176t75.5 197t26.5 209q0 113 -41 235z" />
<glyph horiz-adv-x="299" d="M-32 -107l206 929h232l-21 -91h-132l-166 -747h132l-20 -91h-231z" />
<glyph horiz-adv-x="299" d="M-63 -107l20 91h133l166 747h-133l19 91h231l-206 -929h-230z" />
<glyph horiz-adv-x="308" d="M159 -107q-61 0 -104.5 38.5t-43.5 98.5q0 19 4 33l42 184q2 13 2 19q0 23 -11.5 38t-31.5 15l17 77q56 0 72 72l41 183q19 86 71.5 128.5t131.5 42.5h65l-20 -91h-64q-68 0 -86 -79l-46 -209q-19 -79 -71 -95q31 -18 31 -60q0 -19 -4 -37l-41 -187q-2 -13 -2 -20 q0 -27 17 -43.5t42 -16.5h59l-21 -91h-49z" />
<glyph horiz-adv-x="308" d="M190 822q61 0 105 -39t44 -98q0 -21 -4 -33l-41 -184q-2 -13 -2 -20q0 -23 11.5 -37.5t30.5 -14.5l-17 -77q-56 0 -72 -72l-41 -183q-13 -58 -42 -96.5t-69 -56.5t-92 -18h-65l20 91h64q68 0 86 79l47 209q17 79 70 95q-31 18 -31 60q0 19 4 36l40 188q3 12 3 20 q0 26 -17 43t-42 17h-59l21 91h48z" />
<glyph horiz-adv-x="273" d="M305 645q0 -37 -28.5 -65t-66.5 -28q-33 0 -55.5 23.5t-22.5 56.5q0 39 28 67t66 28q22 0 40 -11t28.5 -30t10.5 -41zM244 480l-84 -480h-164l128 480h120z" />
<glyph horiz-adv-x="273" d="M183 219h-109l61 369h149zM9 67q0 26 13 47.5t35 34.5t47 13q32 0 55 -24t23 -57q0 -38 -28 -66t-66 -28q-33 0 -56 23.5t-23 56.5z" />
<glyph horiz-adv-x="273" d="M279 521q0 -39 -28 -66.5t-67 -27.5q-21 0 -39 11t-28.5 29.5t-10.5 39.5q0 39 28.5 66.5t66.5 27.5q22 0 40 -10.5t28 -29t10 -40.5zM105 369h109l-60 -369h-149z" />
<glyph horiz-adv-x="487" d="M416 645q0 -38 -28 -66t-67 -28q-32 0 -55 23.5t-23 56.5q0 39 28 66.5t67 27.5q22 0 40 -10.5t28 -29t10 -40.5zM350 494q17 -31 17 -75q0 -26 -8.5 -49t-19 -37.5t-30.5 -29.5t-32.5 -22.5t-35.5 -19.5q-21 -11 -31.5 -18t-24.5 -17.5t-20 -21.5t-6 -24 q0 -27 22.5 -42.5t65.5 -15.5q75 0 130 51l64 -105q-96 -80 -217 -80q-96 0 -161 43t-65 116q0 30 9.5 56.5t21 43.5t34.5 35t36.5 26l40.5 24q26 14 38 21t28.5 20t23 26.5t6.5 30.5t-11 30z" />
<glyph horiz-adv-x="423" d="M328 325q-20 -10 -29.5 -15t-22.5 -14t-18 -18t-5 -19q0 -13 13 -27l-111 -28q-19 26 -19 55q0 24 8.5 43.5t27 34t31 22.5t37.5 20q17 8 26 12.5t20 12t16 16t5 19.5q0 21 -21 33.5t-57 12.5q-68 0 -126 -52l-49 92q85 75 196 75q90 0 147 -37.5t57 -97.5 q0 -23 -8.5 -43.5t-19 -33.5t-30 -26t-32.5 -20t-36 -17zM81 67q0 39 28.5 67t67.5 28q16 0 30.5 -6.5t25 -17.5t17 -26t6.5 -31q0 -38 -28.5 -66t-67.5 -28q-32 0 -55.5 23.5t-23.5 56.5z" />
<glyph horiz-adv-x="423" d="M352 521q0 -39 -27.5 -66.5t-66.5 -27.5q-33 0 -56 23.5t-23 56.5q0 38 28 65.5t67 27.5q33 0 55.5 -23.5t22.5 -55.5zM106 264q38 17 56.5 31t18.5 35q0 12 -14 26l112 27q20 -26 20 -55q0 -24 -9 -43.5t-27.5 -34t-31.5 -21.5t-37 -19q-19 -10 -26 -14t-19 -12 t-17 -16.5t-5 -18.5q0 -21 21 -33t57 -12q70 0 127 50l48 -91q-85 -76 -196 -76q-89 0 -146 38t-57 97q0 23 8 43.5t18.5 33.5t30.5 27t32 20.5t36 17.5z" />
<glyph horiz-adv-x="563" d="M183 173l-128 193l214 189h129l-218 -194l124 -188h-121zM386 173l-128 193l213 189h130l-218 -194l124 -188h-121z" />
<glyph horiz-adv-x="563" d="M226 555l128 -192l-214 -190h-129l218 195l-124 187h121zM429 555l128 -192l-214 -190h-129l218 195l-124 187h121z" />
<glyph horiz-adv-x="360" d="M183 173l-128 193l214 189h129l-218 -194l124 -188h-121z" />
<glyph horiz-adv-x="360" d="M227 555l128 -192l-214 -190h-129l218 195l-124 187h121z" />
<glyph horiz-adv-x="321" d="M42 307l25 116h257l-25 -116h-257z" />
<glyph horiz-adv-x="634" d="M42 307l25 116h571l-26 -116h-570z" />
<glyph horiz-adv-x="891" d="M42 307l25 116h828l-26 -116h-827z" />
<glyph horiz-adv-x="273" d="M73 360q0 39 28 66.5t67 27.5q32 0 55 -23.5t23 -57.5q0 -37 -28.5 -65t-66.5 -28q-33 0 -55.5 23.5t-22.5 56.5z" />
<glyph horiz-adv-x="383" d="M201 239q-32 0 -58.5 14.5t-41 41t-14.5 58.5q0 37 19.5 69.5t52.5 51t70 18.5q49 0 81.5 -32.5t32.5 -81.5q0 -57 -42.5 -98t-99.5 -41z" />
<glyph horiz-adv-x="552" d="M349 348q34 -12 59 -24t50.5 -31.5t39 -48t13.5 -64.5q0 -32 -10.5 -61t-31.5 -52.5t-50 -41t-67.5 -27.5t-82.5 -11l-15 -66h-97l16 75q-123 20 -187 94l82 103q46 -58 132 -77l30 133q-35 13 -59 24.5t-50.5 31t-40 47t-13.5 62.5q0 48 31 90.5t87 69.5t123 27l16 71 h97l-19 -81q103 -27 159 -89l-83 -95q-40 43 -102 63zM217 422q0 -27 51 -46l23 106q-34 -4 -54 -20.5t-20 -39.5zM286 108q20 1 35.5 7t24 15.5t12.5 19.5t4 22q0 28 -51 49z" />
<glyph horiz-adv-x="533" d="M340 209q50 6 87 48l74 -91q-72 -76 -184 -80l-22 -96h-99l24 105q-52 15 -90 46.5t-58.5 77t-20.5 101.5q0 124 82.5 212.5t203.5 94.5l17 75h100l-21 -85q89 -24 129 -92l-102 -78q-18 32 -56 48zM189 326q0 -73 59 -101l61 274q-54 -14 -87 -62t-33 -111z" />
<glyph horiz-adv-x="625" d="M366 116q68 9 117 71l105 -65q-21 -30 -48 -54t-58.5 -42t-68.5 -28t-76 -11l-17 -76h-97l19 86q-96 24 -152 93.5t-56 165.5q0 91 45 169t124 125.5t173 50.5l15 66h97l-17 -76q62 -18 106 -58.5t64 -95.5l-127 -46q-21 48 -71 70zM180 266q0 -50 24 -86.5t66 -53.5 l77 347q-70 -13 -118.5 -72t-48.5 -135z" />
<glyph horiz-adv-x="481" d="M318 98q37 0 69 33l31 -99q-21 -22 -45 -32.5t-66 -10.5t-102 17.5t-92 17.5q-41 0 -93 -31l-25 85q51 21 84 56t33 78q0 13 -3 28h-97l16 74h55q-17 45 -17 83q0 86 70 144.5t159 58.5q76 0 133 -31.5t76 -86.5l-116 -47q-8 33 -31.5 49t-52.5 16q-27 0 -49.5 -14 t-36 -40.5t-13.5 -60.5q0 -31 16 -71h134l-17 -74h-99q0 -31 -23.5 -69.5t-45.5 -50.5q12 4 24 4q27 0 65.5 -13t58.5 -13z" />
<glyph horiz-adv-x="604" d="M682 588l-250 -274h154l-16 -73h-202l-12 -54h203l-17 -71h-202l-24 -116h-141l26 116h-207l16 71h206l13 54h-208l18 73h157l-130 274h158l100 -227l196 227h162z" />
<glyph horiz-adv-x="652" d="M367 111q85 0 142 76l106 -65q-42 -60 -108 -97.5t-147 -37.5q-118 0 -197 59t-98 156h-55l14 64h37q0 19 6 55h-32l14 65h38q40 96 128.5 155.5t198.5 59.5q62 0 114.5 -21.5t87.5 -58t52 -84.5l-128 -46q-15 38 -51 62t-80 24q-48 0 -91.5 -24.5t-72.5 -66.5h209 l-14 -65h-226q-5 -19 -7 -55h221l-14 -64h-193q17 -42 55.5 -66.5t90.5 -24.5z" />
<glyph d="M239 278q-53 0 -91 22.5t-56.5 61t-18.5 87.5q0 26 5 55t16 60t29 58.5t41 49.5t55.5 35t70.5 13q78 0 122 -47.5t44 -122.5q0 -32 -7.5 -67t-24.5 -72t-41 -66t-61.5 -48t-82.5 -19zM286 638q-28 0 -50.5 -21t-35 -52t-19 -62.5t-6.5 -57.5q0 -84 68 -84q23 0 42 13.5 t31.5 35t21 48t12 51t3.5 44.5q0 85 -67 85z" />
<glyph horiz-adv-x="306" d="M143 286l65 292l-87 -71l-46 63l178 144h88l-94 -428h-104z" />
<glyph d="M55 286l18 79q166 96 221.5 139.5t55.5 81.5q0 25 -20.5 38.5t-52.5 13.5q-34 0 -66.5 -13t-52.5 -33l-42 68q20 19 48.5 32.5t58 20.5t58.5 7q76 0 125.5 -33t49.5 -91q0 -57 -57 -109.5t-175 -118.5h185l-18 -82h-336z" />
<glyph d="M253 278q-65 0 -116.5 21t-75.5 57l63 63q22 -29 55 -43.5t68 -14.5t53.5 16t18.5 40q0 22 -25.5 34t-69.5 12q-29 0 -36 -1l17 82q24 -3 70 -3q37 0 57 13.5t20 37.5q0 22 -24.5 34t-61.5 12q-64 0 -110 -39l-35 64q30 26 72 41.5t83 15.5q54 0 94 -13.5t63 -39.5 t23 -61q0 -28 -13.5 -51t-40.5 -39t-64 -18q37 -8 60.5 -32t23.5 -60q0 -51 -46.5 -89.5t-122.5 -38.5z" />
<glyph d="M368 378l-20 -92h-102l20 92h-210l16 69l228 267h142l-56 -256h56l-17 -80h-57zM320 623l-143 -165h107z" />
<glyph d="M242 278q-37 0 -70.5 8t-63 25t-48.5 41l65 61q41 -52 115 -52q26 0 45.5 9.5t28.5 25t9 34.5t-9.5 32t-26.5 19.5t-40 6.5q-48 0 -84 -34l-67 22l53 238h310l-18 -83h-207l-22 -99q39 31 87 31q54 0 91.5 -32.5t37.5 -84.5q0 -46 -22 -84t-65 -61t-99 -23z" />
<glyph d="M253 278q-43 0 -76.5 11.5t-56 33t-34.5 52.5t-12 69q0 114 69 195t168 81q93 0 148 -50l-57 -69q-33 37 -94 37q-38 0 -68.5 -23.5t-44 -50.5t-13.5 -47v-4q50 56 112 56q59 0 99 -34.5t40 -91.5q0 -45 -21 -82t-63 -60t-96 -23zM250 489q-40 0 -75 -37q-2 -6 -2 -20 q0 -12 3.5 -23.5t10.5 -20t16.5 -15t21.5 -9.5t26 -3q34 0 55.5 20.5t21.5 48.5t-21.5 43.5t-56.5 15.5z" />
<glyph horiz-adv-x="396" d="M212 286h-115l236 345h-224l18 83h337l-16 -71z" />
<glyph d="M250 278q-52 0 -94 11.5t-70 38.5t-28 66q0 44 36 78.5t92 41.5q-74 28 -74 89q0 57 49.5 87t117.5 30q45 0 85 -11t69.5 -37.5t29.5 -63.5q0 -42 -30.5 -73t-86.5 -39q32 -12 55 -38t23 -60q0 -52 -45 -86t-129 -34zM282 641q-30 0 -50 -13.5t-20 -37.5q0 -16 12.5 -28 t25.5 -17.5t24 -7.5q33 3 58 16.5t25 39.5q0 22 -21 35t-54 13zM258 470q-26 -2 -47 -9.5t-34.5 -21.5t-13.5 -31q0 -23 24 -37.5t57 -14.5q36 0 58 15t22 39q0 21 -20.5 37t-45.5 23z" />
<glyph d="M279 721q85 0 131.5 -44.5t46.5 -121.5q0 -113 -69 -194.5t-168 -81.5q-92 0 -148 51l57 68q33 -36 95 -36q28 0 53 13.5t40.5 33.5t24 39.5t8.5 34.5v4q-51 -57 -114 -57q-58 0 -98 34.5t-40 91.5q0 69 49.5 117t131.5 48zM281 509q41 0 74 39q2 5 2 19q0 32 -20.5 52 t-56.5 20q-22 0 -40 -10t-28 -26t-10 -35q0 -18 10.5 -31.5t28.5 -20.5t40 -7z" />
<glyph d="M175 -7q-78 0 -121.5 47.5t-43.5 123.5q0 31 7 66t24 72t41 66t62 47.5t83 18.5q78 0 122 -47t44 -123q0 -32 -7.5 -67t-24.5 -72t-41 -66t-61.5 -47.5t-83.5 -18.5zM223 352q-28 0 -50.5 -20.5t-35 -52t-19 -62.5t-6.5 -58q0 -84 68 -84q28 0 50.5 20.5t35 52t18.5 62.5 t6 58q0 84 -67 84z" />
<glyph horiz-adv-x="306" d="M80 0l64 292l-86 -71l-46 64l177 143h89l-94 -428h-104z" />
<glyph d="M-9 0l19 79q166 96 221.5 139.5t55.5 82.5q0 24 -20.5 37.5t-52.5 13.5q-34 0 -66.5 -13t-52.5 -33l-43 68q32 29 77 44.5t89 15.5q49 0 88.5 -14t63 -42.5t23.5 -67.5q0 -56 -57 -108.5t-176 -119.5h186l-19 -82h-336z" />
<glyph d="M189 -7q-64 0 -115.5 20.5t-75.5 57.5l63 63q22 -29 54.5 -44t68.5 -15q35 0 53.5 16t18.5 41q0 21 -25.5 33.5t-70.5 12.5q-28 0 -35 -1l17 81q24 -2 70 -2q25 0 42.5 6t26 17t8.5 27q0 22 -25 34t-61 12q-64 0 -110 -38l-35 64q30 25 71.5 40.5t83.5 15.5q82 0 131 -30 t49 -84q0 -42 -31.5 -73t-86.5 -35q36 -8 59.5 -32t23.5 -60q0 -50 -46 -88.5t-123 -38.5z" />
<glyph d="M305 92l-20 -92h-102l20 92h-210l16 70l227 266h143l-56 -256h56l-17 -80h-57zM257 337l-144 -165h107z" />
<glyph d="M179 -7q-57 0 -105 18.5t-77 54.5l65 61q41 -52 115 -52q39 0 61 20t22 49t-20.5 43.5t-55.5 14.5q-49 0 -84 -34l-67 22l53 238h310l-18 -82h-207l-22 -100q39 31 86 31q55 0 92.5 -32.5t37.5 -84.5q0 -71 -51 -119t-135 -48z" />
<glyph d="M189 -7q-56 0 -96.5 20t-61 57.5t-20.5 87.5q0 114 69 195t168 81q93 0 148 -50l-57 -68q-33 36 -94 36q-38 0 -68.5 -23.5t-44 -50.5t-13.5 -47v-4q50 57 112 57q59 0 99 -34.5t40 -92.5q0 -69 -49 -116.5t-132 -47.5zM187 203q-41 0 -75 -37q-2 -6 -2 -19 q0 -33 21 -52.5t57 -19.5q34 0 55.5 20.5t21.5 49t-21.5 43.5t-56.5 15z" />
<glyph horiz-adv-x="396" d="M149 0h-115l236 346h-224l18 82h337l-16 -71z" />
<glyph d="M187 -7q-81 0 -136.5 29t-55.5 86q0 44 35.5 79t92.5 41q-74 29 -74 90q0 56 49.5 86t117.5 30q44 0 84.5 -11t70 -37.5t29.5 -63.5q0 -41 -30.5 -72t-87.5 -39q33 -13 56 -39t23 -60q0 -52 -45 -85.5t-129 -33.5zM219 355q-20 0 -35.5 -5.5t-25 -17.5t-9.5 -28 q0 -22 21 -35.5t41 -17.5q33 3 58 16.5t25 39.5q0 23 -21 35.5t-54 12.5zM195 184q-40 -3 -67.5 -19.5t-27.5 -42.5q0 -23 24 -37t57 -14q36 0 58 15t22 38q0 21 -20.5 37.5t-45.5 22.5z" />
<glyph d="M216 435q84 0 131 -44t47 -121q0 -114 -69 -195t-168 -81q-92 0 -148 50l57 68q33 -36 94 -36q38 0 68.5 23.5t44.5 50.5t14 47v4q-51 -57 -114 -57q-58 0 -98 34.5t-40 92.5q0 68 49.5 116t131.5 48zM218 224q41 0 74 38q2 6 2 19q0 32 -20.5 52t-56.5 20q-34 0 -56 -21 t-22 -50q0 -27 22.5 -42.5t56.5 -15.5z" />
</font>
</defs>
</svg>
