<?xml version="1.0" standalone="no"?>
<!DOCTYPE svg PUBLIC "-//W3C//DTD SVG 1.1//EN" "http://www.w3.org/Graphics/SVG/1.1/DTD/svg11.dtd" >
<svg xmlns="http://www.w3.org/2000/svg" xmlns:xlink="http://www.w3.org/1999/xlink" version="1.1">
<metadata></metadata>
<defs>
<font id="proxima_nova_sregular" horiz-adv-x="364" >
<font-face units-per-em="1000" ascent="790" descent="-210" />
<missing-glyph horiz-adv-x="242" />
<glyph unicode="ffj" horiz-adv-x="743" d="M90 0v392h-75v62h75v35q0 69 36 108t96 39q43 0 68 -16l-17 -52q-18 10 -41 10q-34 0 -52.5 -23t-18.5 -66v-35h92v-62h-92v-392h-71zM356 0v392h-75v62h75v35q0 69 36 108t96 39q43 0 68 -16l-17 -53q-18 11 -41 11t-39 -10.5t-24 -30.5t-8 -48v-35h92v-62h-92v-392h-71 zM637 530q-19 0 -33 14t-14 34t14 33.5t33 13.5q20 0 34 -13.5t14 -33.5t-14 -34t-34 -14zM673 454v-498q0 -67 -34.5 -103.5t-98.5 -36.5q-30 0 -51 6l9 60q12 -5 34 -5q71 0 71 79v498h70z" />
<glyph unicode="fj" horiz-adv-x="477" d="M90 0v392h-75v62h75v35q0 69 36 108t96 39q43 0 68 -16l-17 -53q-18 11 -41 11q-34 0 -52.5 -23t-18.5 -66v-35h92v-62h-92v-392h-71zM371 530q-19 0 -33 14t-14 34t14 33.5t33 13.5q20 0 34 -13.5t14 -33.5q0 -10 -3.5 -18.5t-10 -15t-15.5 -10.5t-19 -4zM407 454v-498 q0 -67 -34.5 -103.5t-98.5 -36.5q-30 0 -51 6l9 60q12 -5 34 -5q71 0 71 79v498h70z" />
<glyph unicode="&#xfb00;" horiz-adv-x="532" d="M90 0v392h-75v62h75v35q0 69 36 108t96 39q43 0 68 -16l-17 -52q-18 10 -41 10q-34 0 -52.5 -23t-18.5 -66v-35h92v-62h-92v-392h-71zM356 0v392h-75v62h75v35q0 69 36 108t96 39q43 0 68 -16l-17 -52q-18 10 -41 10t-39 -10.5t-24 -30.5t-8 -48v-35h92v-62h-92v-392h-71 z" />
<glyph unicode="&#xfb01;" horiz-adv-x="676" d="M70 0v517h360v-65h-286v-155h281v-65h-281v-232h-74zM532 0v517h73v-517h-73z" />
<glyph unicode="&#xfb02;" horiz-adv-x="892" d="M70 0v517h360v-65h-286v-155h281v-65h-281v-232h-74zM532 0v517h73v-452h251v-65h-324z" />
<glyph unicode="&#xfb03;" horiz-adv-x="743" d="M90 0v392h-75v62h75v35q0 69 36 108t96 39q43 0 68 -16l-17 -52q-18 10 -41 10q-34 0 -52.5 -23t-18.5 -66v-35h92v-62h-92v-392h-71zM356 0v392h-75v62h75v35q0 69 36 108t96 39q43 0 68 -16l-17 -53q-18 11 -41 11t-39 -10.5t-24 -30.5t-8 -48v-35h92v-62h-92v-392h-71 zM637 530q-19 0 -33 14t-14 34t14 33.5t33 13.5q20 0 34 -13.5t14 -33.5t-14 -34t-34 -14zM603 0v454h70v-454h-70z" />
<glyph unicode="&#xfb04;" horiz-adv-x="743" d="M90 0v392h-75v62h75v35q0 69 36 108t96 39q43 0 68 -16l-17 -52q-18 10 -41 10q-34 0 -52.5 -23t-18.5 -66v-35h92v-62h-92v-392h-71zM356 0v392h-75v62h75v35q0 69 36 108t96 39q43 0 68 -16l-17 -53q-18 11 -41 11t-39 -10.5t-24 -30.5t-8 -48v-35h92v-62h-92v-392h-71 zM603 0v627h70v-627h-70z" />
<glyph unicode="fb" horiz-adv-x="806" d="M90 0v392h-75v62h75v35q0 69 36 108t96 39q43 0 68 -16l-17 -53q-18 11 -41 11q-34 0 -52.5 -23t-18.5 -66v-35h92v-62h-92v-392h-71zM337 0v627h70v-242q59 80 153 80q90 0 146 -65.5t56 -172.5q0 -110 -56 -174t-146 -64q-46 0 -86.5 21.5t-66.5 57.5v-68h-70zM407 123 q19 -30 57 -50.5t78 -20.5q68 0 107.5 48.5t39.5 126t-39.5 126.5t-107.5 49q-40 0 -78 -21t-57 -52v-206z" />
<glyph unicode="fh" horiz-adv-x="784" d="M90 0v392h-75v62h75v35q0 69 36 108t96 39q43 0 68 -16l-17 -53q-18 11 -41 11q-34 0 -52.5 -23t-18.5 -66v-35h92v-62h-92v-392h-71zM644 0v299q0 57 -26.5 80t-76.5 23q-38 0 -75 -20.5t-59 -49.5v-332h-70v627h70v-239q27 32 71 54.5t92 22.5q144 0 144 -144v-321h-70 z" />
<glyph unicode="fk" horiz-adv-x="749" d="M90 0v392h-75v62h75v35q0 69 36 108t96 39q43 0 68 -16l-17 -53q-18 11 -41 11q-34 0 -52.5 -23t-18.5 -66v-35h92v-62h-92v-392h-71zM646 0l-164 204l-75 -74v-130h-70v627h70v-415l239 242h89l-201 -206l202 -248h-90z" />
<glyph horiz-adv-x="0" />
<glyph horiz-adv-x="333" />
<glyph horiz-adv-x="0" />
<glyph horiz-adv-x="0" />
<glyph unicode="&#xd;" horiz-adv-x="0" />
<glyph unicode=" "  horiz-adv-x="242" />
<glyph unicode="&#x09;" horiz-adv-x="242" />
<glyph unicode="&#xa0;" horiz-adv-x="242" />
<glyph unicode="!" horiz-adv-x="216" d="M136 156h-55l-13 361h81zM108 -9q-21 0 -36.5 15t-15.5 36t15.5 36t36.5 15t36.5 -15t15.5 -36t-15.5 -36t-36.5 -15z" />
<glyph unicode="&#x22;" horiz-adv-x="322" d="M76 387q-25 193 -25 206q0 18 12.5 30.5t29.5 12.5q18 0 30.5 -12.5t12.5 -30.5l-25 -206h-35zM212 387q-25 193 -25 206q0 18 12.5 30.5t30.5 12.5t30.5 -12.5t12.5 -30.5l-26 -206h-35z" />
<glyph unicode="#" horiz-adv-x="466" d="M433 326h-82l-45 -132h84l-14 -45h-85l-50 -149h-54l51 149h-85l-50 -149h-53l50 149h-79l13 45h82l44 132h-82l13 44h83l50 147h53l-50 -147h84l51 147h53l-50 -147h81zM213 326l-45 -132h85l43 132h-83z" />
<glyph unicode="$" horiz-adv-x="473" d="M440 144q0 -63 -43.5 -105.5t-128.5 -48.5v-60h-56v60q-114 6 -182 80l40 55q55 -61 142 -71v185q-30 7 -49.5 13t-43.5 17.5t-38 25.5t-24 36t-10 50q0 60 46 100.5t119 45.5v63h56v-64q97 -9 160 -72l-39 -52q-47 50 -121 60v-164q30 -8 50.5 -14.5t45.5 -19t40 -28 t25.5 -39t10.5 -53.5zM122 383q0 -20 13.5 -34t30.5 -21.5t46 -15.5v150q-40 -4 -65 -26t-25 -53zM268 55q49 5 73 29t24 57q0 34 -25 52t-72 32v-170z" />
<glyph unicode="%" horiz-adv-x="556" d="M147 272q-54 0 -88.5 36.5t-34.5 91t34.5 91.5t88.5 37t89 -37t35 -91.5t-35 -91t-89 -36.5zM122 0h-49l359 517h51zM147 487q-32 0 -53.5 -25t-21.5 -62t21 -62t54 -25t54 24.5t21 62t-21 62.5t-54 25zM409 -10q-54 0 -88.5 36.5t-34.5 91.5t34.5 91.5t88.5 36.5 t88.5 -36.5t34.5 -91.5t-34.5 -91.5t-88.5 -36.5zM409 205q-22 0 -39.5 -11.5t-26.5 -31.5t-9 -44q0 -38 21 -62.5t54 -24.5t53.5 25t20.5 62q0 18 -5 34t-15 28t-23.5 18.5t-30.5 6.5z" />
<glyph unicode="&#x26;" horiz-adv-x="522" d="M504 0h-89l-61 55q-69 -65 -158 -65q-75 0 -123 39t-48 107q0 38 18 69t41.5 49t59.5 36q-41 65 -41 115q0 53 40 88t99 35q54 0 90 -27t36 -77q0 -23 -8.5 -42.5t-19.5 -33t-32.5 -28t-36 -22t-41.5 -20.5q27 -34 61 -70q33 -35 64 -67q36 51 57 117l55 -23 q-32 -81 -71 -133q46 -47 108 -102zM168 404q0 -35 33 -86q26 12 41.5 21t32.5 21.5t24.5 27.5t7.5 33q0 28 -17 42.5t-46 14.5q-33 0 -54.5 -21t-21.5 -53zM203 41q57 0 113 51q-54 54 -74 76q-43 47 -69 81q-38 -21 -58.5 -46.5t-20.5 -61.5q0 -43 30.5 -71.5t78.5 -28.5z " />
<glyph unicode="'" horiz-adv-x="187" d="M76 387q-25 193 -25 206q0 18 12.5 30.5t29.5 12.5q18 0 30.5 -12.5t12.5 -30.5l-25 -206h-35z" />
<glyph unicode="(" horiz-adv-x="233" d="M174 -187q-64 87 -98.5 194.5t-34.5 220.5t34.5 220.5t98.5 195.5l42 -32q-49 -98 -73.5 -185.5t-24.5 -198.5q0 -110 24.5 -197.5t73.5 -184.5z" />
<glyph unicode=")" horiz-adv-x="233" d="M115 228q0 111 -24.5 198.5t-74.5 185.5l42 32q65 -88 99.5 -195t34.5 -220.5t-34.5 -221t-99.5 -194.5l-42 33q50 97 74.5 184.5t24.5 197.5z" />
<glyph unicode="*" horiz-adv-x="319" d="M138 366l5 108l-90 -59l-21 37l96 49l-96 49l21 37l90 -59l-5 108h43l-5 -108l90 59l22 -37l-96 -49l96 -49l-22 -37l-90 59l5 -108h-43z" />
<glyph unicode="+" horiz-adv-x="469" d="M261 292v-200h-53v200h-181v49h181v195h53v-195h181v-49h-181z" />
<glyph unicode="," horiz-adv-x="216" d="M88 -119l-34 29q23 15 40.5 39.5t20.5 47.5q-4 -2 -13 -2q-20 0 -33 13.5t-13 34.5t14.5 36t35.5 15q25 0 42 -19.5t17 -51.5q0 -42 -21.5 -80t-55.5 -62z" />
<glyph unicode="-" horiz-adv-x="282" d="M28 196v62h226v-62h-226z" />
<glyph unicode="." horiz-adv-x="216" d="M56 42q0 21 15.5 36.5t36.5 15.5t36.5 -15.5t15.5 -36.5t-15.5 -36t-36.5 -15t-36.5 15t-15.5 36z" />
<glyph unicode="/" horiz-adv-x="278" d="M0 -19l223 665h55l-223 -665h-55z" />
<glyph unicode="0" horiz-adv-x="575" d="M287.5 -11q-60.5 0 -107.5 23t-75 61.5t-42.5 85.5t-14.5 99q0 53 14.5 100t42.5 86t75 61.5t108 22.5q35 0 65.5 -7.5t54.5 -22t44 -34t34 -43t23 -50.5t13.5 -55t4.5 -58q0 -52 -14 -99t-42 -85.5t-75.5 -61.5t-108 -23zM287.5 459q-53.5 0 -91 -30t-53 -73.5 t-15.5 -97.5q0 -53 15.5 -97t53 -73.5t91 -29.5t91 29.5t53 73.5t15.5 97q0 54 -15.5 97.5t-53 73.5t-91 30z" />
<glyph unicode="1" horiz-adv-x="318" d="M167 0v414l-100 -107l-47 48l157 162h68v-517h-78z" />
<glyph unicode="2" horiz-adv-x="543" d="M56 0v63q86 35 150.5 72t105.5 73t61 71t20 70q0 31 -17.5 56.5t-46.5 39.5t-64 14q-36 0 -69.5 -10t-60 -27.5t-45.5 -41.5l-48 50q36 46 96.5 72t128.5 26q43 0 81 -12t65.5 -33.5t43 -53.5t15.5 -70q0 -82 -76 -160t-196 -129h262v-70h-406z" />
<glyph unicode="3" horiz-adv-x="523" d="M24 -17l46 49q28 -38 74 -60.5t100 -22.5q34 0 61.5 8.5t46.5 23.5t29 37t10 49q0 56 -42 83.5t-114 27.5q-55 0 -65 -1v71q10 -1 65 -1q64 0 105 26t41 78q0 33 -19.5 58t-51 37t-69.5 12q-95 0 -166 -76l-43 49q24 28 54 49t72 34t88 13q93 0 153 -44.5t60 -122.5 q0 -62 -41.5 -99.5t-94.5 -46.5q23 -2 47.5 -12t46.5 -28.5t36.5 -48t14.5 -65.5q0 -80 -60 -130t-162 -50q-75 0 -133.5 29t-88.5 74z" />
<glyph unicode="4" horiz-adv-x="524" d="M406 52v-162h-78v162h-298v65l269 400h107v-397h88v-68h-88zM328 445l-220 -325h220v325z" />
<glyph unicode="5" horiz-adv-x="554" d="M62 -21l48 52q65 -83 173 -83q63 0 104 38.5t41 96.5q0 30 -11 55.5t-29.5 43t-45.5 27t-58 9.5q-84 0 -145 -59l-57 20v338h383v-70h-305v-218q15 16 36.5 28.5t50.5 20.5t59 8q83 0 141.5 -54t58.5 -146q0 -63 -29.5 -110.5t-80 -72t-113.5 -24.5q-145 0 -221 100z" />
<glyph unicode="6" horiz-adv-x="555" d="M48 312q0 65 15.5 122.5t45.5 103t80 72t114 26.5q108 0 174 -75l-40 -58q-27 31 -57.5 47.5t-76.5 16.5q-58 0 -99.5 -36.5t-59.5 -91t-18 -118.5q0 -16 1 -25q23 37 72.5 67.5t105.5 30.5q89 0 146.5 -52t57.5 -148q0 -86 -60 -145.5t-159 -59.5q-51 0 -92.5 17.5 t-69 47t-46 71t-26.5 88.5t-8 99zM431 191q0 33 -11.5 59.5t-31 42.5t-45.5 24.5t-57 8.5q-46 0 -88.5 -25.5t-68.5 -68.5q3 -31 12.5 -60t27.5 -55.5t48.5 -42.5t69.5 -16q67 0 105.5 41t38.5 92z" />
<glyph unicode="7" horiz-adv-x="484" d="M114 -110l253 557h-338v70h428v-54l-257 -573h-86z" />
<glyph unicode="8" horiz-adv-x="546" d="M49 159q0 40 21.5 74t54.5 56t73 34q-38 11 -68 29.5t-50.5 50t-20.5 71.5q0 53 32.5 91t80 54.5t102.5 16.5q54 0 101.5 -16t80.5 -54.5t33 -91.5q0 -58 -39.5 -95.5t-100.5 -55.5q63 -19 106 -62t43 -102q0 -78 -64.5 -124t-159.5 -46q-47 0 -88 11.5t-71.5 33t-48 54 t-17.5 71.5zM410 463q0 48 -39 76t-97 28q-59 0 -98 -28t-39 -76q0 -26 15.5 -47t39.5 -33t43.5 -18t38.5 -10q19 4 38 10t43.5 18t39.5 33t15 47zM419 167q0 29 -17 52.5t-42 37.5t-47 21.5t-39 10.5q-18 -3 -40 -10.5t-47.5 -21.5t-42.5 -37.5t-17 -52.5q0 -49 43 -79 t104 -30q60 0 102.5 30t42.5 79z" />
<glyph unicode="9" horiz-adv-x="555" d="M79 -44l39 58q18 -20 35.5 -33.5t43 -22t56.5 -8.5q46 0 81 21.5t55 57.5t30.5 78t10.5 89q0 16 -1 25q-24 -37 -73 -67.5t-104 -30.5q-89 0 -147.5 52t-58.5 148q0 85 60 145t159 60q64 0 112 -26t75.5 -72t41.5 -102.5t14 -123.5q0 -65 -15.5 -122t-46 -102.5t-80 -72 t-113.5 -26.5q-108 0 -174 75zM426 284q-3 31 -12.5 60.5t-27.5 56t-48 42.5t-69 16q-67 0 -105.5 -41.5t-38.5 -91.5q0 -66 40.5 -100.5t104.5 -34.5q46 0 88.5 25.5t67.5 67.5z" />
<glyph unicode=":" horiz-adv-x="216" d="M56 409q0 21 15.5 36.5t36.5 15.5q14 0 26 -7t19 -19t7 -26q0 -21 -15.5 -36.5t-36.5 -15.5t-36.5 15.5t-15.5 36.5zM56 42q0 21 15.5 36.5t36.5 15.5t36.5 -15.5t15.5 -36.5t-15.5 -36t-36.5 -15t-36.5 15t-15.5 36z" />
<glyph unicode=";" horiz-adv-x="216" d="M108 357q-21 0 -36.5 15.5t-15.5 36.5t15.5 36.5t36.5 15.5q14 0 26 -7t19 -19t7 -26q0 -21 -15.5 -36.5t-36.5 -15.5zM88 -119l-34 29q23 15 40.5 39.5t20.5 47.5q-4 -2 -13 -2q-20 0 -33 13.5t-13 34.5t14.5 36t35.5 15q25 0 42 -19.5t17 -51.5q0 -42 -21.5 -80 t-55.5 -62z" />
<glyph unicode="&#x3c;" horiz-adv-x="469" d="M27 290v49l415 206v-59l-355 -172l355 -171v-58z" />
<glyph unicode="=" horiz-adv-x="469" d="M27 380v50h415v-50h-415zM27 198v49h415v-49h-415z" />
<glyph unicode="&#x3e;" horiz-adv-x="469" d="M27 85v58l354 171l-354 172v59l415 -206v-49z" />
<glyph unicode="?" horiz-adv-x="372" d="M256 283q-21 -14 -32.5 -22t-21 -21.5t-9.5 -27.5q0 -22 24 -38l-54 -23q-33 26 -33 61q0 15 5 28.5t11 22.5t19.5 20t20.5 16t24 16q33 20 50.5 38t17.5 43q0 31 -25.5 50t-70.5 19q-83 0 -135 -65l-38 45q65 82 179 82q49 0 86.5 -16t57 -43t19.5 -60q0 -19 -6.5 -35.5 t-14 -28t-23 -24.5t-24.5 -19zM179.5 -9q-21.5 0 -36.5 15t-15 36t15 36.5t36.5 15.5t36.5 -15.5t15 -36.5t-15 -36t-36.5 -15z" />
<glyph unicode="@" horiz-adv-x="736" d="M33 229q0 99 52 185t138.5 136t182.5 50q131 0 213.5 -86t82.5 -212q0 -104 -49 -163t-113 -59q-26 0 -45.5 11t-29.5 28t-11 37l-1 6q-26 -36 -65.5 -59t-82.5 -23q-66 0 -105 42t-39 111q0 96 67.5 166t153.5 70q43 0 74.5 -20.5t45.5 -52.5l12 58h64l-53 -255 q-2 -11 -2 -19q0 -24 12.5 -36.5t31.5 -12.5q15 0 31.5 9t32.5 27.5t26.5 53.5t10.5 81q0 76 -32.5 136.5t-93.5 95t-140 34.5q-88 0 -166.5 -47.5t-124.5 -125t-46 -164.5q0 -75 34.5 -135.5t96.5 -95.5t139 -35q91 0 174 53l17 -25q-91 -59 -195 -59q-128 0 -213 85 t-85 210zM463 217l28 130q-6 16 -17.5 31t-32.5 26.5t-47 11.5q-46 0 -84.5 -26t-60.5 -67t-22 -86q0 -46 26 -75t70 -29q82 0 140 84z" />
<glyph unicode="A" horiz-adv-x="618" d="M524 0l-56 139h-318l-55 -139h-87l252 627h97l253 -627h-86zM309 557l-136 -348h272z" />
<glyph unicode="B" horiz-adv-x="591" d="M73 0v627h279q81 0 128.5 -44t47.5 -116q0 -38 -15.5 -69t-40 -49.5t-54.5 -25.5q51 -7 86.5 -52.5t35.5 -101.5q0 -76 -48 -122.5t-133 -46.5h-286zM151 355h188q52 0 80 28t28 73q0 44 -28.5 72.5t-79.5 28.5h-188v-202zM151 70h192q55 0 86 28.5t31 79.5 q0 45 -31 76.5t-86 31.5h-192v-216z" />
<glyph unicode="C" horiz-adv-x="635" d="M368 -11q-136 0 -228 91t-92 233t92 233t228 91q152 0 240 -124l-66 -36q-18 26 -44 46.5t-60 32.5t-70 12q-102 0 -170.5 -72t-68.5 -183q0 -110 68.5 -182.5t170.5 -72.5q54 0 100.5 25t73.5 66l67 -36q-91 -124 -241 -124z" />
<glyph unicode="D" horiz-adv-x="658" d="M73 0v627h215q143 0 232 -89.5t89 -224.5q0 -136 -88.5 -224.5t-232.5 -88.5h-215zM151 70h137q110 0 175 69.5t65 173.5q0 106 -64 175t-176 69h-137v-487z" />
<glyph unicode="E" horiz-adv-x="534" d="M73 0v627h411v-70h-333v-202h327v-69h-327v-216h333v-70h-411z" />
<glyph unicode="F" horiz-adv-x="517" d="M73 0v627h411v-70h-333v-202h327v-69h-327v-286h-78z" />
<glyph unicode="G" horiz-adv-x="670" d="M48 313q0 143 93 233.5t229 90.5q149 0 244 -117l-62 -39q-31 40 -79 63.5t-103 23.5q-68 0 -123 -32.5t-86.5 -91t-31.5 -131.5q0 -111 69 -183.5t172 -72.5q52 0 96.5 20.5t72.5 47.5v128h-216v69h294v-226q-46 -51 -109 -79.5t-138 -28.5q-136 0 -229 91t-93 234z" />
<glyph unicode="H" horiz-adv-x="669" d="M518 0v288h-367v-288h-78v627h78v-270h367v270h78v-627h-78z" />
<glyph unicode="I" horiz-adv-x="224" d="M73 0v627h78v-627h-78z" />
<glyph unicode="J" horiz-adv-x="446" d="M10 61l41 59q51 -62 118 -62q58 0 92 36.5t34 95.5v437h78v-438q0 -98 -55.5 -149t-143.5 -51q-102 0 -164 72z" />
<glyph unicode="K" horiz-adv-x="564" d="M452 0l-238 282l-63 -71v-211h-78v627h78v-324l278 324h97l-261 -298l284 -329h-97z" />
<glyph unicode="L" horiz-adv-x="479" d="M73 0v627h78v-557h292v-70h-370z" />
<glyph unicode="M" horiz-adv-x="760" d="M609 0v522l-213 -522h-32l-213 522v-522h-78v627h112l195 -478l195 478h112v-627h-78z" />
<glyph unicode="N" horiz-adv-x="665" d="M517 0l-366 506v-506h-78v627h80l361 -495v495h78v-627h-75z" />
<glyph unicode="O" horiz-adv-x="719" d="M48 313q0 140 86.5 232t224.5 92t224.5 -92t86.5 -232t-86.5 -232t-224.5 -92t-224.5 92t-86.5 232zM589 313q0 55 -16.5 102t-46 80.5t-72.5 53t-95 19.5q-104 0 -167 -71.5t-63 -183.5q0 -111 63 -183t167 -72t167 72t63 183z" />
<glyph unicode="P" horiz-adv-x="551" d="M73 0v627h252q91 0 144 -54.5t53 -134.5t-53.5 -134.5t-143.5 -54.5h-174v-249h-78zM441 438q0 53 -35 86t-90 33h-165v-238h165q37 0 65.5 15t44 42t15.5 62z" />
<glyph unicode="Q" horiz-adv-x="719" d="M670 313q0 -140 -85 -231l59 -64l-55 -47l-60 65q-75 -47 -170 -47q-138 0 -224.5 92t-86.5 232t86.5 232t224.5 92t224.5 -92t86.5 -232zM359 58q67 0 119 32l-89 97l55 46l88 -95q57 69 57 175q0 55 -16.5 102t-46 80.5t-72.5 53t-95 19.5q-104 0 -167 -71.5 t-63 -183.5q0 -111 63 -183t167 -72z" />
<glyph unicode="R" horiz-adv-x="571" d="M436 0l-160 249h-125v-249h-78v627h252q87 0 142 -51.5t55 -137.5q0 -80 -47 -128t-116 -54l169 -256h-92zM441 438q0 53 -35 86t-90 33h-165v-239h165q55 0 90 33.5t35 86.5z" />
<glyph unicode="S" horiz-adv-x="550" d="M36 88l46 60q35 -39 85.5 -64.5t111.5 -25.5q77 0 112.5 33t35.5 75q0 19 -5.5 33.5t-18.5 26t-24 19.5t-33.5 16t-36.5 12t-41 12q-30 8 -44 12t-41.5 13t-41.5 17t-33 22t-28.5 29t-17 37t-7.5 47q0 77 61.5 125.5t154.5 48.5q140 0 223 -87l-48 -57q-68 75 -181 75 q-57 0 -93 -28t-36 -72q0 -15 5 -27.5t17.5 -22.5t23 -17t33 -14.5t34.5 -11t40 -10.5q28 -8 44.5 -12.5t43 -14t42 -18.5t34.5 -24t29.5 -31.5t18 -40t7.5 -50.5q0 -36 -13 -67.5t-39 -58.5t-72.5 -42.5t-107.5 -15.5q-152 0 -240 99z" />
<glyph unicode="T" horiz-adv-x="535" d="M228 0v557h-198v70h476v-70h-200v-557h-78z" />
<glyph unicode="U" horiz-adv-x="658" d="M73 243v384h78v-382q0 -87 46 -137t132 -50t132 50t46 137v382h78v-383q0 -119 -65.5 -187t-190.5 -68t-190.5 68t-65.5 186z" />
<glyph unicode="V" horiz-adv-x="618" d="M260 0l-252 627h90l211 -541l212 541h89l-253 -627h-97z" />
<glyph unicode="W" horiz-adv-x="830" d="M553 0l-138 506l-139 -506h-84l-179 627h87l139 -523l144 523h64l144 -523l138 523h87l-179 -627h-84z" />
<glyph unicode="X" horiz-adv-x="612" d="M507 0l-201 267l-200 -267h-95l245 321l-231 306h95l186 -251l186 251h95l-230 -305l244 -322h-94z" />
<glyph unicode="Y" horiz-adv-x="588" d="M256 0v265l-248 362h92l194 -291l195 291h91l-246 -362v-265h-78z" />
<glyph unicode="Z" horiz-adv-x="549" d="M45 0v65l353 492h-353v70h452v-65l-352 -492h359v-70h-459z" />
<glyph unicode="[" horiz-adv-x="228" d="M38 -179v816h174v-51h-120v-713h120v-52h-174z" />
<glyph unicode="\" horiz-adv-x="278" d="M0 646h55l223 -665h-55z" />
<glyph unicode="]" horiz-adv-x="228" d="M16 -179v52h120v713h-120v51h175v-816h-175z" />
<glyph unicode="^" horiz-adv-x="406" d="M330 313l-127 262l-127 -262h-58l159 314h53l158 -314h-58z" />
<glyph unicode="_" horiz-adv-x="530" d="M-3 -89v51h536v-51h-536z" />
<glyph unicode="`" horiz-adv-x="212" d="M159 523l-159 135h73l139 -135h-53z" />
<glyph unicode="a" horiz-adv-x="537" d="M313 517l218 -517h-82l-48 113h-265l-47 -113h-82l218 517h88zM269 446l-110 -268h220z" />
<glyph unicode="b" horiz-adv-x="520" d="M70 0v517h244q71 0 112 -36.5t41 -96.5q0 -29 -12.5 -54t-32 -40.5t-43.5 -22.5q42 -10 70.5 -46.5t28.5 -80.5q0 -64 -42 -102t-116 -38h-250zM392 374q0 36 -23 57t-64 21h-161v-155h161q41 0 64 21.5t23 55.5zM402 148q0 22 -10 41t-31.5 31t-51.5 12h-165v-167h165 q44 0 68.5 22t24.5 61z" />
<glyph unicode="c" horiz-adv-x="547" d="M44 258q0 119 78.5 194.5t197.5 75.5q130 0 205 -106l-59 -33q-11 17 -27 31t-34.5 23.5t-40.5 14.5t-44 5q-86 0 -143.5 -57.5t-57.5 -147.5q0 -88 57.5 -146t143.5 -58q45 0 84.5 20t61.5 54l60 -33q-77 -106 -206 -106q-78 0 -140.5 34t-99 96t-36.5 139z" />
<glyph unicode="d" horiz-adv-x="578" d="M70 0v517h188q125 0 200.5 -73.5t75.5 -185.5q0 -113 -75.5 -185.5t-200.5 -72.5h-188zM458 258q0 84 -52.5 139t-147.5 55h-114v-387h114q94 0 147 54.5t53 138.5z" />
<glyph unicode="e" horiz-adv-x="478" d="M70 0v517h360v-65h-286v-155h281v-65h-281v-167h286v-65h-360z" />
<glyph unicode="f" horiz-adv-x="461" d="M70 0v517h360v-65h-286v-155h281v-65h-281v-232h-74z" />
<glyph unicode="g" horiz-adv-x="588" d="M44 258.5q0 118.5 79.5 194t197.5 75.5q125 0 207 -95l-57 -38q-17 20 -40 35t-51.5 23.5t-58.5 8.5q-86 0 -143.5 -57.5t-57.5 -146.5q0 -88 57.5 -146.5t143.5 -58.5q81 0 138 54v101h-160v62h233v-191q-39 -42 -93.5 -66t-117.5 -24q-118 0 -197.5 75.5t-79.5 194z " />
<glyph unicode="h" horiz-adv-x="596" d="M453 0v233h-309v-233h-74v517h74v-219h309v219h73v-517h-73z" />
<glyph unicode="i" horiz-adv-x="215" d="M70 0v517h74v-517h-74z" />
<glyph unicode="j" horiz-adv-x="396" d="M8 53l35 53q41 -52 101 -52q49 0 78.5 29t29.5 77v357h73v-363q0 -81 -49 -123t-128 -42q-88 0 -140 64z" />
<glyph unicode="k" horiz-adv-x="501" d="M398 0l-203 228l-51 -54v-174h-74v517h74v-259l234 259h91l-227 -245l247 -272h-91z" />
<glyph unicode="l" horiz-adv-x="430" d="M70 0v517h74v-452h251v-65h-325z" />
<glyph unicode="m" horiz-adv-x="675" d="M531 0v406l-177 -406h-32l-178 406v-406h-74v517h101l166 -383l167 383h101v-517h-74z" />
<glyph unicode="n" horiz-adv-x="594" d="M449 0l-305 408v-408h-74v517h78l301 -400v400h75v-517h-75z" />
<glyph unicode="o" horiz-adv-x="622" d="M44 258.5q0 116.5 74 193t193 76.5q118 0 192.5 -77t74.5 -192.5t-74.5 -192.5t-192.5 -77q-119 0 -193 76.5t-74 193zM503 258q0 90 -53 147.5t-139 57.5q-87 0 -139.5 -57.5t-52.5 -147.5q0 -58 23.5 -104.5t67.5 -73t101 -26.5q86 0 139 58t53 146z" />
<glyph unicode="p" horiz-adv-x="490" d="M70 0v517h222q41 0 74 -12.5t53.5 -34.5t31.5 -50.5t11 -60.5q0 -68 -44 -113.5t-126 -45.5h-148v-200h-74zM386 359q0 42 -26 67.5t-74 25.5h-142v-187h142q49 0 74.5 26t25.5 68z" />
<glyph unicode="q" horiz-adv-x="622" d="M578 258q0 -118 -75 -193l48 -54l-46 -38l-50 54q-64 -38 -144 -38q-119 0 -193 76.5t-74 193t74 193t193 76.5q118 0 192.5 -77t74.5 -193zM311 54q53 0 98 25l-72 78l47 39l71 -78q48 56 48 140q0 90 -53 147.5t-139 57.5q-87 0 -139.5 -57.5t-52.5 -147.5 q0 -58 23.5 -104.5t67.5 -73t101 -26.5z" />
<glyph unicode="r" horiz-adv-x="512" d="M384 0l-136 200h-104v-200h-74v517h222q80 0 125 -44.5t45 -113.5q0 -66 -38.5 -107t-100.5 -46l147 -206h-86zM387 359q0 42 -27 67.5t-74 25.5h-142v-187h142q49 0 75 26t26 68z" />
<glyph unicode="s" horiz-adv-x="473" d="M30 70l40 55q28 -31 72.5 -52t95.5 -21q33 0 58 7t39.5 20t22 28.5t7.5 33.5q0 17 -8 31t-18.5 22.5t-31.5 17t-35.5 12t-42.5 10.5q-25 6 -37.5 9.5t-35.5 10.5t-35.5 14t-28.5 18t-24.5 24t-14.5 31t-6 40q0 64 53.5 105.5t133.5 41.5q121 0 194 -74l-39 -52 q-58 62 -156 62q-32 0 -57 -10t-39.5 -29t-14.5 -42q0 -15 7.5 -26.5t16.5 -18.5t30 -14.5t32.5 -10.5t39.5 -10q26 -7 39.5 -10.5t37 -11t37 -15t30.5 -20t26 -26.5t15.5 -33.5t6.5 -42.5q0 -69 -52 -112t-151 -43q-67 0 -120.5 22t-86.5 59z" />
<glyph unicode="t" horiz-adv-x="443" d="M184 0v452h-160v65h394v-65h-160v-452h-74z" />
<glyph unicode="u" horiz-adv-x="585" d="M70 199v318h75v-313q0 -70 38 -110t109 -40t110 40t39 110v313h74v-318q0 -98 -57 -154t-166 -56q-108 0 -165 56.5t-57 153.5z" />
<glyph unicode="v" horiz-adv-x="537" d="M225 0l-218 517h83l179 -435l180 435h82l-218 -517h-88z" />
<glyph unicode="w" horiz-adv-x="718" d="M476 0l-118 405l-116 -405h-78l-155 517h82l116 -416l121 416h62l120 -417l117 417h81l-155 -517h-77z" />
<glyph unicode="x" horiz-adv-x="532" d="M436 0l-170 215l-170 -215h-88l211 265l-199 252h88l158 -202l158 202h88l-199 -251l212 -266h-89z" />
<glyph unicode="y" horiz-adv-x="514" d="M222 0v219l-215 298h85l166 -235l164 235h86l-213 -298v-219h-73z" />
<glyph unicode="z" horiz-adv-x="485" d="M37 0v55l306 397h-306v65h405v-55l-306 -397h312v-65h-411z" />
<glyph unicode="{" horiz-adv-x="244" d="M171 -179q-47 0 -82 35.5t-35 90.5v194q0 18 -5.5 32.5t-16.5 23.5t-27 9v47q23 0 36 18.5t13 46.5v192q0 57 35 92t82 35h57v-51h-57q-26 0 -44 -21.5t-18 -54.5v-198q0 -64 -43 -83q43 -18 43 -82v-199q0 -32 18 -53.5t44 -21.5h57v-52h-57z" />
<glyph unicode="|" horiz-adv-x="198" d="M73 -19v665h52v-665h-52z" />
<glyph unicode="}" horiz-adv-x="244" d="M16 -127h57q26 0 44 21.5t18 53.5v199q0 64 44 82q-44 19 -44 83v198q0 33 -18 54.5t-44 21.5h-57v51h57q48 0 83 -35t35 -92v-192q0 -28 12.5 -46.5t36.5 -18.5v-47q-24 0 -36.5 -18.5t-12.5 -46.5v-194q0 -55 -35 -90.5t-83 -35.5h-57v52z" />
<glyph unicode="~" horiz-adv-x="472" d="M446 620q-4 -47 -11.5 -83t-21.5 -69.5t-38 -51.5t-58 -18q-19 0 -34.5 7t-25 15.5t-19 26t-13.5 27t-12 30.5q-7 19 -10.5 28t-11 21.5t-16 17.5t-20.5 5q-59 0 -77 -179l-53 6q5 48 12.5 84t21.5 69.5t38.5 51.5t57.5 18q19 0 35 -7t25.5 -15.5t19 -25.5t13.5 -27.5 t11 -30.5q9 -25 14.5 -38t17 -24.5t26.5 -11.5q61 0 77 181z" />
<glyph unicode="&#xa1;" horiz-adv-x="216" d="M108 526q21 0 36.5 -15t15.5 -36t-15.5 -36t-36.5 -15t-36.5 15t-15.5 36t15.5 36t36.5 15zM81 361h54l14 -361h-81z" />
<glyph unicode="&#xa2;" horiz-adv-x="547" d="M345 56q38 5 70 24t51 48l60 -33q-68 -95 -181 -105v-76h-55v76q-107 10 -176.5 84t-69.5 184q0 111 69.5 185t176.5 84v55h55v-55q113 -10 180 -105l-59 -33q-19 29 -51.5 48t-69.5 24v-405zM119 258q0 -80 48.5 -136t122.5 -66v405q-74 -10 -122.5 -66t-48.5 -137z" />
<glyph unicode="&#xa3;" horiz-adv-x="399" d="M359 78l32 -52q-37 -36 -108 -36q-35 0 -71 15.5t-65 15.5q-31 0 -90 -29l-24 51q49 21 74.5 48.5t25.5 57.5q0 28 -21 62h-99v45h67q-45 65 -45 117q0 66 50 110t123 44q52 0 94 -22t63 -62l-56 -30q-13 28 -38.5 44t-57.5 16q-44 0 -75 -28t-31 -73q0 -21 9 -44 t16.5 -34.5t25.5 -37.5h126v-45h-100q12 -26 12 -48q0 -28 -14.5 -52t-36.5 -39q9 4 20 4q28 0 65 -13.5t57 -13.5q21 0 42 8.5t30 20.5z" />
<glyph unicode="&#xa4;" horiz-adv-x="562" d="M506 313q0 -80 -44 -139l73 -72l-43 -42l-72 72q-57 -45 -139 -45q-81 0 -140 45l-71 -72l-44 42l73 73q-43 60 -43 138q0 80 44 139l-75 73l45 44l73 -75q58 44 138 44q79 0 138 -43l73 73l43 -43l-73 -73q44 -59 44 -139zM281 151q71 0 111.5 47.5t40.5 114.5 q0 66 -40.5 113t-111.5 47q-35 0 -64.5 -13t-48.5 -35.5t-29 -51t-10 -60.5q0 -67 41 -114.5t111 -47.5z" />
<glyph unicode="&#xa5;" horiz-adv-x="514" d="M508 517l-183 -255h166v-44h-196v-67h196v-45h-196v-106h-73v106h-200v45h200v67h-200v44h169l-184 255h85l166 -235l164 235h86z" />
<glyph unicode="&#xa6;" horiz-adv-x="198" d="M73 349v297h52v-297h-52zM73 -19v297h52v-297h-52z" />
<glyph unicode="&#xa7;" horiz-adv-x="439" d="M306 176q87 -33 87 -114q0 -64 -49 -101t-130 -37q-63 0 -105 19.5t-77 53.5l36 46q24 -28 62 -47.5t84 -19.5q33 0 57.5 9.5t38.5 28t14 43.5q0 16 -7 28t-16.5 19.5t-28 15t-31.5 11.5t-37 10q-23 6 -33.5 9t-31.5 10t-31 12.5t-25 16t-22 21.5t-12.5 27.5t-5.5 35.5 q0 46 31 76.5t77 43.5q-52 16 -80 43.5t-28 72.5q0 54 46 90.5t123 36.5q110 0 168 -66l-32 -43q-23 28 -59 42.5t-75 14.5q-45 0 -73.5 -20.5t-28.5 -54.5q0 -14 6.5 -25t15 -17.5t26.5 -13t29.5 -9.5t36.5 -9q30 -7 47.5 -11.5t43.5 -16t40 -24.5t25 -35.5t11 -51.5 q0 -82 -87 -120zM217 373q-58 -15 -81.5 -37.5t-23.5 -55.5q0 -15 7.5 -27t16.5 -20t28.5 -15t32 -10.5t38.5 -10.5q2 0 3.5 -0.5t3.5 -1t3 -0.5q40 17 59 38.5t19 53.5q0 19 -8.5 34t-25.5 25t-33 15.5t-39 11.5z" />
<glyph unicode="&#xa8;" horiz-adv-x="388" d="M97 532q-18 0 -30.5 13t-12.5 31t12.5 30.5t30.5 12.5t30.5 -12.5t12.5 -30.5t-12.5 -31t-30.5 -13zM291 532q-18 0 -31 13t-13 31t13 30.5t31 12.5q12 0 22 -5.5t16 -15.5t6 -22q0 -18 -13 -31t-31 -13z" />
<glyph unicode="&#xa9;" horiz-adv-x="731" d="M366 -11q-88 0 -163 43.5t-118.5 118t-43.5 162.5t43.5 163t118.5 118t163 43t162.5 -43t118 -118t43.5 -163t-43.5 -162.5t-118 -118t-162.5 -43.5zM366 608q-122 0 -209 -86.5t-87 -208.5t87 -208.5t209 -86.5t208.5 86.5t86.5 208.5t-86.5 208.5t-208.5 86.5zM506 175 q-53 -62 -138 -62q-54 0 -99 26t-71 72.5t-26 102.5q0 85 57 142.5t139 57.5q84 0 137 -62l-24 -22q-18 24 -49 38.5t-64 14.5q-66 0 -113.5 -47.5t-47.5 -121.5q0 -73 48 -121.5t113 -48.5q33 0 64 15t49 39z" />
<glyph unicode="&#xaa;" horiz-adv-x="355" d="M244 306v33q-37 -40 -100 -40q-42 0 -73.5 26.5t-31.5 71.5t31.5 71t73.5 26q62 0 100 -40v52q0 28 -21 44.5t-53 16.5q-55 0 -93 -43l-23 34q49 51 123 51q34 0 60 -10t43.5 -34t17.5 -60v-199h-54zM244 370v53q-26 36 -80 36q-20 0 -36.5 -8t-25.5 -22t-9 -32 q0 -28 20 -45t51 -17q54 0 80 35z" />
<glyph unicode="&#xab;" horiz-adv-x="412" d="M179 59l-151 169l151 167h70l-150 -167l150 -169h-70zM314 59l-150 169l150 167h70l-150 -167l150 -169h-70z" />
<glyph unicode="&#xac;" horiz-adv-x="473" d="M442 198h-52v182h-363v50h415v-232z" />
<glyph unicode="&#xad;" horiz-adv-x="282" d="M28 196v62h226v-62h-226z" />
<glyph unicode="&#xae;" horiz-adv-x="464" d="M232 238q-82 0 -140.5 58.5t-58.5 140.5q0 83 58.5 141t140.5 58q83 0 141 -58t58 -141q0 -54 -26 -100t-72 -72.5t-101 -26.5zM232 609q-72 0 -122.5 -50t-50.5 -122q0 -71 50.5 -122t122.5 -51q47 0 86.5 23.5t62.5 63t23 86.5q0 72 -50 122t-122 50zM287 322l-60 91 h-41v-91h-30v229h93q31 0 51.5 -19.5t20.5 -50.5q0 -33 -21 -50t-37 -17l61 -92h-37zM249 525h-63v-85h63q18 0 29.5 12t11.5 29q0 19 -11.5 31.5t-29.5 12.5z" />
<glyph unicode="&#xaf;" horiz-adv-x="341" d="M26 538v45h289v-45h-289z" />
<glyph unicode="&#xb0;" horiz-adv-x="272" d="M135 407q-47 0 -80 33.5t-33 81.5q0 47 33 80.5t80 33.5q48 0 82 -33.5t34 -80.5q0 -48 -34 -81.5t-82 -33.5zM135 591q-28 0 -47.5 -20.5t-19.5 -48.5q0 -29 19.5 -49.5t47.5 -20.5q29 0 50 20.5t21 49.5q0 28 -21 48.5t-50 20.5z" />
<glyph unicode="&#xb1;" horiz-adv-x="469" d="M261 305v-202h-53v202h-181v48h181v195h53v-195h181v-48h-181zM27 0v49h415v-49h-415z" />
<glyph unicode="&#xb2;" d="M47 396v42q117 83 166 132t49 93q0 23 -11.5 39t-29 22.5t-39.5 6.5q-33 0 -61 -13.5t-44 -35.5l-31 36q23 29 60 44t78 15q56 0 95.5 -28.5t39.5 -82.5q0 -52 -47.5 -104t-141.5 -120h191v-46h-274z" />
<glyph unicode="&#xb3;" d="M180 389q-48 0 -84.5 17t-56.5 44l31 36q41 -51 109 -51q40 0 63.5 18t23.5 48q0 65 -98 65q-32 0 -37 -1v47q6 -1 36 -1q92 0 92 60q0 28 -23.5 44t-59.5 16q-61 0 -103 -46l-29 34q52 58 136 58q61 0 98.5 -27t37.5 -73q0 -26 -14 -45.5t-32 -29t-38 -13.5 q33 -2 61.5 -26t28.5 -65q0 -32 -17 -56.5t-49.5 -38.5t-75.5 -14z" />
<glyph unicode="&#xb4;" horiz-adv-x="212" d="M54 523h-54l139 135h73z" />
<glyph unicode="&#xb5;" horiz-adv-x="531" d="M141 -173h-71v627h71v-299q0 -105 103 -105q39 0 75.5 20.5t57.5 49.5v334h70v-348q0 -25 11.5 -39.5t33.5 -14.5q10 0 17 2l6 -62q-21 -3 -37 -3q-83 0 -98 81q-26 -36 -64 -58.5t-80 -22.5q-71 0 -95 45v-207z" />
<glyph unicode="&#xb6;" horiz-adv-x="422" d="M313 -94v679h-84v-679h-42v398q-67 0 -114.5 47t-47.5 114t47.5 114.5t114.5 47.5h168v-721h-42z" />
<glyph unicode="&#xb7;" horiz-adv-x="216" d="M108 179q-21 0 -36.5 15t-15.5 35q0 22 15.5 37t36.5 15t36.5 -15t15.5 -37q0 -20 -15.5 -35t-36.5 -15z" />
<glyph unicode="&#xb8;" horiz-adv-x="192" d="M0 -151l18 35q33 -27 75 -27q12 0 22 2.5t18 8t12.5 13.5t4.5 17q0 14 -8.5 23t-25.5 9q-22 0 -36 -16l-31 17l29 79h42l-24 -62q15 11 35 11q27 0 44.5 -17t17.5 -44q0 -35 -28.5 -56.5t-69.5 -21.5q-60 0 -95 29z" />
<glyph unicode="&#xb9;" horiz-adv-x="220" d="M108 396v302l-62 -64l-33 34l102 104h49v-376h-56z" />
<glyph unicode="&#xba;" horiz-adv-x="380" d="M38 454q0 43 18 78t53.5 56t80.5 21q69 0 111 -44.5t42 -110.5q0 -43 -18 -78t-53.5 -56t-81.5 -21q-68 0 -110 44.5t-42 110.5zM288 454q0 47 -26.5 77.5t-71.5 30.5t-70.5 -30.5t-25.5 -77.5q0 -48 25.5 -79t70.5 -31q30 0 52.5 14.5t34 39.5t11.5 56z" />
<glyph unicode="&#xbb;" horiz-adv-x="412" d="M99 59h-71l151 169l-151 167h71l150 -167zM234 59h-70l150 169l-150 167h70l150 -167z" />
<glyph unicode="&#xbc;" horiz-adv-x="701" d="M108 251v303l-62 -65l-33 35l102 103h49v-376h-56zM144 0h-52l401 627h52zM613 94v-94h-56v94h-184v41l162 241h78v-236h54v-46h-54zM557 326l-127 -186h127v186z" />
<glyph unicode="&#xbd;" horiz-adv-x="748" d="M108 251v303l-62 -65l-33 35l102 103h49v-376h-56zM144 0h-52l401 627h52zM431 0v42q116 83 165.5 132.5t49.5 92.5q0 34 -23.5 51.5t-56.5 17.5q-34 0 -62 -14t-43 -35l-31 35q22 29 59 44.5t79 15.5q56 0 95 -28.5t39 -82.5q0 -53 -47 -105t-142 -120h191v-46h-273z " />
<glyph unicode="&#xbe;" horiz-adv-x="812" d="M180 244q-48 0 -84.5 17t-56.5 45l31 35q41 -51 109 -51q40 0 63.5 18t23.5 48q0 65 -98 65q-32 0 -37 -1v47q6 -1 36 -1q92 0 92 60q0 14 -6.5 26t-18 19t-26.5 11.5t-32 4.5q-61 0 -103 -47l-29 34q52 59 136 59q61 0 98.5 -27.5t37.5 -73.5q0 -19 -8 -35.5 t-20.5 -26.5t-26.5 -16.5t-29 -8.5q33 -3 61.5 -27t28.5 -65q0 -48 -38.5 -78.5t-103.5 -30.5zM255 0h-52l400 627h53zM724 94v-94h-56v94h-184v41l162 241h78v-236h54v-46h-54zM668 326l-128 -186h128v186z" />
<glyph unicode="&#xbf;" horiz-adv-x="372" d="M193 527q21 0 36 -15t15 -36.5t-15 -36.5t-36 -15q-14 0 -26 7t-19 19t-7 26q0 21 15.5 36t36.5 15zM116 235q17 11 24.5 16.5t19 15t16 19t4.5 20.5q0 22 -25 38l55 23q33 -27 33 -62q0 -18 -6.5 -33t-20 -28t-24 -20.5t-29.5 -20.5q-22 -14 -34.5 -23t-23.5 -25 t-11 -33q0 -31 26 -50t70 -19q83 0 135 65l39 -45q-66 -82 -180 -82q-73 0 -117 34t-44 85q0 23 7 42t23.5 35t28 24.5t34.5 23.5z" />
<glyph unicode="&#xc0;" horiz-adv-x="618" d="M282 680l-159 135h73l140 -135h-54zM524 0l-56 139h-318l-55 -139h-87l252 627h97l253 -627h-86zM309 557l-136 -348h272z" />
<glyph unicode="&#xc1;" horiz-adv-x="618" d="M334 680h-54l139 135h74zM524 0l-56 139h-318l-55 -139h-87l252 627h97l253 -627h-86zM309 557l-136 -348h272z" />
<glyph unicode="&#xc2;" horiz-adv-x="618" d="M387 680l-78 99l-75 -99h-48l89 135h68l92 -135h-48zM524 0l-56 139h-318l-55 -139h-87l252 627h97l253 -627h-86zM309 557l-136 -348h272z" />
<glyph unicode="&#xc3;" horiz-adv-x="618" d="M294 728q-8 12 -12.5 18t-13 12t-18.5 6q-20 0 -32.5 -20t-12.5 -61h-42q0 57 23.5 91.5t67.5 34.5q17 0 31.5 -8.5t21 -16.5t17.5 -24q10 -14 14 -19t13 -11.5t18 -6.5q21 0 33.5 20t12.5 61h42q0 -57 -24 -91.5t-67 -34.5q-18 0 -32.5 8.5t-21.5 17t-18 24.5zM524 0 l-56 139h-318l-55 -139h-87l252 627h97l253 -627h-86zM309 557l-136 -348h272z" />
<glyph unicode="&#xc4;" horiz-adv-x="618" d="M212 689q-17 0 -30 13t-13 31t13 30.5t30 12.5q19 0 31.5 -12.5t12.5 -30.5t-12.5 -31t-31.5 -13zM407 689q-18 0 -31 13t-13 31t13 30.5t31 12.5t30.5 -12.5t12.5 -30.5t-12.5 -31t-30.5 -13zM524 0l-56 139h-318l-55 -139h-87l252 627h97l253 -627h-86zM309 557 l-136 -348h272z" />
<glyph unicode="&#xc5;" horiz-adv-x="618" d="M217 759.5q0 38.5 27 66t65 27.5t65 -27.5t27 -66t-27 -65.5t-65 -27t-65 27t-27 65.5zM364 760q0 15 -7 27.5t-19.5 20t-28.5 7.5q-22 0 -38 -16t-16 -39t16 -39.5t38 -16.5q15 0 28 7.5t20 20.5t7 28zM524 0l-56 139h-318l-55 -139h-87l252 627h97l253 -627h-86z M309 557l-136 -348h272z" />
<glyph unicode="&#xc6;" horiz-adv-x="890" d="M429 0v139h-250l-86 -139h-86l391 627h441v-70h-332v-202h326v-69h-326v-216h332v-70h-410zM429 557l-212 -348h212v348z" />
<glyph unicode="&#xc7;" horiz-adv-x="635" d="M609 113q-87 -118 -227 -124l-16 -41q14 11 34 11q27 0 44.5 -17t17.5 -44q0 -35 -28 -56.5t-69 -21.5q-60 0 -95 29l18 35q32 -27 75 -27q24 0 40.5 11t16.5 30q0 10 -3.5 16.5t-11.5 11t-20 4.5q-21 0 -35 -16l-31 17l21 59q-125 10 -208.5 99.5t-83.5 223.5 q0 142 92 233t228 91q152 0 240 -124l-66 -36q-18 26 -44 46.5t-60 32.5t-70 12q-102 0 -170.5 -72t-68.5 -183q0 -110 68.5 -182.5t170.5 -72.5q54 0 100.5 25t73.5 66z" />
<glyph unicode="&#xc8;" horiz-adv-x="534" d="M257 680l-159 135h73l139 -135h-53zM73 0v627h411v-70h-333v-202h327v-69h-327v-216h333v-70h-411z" />
<glyph unicode="&#xc9;" horiz-adv-x="534" d="M308 680h-53l139 135h73zM73 0v627h411v-70h-333v-202h327v-69h-327v-216h333v-70h-411z" />
<glyph unicode="&#xca;" horiz-adv-x="534" d="M362 680l-78 99l-75 -99h-48l89 135h68l92 -135h-48zM73 0v627h411v-70h-333v-202h327v-69h-327v-216h333v-70h-411z" />
<glyph unicode="&#xcb;" horiz-adv-x="534" d="M187 689q-18 0 -30.5 13t-12.5 31t12.5 30.5t30.5 12.5t30.5 -12.5t12.5 -30.5t-12.5 -31t-30.5 -13zM382 689q-19 0 -32 13t-13 31t13 30.5t32 12.5q17 0 30 -12.5t13 -30.5t-13 -31t-30 -13zM73 0v627h411v-70h-333v-202h327v-69h-327v-216h333v-70h-411z" />
<glyph unicode="&#xcc;" horiz-adv-x="224" d="M86 680l-159 135h73l139 -135h-53zM73 0v627h78v-627h-78z" />
<glyph unicode="&#xcd;" horiz-adv-x="224" d="M137 680h-53l139 135h73zM73 0v627h78v-627h-78z" />
<glyph unicode="&#xce;" horiz-adv-x="224" d="M191 680l-78 99l-75 -99h-48l89 135h68l92 -135h-48zM73 0v627h78v-627h-78z" />
<glyph unicode="&#xcf;" horiz-adv-x="224" d="M16 689q-12 0 -22 6t-15.5 16t-5.5 22q0 18 12.5 30.5t30.5 12.5t30.5 -12.5t12.5 -30.5t-12.5 -31t-30.5 -13zM211 689q-19 0 -32 13t-13 31t13 30.5t32 12.5q17 0 30 -12.5t13 -30.5t-13 -31t-30 -13zM73 0v627h78v-627h-78z" />
<glyph unicode="&#xd0;" horiz-adv-x="684" d="M314 627q95 0 169 -41.5t113 -112.5t39 -160q0 -136 -88.5 -224.5t-232.5 -88.5h-214v280h-91v59h91v288h214zM314 70q111 0 176 69.5t65 173.5q0 69 -27.5 123.5t-83 87.5t-130.5 33h-136v-218h159v-59h-159v-210h136z" />
<glyph unicode="&#xd1;" horiz-adv-x="665" d="M318 728q-9 12 -13 18t-13 12t-18 6q-21 0 -33.5 -20t-12.5 -61h-42q0 57 24 91.5t67 34.5q18 0 32.5 -8.5t20.5 -16.5l18 -24q9 -14 13 -19t13 -11.5t19 -6.5q20 0 32.5 20t12.5 61h42q0 -57 -24 -91.5t-67 -34.5q-17 0 -32 8.5t-21.5 17t-17.5 24.5zM517 0l-366 506 v-506h-78v627h80l361 -495v495h78v-627h-75z" />
<glyph unicode="&#xd2;" horiz-adv-x="719" d="M331 680l-159 135h73l139 -135h-53zM48 313q0 140 86.5 232t224.5 92t224.5 -92t86.5 -232t-86.5 -232t-224.5 -92t-224.5 92t-86.5 232zM589 313q0 55 -16.5 102t-46 80.5t-72.5 53t-95 19.5q-104 0 -167 -71.5t-63 -183.5q0 -111 63 -183t167 -72t167 72t63 183z" />
<glyph unicode="&#xd3;" horiz-adv-x="719" d="M383 680h-54l139 135h73zM48 313q0 140 86.5 232t224.5 92t224.5 -92t86.5 -232t-86.5 -232t-224.5 -92t-224.5 92t-86.5 232zM589 313q0 55 -16.5 102t-46 80.5t-72.5 53t-95 19.5q-104 0 -167 -71.5t-63 -183.5q0 -111 63 -183t167 -72t167 72t63 183z" />
<glyph unicode="&#xd4;" horiz-adv-x="719" d="M436 680l-78 99l-75 -99h-48l89 135h68l92 -135h-48zM48 313q0 140 86.5 232t224.5 92t224.5 -92t86.5 -232t-86.5 -232t-224.5 -92t-224.5 92t-86.5 232zM589 313q0 55 -16.5 102t-46 80.5t-72.5 53t-95 19.5q-104 0 -167 -71.5t-63 -183.5q0 -111 63 -183t167 -72 t167 72t63 183z" />
<glyph unicode="&#xd5;" horiz-adv-x="719" d="M343 728q-8 12 -12.5 18t-13 12t-18.5 6q-20 0 -32.5 -20t-12.5 -61h-42q0 57 23.5 91.5t67.5 34.5q17 0 31.5 -8.5t21 -16.5t17.5 -24q10 -14 14 -19t13 -11.5t18 -6.5q21 0 33 20t12 61h43q0 -57 -24 -91.5t-67 -34.5q-18 0 -32.5 8.5t-21.5 17t-18 24.5zM48 313 q0 140 86.5 232t224.5 92t224.5 -92t86.5 -232t-86.5 -232t-224.5 -92t-224.5 92t-86.5 232zM589 313q0 55 -16.5 102t-46 80.5t-72.5 53t-95 19.5q-104 0 -167 -71.5t-63 -183.5q0 -111 63 -183t167 -72t167 72t63 183z" />
<glyph unicode="&#xd6;" horiz-adv-x="719" d="M261 689q-17 0 -30 13t-13 31t13 30.5t30 12.5q18 0 31 -12.5t13 -30.5t-12.5 -31t-31.5 -13zM456 689q-18 0 -31 13t-13 31t13 30.5t31 12.5t30.5 -12.5t12.5 -30.5q0 -12 -6 -22t-16 -16t-21 -6zM48 313q0 140 86.5 232t224.5 92t224.5 -92t86.5 -232t-86.5 -232 t-224.5 -92t-224.5 92t-86.5 232zM589 313q0 55 -16.5 102t-46 80.5t-72.5 53t-95 19.5q-104 0 -167 -71.5t-63 -183.5q0 -111 63 -183t167 -72t167 72t63 183z" />
<glyph unicode="&#xd7;" horiz-adv-x="469" d="M234 279l-139 -140l-35 35l139 140l-139 139l35 36l139 -140l140 140l35 -36l-139 -139l139 -140l-35 -35z" />
<glyph unicode="&#xd8;" horiz-adv-x="719" d="M558 569q54 -44 83 -110.5t29 -145.5q0 -140 -86.5 -232t-224.5 -92q-91 0 -163 42l-20 -31h-62l41 61q-51 44 -79 109t-28 143q0 140 86.5 232t224.5 92q87 0 157 -39l20 29h62zM129 313q0 -117 68 -189l279 414q-50 30 -117 30q-104 0 -167 -71.5t-63 -183.5zM359 58 q104 0 167 72t63 183q0 122 -73 193l-278 -415q54 -33 121 -33z" />
<glyph unicode="&#xd9;" horiz-adv-x="658" d="M302 680l-159 135h73l139 -135h-53zM73 243v384h78v-382q0 -87 46 -137t132 -50t132 50t46 137v382h78v-383q0 -119 -65.5 -187t-190.5 -68t-190.5 68t-65.5 186z" />
<glyph unicode="&#xda;" horiz-adv-x="658" d="M353 680h-53l139 135h73zM73 243v384h78v-382q0 -87 46 -137t132 -50t132 50t46 137v382h78v-383q0 -119 -65.5 -187t-190.5 -68t-190.5 68t-65.5 186z" />
<glyph unicode="&#xdb;" horiz-adv-x="658" d="M407 680l-78 99l-75 -99h-48l89 135h68l92 -135h-48zM73 243v384h78v-382q0 -87 46 -137t132 -50t132 50t46 137v382h78v-383q0 -119 -65.5 -187t-190.5 -68t-190.5 68t-65.5 186z" />
<glyph unicode="&#xdc;" horiz-adv-x="658" d="M232 689q-18 0 -30.5 13t-12.5 31t13 30.5t30 12.5q18 0 30.5 -12.5t12.5 -30.5t-12.5 -31t-30.5 -13zM427 689q-19 0 -31.5 13t-12.5 31t13 30.5t31 12.5q17 0 30 -12.5t13 -30.5t-13 -31t-30 -13zM73 243v384h78v-382q0 -87 46 -137t132 -50t132 50t46 137v382h78v-383 q0 -119 -65.5 -187t-190.5 -68t-190.5 68t-65.5 186z" />
<glyph unicode="&#xdd;" horiz-adv-x="588" d="M319 680h-54l139 135h74zM256 0v265l-248 362h92l194 -291l195 291h91l-246 -362v-265h-78z" />
<glyph unicode="&#xde;" horiz-adv-x="551" d="M73 0v627h78v-112h174q91 0 144 -54.5t53 -135.5q0 -80 -53.5 -134t-143.5 -54h-174v-137h-78zM441 325q0 53 -35 87t-90 34h-165v-239h165q56 0 90.5 32.5t34.5 85.5z" />
<glyph unicode="&#xdf;" horiz-adv-x="947" d="M30 70l40 55q28 -31 72.5 -52t95.5 -21q33 0 58 7t39.5 20t22 28.5t7.5 33.5q0 17 -8 31t-18.5 22.5t-31.5 17t-35.5 12t-42.5 10.5q-25 6 -37.5 9.5t-35.5 10.5t-35.5 14t-28.5 18t-24.5 24t-14.5 31t-6 40q0 64 53.5 105.5t133.5 41.5q121 0 194 -74l-39 -52 q-58 62 -156 62q-32 0 -57 -10t-39.5 -29t-14.5 -42q0 -15 7.5 -26.5t16.5 -18.5t30 -14.5t32.5 -10.5t39.5 -10q26 -7 39.5 -10.5t37 -11t37 -15t30.5 -20t26 -26.5t15.5 -33.5t6.5 -42.5q0 -69 -52 -112t-151 -43q-67 0 -120.5 22t-86.5 59zM504 70l39 55q29 -31 73.5 -52 t95.5 -21q64 0 95 25.5t31 63.5q0 17 -8 31t-18.5 22.5t-31.5 17t-35 12l-42 10.5q-25 6 -37.5 9.5t-35.5 10.5t-35.5 14t-28.5 18t-24.5 24t-14.5 31t-6 40q0 64 53.5 105.5t133.5 41.5q121 0 193 -74l-38 -52q-58 62 -156 62q-48 0 -79.5 -23t-31.5 -58q0 -15 7.5 -26.5 t16.5 -18.5t29.5 -14.5t32.5 -10.5l40 -10q25 -7 38.5 -10.5t37.5 -11t37 -15t30.5 -20t26.5 -26.5t15.5 -33.5t6.5 -42.5q0 -69 -52 -112t-151 -43q-45 0 -85 10.5t-70 28t-52 42.5z" />
<glyph unicode="&#xe0;" horiz-adv-x="537" d="M242 570l-159 135h73l139 -135h-53zM313 517l218 -517h-82l-48 113h-265l-47 -113h-82l218 517h88zM269 446l-110 -268h220z" />
<glyph unicode="&#xe1;" horiz-adv-x="537" d="M293 570h-53l139 135h73zM313 517l218 -517h-82l-48 113h-265l-47 -113h-82l218 517h88zM269 446l-110 -268h220z" />
<glyph unicode="&#xe2;" horiz-adv-x="537" d="M347 570l-78 99l-75 -99h-48l89 135h68l92 -135h-48zM313 517l218 -517h-82l-48 113h-265l-47 -113h-82l218 517h88zM269 446l-110 -268h220z" />
<glyph unicode="&#xe3;" horiz-adv-x="537" d="M254 618q-8 12 -12.5 18t-13.5 12t-18 6q-21 0 -33.5 -20t-12.5 -61h-42q0 57 24 91.5t67 34.5q18 0 32.5 -8.5t21 -16.5t17.5 -24q9 -14 13 -19t13 -11.5t19 -6.5q20 0 32.5 20t12.5 61h42q0 -57 -23.5 -91.5t-67.5 -34.5q-17 0 -32 8.5t-21.5 17t-17.5 24.5zM313 517 l218 -517h-82l-48 113h-265l-47 -113h-82l218 517h88zM269 446l-110 -268h220z" />
<glyph unicode="&#xe4;" horiz-adv-x="537" d="M172 579q-18 0 -30.5 13t-12.5 31t12.5 30.5t30.5 12.5t30.5 -12.5t12.5 -30.5t-12.5 -31t-30.5 -13zM367 579q-19 0 -32 13t-13 31t13 30.5t32 12.5q17 0 30 -12.5t13 -30.5t-13 -31t-30 -13zM313 517l218 -517h-82l-48 113h-265l-47 -113h-82l218 517h88zM269 446 l-110 -268h220z" />
<glyph unicode="&#xe5;" horiz-adv-x="537" d="M177 649.5q0 38.5 27 66t65 27.5t65 -27.5t27 -66t-27 -65.5t-65 -27t-65 27t-27 65.5zM323 650q0 23 -15.5 39t-38.5 16t-39 -16t-16 -39t16 -39.5t39 -16.5t38.5 16.5t15.5 39.5zM313 517l218 -517h-82l-48 113h-265l-47 -113h-82l218 517h88zM269 446l-110 -268h220z " />
<glyph unicode="&#xe6;" horiz-adv-x="771" d="M364 0v113h-203l-72 -113h-83l330 517h388v-65h-287v-155h280v-65h-280v-167h287v-65h-360zM364 446l-168 -268h168v268z" />
<glyph unicode="&#xe7;" horiz-adv-x="547" d="M526 95q-33 -46 -80 -73.5t-107 -31.5l-16 -42q15 11 35 11q27 0 44.5 -17t17.5 -44q0 -24 -13 -41.5t-35.5 -27t-49.5 -9.5q-59 0 -95 29l18 35q33 -27 76 -27q24 0 40.5 11t16.5 30q0 14 -9 23t-26 9q-21 0 -36 -16l-31 17l22 59q-72 4 -130 39t-91 95t-33 134 q0 119 78.5 194.5t197.5 75.5q130 0 205 -106l-59 -33q-11 17 -27 31t-34.5 23.5t-40.5 14.5t-44 5q-86 0 -143.5 -57.5t-57.5 -147.5q0 -88 57.5 -146t143.5 -58q45 0 84.5 20t61.5 54z" />
<glyph unicode="&#xe8;" horiz-adv-x="478" d="M227 570l-158 135h73l139 -135h-54zM70 0v517h360v-65h-286v-155h281v-65h-281v-167h286v-65h-360z" />
<glyph unicode="&#xe9;" horiz-adv-x="478" d="M279 570h-53l139 135h73zM70 0v517h360v-65h-286v-155h281v-65h-281v-167h286v-65h-360z" />
<glyph unicode="&#xea;" horiz-adv-x="478" d="M333 570l-78 99l-75 -99h-48l89 135h68l92 -135h-48zM70 0v517h360v-65h-286v-155h281v-65h-281v-167h286v-65h-360z" />
<glyph unicode="&#xeb;" horiz-adv-x="478" d="M158 579q-12 0 -22 6t-15.5 16t-5.5 22q0 18 12.5 30.5t30.5 12.5t30.5 -12.5t12.5 -30.5t-12.5 -31t-30.5 -13zM352 579q-18 0 -31 13t-13 31t13 30.5t31 12.5t31 -12.5t13 -30.5t-13 -31t-31 -13zM70 0v517h360v-65h-286v-155h281v-65h-281v-167h286v-65h-360z" />
<glyph unicode="&#xec;" horiz-adv-x="215" d="M81 570l-159 135h73l139 -135h-53zM70 0v517h74v-517h-74z" />
<glyph unicode="&#xed;" horiz-adv-x="215" d="M133 570h-54l139 135h73zM70 0v517h74v-517h-74z" />
<glyph unicode="&#xee;" horiz-adv-x="215" d="M186 570l-78 99l-75 -99h-48l89 135h68l92 -135h-48zM70 0v517h74v-517h-74z" />
<glyph unicode="&#xef;" horiz-adv-x="215" d="M11 579q-17 0 -30 13t-13 31t13 30.5t30 12.5q18 0 31 -12.5t13 -30.5t-12.5 -31t-31.5 -13zM206 579q-18 0 -31 13t-13 31t13 30.5t31 12.5q17 0 30 -12.5t13 -30.5t-12.5 -31t-30.5 -13zM70 0v517h74v-517h-74z" />
<glyph unicode="&#xf0;" horiz-adv-x="588" d="M268 517q125 0 200.5 -73.5t75.5 -185.5q0 -113 -75 -185.5t-200 -72.5h-188v236h-59v51h59v230h187zM268 65q94 0 147 54.5t53 138.5t-52.5 139t-146.5 55h-115v-165h126v-51h-126v-171h114z" />
<glyph unicode="&#xf1;" horiz-adv-x="594" d="M282 618q-8 12 -12.5 18t-13.5 12t-18 6q-20 0 -32.5 -20t-12.5 -61h-43q0 57 24 91.5t68 34.5q17 0 31.5 -8.5t21 -16.5t17.5 -24q10 -14 14 -19t13 -11.5t18 -6.5q20 0 32.5 20t12.5 61h43q0 -57 -24 -91.5t-68 -34.5q-17 0 -31.5 8.5t-21.5 17t-18 24.5zM449 0 l-305 408v-408h-74v517h78l301 -400v400h75v-517h-75z" />
<glyph unicode="&#xf2;" horiz-adv-x="622" d="M284 570l-159 135h73l139 -135h-53zM44 258.5q0 116.5 74 193t193 76.5q118 0 192.5 -77t74.5 -192.5t-74.5 -192.5t-192.5 -77q-119 0 -193 76.5t-74 193zM503 258q0 90 -53 147.5t-139 57.5q-87 0 -139.5 -57.5t-52.5 -147.5q0 -58 23.5 -104.5t67.5 -73t101 -26.5 q86 0 139 58t53 146z" />
<glyph unicode="&#xf3;" horiz-adv-x="622" d="M336 570h-54l139 135h73zM44 258.5q0 116.5 74 193t193 76.5q118 0 192.5 -77t74.5 -192.5t-74.5 -192.5t-192.5 -77q-119 0 -193 76.5t-74 193zM503 258q0 90 -53 147.5t-139 57.5q-87 0 -139.5 -57.5t-52.5 -147.5q0 -58 23.5 -104.5t67.5 -73t101 -26.5q86 0 139 58 t53 146z" />
<glyph unicode="&#xf4;" horiz-adv-x="622" d="M389 570l-78 99l-75 -99h-48l89 135h68l92 -135h-48zM44 258.5q0 116.5 74 193t193 76.5q118 0 192.5 -77t74.5 -192.5t-74.5 -192.5t-192.5 -77q-119 0 -193 76.5t-74 193zM503 258q0 90 -53 147.5t-139 57.5q-87 0 -139.5 -57.5t-52.5 -147.5q0 -58 23.5 -104.5 t67.5 -73t101 -26.5q86 0 139 58t53 146z" />
<glyph unicode="&#xf5;" horiz-adv-x="622" d="M296 618q-8 12 -12.5 18t-13 12t-18.5 6q-20 0 -32.5 -20t-12.5 -61h-43q0 57 24 91.5t68 34.5q17 0 31.5 -8.5t21 -16.5t17.5 -24q10 -14 14 -19t13 -11.5t18 -6.5q21 0 33 20t12 61h43q0 -57 -24 -91.5t-67 -34.5q-18 0 -32.5 8.5t-21.5 17t-18 24.5zM44 258.5 q0 116.5 74 193t193 76.5q118 0 192.5 -77t74.5 -192.5t-74.5 -192.5t-192.5 -77q-119 0 -193 76.5t-74 193zM503 258q0 90 -53 147.5t-139 57.5q-87 0 -139.5 -57.5t-52.5 -147.5q0 -58 23.5 -104.5t67.5 -73t101 -26.5q86 0 139 58t53 146z" />
<glyph unicode="&#xf6;" horiz-adv-x="622" d="M214 579q-17 0 -30 13t-13 31t13 30.5t30 12.5q18 0 31 -12.5t13 -30.5t-12.5 -31t-31.5 -13zM409 579q-18 0 -31 13t-13 31t13 30.5t31 12.5t30.5 -12.5t12.5 -30.5t-12.5 -31t-30.5 -13zM44 258.5q0 116.5 74 193t193 76.5q118 0 192.5 -77t74.5 -192.5t-74.5 -192.5 t-192.5 -77q-119 0 -193 76.5t-74 193zM503 258q0 90 -53 147.5t-139 57.5q-87 0 -139.5 -57.5t-52.5 -147.5q0 -58 23.5 -104.5t67.5 -73t101 -26.5q86 0 139 58t53 146z" />
<glyph unicode="&#xf7;" horiz-adv-x="480" d="M240 451q-18 0 -30.5 13t-12.5 30q0 19 12.5 31.5t30.5 12.5t31 -12.5t13 -31.5q0 -17 -13 -30t-31 -13zM27 292v49h426v-49h-426zM240 92q-18 0 -30.5 13t-12.5 30.5t12.5 30.5t30.5 13t31 -13t13 -31q0 -11 -6 -21t-16 -16t-22 -6z" />
<glyph unicode="&#xf8;" horiz-adv-x="622" d="M492 463q41 -37 63.5 -90t22.5 -115q0 -115 -74.5 -192t-192.5 -77q-80 0 -142 36l-19 -25h-63l41 55q-40 37 -62 90t-22 113q0 117 74 193.5t193 76.5q77 0 139 -35l18 24h63zM119 258q0 -88 52 -145l239 325q-45 25 -99 25q-87 0 -139.5 -57.5t-52.5 -147.5zM311 54 q86 0 139 58t53 146q0 90 -54 148l-239 -325q43 -27 101 -27z" />
<glyph unicode="&#xf9;" horiz-adv-x="585" d="M265 570l-159 135h74l139 -135h-54zM70 199v318h75v-313q0 -70 38 -110t109 -40t110 40t39 110v313h74v-318q0 -98 -57 -154t-166 -56q-108 0 -165 56.5t-57 153.5z" />
<glyph unicode="&#xfa;" horiz-adv-x="585" d="M317 570h-54l139 135h74zM70 199v318h75v-313q0 -70 38 -110t109 -40t110 40t39 110v313h74v-318q0 -98 -57 -154t-166 -56q-108 0 -165 56.5t-57 153.5z" />
<glyph unicode="&#xfb;" horiz-adv-x="585" d="M370 570l-78 99l-75 -99h-48l89 135h68l92 -135h-48zM70 199v318h75v-313q0 -70 38 -110t109 -40t110 40t39 110v313h74v-318q0 -98 -57 -154t-166 -56q-108 0 -165 56.5t-57 153.5z" />
<glyph unicode="&#xfc;" horiz-adv-x="585" d="M196 579q-18 0 -31 13t-13 31t13 30.5t31 12.5t30.5 -12.5t12.5 -30.5t-12.5 -31t-30.5 -13zM390 579q-18 0 -31 13t-13 31t13 30.5t31 12.5t30.5 -12.5t12.5 -30.5t-12.5 -31t-30.5 -13zM70 199v318h75v-313q0 -70 38 -110t109 -40t110 40t39 110v313h74v-318 q0 -98 -57 -154t-166 -56q-108 0 -165 56.5t-57 153.5z" />
<glyph unicode="&#xfd;" horiz-adv-x="514" d="M281 570h-54l140 135h73zM222 0v219l-215 298h85l166 -235l164 235h86l-213 -298v-219h-73z" />
<glyph unicode="&#xfe;" horiz-adv-x="490" d="M70 0v517h74v-86h148q81 0 125.5 -46t44.5 -113q0 -44 -18 -79t-57.5 -57t-94.5 -22h-148v-114h-74zM386 272q0 42 -25.5 68t-74.5 26h-142v-187h142q49 0 74.5 25.5t25.5 67.5z" />
<glyph unicode="&#xff;" horiz-adv-x="514" d="M160 579q-18 0 -30.5 13t-12.5 31t12.5 30.5t30.5 12.5t30.5 -12.5t12.5 -30.5t-12.5 -31t-30.5 -13zM354 579q-18 0 -31 13t-13 31t13 30.5t31 12.5t31 -12.5t13 -30.5t-13 -31t-31 -13zM222 0v219l-215 298h85l166 -235l164 235h86l-213 -298v-219h-73z" />
<glyph unicode="&#x152;" horiz-adv-x="1038" d="M576 0v113q-22 -40 -58.5 -68.5t-78.5 -42t-87 -13.5q-135 0 -219.5 92t-84.5 232t84.5 231.5t219.5 91.5q69 0 130 -31.5t94 -91.5v114h412v-70h-334v-202h327v-69h-327v-216h334v-70h-412zM576 416q-27 74 -83.5 112.5t-131.5 38.5q-106 0 -169 -71t-63 -183t63 -183.5 t169 -71.5q74 0 131 39t84 113v206z" />
<glyph unicode="&#x153;" horiz-adv-x="895" d="M488 0v93q-60 -104 -187 -104q-115 0 -186 76.5t-71 192.5q0 117 71 193.5t186 76.5q127 0 187 -104v93h359v-65h-286v-155h280v-65h-280v-167h286v-65h-359zM488 337q-15 43 -43 72t-61 41.5t-72 12.5q-87 0 -140 -57.5t-53 -147.5q0 -89 53 -146.5t140 -57.5 q40 0 73.5 13t60.5 42.5t42 72.5v155z" />
<glyph unicode="&#x178;" horiz-adv-x="588" d="M197 689q-17 0 -30 13t-13 31t13 30.5t30 12.5q19 0 31.5 -12.5t12.5 -30.5t-12.5 -31t-31.5 -13zM392 689q-18 0 -31 13t-13 31t13 30.5t31 12.5q12 0 21.5 -5.5t15.5 -15.5t6 -22t-6 -22t-15.5 -16t-21.5 -6zM256 0v265l-248 362h92l194 -291l195 291h91l-246 -362 v-265h-78z" />
<glyph unicode="&#x2b0;" horiz-adv-x="374" d="M263 306v190q0 37 -17 52.5t-50 15.5q-17 0 -34 -6.5t-30 -16t-22 -20.5v-215h-54v408h54v-155q18 21 47 35.5t62 14.5q99 0 99 -100v-203h-55z" />
<glyph unicode="&#x2c6;" horiz-adv-x="249" d="M201 523l-78 99l-75 -99h-48l89 135h68l92 -135h-48z" />
<glyph unicode="&#x2dc;" horiz-adv-x="294" d="M132 571l-13.5 18t-13 12t-18.5 6q-20 0 -32.5 -20t-12.5 -61h-42q0 57 24 91.5t67 34.5q18 0 32.5 -8.5t20.5 -16.5l18 -24q0 -1 2 -3q6 -9 9.5 -13.5t9 -10t11.5 -8t13 -2.5q20 0 32.5 20t12.5 61h42q0 -57 -24 -91.5t-67 -34.5q-17 0 -32 8.5t-22 17t-17 24.5z" />
<glyph unicode="&#x2000;" horiz-adv-x="426" />
<glyph unicode="&#x2001;" horiz-adv-x="853" />
<glyph unicode="&#x2002;" horiz-adv-x="426" />
<glyph unicode="&#x2003;" horiz-adv-x="853" />
<glyph unicode="&#x2004;" horiz-adv-x="284" />
<glyph unicode="&#x2005;" horiz-adv-x="213" />
<glyph unicode="&#x2006;" horiz-adv-x="142" />
<glyph unicode="&#x2007;" horiz-adv-x="142" />
<glyph unicode="&#x2008;" horiz-adv-x="106" />
<glyph unicode="&#x2009;" horiz-adv-x="170" />
<glyph unicode="&#x200a;" horiz-adv-x="47" />
<glyph unicode="&#x2010;" horiz-adv-x="282" d="M28 196v62h226v-62h-226z" />
<glyph unicode="&#x2011;" horiz-adv-x="282" d="M28 196v62h226v-62h-226z" />
<glyph unicode="&#x2012;" horiz-adv-x="282" d="M28 196v62h226v-62h-226z" />
<glyph unicode="&#x2013;" horiz-adv-x="557" d="M28 196v62h501v-62h-501z" />
<glyph unicode="&#x2014;" horiz-adv-x="783" d="M28 196v62h727v-62h-727z" />
<glyph unicode="&#x2018;" horiz-adv-x="216" d="M120 636l35 -28q-23 -15 -40 -40t-20 -47q1 0 5.5 0.5t6.5 0.5q13 0 23.5 -6t16.5 -17t6 -25q0 -21 -14.5 -35.5t-35.5 -14.5q-24 0 -41.5 19t-17.5 52q0 42 21.5 79.5t54.5 61.5z" />
<glyph unicode="&#x2019;" horiz-adv-x="216" d="M88 423l-34 29q7 5 14.5 11.5t13.5 13.5t12 15t10 16t7 16t4 16q-4 -2 -13 -2q-20 0 -33 13.5t-13 34.5q0 20 14.5 35t35.5 15q25 0 42 -19t17 -52q0 -42 -21.5 -80t-55.5 -62z" />
<glyph unicode="&#x201a;" horiz-adv-x="216" d="M88 -119l-34 29q23 15 40.5 39.5t20.5 47.5q-4 -2 -13 -2q-20 0 -33 13.5t-13 34.5t14.5 36t35.5 15q25 0 42 -19.5t17 -51.5q0 -42 -21.5 -80t-55.5 -62z" />
<glyph unicode="&#x201c;" horiz-adv-x="366" d="M127 636l35 -28q-23 -15 -40.5 -40t-19.5 -47h2t5 0.5t5 0.5q20 0 32.5 -13.5t12.5 -34.5t-14.5 -35.5t-35.5 -14.5q-24 0 -41 19t-17 52q0 42 21 79.5t55 61.5zM277 636l35 -28q-23 -15 -40 -40t-20 -47l4.5 0.5t7.5 0.5q20 0 33 -13.5t13 -34.5t-14.5 -35.5 t-36.5 -14.5q-24 0 -41 19t-17 52q0 28 10 55t27 49t39 37z" />
<glyph unicode="&#x201d;" horiz-adv-x="366" d="M88 423l-34 29q7 5 14.5 11.5t13.5 13.5t12 15t10 16t7 16t4 16q-4 -2 -13 -2q-20 0 -33 13.5t-13 34.5q0 20 14.5 35t35.5 15q25 0 42 -19t17 -52q0 -42 -21.5 -80t-55.5 -62zM240 423l-35 29q23 15 40 40t20 48q-4 -2 -12 -2q-20 0 -33 13.5t-13 34.5q0 20 14.5 35 t35.5 15q24 0 41.5 -19t17.5 -52q0 -41 -21.5 -79.5t-54.5 -62.5z" />
<glyph unicode="&#x201e;" horiz-adv-x="366" d="M88 -119l-34 29q23 15 40.5 39.5t20.5 47.5q-4 -2 -13 -2q-20 0 -33 13.5t-13 34.5t14.5 36t35.5 15q25 0 42 -19.5t17 -51.5q0 -42 -21.5 -80t-55.5 -62zM240 -119l-35 29q23 15 40 39.5t20 47.5q-4 -2 -12 -2q-20 0 -33 13.5t-13 34.5t14.5 36t35.5 15q24 0 41.5 -19.5 t17.5 -51.5q0 -42 -21.5 -80t-54.5 -62z" />
<glyph unicode="&#x2022;" horiz-adv-x="336" d="M169.5 127q-41.5 0 -71.5 30t-30 70q0 42 30 72t71.5 30t71.5 -30t30 -72q0 -40 -30 -70t-71.5 -30z" />
<glyph unicode="&#x2026;" horiz-adv-x="648" d="M107 -9q-21 0 -36 15.5t-15 35.5q0 14 7 26t18.5 19t25.5 7q21 0 36.5 -15.5t15.5 -36.5q0 -20 -15.5 -35.5t-36.5 -15.5zM323 -9q-21 0 -35.5 15.5t-14.5 35.5q0 22 14.5 37t36 15t37 -15.5t15.5 -36.5q0 -20 -16 -35.5t-37 -15.5zM540 -9q-13 0 -25 7t-19 19t-7 25 q0 21 15 36.5t36.5 15.5t36.5 -15.5t15 -36.5q0 -20 -15.5 -35.5t-36.5 -15.5z" />
<glyph unicode="&#x202f;" horiz-adv-x="170" />
<glyph unicode="&#x2032;" horiz-adv-x="190" d="M32 394q54 202 60 216q11 26 40 26q18 0 30.5 -12.5t12.5 -30.5q0 -9 -3 -16l-107 -196z" />
<glyph unicode="&#x2033;" horiz-adv-x="336" d="M32 394q54 202 60 216q11 26 40 26q18 0 30.5 -12.5t12.5 -30.5q0 -9 -3 -16l-107 -196zM179 394q53 202 59 216q3 8 9.5 14t14.5 9t16 3q18 0 30.5 -12.5t12.5 -30.5q0 -10 -3 -16l-107 -196z" />
<glyph unicode="&#x2039;" horiz-adv-x="277" d="M179 59l-151 169l151 167h70l-150 -167l150 -169h-70z" />
<glyph unicode="&#x203a;" horiz-adv-x="277" d="M99 59h-71l151 169l-151 167h71l150 -167z" />
<glyph unicode="&#x2044;" horiz-adv-x="129" d="M-110 0h-52l401 627h52z" />
<glyph unicode="&#x205f;" horiz-adv-x="213" />
<glyph unicode="&#x2070;" d="M182 389q-39 0 -69 17t-47.5 45.5t-26 62t-8.5 70t8.5 70t26 62t47.5 45t69 16.5t69 -16.5t47.5 -45t26.5 -62t9 -69.5q0 -50 -15 -92.5t-50.5 -72.5t-86.5 -30zM182 731q-48 0 -71 -42t-23 -105q0 -65 23 -107t71 -42t70.5 42.5t22.5 106.5q0 63 -22.5 105t-70.5 42z " />
<glyph unicode="&#x2074;" d="M276 490v-94h-55v94h-184v41l161 241h78v-236h55v-46h-55zM221 722l-128 -186h128v186z" />
<glyph unicode="&#x2075;" d="M180 389q-93 0 -139 61l33 37q40 -52 106 -52q39 0 63 22t24 55q0 36 -23.5 57t-61.5 21q-52 0 -89 -36l-40 14v204h245v-46h-189v-126q36 34 90 34q52 0 88 -31.5t36 -88t-40 -91t-103 -34.5z" />
<glyph unicode="&#x2076;" d="M191 389q-79 0 -117 54.5t-38 139.5q0 84 42 139t121 55q65 0 110 -43l-27 -39q-34 36 -83 36q-52 0 -79.5 -40t-27.5 -97v-16q17 22 46 39.5t62 17.5q36 0 65 -13.5t46.5 -41.5t17.5 -67q0 -34 -16.5 -62t-48.5 -45t-73 -17zM186 590q-27 0 -51.5 -14t-40.5 -38 q3 -42 26 -72.5t68 -30.5q39 0 62 23.5t23 52.5q0 26 -12 44.5t-31.5 26.5t-43.5 8z" />
<glyph unicode="&#x2077;" horiz-adv-x="340" d="M148 396h-63l156 330h-210v46h273v-40z" />
<glyph unicode="&#x2078;" d="M182 389q-61 0 -102 26.5t-41 76.5q0 35 27 61.5t67 35.5q-24 6 -43.5 17.5t-32 30t-12.5 42.5q0 48 41 73t96.5 25t96.5 -25t41 -73q0 -35 -25 -57.5t-64 -32.5q41 -9 68 -35.5t27 -61.5q0 -49 -41.5 -76t-102.5 -27zM182 732q-35 0 -58 -16t-23 -44q0 -48 81 -64 q81 16 81 64q0 28 -23 44t-58 16zM182 569q-14 -2 -32 -8.5t-37 -24t-19 -40.5q0 -28 25.5 -45.5t62.5 -17.5t62.5 17.5t25.5 45.5q0 23 -18.5 40.5t-36.5 24t-33 8.5z" />
<glyph unicode="&#x2079;" d="M175 777q78 0 116 -54.5t38 -139.5q0 -54 -17.5 -97t-55.5 -70t-91 -27q-67 0 -109 43l27 40q33 -37 82 -37q52 0 79.5 40t28.5 98v15q-16 -22 -45.5 -39.5t-62.5 -17.5q-26 0 -49.5 8t-41.5 23t-28 38.5t-10 52.5q0 20 6 38.5t18 34t28.5 27t39 18t47.5 6.5zM179 576 q27 0 51.5 14t40.5 39q-2 26 -11.5 48t-30.5 38t-51 16q-40 0 -63 -23.5t-23 -52.5q0 -16 4.5 -29t12.5 -22t19 -15.5t23.5 -9.5t27.5 -3z" />
<glyph unicode="&#x207d;" horiz-adv-x="151" d="M109 335q-40 49 -62.5 114.5t-22.5 134.5q0 68 22.5 133.5t62.5 115.5l33 -15q-30 -60 -44.5 -113.5t-14.5 -121t14.5 -121t44.5 -112.5z" />
<glyph unicode="&#x207e;" horiz-adv-x="151" d="M54 335l-32 15q30 59 44.5 112.5t14.5 121t-14.5 121.5t-44.5 113l32 15q20 -25 35.5 -54.5t26.5 -61.5t17 -66t6 -67q0 -68 -22.5 -133.5t-62.5 -115.5z" />
<glyph unicode="&#x207f;" horiz-adv-x="374" d="M263 306v188q0 70 -66 70q-17 0 -34.5 -6.5t-30 -16t-21.5 -20.5v-215h-55v296h55v-43q17 21 46 35.5t62 14.5q54 0 76.5 -26t22.5 -74v-203h-55z" />
<glyph unicode="&#x2080;" d="M182 -144q-51 0 -86.5 30t-50 72.5t-14.5 92t14.5 92t50 72t86.5 29.5t86.5 -29.5t50.5 -72t15 -92t-15 -92t-50.5 -72.5t-86.5 -30zM182 198q-48 0 -71 -42t-23 -105q0 -65 23 -107t71 -42t70.5 42.5t22.5 106.5q0 40 -8.5 72t-30 53.5t-54.5 21.5z" />
<glyph unicode="&#x2081;" horiz-adv-x="220" d="M108 -137v302l-62 -64l-33 34l102 104h49v-376h-56z" />
<glyph unicode="&#x2082;" d="M47 -137v42q117 83 166 132t49 93q0 33 -23 50.5t-57 17.5q-22 0 -43 -6.5t-36.5 -17.5t-25.5 -25l-31 36q23 29 60 44t78 15q56 0 95.5 -28.5t39.5 -82.5q0 -52 -47.5 -104t-141.5 -120h191v-46h-274z" />
<glyph unicode="&#x2083;" d="M180 -144q-24 0 -46.5 5t-40 13.5t-31 19t-23.5 23.5l31 36q41 -51 109 -51q40 0 63.5 18t23.5 48q0 65 -98 65q-32 0 -37 -1v47q6 -1 36 -1q92 0 92 60q0 28 -23.5 44t-59.5 16q-61 0 -103 -46l-29 34q52 58 136 58q61 0 98.5 -27t37.5 -73q0 -26 -14 -45.5t-32 -29 t-38 -13.5q33 -2 61.5 -26t28.5 -65q0 -48 -38.5 -78.5t-103.5 -30.5z" />
<glyph unicode="&#x2084;" d="M276 -43v-94h-55v94h-184v41l161 241h78v-236h55v-46h-55zM221 189l-128 -186h128v186z" />
<glyph unicode="&#x2085;" d="M180 -144q-93 0 -139 61l33 37q40 -52 106 -52q39 0 63 22t24 55q0 36 -23.5 57t-61.5 21q-52 0 -89 -36l-40 14v204h245v-46h-189v-126q36 34 90 34q52 0 88 -31.5t36 -88t-40 -91t-103 -34.5z" />
<glyph unicode="&#x2086;" d="M191 -144q-79 0 -117 54.5t-38 139.5q0 84 42 139t121 55q65 0 110 -43l-27 -39q-34 36 -83 36q-52 0 -79.5 -40t-27.5 -97v-16q10 14 25.5 26.5t38 21.5t44.5 9q56 0 92.5 -32t36.5 -90q0 -52 -38 -88t-100 -36zM186 57q-27 0 -51.5 -14t-40.5 -38q3 -42 26 -72.5 t68 -30.5q39 0 62 23.5t23 52.5q0 39 -24.5 59t-62.5 20z" />
<glyph unicode="&#x2087;" horiz-adv-x="340" d="M148 -137h-63l156 330h-210v46h273v-40z" />
<glyph unicode="&#x2088;" d="M182 -144q-61 0 -102 27t-41 76q0 35 27 61.5t67 35.5q-38 10 -63 32.5t-25 57.5q0 48 41 73t96.5 25t96.5 -25t41 -73q0 -35 -25 -57.5t-64 -32.5q41 -9 68 -35.5t27 -61.5q0 -49 -41.5 -76t-102.5 -27zM182 199q-35 0 -58 -16t-23 -44q0 -48 81 -64q81 16 81 64 q0 28 -23 44t-58 16zM182 36q-14 -2 -32 -8.5t-37 -24t-19 -40.5q0 -28 25.5 -45.5t62.5 -17.5q24 0 44 7.5t32 22t12 33.5q0 23 -18.5 40.5t-36.5 24t-33 8.5z" />
<glyph unicode="&#x2089;" d="M175 244q78 0 116 -54.5t38 -139.5q0 -84 -42.5 -139t-121.5 -55q-67 0 -109 43l27 40q33 -37 82 -37q35 0 60 20t36 50.5t12 67.5v15q-16 -22 -45.5 -39.5t-62.5 -17.5q-55 0 -92 32t-37 90q0 52 38.5 88t100.5 36zM179 43q27 0 51.5 14t40.5 39q-2 26 -11.5 48 t-30.5 38t-51 16q-27 0 -47 -12t-29.5 -29t-9.5 -35q0 -38 24.5 -58.5t62.5 -20.5z" />
<glyph unicode="&#x208d;" horiz-adv-x="151" d="M109 -198q-40 49 -62.5 114.5t-22.5 134.5q0 68 22.5 133.5t62.5 115.5l33 -15q-30 -60 -44.5 -113.5t-14.5 -121t14.5 -121t44.5 -112.5z" />
<glyph unicode="&#x208e;" horiz-adv-x="151" d="M54 -198l-32 15q30 59 44.5 112.5t14.5 121t-14.5 121.5t-44.5 113l32 15q40 -50 62.5 -116t22.5 -133q0 -68 -22.5 -133.5t-62.5 -115.5z" />
<glyph unicode="&#x20ac;" horiz-adv-x="573" d="M346 54q45 0 85 20t62 54l59 -33q-76 -106 -206 -106q-97 0 -169 52.5t-96 138.5h-52v42h43q-2 17 -2 36t2 36h-43v42h51q24 87 96.5 139.5t169.5 52.5q129 0 206 -106l-59 -33q-24 34 -63 54t-84 20q-65 0 -115.5 -34.5t-71.5 -92.5h226v-42h-237q-2 -22 -2 -36t2 -36 h237v-42h-225q21 -57 71.5 -91.5t114.5 -34.5z" />
<glyph unicode="&#x2122;" horiz-adv-x="426" d="M101 603v-183h-27v183h-58v24h143v-24h-58zM368 420v171l-71 -171h-7l-71 171v-171h-26v207h40l60 -150l60 150h41v-207h-26z" />
<glyph unicode="&#x25fc;" horiz-adv-x="517" d="M0 517h517v-517h-517v517z" />
<glyph unicode="&#xf6df;" horiz-adv-x="288" d="M187 -50q31 6 53 36l35 -28q-33 -43 -88 -49v-51h-39v51q-55 8 -88.5 47t-33.5 95q0 55 34 94.5t88 46.5v41h39v-40q55 -6 88 -50l-35 -28q-21 30 -53 35v-200zM79 51q0 -38 19 -65t50 -35v198q-16 -4 -28.5 -13t-21.5 -21.5t-14 -29t-5 -34.5z" />
<glyph unicode="&#xf6e0;" horiz-adv-x="288" d="M187 483q31 6 53 36l35 -28q-33 -43 -88 -49v-51h-39v51q-55 8 -88.5 47t-33.5 95q0 36 15.5 66.5t43 50t63.5 24.5v41h39v-40q55 -6 88 -50l-35 -28q-21 30 -53 35v-200zM79 584q0 -38 19 -65t50 -35v198q-13 -4 -23.5 -10t-19 -15t-14.5 -20t-9 -24.5t-3 -28.5z" />
<glyph unicode="&#xf6e1;" horiz-adv-x="130" d="M51 -210l-25 20q14 8 25.5 23t12.5 28q-2 -1 -3 -1q-13 0 -23.5 10t-10.5 24t10 24.5t25 10.5q16 0 26.5 -12.5t10.5 -31.5q0 -14 -3.5 -28t-10 -26.5t-15.5 -22.5t-19 -18z" />
<glyph unicode="&#xf6e2;" horiz-adv-x="130" d="M51 323l-25 20q14 8 25.5 23t12.5 28q-2 -1 -3 -1q-8 0 -16 4.5t-13 12.5t-5 17q0 14 10 24.5t25 10.5q16 0 26.5 -12.5t10.5 -31.5t-6.5 -37.5t-17 -33t-24.5 -24.5z" />
<glyph unicode="&#xf6e3;" horiz-adv-x="347" d="M324 -31q0 -48 -32 -77.5t-94 -34.5v-51h-39v51q-87 4 -136 60l33 38q46 -48 103 -54v131q-24 6 -38 10t-33.5 12.5t-30 19t-18.5 27.5t-8 38q0 43 36 73t92 32v52h39v-53q76 -9 114 -54l-32 -33q-31 34 -82 43v-119q28 -7 46.5 -13.5t39 -19t30.5 -32t10 -46.5zM89 143 q0 -21 17.5 -33t52.5 -21v111q-15 -1 -28 -6t-22 -12.5t-14.5 -17.5t-5.5 -21zM198 -99q34 5 51 22t17 40q0 24 -17.5 37.5t-50.5 22.5v-122z" />
<glyph unicode="&#xf6e4;" horiz-adv-x="347" d="M324 502q0 -48 -32 -77.5t-94 -34.5v-51h-39v51q-87 4 -136 60l33 38q46 -48 103 -54v131q-20 5 -31.5 8.5t-28.5 9.5t-27.5 13.5t-20.5 18t-15 25t-5 32.5q0 28 16 51.5t45.5 38t66.5 15.5v52h39v-53q76 -9 114 -54l-32 -33q-31 34 -82 43v-119q22 -6 37 -10.5 t33.5 -13.5t29.5 -20t18.5 -28t7.5 -39zM89 676q0 -21 17.5 -33t52.5 -21v111q-31 -3 -50.5 -18.5t-19.5 -38.5zM198 434q23 3 38.5 12.5t22.5 22t7 27.5q0 24 -17.5 37.5t-50.5 22.5v-122z" />
<glyph unicode="&#xf6e5;" horiz-adv-x="172" d="M17 28v43h138v-43h-138z" />
<glyph unicode="&#xf6e6;" horiz-adv-x="172" d="M17 561v43h138v-43h-138z" />
<glyph unicode="&#xf6e7;" horiz-adv-x="133" d="M68 -141q-15 0 -26 10.5t-11 24.5t11 24.5t26 10.5q14 0 24 -10.5t10 -24.5t-10 -24.5t-24 -10.5z" />
<glyph unicode="&#xf6e8;" horiz-adv-x="133" d="M68 392q-15 0 -26 10.5t-11 24.5t11 24.5t26 10.5q14 0 24 -10.5t10 -24.5t-10 -24.5t-24 -10.5z" />
<glyph unicode="&#xf6eb;" horiz-adv-x="385" d="M274 306v43q-38 -50 -101 -50q-60 0 -97.5 42t-37.5 113q0 70 38 112.5t97 42.5q62 0 101 -51v156h54v-408h-54zM274 384v139q-12 17 -36 29.5t-51 12.5q-42 0 -67.5 -31t-25.5 -80q0 -50 25.5 -81t67.5 -31q18 0 35.5 6t30.5 15.5t21 20.5z" />
<glyph unicode="&#xf6f1;" horiz-adv-x="225" d="M56 306v296h55v-46q45 52 100 52v-50h-19q-15 0 -31.5 -6t-30 -16t-19.5 -21v-209h-55z" />
<glyph unicode="&#xf6f2;" horiz-adv-x="310" d="M25 349l26 34q10 -13 25.5 -23t35 -16t39.5 -6q33 0 51.5 13.5t18.5 35.5q0 11 -5 19t-17.5 14t-21.5 8.5l-27 7.5q-6 1 -8 2q-18 4 -26.5 6t-24 7t-24 11t-17.5 14.5t-13 20.5t-4 27q0 35 31 60t85 25q74 0 114 -43l-23 -33q-31 37 -90 37q-29 0 -46.5 -13t-17.5 -33 q0 -26 46 -37q6 -2 27 -7q20 -4 32 -7t30 -10t27.5 -15.5t17 -23t7.5 -33.5q0 -40 -32 -66t-91 -26q-75 0 -125 50z" />
<glyph unicode="&#xf6f3;" horiz-adv-x="193" d="M58 372v189h-50v41h50v80h55v-80h61v-41h-61v-181q0 -17 7.5 -27t21.5 -10q20 0 31 11l15 -35q-21 -20 -57 -20q-73 0 -73 73z" />
<glyph horiz-adv-x="575" d="M462 546q65 -92 65 -233q0 -60 -13.5 -115.5t-41 -103.5t-75.5 -76.5t-109 -28.5q-83 0 -140 51l-26 -40h-61l51 81q-64 92 -64 232q0 60 13.5 115.5t41 103t75.5 76t110 28.5q82 0 139 -50l25 41h61zM128 313q0 -95 28 -161l231 372q-40 43 -99 43q-43 0 -75 -21.5 t-50 -59t-26.5 -80.5t-8.5 -93zM288 58q43 0 75 22t49.5 59.5t26 81t8.5 92.5q0 97 -29 162l-231 -372q39 -45 101 -45z" />
<glyph horiz-adv-x="562" d="M41 313q0 60 14 115.5t41.5 103t75 76t109.5 28.5t109.5 -28.5t75 -76t41.5 -103t14 -115.5q0 -47 -8.5 -92t-27 -87.5t-46 -74.5t-68 -51t-90.5 -19q-62 0 -109.5 28.5t-75 76.5t-41.5 103.5t-14 115.5zM441 313.5q0 49.5 -8.5 92.5t-26.5 80.5t-50 59t-75 21.5 t-75 -21.5t-50 -59t-26.5 -80.5t-8.5 -92.5t8.5 -93t26.5 -81t50 -59.5t75 -22t75 22t50 59.5t26.5 81t8.5 93z" />
<glyph horiz-adv-x="562" d="M282 0v524l-128 -137l-47 49l184 191h69v-627h-78z" />
<glyph horiz-adv-x="562" d="M65 0v62q77 61 123.5 99.5t95 82.5t73 76t40.5 66t16 66q0 56 -38.5 85.5t-92.5 29.5q-109 0 -170 -79l-48 50q36 47 93.5 72.5t124.5 25.5q54 0 101 -19t78.5 -62t31.5 -103q0 -46 -21.5 -92.5t-67 -96t-93.5 -92t-123 -101.5h307v-70h-430z" />
<glyph horiz-adv-x="562" d="M57 92l46 49q29 -38 75 -60.5t100 -22.5q68 0 107.5 31.5t39.5 86.5q0 56 -42 83.5t-114 27.5q-56 0 -65 -1v71q10 -1 65 -1q63 0 104.5 26t41.5 78q0 50 -40.5 78.5t-100.5 28.5q-95 0 -165 -76l-43 49q36 43 90.5 69.5t123.5 26.5q61 0 108.5 -19t76 -57.5t28.5 -90.5 q0 -62 -41.5 -99t-94.5 -47q23 -2 47 -12t46.5 -28.5t37 -48t14.5 -65.5q0 -80 -60 -130t-162 -50q-76 0 -134 29t-89 74z" />
<glyph horiz-adv-x="562" d="M346 0v159h-298v65l269 403h107v-400h88v-68h-88v-159h-78zM346 555l-220 -328h220v328z" />
<glyph horiz-adv-x="562" d="M65 89l48 52q65 -83 173 -83q63 0 104 38.5t41 96.5q0 40 -18.5 71t-51 47.5t-74.5 16.5q-84 0 -145 -59l-57 20v338h383v-70h-305v-218q24 25 63 41t83 16q83 0 141.5 -54t58.5 -146q0 -94 -63.5 -150.5t-159.5 -56.5q-145 0 -221 100z" />
<glyph horiz-adv-x="562" d="M55 312q0 65 15 122.5t45.5 103t80.5 72t113 26.5q109 0 174 -75l-39 -58q-27 31 -58 47.5t-77 16.5q-58 0 -99 -36.5t-59 -91t-18 -118.5v-25q24 37 73 67.5t105 30.5q89 0 147 -52t58 -148q0 -86 -60 -145.5t-160 -59.5q-63 0 -111 26t-75.5 72t-41 102.5t-13.5 122.5z M437 191q0 44 -19.5 75.5t-51.5 45.5t-74 14q-45 0 -87.5 -25.5t-69.5 -68.5q3 -31 13 -60t28 -55.5t48 -42.5t69 -16q68 0 106 41t38 92z" />
<glyph horiz-adv-x="562" d="M152 0l253 557h-337v70h427v-54l-256 -573h-87z" />
<glyph horiz-adv-x="562" d="M56 159q0 40 22 74t54.5 56t73.5 34q-39 11 -69 29.5t-50 50t-20 71.5q0 53 32.5 91t79.5 54.5t102 16.5t102 -16t80 -54.5t33 -91.5q0 -58 -39.5 -95.5t-100.5 -55.5q41 -12 74 -34t54.5 -56t21.5 -74q0 -78 -64.5 -124t-160.5 -46t-160.5 46t-64.5 124zM417 463 q0 32 -18.5 56t-49 36t-68.5 12q-59 0 -97.5 -28t-38.5 -76q0 -21 10.5 -39.5t26 -29.5t36 -19.5t35 -12.5t28.5 -7q19 4 38.5 10t43.5 18t39 33t15 47zM427 167q0 29 -17 52.5t-42 37.5t-47.5 21.5t-39.5 10.5q-17 -3 -39.5 -10.5t-48 -21.5t-42.5 -37.5t-17 -52.5 q0 -49 43 -79t104 -30q60 0 103 30t43 79z" />
<glyph horiz-adv-x="562" d="M79 65l39 58q27 -31 58 -47.5t77 -16.5t81 21.5t55 57.5t30.5 78t10.5 89q0 16 -1 25q-24 -37 -73 -67.5t-104 -30.5q-89 0 -147.5 52t-58.5 148q0 85 60 145t159 60q64 0 112 -26t75.5 -72t41.5 -102.5t14 -123.5q0 -65 -15.5 -122t-46 -102.5t-80 -72t-113.5 -26.5 q-108 0 -174 75zM426 393q-3 31 -12.5 60.5t-27.5 56t-48 42.5t-69 16q-67 0 -105.5 -41.5t-38.5 -91.5q0 -44 19.5 -75.5t51.5 -45.5t74 -14q46 0 88.5 25.5t67.5 67.5z" />
<glyph horiz-adv-x="575" d="M48 313q0 60 13.5 115.5t41 103t75.5 76t110 28.5q61 0 109 -28.5t75.5 -76t41 -103t13.5 -115.5t-13.5 -115.5t-41 -103.5t-75.5 -76.5t-109 -28.5q-62 0 -110 28.5t-75.5 76.5t-41 103.5t-13.5 115.5zM447 313q0 39 -5 74.5t-16.5 68.5t-29.5 57.5t-46 39t-62 14.5 q-43 0 -75 -21.5t-50 -59t-26.5 -80.5t-8.5 -92.5t8.5 -93t26.5 -81t50 -59.5t75 -22t75 22t49.5 59.5t26 81t8.5 92.5z" />
<glyph horiz-adv-x="318" d="M167 0v524l-100 -107l-47 48l157 162h68v-627h-78z" />
<glyph horiz-adv-x="552" d="M51 0v62q77 61 123.5 99.5t95 82.5t73 76t40.5 66t16 66q0 56 -38.5 85.5t-92.5 29.5q-109 0 -170 -79l-48 50q36 47 93.5 72.5t124.5 25.5q54 0 101 -19t78 -62t31 -103q0 -46 -21 -92.5t-66.5 -96t-93.5 -92t-123 -101.5h307v-70h-430z" />
<glyph horiz-adv-x="523" d="M27 92l46 49q19 -25 45.5 -43.5t60 -29t69.5 -10.5q34 0 61.5 8.5t46.5 23.5t29 37t10 49q0 56 -42 83.5t-114 27.5q-56 0 -65 -1v71q10 -1 65 -1q63 0 104 26t41 78q0 50 -40 78.5t-100 28.5q-95 0 -165 -76l-43 49q36 43 90.5 69.5t123.5 26.5q93 0 152.5 -44.5 t59.5 -122.5q0 -62 -41 -99t-94 -47q23 -2 47 -12t46.5 -28.5t37 -48t14.5 -65.5q0 -52 -26.5 -92.5t-77 -64t-118.5 -23.5q-76 0 -134 29t-89 74z" />
<glyph horiz-adv-x="524" d="M328 0v159h-298v65l269 403h107v-400h88v-68h-88v-159h-78zM328 555l-220 -328h220v328z" />
<glyph horiz-adv-x="554" d="M62 89l48 52q65 -83 173 -83q63 0 104 38.5t41 96.5q0 61 -40 98t-104 37q-84 0 -145 -59l-57 20v338h383v-70h-305v-218q24 25 63 41t83 16q83 0 141.5 -54t58.5 -146q0 -94 -63 -150.5t-160 -56.5q-145 0 -221 100z" />
<glyph horiz-adv-x="555" d="M48 312q0 65 15.5 122.5t45.5 103t80 72t114 26.5q108 0 174 -75l-40 -58q-27 31 -57.5 47.5t-76.5 16.5q-58 0 -99.5 -36.5t-59.5 -91t-18 -118.5q0 -16 1 -25q23 37 72.5 67.5t105.5 30.5q89 0 146.5 -52t57.5 -148q0 -86 -60 -145.5t-159 -59.5q-51 0 -92.5 17.5 t-69 47t-46 71t-26.5 88.5t-8 99zM431 191q0 33 -11.5 59.5t-31 42.5t-45.5 24.5t-57 8.5q-46 0 -88.5 -25.5t-68.5 -68.5q3 -31 12.5 -60t27.5 -55.5t48.5 -42.5t69.5 -16q67 0 105.5 41t38.5 92z" />
<glyph horiz-adv-x="484" d="M114 0l253 557h-338v70h428v-54l-257 -573h-86z" />
<glyph horiz-adv-x="546" d="M49 159q0 40 21.5 74t54.5 56t73 34q-38 11 -68 29.5t-50.5 50t-20.5 71.5q0 53 32.5 91t80 54.5t102.5 16.5q54 0 101.5 -16t80.5 -54.5t33 -91.5q0 -58 -39.5 -95.5t-100.5 -55.5q63 -19 106 -62t43 -102q0 -78 -64.5 -124t-159.5 -46q-47 0 -88 11.5t-71.5 33t-48 54 t-17.5 71.5zM410 463q0 48 -39 76t-97 28q-59 0 -98 -28t-39 -76q0 -26 15.5 -47t39.5 -33t43.5 -18t38.5 -10q19 4 38 10t43.5 18t39.5 33t15 47zM419 167q0 29 -17 52.5t-42 37.5t-47 21.5t-39 10.5q-18 -3 -40 -10.5t-47.5 -21.5t-42.5 -37.5t-17 -52.5q0 -49 43 -79 t104 -30q60 0 102.5 30t42.5 79z" />
<glyph horiz-adv-x="555" d="M79 65l39 58q27 -31 58 -47.5t77 -16.5t81 21.5t55 57.5t30.5 78t10.5 89q0 16 -1 25q-24 -37 -73 -67.5t-104 -30.5q-89 0 -147.5 52t-58.5 148q0 85 60 145t159 60q64 0 112 -26t75.5 -72t41.5 -102.5t14 -123.5q0 -65 -15.5 -122t-46 -102.5t-80 -72t-113.5 -26.5 q-108 0 -174 75zM426 393q-3 31 -12.5 60.5t-27.5 56t-48 42.5t-69 16q-67 0 -105.5 -41.5t-38.5 -91.5q0 -44 19.5 -75.5t51.5 -45.5t74 -14q46 0 88.5 25.5t67.5 67.5z" />
<glyph horiz-adv-x="702" d="M48 313q0 143 93 233.5t229 90.5q149 0 244 -117l-62 -39q-31 40 -79 63.5t-103 23.5q-68 0 -123 -32.5t-86.5 -91t-31.5 -131.5q0 -111 69 -183.5t172 -72.5q91 0 145 56t66 140h-258v69h343q0 -150 -80 -242t-221 -92q-87 0 -159 40t-115 115t-43 170z" />
<glyph horiz-adv-x="540" d="M400 0v68q-27 -36 -67 -57.5t-87 -21.5q-90 0 -146 64t-56 174q0 107 56 172.5t146 65.5q31 0 59 -9.5t52 -27.5t43 -43v69h70v-454h-70zM400 123v206q-20 31 -58 52t-79 21q-67 0 -106 -49t-39 -126.5t39 -126t106 -48.5q41 0 79 20.5t58 50.5z" />
<glyph horiz-adv-x="251" d="M171 -11q-49 0 -75 27.5t-26 78.5v532h71v-517q0 -26 12 -42t34 -16q30 0 47 18l21 -52q-31 -29 -84 -29z" />
<glyph horiz-adv-x="517" d="M66 -117l36 53q48 -62 138 -62q64 0 100.5 36t36.5 102v61q-29 -32 -71.5 -53.5t-90.5 -21.5q-145 0 -145 145v311h71v-290q0 -57 26 -80.5t76 -23.5q39 0 76 20t58 49v325h70v-442q0 -96 -58.5 -146t-148.5 -50q-105 0 -174 67z" />
<glyph horiz-adv-x="495" d="M354 0v52q-57 -63 -150 -63q-63 0 -111 40t-48 110q0 71 47.5 110.5t111.5 39.5q97 0 150 -62v81q0 45 -32 70.5t-82 25.5q-81 0 -139 -63l-33 49q72 75 181 75q78 0 127 -37.5t49 -115.5v-312h-71zM354 96v85q-20 28 -53 42.5t-72 14.5q-49 0 -80 -28t-31 -72 q0 -43 31 -71t80 -28q39 0 72 14.5t53 42.5z" />
<glyph horiz-adv-x="540" d="M70 0v627h71v-242q59 80 153 80q90 0 146 -65.5t56 -172.5q0 -73 -25.5 -127.5t-71.5 -82.5t-105 -28q-46 0 -86.5 21.5t-66.5 57.5v-68h-71zM141 123q19 -30 57 -50.5t78 -20.5q68 0 107.5 48.5t39.5 126t-39.5 126.5t-107.5 49q-40 0 -78 -21t-57 -52v-206z" />
<glyph horiz-adv-x="465" d="M44 227q0 103 63 170.5t164 67.5q105 0 166 -79l-47 -43q-43 59 -116 59q-71 0 -113.5 -49t-42.5 -125.5t42.5 -126t114 -49.5t115.5 59l47 -43q-61 -79 -166 -79q-67 0 -119 31.5t-80 85.5t-28 121z" />
<glyph horiz-adv-x="540" d="M400 0v68q-27 -36 -67 -57.5t-87 -21.5q-90 0 -146 64t-56 174q0 107 56 172.5t146 65.5q31 0 59 -9.5t52 -27.5t43 -43v242h70v-627h-70zM400 123v206q-20 31 -58 52t-79 21q-67 0 -106 -49t-39 -126.5t39 -126t106 -48.5q41 0 79 20.5t58 50.5z" />
<glyph horiz-adv-x="529" d="M44 227q0 100 64 169t160 69q100 0 159 -69t59 -174v-18h-368q5 -67 49 -112t115 -45q39 0 76.5 15t63.5 42l34 -46q-70 -69 -181 -69q-66 0 -118.5 29.5t-82.5 84.5t-30 124zM267 407q-46 0 -80 -24t-50.5 -57t-18.5 -70h298q0 26 -9 52t-26.5 48.5t-47 36.5t-66.5 14z " />
<glyph horiz-adv-x="266" d="M90 0v392h-75v62h75v35q0 69 36 108t96 39q43 0 68 -16l-17 -52q-18 10 -41 10q-34 0 -52.5 -23t-18.5 -66v-35h92v-62h-92v-392h-71z" />
<glyph horiz-adv-x="539" d="M70 -117l35 53q28 -33 63 -47.5t85 -14.5q62 0 104 33.5t42 102.5v65q-26 -36 -66.5 -58.5t-86.5 -22.5q-90 0 -146 63.5t-56 171.5q0 109 56 172.5t146 63.5q30 0 58.5 -9.5t52 -27.5t42.5 -43v69h70v-441q0 -54 -17.5 -93.5t-49 -61.5t-68.5 -32t-81 -10 q-60 0 -102.5 14.5t-80.5 52.5zM399 131v198q-10 15 -24.5 28t-32 23.5t-38 16t-41.5 5.5q-67 0 -106 -48t-39 -125q0 -76 39 -124.5t106 -48.5q27 0 54.5 10.5t48 27.5t33.5 37z" />
<glyph horiz-adv-x="518" d="M378 0v299q0 57 -26.5 80t-76.5 23q-38 0 -75 -20.5t-59 -49.5v-332h-71v627h71v-239q17 20 41 37t56.5 28.5t65.5 11.5q144 0 144 -144v-321h-70z" />
<glyph horiz-adv-x="211" d="M105 530q-7 0 -14 2.5t-13 7t-10.5 10.5t-7 13t-2.5 15q0 20 14 33.5t33 13.5q20 0 34 -13.5t14 -33.5t-14 -34t-34 -14zM70 0v454h71v-454h-71z" />
<glyph horiz-adv-x="211" d="M105 530q-7 0 -14 2.5t-13 7t-10.5 10.5t-7 13t-2.5 15q0 20 14 33.5t33 13.5q20 0 34 -13.5t14 -33.5t-14 -34t-34 -14zM141 454v-498q0 -67 -34.5 -103.5t-98.5 -36.5q-30 0 -51 6l9 60q12 -5 34 -5q70 0 70 79v498h71z" />
<glyph horiz-adv-x="483" d="M380 0l-164 204l-75 -74v-130h-71v627h71v-415l239 242h89l-201 -206l202 -248h-90z" />
<glyph horiz-adv-x="211" d="M70 0v627h71v-627h-71z" />
<glyph horiz-adv-x="759" d="M619 0v308q0 94 -84 94q-34 0 -68 -20.5t-52 -48.5v-333h-71v308q0 94 -84 94q-33 0 -66.5 -20.5t-52.5 -49.5v-332h-71v454h71v-66q17 27 59 52t88 25q33 0 59 -11.5t41 -30t22 -42.5q13 21 35.5 40t54 31.5t62.5 12.5q127 0 127 -137v-328h-70z" />
<glyph horiz-adv-x="517" d="M377 0v297q0 57 -26.5 81t-75.5 24q-20 0 -40.5 -5.5t-37.5 -15.5t-31.5 -22.5t-24.5 -26.5v-332h-71v454h71v-66q27 32 70.5 54.5t91.5 22.5q144 0 144 -146v-319h-70z" />
<glyph horiz-adv-x="537" d="M269 -11q-101 0 -163 68.5t-62 170t62 169.5t163 68t163 -68t62 -169.5t-62 -170t-163 -68.5zM269 52q70 0 110 51t40 124t-40.5 124t-110 51t-110 -51t-40.5 -124q0 -47 17 -86.5t52 -64t82 -24.5z" />
<glyph horiz-adv-x="539" d="M141 -173h-71v627h71v-68q25 36 66 57.5t87 21.5q91 0 146.5 -64t55.5 -174q0 -109 -55.5 -173.5t-146.5 -64.5q-95 0 -153 80v-242zM422 227.5q0 77.5 -39.5 126t-106.5 48.5q-27 0 -54 -9.5t-48 -26t-33 -36.5v-205q19 -31 57 -52t78 -21q67 0 106.5 49t39.5 126.5z " />
<glyph horiz-adv-x="539" d="M469 -173h-70v242q-58 -80 -153 -80q-90 0 -146 64.5t-56 173.5q0 73 25.5 127t71.5 82.5t105 28.5q31 0 60.5 -10t52.5 -27.5t40 -41.5v68h70v-627zM399 125v205q-19 31 -57 51.5t-79 20.5q-67 0 -106 -48.5t-39 -126.5q0 -50 17 -89.5t50.5 -62.5t77.5 -23 q41 0 78.5 21t57.5 52z" />
<glyph horiz-adv-x="310" d="M70 0v454h71v-73q63 82 151 82v-72q-12 3 -28 3q-32 0 -69.5 -22.5t-53.5 -50.5v-321h-71z" />
<glyph horiz-adv-x="437" d="M31 60l37 51q24 -28 64.5 -46.5t84.5 -18.5q51 0 79 20.5t28 54.5q0 18 -8.5 31.5t-27.5 22.5t-35.5 14.5t-44.5 12.5q-31 7 -48 11.5t-42.5 15.5t-39 23.5t-24.5 34t-11 48.5q0 35 19.5 64.5t58.5 47.5t91 18q103 0 169 -65l-33 -49q-21 25 -57 41t-79 16q-46 0 -73 -19 t-27 -50q0 -12 6.5 -22.5t15 -17.5t25 -13.5t29.5 -10t35 -8.5q31 -7 49 -12t44 -16.5t40.5 -25t25.5 -36t11 -51.5q0 -60 -47 -98.5t-132 -38.5q-116 0 -183 71z" />
<glyph horiz-adv-x="276" d="M185 -11q-49 0 -74.5 27.5t-25.5 78.5v297h-76v62h76v124h70v-124h92v-62h-92v-282q0 -26 12 -42t34 -16q31 0 48 18l21 -52q-31 -29 -85 -29z" />
<glyph horiz-adv-x="517" d="M377 0v64q-29 -32 -71.5 -53.5t-90.5 -21.5q-145 0 -145 144v321h71v-299q0 -57 26 -80t76 -23q39 0 76 19.5t58 48.5v334h70v-454h-70z" />
<glyph horiz-adv-x="460" d="M192 0l-189 454h76l151 -372l151 372h77l-189 -454h-77z" />
<glyph horiz-adv-x="689" d="M463 0l-118 365l-118 -365h-71l-145 454h74l111 -362l119 362h60l119 -362l111 362h74l-145 -454h-71z" />
<glyph horiz-adv-x="456" d="M365 0l-137 186l-136 -186h-81l174 233l-164 221h81l126 -173l126 173h82l-164 -221l174 -233h-81z" />
<glyph horiz-adv-x="460" d="M56 -114q17 -7 39 -7q24 0 40 10.5t28 37.5l30 68l-190 459h76l151 -372l151 372h77l-228 -546q-37 -91 -133 -92q-29 0 -52 6z" />
<glyph horiz-adv-x="443" d="M49 0v55l250 337h-250v62h342v-54l-252 -339h256v-61h-346z" />
<glyph horiz-adv-x="671" d="M137 680h-53l139 135h73zM585 680h-54l139 135h74zM73 0v627h78v-627h-78zM235 61l40 59q52 -62 119 -62q57 0 91.5 36.5t34.5 95.5v437h78v-438q0 -98 -55.5 -149t-143.5 -51q-102 0 -164 72z" />
<glyph horiz-adv-x="540" d="M297 523h-54l140 135h73zM400 0v68q-27 -36 -67 -57.5t-87 -21.5q-90 0 -146 64t-56 174q0 107 56 172.5t146 65.5q31 0 59 -9.5t52 -27.5t43 -43v69h70v-454h-70zM400 123v206q-20 31 -58 52t-79 21q-67 0 -106 -49t-39 -126.5t39 -126t106 -48.5q41 0 79 20.5t58 50.5z " />
<glyph horiz-adv-x="540" d="M351 523l-78 99l-76 -99h-48l90 135h67l93 -135h-48zM400 0v68q-27 -36 -67 -57.5t-87 -21.5q-90 0 -146 64t-56 174q0 107 56 172.5t146 65.5q31 0 59 -9.5t52 -27.5t43 -43v69h70v-454h-70zM400 123v206q-20 31 -58 52t-79 21q-67 0 -106 -49t-39 -126.5t39 -126 t106 -48.5q41 0 79 20.5t58 50.5z" />
<glyph horiz-adv-x="540" d="M176 532q-18 0 -30.5 13t-12.5 31t12.5 30.5t30.5 12.5t30.5 -12.5t12.5 -30.5t-12.5 -31t-30.5 -13zM370 532q-18 0 -31 13t-13 31t13 30.5t31 12.5t31 -12.5t13 -30.5t-13 -31t-31 -13zM400 0v68q-27 -36 -67 -57.5t-87 -21.5q-90 0 -146 64t-56 174q0 107 56 172.5 t146 65.5q31 0 59 -9.5t52 -27.5t43 -43v69h70v-454h-70zM400 123v206q-20 31 -58 52t-79 21q-67 0 -106 -49t-39 -126.5t39 -126t106 -48.5q41 0 79 20.5t58 50.5z" />
<glyph horiz-adv-x="540" d="M245 523l-159 135h74l139 -135h-54zM400 0v68q-27 -36 -67 -57.5t-87 -21.5q-90 0 -146 64t-56 174q0 107 56 172.5t146 65.5q31 0 59 -9.5t52 -27.5t43 -43v69h70v-454h-70zM400 123v206q-20 31 -58 52t-79 21q-67 0 -106 -49t-39 -126.5t39 -126t106 -48.5 q41 0 79 20.5t58 50.5z" />
<glyph horiz-adv-x="540" d="M180 603q0 38 27.5 65.5t65.5 27.5t65 -27.5t27 -66t-27 -65.5t-65 -27q-25 0 -46.5 12.5t-34 34t-12.5 46.5zM327 603q0 23 -15.5 39t-38.5 16t-39 -16t-16 -39q0 -15 7.5 -28t20 -20.5t27.5 -7.5q23 0 38.5 16.5t15.5 39.5zM400 0v68q-27 -36 -67 -57.5t-87 -21.5 q-90 0 -146 64t-56 174q0 107 56 172.5t146 65.5q31 0 59 -9.5t52 -27.5t43 -43v69h70v-454h-70zM400 123v206q-20 31 -58 52t-79 21q-67 0 -106 -49t-39 -126.5t39 -126t106 -48.5q41 0 79 20.5t58 50.5z" />
<glyph horiz-adv-x="540" d="M258 571l-13.5 18t-13 12t-18.5 6q-20 0 -32.5 -20t-12.5 -61h-42q0 57 24 91.5t67 34.5q18 0 32.5 -8.5t20.5 -16.5l18 -24q9 -14 13 -19t13 -11.5t19 -6.5q20 0 32.5 20t12.5 61h42q0 -57 -24 -91.5t-67 -34.5q-17 0 -32 8.5t-22 17t-17 24.5zM400 0v68 q-27 -36 -67 -57.5t-87 -21.5q-90 0 -146 64t-56 174q0 107 56 172.5t146 65.5q31 0 59 -9.5t52 -27.5t43 -43v69h70v-454h-70zM400 123v206q-20 31 -58 52t-79 21q-67 0 -106 -49t-39 -126.5t39 -126t106 -48.5q41 0 79 20.5t58 50.5z" />
<glyph horiz-adv-x="879" d="M470 0h-70v68q-27 -36 -67 -57.5t-87 -21.5q-90 0 -146 64t-56 174q0 107 56 172.5t146 65.5q31 0 59 -9.5t52 -27.5t42 -43v69h71v-92q16 31 39 53.5t55.5 36t69.5 13.5q94 0 148.5 -69t54.5 -174v-18h-367q4 -67 48 -111t115 -44q85 0 141 57l33 -48q-67 -69 -164 -69 q-120 0 -173 102v-91zM619 407q-68 0 -107.5 -46.5t-41.5 -104.5h298q-1 36 -16 69t-50 57.5t-83 24.5zM400 123v206q-20 31 -58 52t-79 21q-67 0 -106 -49t-39 -126.5t39 -126t106 -48.5q41 0 79 20.5t58 50.5z" />
<glyph horiz-adv-x="517" d="M90 0v392h-75v62h75v35q0 69 36 108t96 39q43 0 68 -16l-17 -53q-18 11 -41 11q-34 0 -52.5 -23t-18.5 -66v-35h92v-62h-92v-392h-71zM437 -11q-49 0 -74.5 27.5t-25.5 78.5v532h70v-517q0 -26 12 -42t34 -16q30 0 47 18l21 -52q-31 -29 -84 -29z" />
<glyph horiz-adv-x="783" d="M90 0v392h-75v62h75v35q0 69 36 108t96 39q43 0 68 -16l-17 -52q-18 10 -41 10q-34 0 -52.5 -23t-18.5 -66v-35h92v-62h-92v-392h-71zM356 0v392h-75v62h75v35q0 69 36 108t96 39q43 0 68 -16l-17 -53q-18 11 -41 11t-39 -10.5t-24 -30.5t-8 -48v-35h92v-62h-92v-392h-71 zM703 -11q-49 0 -74.5 27.5t-25.5 78.5v532h70v-517q0 -26 12 -42t34 -16q30 0 47 18l21 -52q-31 -29 -84 -29z" />
<glyph horiz-adv-x="211" d="M105 530q-7 0 -14 2.5t-13 7t-10.5 10.5t-7 13t-2.5 15q0 20 14 33.5t33 13.5q20 0 34 -13.5t14 -33.5t-14 -34t-34 -14zM70 0v454h71v-454h-71z" />
<glyph horiz-adv-x="611" d="M133 570h-54l139 135h73zM529 570h-53l139 135h73zM70 0v517h74v-517h-74zM223 53l35 53q41 -52 101 -52q49 0 78.5 29t29.5 77v357h73v-363q0 -81 -48.5 -123t-128.5 -42q-87 0 -140 64z" />
<glyph horiz-adv-x="517" d="M284 523h-54l139 135h74zM66 -117l36 53q48 -62 138 -62q64 0 100.5 36t36.5 102v61q-29 -32 -71.5 -53.5t-90.5 -21.5q-145 0 -145 145v311h71v-290q0 -57 26 -80.5t76 -23.5q39 0 76 20t58 49v325h70v-442q0 -96 -58.5 -146t-148.5 -50q-105 0 -174 67z" />
<glyph horiz-adv-x="517" d="M163 532q-18 0 -31 13t-13 31t13 30.5t31 12.5t30.5 -12.5t12.5 -30.5t-12.5 -31t-30.5 -13zM357 532q-18 0 -31 13t-13 31t13 30.5t31 12.5t30.5 -12.5t12.5 -30.5t-12.5 -31t-30.5 -13zM66 -117l36 53q48 -62 138 -62q64 0 100.5 36t36.5 102v61q-29 -32 -71.5 -53.5 t-90.5 -21.5q-145 0 -145 145v311h71v-290q0 -57 26 -80.5t76 -23.5q39 0 76 20t58 49v325h70v-442q0 -96 -58.5 -146t-148.5 -50q-105 0 -174 67z" />
<glyph horiz-adv-x="495" d="M274 523h-53l139 135h73zM354 0v52q-57 -63 -150 -63q-63 0 -111 40t-48 110q0 71 47.5 110.5t111.5 39.5q97 0 150 -62v81q0 45 -32 70.5t-82 25.5q-81 0 -139 -63l-33 49q72 75 181 75q78 0 127 -37.5t49 -115.5v-312h-71zM354 96v85q-20 28 -53 42.5t-72 14.5 q-49 0 -80 -28t-31 -72q0 -43 31 -71t80 -28q39 0 72 14.5t53 42.5z" />
<glyph horiz-adv-x="495" d="M328 523l-78 99l-75 -99h-48l89 135h68l92 -135h-48zM354 0v52q-57 -63 -150 -63q-63 0 -111 40t-48 110q0 71 47.5 110.5t111.5 39.5q97 0 150 -62v81q0 45 -32 70.5t-82 25.5q-81 0 -139 -63l-33 49q72 75 181 75q78 0 127 -37.5t49 -115.5v-312h-71zM354 96v85 q-20 28 -53 42.5t-72 14.5q-49 0 -80 -28t-31 -72q0 -43 31 -71t80 -28q39 0 72 14.5t53 42.5z" />
<glyph horiz-adv-x="495" d="M153 532q-17 0 -30 13t-13 31t13 30.5t30 12.5q18 0 30.5 -12.5t12.5 -30.5t-12.5 -31t-30.5 -13zM348 532q-19 0 -31.5 13t-12.5 31t13 30.5t31 12.5q17 0 30 -12.5t13 -30.5t-13 -31t-30 -13zM354 0v52q-57 -63 -150 -63q-63 0 -111 40t-48 110q0 71 47.5 110.5 t111.5 39.5q97 0 150 -62v81q0 45 -32 70.5t-82 25.5q-81 0 -139 -63l-33 49q72 75 181 75q78 0 127 -37.5t49 -115.5v-312h-71zM354 96v85q-20 28 -53 42.5t-72 14.5q-49 0 -80 -28t-31 -72q0 -43 31 -71t80 -28q39 0 72 14.5t53 42.5z" />
<glyph horiz-adv-x="495" d="M223 523l-159 135h73l139 -135h-53zM354 0v52q-57 -63 -150 -63q-63 0 -111 40t-48 110q0 71 47.5 110.5t111.5 39.5q97 0 150 -62v81q0 45 -32 70.5t-82 25.5q-81 0 -139 -63l-33 49q72 75 181 75q78 0 127 -37.5t49 -115.5v-312h-71zM354 96v85q-20 28 -53 42.5 t-72 14.5q-49 0 -80 -28t-31 -72q0 -43 31 -71t80 -28q39 0 72 14.5t53 42.5z" />
<glyph horiz-adv-x="495" d="M158 602.5q0 38.5 27 66t65 27.5t65 -27.5t27 -66t-27 -65.5t-65 -27t-65 27t-27 65.5zM305 603q0 23 -16 39t-39 16q-15 0 -27.5 -7.5t-19.5 -20t-7 -27.5q0 -23 16 -39.5t38 -16.5q15 0 27.5 7.5t20 20.5t7.5 28zM354 0v52q-57 -63 -150 -63q-63 0 -111 40t-48 110 q0 71 47.5 110.5t111.5 39.5q97 0 150 -62v81q0 45 -32 70.5t-82 25.5q-81 0 -139 -63l-33 49q72 75 181 75q78 0 127 -37.5t49 -115.5v-312h-71zM354 96v85q-20 28 -53 42.5t-72 14.5q-49 0 -80 -28t-31 -72q0 -43 31 -71t80 -28q39 0 72 14.5t53 42.5z" />
<glyph horiz-adv-x="495" d="M235 571q-8 12 -12.5 18t-13.5 12t-18 6q-20 0 -32.5 -20t-12.5 -61h-43q0 57 24 91.5t68 34.5q17 0 31.5 -8.5t21 -16.5t17.5 -24q10 -14 14 -19t13 -11.5t18 -6.5q20 0 32.5 20t12.5 61h43q0 -57 -24 -91.5t-68 -34.5q-17 0 -31.5 8.5t-21.5 17t-18 24.5zM354 0v52 q-57 -63 -150 -63q-63 0 -111 40t-48 110q0 71 47.5 110.5t111.5 39.5q97 0 150 -62v81q0 45 -32 70.5t-82 25.5q-81 0 -139 -63l-33 49q72 75 181 75q78 0 127 -37.5t49 -115.5v-312h-71zM354 96v85q-20 28 -53 42.5t-72 14.5q-49 0 -80 -28t-31 -72q0 -43 31 -71t80 -28 q39 0 72 14.5t53 42.5z" />
<glyph horiz-adv-x="835" d="M447 204q6 -67 46 -111t106 -44q79 0 130 57l34 -48q-68 -69 -167 -69q-128 0 -181 109q-25 -50 -75.5 -79.5t-112.5 -29.5q-77 0 -129.5 39.5t-52.5 110.5q0 70 48.5 110t118.5 40q106 0 165 -61v81q0 45 -34 70t-91 25q-88 0 -151 -63l-33 49q73 75 192 75 q60 0 104.5 -24.5t56.5 -73.5q56 98 168 98q95 0 149 -68.5t54 -174.5v-18h-345zM723 256q-1 36 -14 69t-45.5 57.5t-78.5 24.5q-43 0 -74.5 -24t-46.5 -57.5t-17 -69.5h276zM377 180q-23 28 -59.5 43t-76.5 15q-37 0 -65 -12t-43 -33.5t-15 -49.5q0 -43 33.5 -68.5 t89.5 -25.5q58 0 97 36.5t39 83.5v11z" />
<glyph horiz-adv-x="465" d="M274.5 52q71.5 0 115.5 59l47 -43q-56 -74 -148 -78l-16 -42q14 11 34 11q27 0 44.5 -17t17.5 -44q0 -24 -13 -41.5t-35 -27t-49 -9.5q-60 0 -95 29l18 35q32 -27 75 -27q24 0 40.5 11t16.5 30q0 14 -9 23t-26 9q-21 0 -35 -16l-31 17l21 59q-91 8 -147 74.5t-56 162.5 q0 103 63 170.5t164 67.5q105 0 166 -79l-47 -43q-43 59 -116 59q-71 0 -113.5 -49t-42.5 -125.5t42.5 -126t114 -49.5z" />
<glyph horiz-adv-x="529" d="M291 523h-53l139 135h73zM44 227q0 100 64 169t160 69q100 0 159 -69t59 -174v-18h-368q5 -67 49 -112t115 -45q39 0 76.5 15t63.5 42l34 -46q-70 -69 -181 -69q-66 0 -118.5 29.5t-82.5 84.5t-30 124zM267 407q-46 0 -80 -24t-50.5 -57t-18.5 -70h298q0 26 -9 52 t-26.5 48.5t-47 36.5t-66.5 14z" />
<glyph horiz-adv-x="529" d="M345 523l-78 99l-75 -99h-48l89 135h68l92 -135h-48zM44 227q0 100 64 169t160 69q100 0 159 -69t59 -174v-18h-368q5 -67 49 -112t115 -45q39 0 76.5 15t63.5 42l34 -46q-70 -69 -181 -69q-66 0 -118.5 29.5t-82.5 84.5t-30 124zM267 407q-46 0 -80 -24t-50.5 -57 t-18.5 -70h298q0 26 -9 52t-26.5 48.5t-47 36.5t-66.5 14z" />
<glyph horiz-adv-x="529" d="M170 532q-18 0 -30.5 13t-12.5 31t13 30.5t30 12.5q18 0 30.5 -12.5t12.5 -30.5t-12.5 -31t-30.5 -13zM365 532q-19 0 -31.5 13t-12.5 31t12.5 30.5t31.5 12.5q17 0 30 -12.5t13 -30.5t-13 -31t-30 -13zM44 227q0 100 64 169t160 69q100 0 159 -69t59 -174v-18h-368 q5 -67 49 -112t115 -45q39 0 76.5 15t63.5 42l34 -46q-70 -69 -181 -69q-66 0 -118.5 29.5t-82.5 84.5t-30 124zM267 407q-46 0 -80 -24t-50.5 -57t-18.5 -70h298q0 26 -9 52t-26.5 48.5t-47 36.5t-66.5 14z" />
<glyph horiz-adv-x="529" d="M240 523l-159 135h73l139 -135h-53zM44 227q0 100 64 169t160 69q100 0 159 -69t59 -174v-18h-368q5 -67 49 -112t115 -45q39 0 76.5 15t63.5 42l34 -46q-70 -69 -181 -69q-66 0 -118.5 29.5t-82.5 84.5t-30 124zM267 407q-46 0 -80 -24t-50.5 -57t-18.5 -70h298 q0 26 -9 52t-26.5 48.5t-47 36.5t-66.5 14z" />
<glyph horiz-adv-x="211" d="M130 523h-54l139 135h74zM70 0v454h71v-454h-71z" />
<glyph horiz-adv-x="211" d="M78 523l-159 135h73l140 -135h-54zM70 0v454h71v-454h-71z" />
<glyph horiz-adv-x="211" d="M183 523l-78 99l-75 -99h-48l89 135h68l92 -135h-48zM70 0v454h71v-454h-71z" />
<glyph horiz-adv-x="211" d="M8 532q-17 0 -30 13t-13 31t13 30.5t30 12.5q9 0 17.5 -3t14 -9t9 -14t3.5 -17q0 -18 -12.5 -31t-31.5 -13zM203 532q-18 0 -31 13t-13 31t13 30.5t31 12.5t30.5 -12.5t12.5 -30.5t-12.5 -31t-30.5 -13zM70 0v454h71v-454h-71z" />
<glyph horiz-adv-x="517" d="M244 571q-8 12 -12.5 18t-13 12t-18.5 6q-20 0 -32.5 -20t-12.5 -61h-42q0 57 24 91.5t67 34.5q17 0 32 -8.5t21 -16.5t17 -24q10 -14 14 -19t13 -11.5t19 -6.5q20 0 32.5 20t12.5 61h42q0 -57 -24 -91.5t-67 -34.5q-11 0 -20.5 3t-16 7t-14 12t-11 13zM377 0v297 q0 57 -26.5 81t-75.5 24q-20 0 -40.5 -5.5t-37.5 -15.5t-31.5 -22.5t-24.5 -26.5v-332h-71v454h71v-66q27 32 70.5 54.5t91.5 22.5q144 0 144 -146v-319h-70z" />
<glyph horiz-adv-x="537" d="M293 523h-53l139 135h73zM269 -11q-101 0 -163 68.5t-62 170t62 169.5t163 68t163 -68t62 -169.5t-62 -170t-163 -68.5zM269 52q70 0 110 51t40 124t-40.5 124t-110 51t-110 -51t-40.5 -124q0 -47 17 -86.5t52 -64t82 -24.5z" />
<glyph horiz-adv-x="537" d="M347 523l-78 99l-75 -99h-48l89 135h68l92 -135h-48zM269 -11q-101 0 -163 68.5t-62 170t62 169.5t163 68t163 -68t62 -169.5t-62 -170t-163 -68.5zM269 52q70 0 110 51t40 124t-40.5 124t-110 51t-110 -51t-40.5 -124q0 -47 17 -86.5t52 -64t82 -24.5z" />
<glyph horiz-adv-x="537" d="M172 532q-18 0 -30.5 13t-12.5 31t12.5 30.5t30.5 12.5t30.5 -12.5t12.5 -30.5t-12.5 -31t-30.5 -13zM367 532q-19 0 -32 13t-13 31t13 30.5t32 12.5q17 0 30 -12.5t13 -30.5t-13 -31t-30 -13zM269 -11q-101 0 -163 68.5t-62 170t62 169.5t163 68t163 -68t62 -169.5 t-62 -170t-163 -68.5zM269 52q70 0 110 51t40 124t-40.5 124t-110 51t-110 -51t-40.5 -124q0 -47 17 -86.5t52 -64t82 -24.5z" />
<glyph horiz-adv-x="537" d="M242 523l-159 135h73l139 -135h-53zM269 -11q-101 0 -163 68.5t-62 170t62 169.5t163 68t163 -68t62 -169.5t-62 -170t-163 -68.5zM269 52q70 0 110 51t40 124t-40.5 124t-110 51t-110 -51t-40.5 -124q0 -47 17 -86.5t52 -64t82 -24.5z" />
<glyph horiz-adv-x="537" d="M428 401q66 -68 66 -174q0 -101 -62 -169.5t-163 -68.5q-76 0 -134 42l-24 -31h-51l45 57q-61 67 -61 170q0 102 62 170t163 68q74 0 129 -38l21 27h51zM118 227q0 -66 32 -113l206 260q-37 28 -87 28q-70 0 -110.5 -51t-40.5 -124zM269 52q70 0 110 51t40 124 q0 69 -35 118l-207 -261q39 -32 92 -32z" />
<glyph horiz-adv-x="537" d="M254 571q-8 12 -12.5 18t-13.5 12t-18 6q-21 0 -33.5 -20t-12.5 -61h-42q0 57 24 91.5t67 34.5q18 0 32.5 -8.5t21 -16.5t17.5 -24q9 -14 13 -19t13 -11.5t19 -6.5q20 0 32.5 20t12.5 61h42q0 -57 -23.5 -91.5t-67.5 -34.5q-17 0 -32 8.5t-21.5 17t-17.5 24.5zM269 -11 q-101 0 -163 68.5t-62 170t62 169.5t163 68t163 -68t62 -169.5t-62 -170t-163 -68.5zM269 52q70 0 110 51t40 124t-40.5 124t-110 51t-110 -51t-40.5 -124q0 -47 17 -86.5t52 -64t82 -24.5z" />
<glyph horiz-adv-x="904" d="M494 204q3 -43 23 -78.5t56.5 -57t83.5 -21.5q84 0 141 57l34 -46q-71 -69 -181 -69q-41 0 -75.5 12t-57.5 33t-37.5 41.5t-24.5 42.5q-59 -129 -187 -129q-101 0 -163 68.5t-62 170t62 169.5t163 68q40 0 73.5 -13t55.5 -34.5t36 -41t23 -40.5q9 21 23 41t36.5 41 t55.5 34t71 13q67 0 117 -32.5t75.5 -87.5t25.5 -123v-18h-367zM792 256q-1 36 -16 69t-50 57.5t-84 24.5q-67 0 -106 -46.5t-42 -104.5h298zM269 402q-69 0 -110 -50.5t-41 -124.5t41 -125t110 -51t109.5 51t40.5 125q0 75 -40.5 125t-109.5 50z" />
<glyph horiz-adv-x="517" d="M283 523h-54l139 135h74zM377 0v64q-29 -32 -71.5 -53.5t-90.5 -21.5q-145 0 -145 144v321h71v-299q0 -57 26 -80t76 -23q39 0 76 19.5t58 48.5v334h70v-454h-70z" />
<glyph horiz-adv-x="517" d="M337 523l-79 99l-75 -99h-48l90 135h67l92 -135h-47zM377 0v64q-29 -32 -71.5 -53.5t-90.5 -21.5q-145 0 -145 144v321h71v-299q0 -57 26 -80t76 -23q39 0 76 19.5t58 48.5v334h70v-454h-70z" />
<glyph horiz-adv-x="517" d="M162 532q-18 0 -31 13t-13 31t13 30.5t31 12.5t30.5 -12.5t12.5 -30.5t-12.5 -31t-30.5 -13zM356 532q-18 0 -31 13t-13 31t13 30.5t31 12.5t31 -12.5t13 -30.5t-13 -31t-31 -13zM377 0v64q-29 -32 -71.5 -53.5t-90.5 -21.5q-145 0 -145 144v321h71v-299q0 -57 26 -80 t76 -23q39 0 76 19.5t58 48.5v334h70v-454h-70z" />
<glyph horiz-adv-x="517" d="M231 523l-159 135h74l139 -135h-54zM377 0v64q-29 -32 -71.5 -53.5t-90.5 -21.5q-145 0 -145 144v321h71v-299q0 -57 26 -80t76 -23q39 0 76 19.5t58 48.5v334h70v-454h-70z" />
<glyph horiz-adv-x="460" d="M255 523h-54l139 135h74zM56 -114q17 -7 39 -7q24 0 40 10.5t28 37.5l30 68l-190 459h76l151 -372l151 372h77l-228 -546q-37 -91 -133 -92q-29 0 -52 6z" />
<glyph horiz-adv-x="460" d="M133 532q-17 0 -30 13t-13 31t13 30.5t30 12.5q19 0 31.5 -12.5t12.5 -30.5t-12.5 -31t-31.5 -13zM328 532q-18 0 -31 13t-13 31t13 30.5t31 12.5t30.5 -12.5t12.5 -30.5t-12.5 -31t-30.5 -13zM56 -114q17 -7 39 -7q24 0 40 10.5t28 37.5l30 68l-190 459h76l151 -372 l151 372h77l-228 -546q-37 -91 -133 -92q-29 0 -52 6z" />
<glyph horiz-adv-x="537" d="M320 558q174 -148 174 -326q0 -70 -27.5 -125t-78.5 -86.5t-119 -31.5q-67 0 -118.5 30t-79 82.5t-27.5 118.5q0 99 58.5 164.5t148.5 65.5t149 -83q-46 83 -151 160l-134 -60l-17 40l111 49q-34 22 -71 45l39 58q59 -35 105 -71l102 45l16 -39zM269 52q70 0 110 48.5 t40 119.5q0 70 -40 118.5t-110 48.5q-47 0 -82 -23.5t-52 -61t-17 -82.5q0 -70 40.5 -119t110.5 -49z" />
<glyph horiz-adv-x="539" d="M141 69v-242h-71v800h71v-241q25 36 66 57.5t87 21.5q91 0 146.5 -64t55.5 -174q0 -109 -55.5 -173.5t-146.5 -64.5q-95 0 -153 80zM422 227.5q0 77.5 -39.5 126t-106.5 48.5q-27 0 -54 -9.5t-48 -26t-33 -36.5v-205q19 -31 57 -52t78 -21q67 0 106.5 49t39.5 126.5z" />
<glyph horiz-adv-x="602" d="M454 118q42 -44 121 -118h-97q-28 25 -68 66q-79 -77 -182 -77q-84 0 -139 45.5t-55 129.5q0 66 36.5 108.5t101.5 78.5q-48 81 -48 140q0 62 45.5 103.5t112.5 41.5q63 0 102.5 -32.5t39.5 -90.5q0 -19 -5.5 -37t-12 -31.5t-21 -27.5t-24.5 -23t-31 -21.5t-31.5 -18 t-34.5 -17.5q25 -35 73 -90q25 -29 74 -83q42 64 67 142l61 -26q-43 -103 -85 -162zM196 490q0 -43 38 -108q30 15 48.5 26t38 27t28.5 34.5t9 40.5q0 34 -20.5 52.5t-52.5 18.5q-24 0 -44.5 -11.5t-32.5 -32.5t-12 -47zM236 47q70 0 132 62q-69 73 -88 95q-47 56 -77 100 q-45 -27 -69 -59t-24 -77q0 -56 37 -88.5t89 -32.5z" />
<glyph horiz-adv-x="554" d="M225 0l57 170h-104l-57 -170h-58l57 170h-99l16 50h100l62 187h-101l15 49h103l57 171h58l-57 -171h104l56 171h58l-58 -171h101l-14 -49h-103l-63 -187h105l-15 -50h-107l-56 -170h-57zM360 407h-103l-62 -187h103z" />
<glyph horiz-adv-x="687" d="M29 480q0 67 42 111.5t109 44.5t109.5 -44.5t42.5 -111.5q0 -66 -42.5 -109.5t-109.5 -43.5t-109 43.5t-42 109.5zM120 0l401 627h51l-401 -627h-51zM275 480q0 47 -26.5 77.5t-68.5 30.5t-68 -30.5t-26 -77.5q0 -45 26 -75.5t68 -30.5q41 0 68 30.5t27 75.5zM356 142 q0 44 19 79.5t53.5 56t78.5 20.5q66 0 108.5 -44.5t42.5 -111.5q0 -66 -42.5 -109.5t-109 -43.5t-108.5 43.5t-42 109.5zM603 142q0 47 -27 77.5t-69 30.5t-68.5 -30.5t-26.5 -77.5q0 -45 26.5 -75.5t68 -30.5t69 30.5t27.5 75.5z" />
<glyph horiz-adv-x="233" d="M174 -102q-64 87 -98.5 194.5t-34.5 220.5t34.5 220.5t98.5 194.5l42 -31q-49 -99 -73.5 -186.5t-24.5 -197.5t24.5 -197.5t73.5 -185.5z" />
<glyph horiz-adv-x="233" d="M115 313q0 111 -24.5 198.5t-74.5 185.5l42 31q65 -87 99.5 -194.5t34.5 -220.5t-34.5 -221t-99.5 -194l-42 32q50 97 74.5 185t24.5 198z" />
<glyph horiz-adv-x="228" d="M38 -94v816h174v-52h-120v-712h120v-52h-174z" />
<glyph horiz-adv-x="228" d="M16 -94v52h120v712h-120v52h175v-816h-175z" />
<glyph horiz-adv-x="244" d="M171 -94q-47 0 -82 35t-35 91v194q0 27 -13 45.5t-36 18.5v47q23 0 36 19t13 46v193q0 56 35 91.5t82 35.5h57v-52h-57q-26 0 -44 -21t-18 -54v-198q0 -65 -43 -83q43 -18 43 -83v-198q0 -32 18 -53.5t44 -21.5h57v-52h-57z" />
<glyph horiz-adv-x="244" d="M16 -42h57q26 0 44 21.5t18 53.5v198q0 65 44 83q-44 18 -44 83v198q0 33 -18 54t-44 21h-57v52h57q48 0 83 -35.5t35 -91.5v-193q0 -27 12.5 -46t36.5 -19v-47q-24 0 -36.5 -18.5t-12.5 -45.5v-194q0 -56 -35 -91t-83 -35h-57v52z" />
<glyph horiz-adv-x="216" d="M108 636q21 0 36.5 -15.5t15.5 -35.5q0 -21 -15.5 -36.5t-36.5 -15.5t-36.5 15.5t-15.5 36.5q0 20 15.5 35.5t36.5 15.5zM79 451h58l15 -451h-87z" />
<glyph horiz-adv-x="216" d="M79 176l-15 451h88l-15 -451h-58zM56 42q0 21 15.5 36.5t36.5 15.5t36.5 -15.5t15.5 -36.5q0 -20 -15.5 -35.5t-36.5 -15.5t-36.5 15.5t-15.5 35.5z" />
<glyph horiz-adv-x="216" d="M108 463q21 0 36.5 -15.5t15.5 -35.5q0 -21 -15.5 -36.5t-36.5 -15.5t-36.5 15.5t-15.5 36.5q0 20 15.5 35.5t36.5 15.5zM79 278h58l15 -451h-87z" />
<glyph horiz-adv-x="434" d="M275 584q0 -21 -15 -36t-36 -15t-36.5 15t-15.5 36t15.5 36.5t36.5 15.5q10 0 19.5 -4t16.5 -11t11 -17t4 -20zM279 374q0 -22 -7 -40.5t-22.5 -35t-27 -25.5t-33.5 -25q-27 -18 -40 -29t-26 -31.5t-13 -42.5q0 -18 7 -33.5t20.5 -27.5t34.5 -19t48 -7q93 0 150 76 l46 -49q-73 -96 -203 -96q-83 0 -133.5 41.5t-50.5 103.5q0 23 6.5 43t15.5 34t25 29.5t27.5 24t30.5 21.5q20 13 30 21t23 20.5t18.5 25.5t5.5 28q0 26 -25 45l57 25q36 -32 36 -77z" />
<glyph horiz-adv-x="434" d="M154 250q0 18 6 34.5t13 28t21.5 25t23 20t26.5 19.5q17 11 25 17t20.5 17t19 20t11 22t4.5 26q0 38 -28.5 63t-82.5 25q-91 0 -149 -77l-47 50q74 96 204 96q84 0 134 -41.5t50 -103.5q0 -28 -8.5 -51.5t-26.5 -43t-31.5 -30t-38.5 -28.5q-21 -14 -30 -21t-23 -20 t-19 -25.5t-5 -27.5q0 -26 25 -46l-57 -24q-37 31 -37 76zM159 42q0 21 15 36.5t36.5 15.5t36.5 -15.5t15 -36.5t-15 -36t-36.5 -15t-36.5 15t-15 36z" />
<glyph horiz-adv-x="370" d="M275 411q0 -10 -4 -19.5t-11 -16.5t-16.5 -11t-19.5 -4q-21 0 -36.5 15t-15.5 36t15.5 36.5t36.5 15.5t36 -15.5t15 -36.5zM279 201q0 -22 -7 -40.5t-22.5 -35t-27 -25.5t-33.5 -25q-27 -18 -40 -29t-26 -31.5t-13 -42.5q0 -37 28.5 -62t81.5 -25q93 0 150 76l46 -49 q-73 -96 -203 -96q-83 0 -133.5 41.5t-50.5 103.5q0 23 6.5 43t15.5 34t25 29.5t27.5 24t30.5 21.5q26 18 39 28.5t25.5 28.5t12.5 38q0 27 -25 45l57 25q36 -32 36 -77z" />
<glyph horiz-adv-x="412" d="M179 152l-151 169l151 167h70l-150 -167l150 -169h-70zM314 152l-150 169l150 167h70l-150 -167l150 -169h-70z" />
<glyph horiz-adv-x="412" d="M99 152h-71l151 169l-151 167h71l150 -167zM234 152h-70l150 169l-150 167h70l150 -167z" />
<glyph horiz-adv-x="277" d="M179 152l-151 169l151 167h70l-150 -167l150 -169h-70z" />
<glyph horiz-adv-x="277" d="M99 152h-71l151 169l-151 167h71l150 -167z" />
<glyph horiz-adv-x="282" d="M28 290v62h226v-62h-226z" />
<glyph horiz-adv-x="557" d="M28 290v62h501v-62h-501z" />
<glyph horiz-adv-x="783" d="M28 290v62h727v-62h-727z" />
<glyph horiz-adv-x="216" d="M108 271q-21 0 -36.5 15t-15.5 35q0 22 15.5 37t36.5 15q14 0 26 -7t19 -19t7 -26q0 -13 -7 -24.5t-19 -18.5t-26 -7z" />
<glyph horiz-adv-x="336" d="M169.5 220q-41.5 0 -71.5 30t-30 71t30 71t71.5 30t71.5 -30t30 -71t-30 -71t-71.5 -30z" />
<glyph horiz-adv-x="557" d="M511 173q0 -26 -6.5 -50.5t-21.5 -47.5t-37.5 -40.5t-57 -29t-76.5 -14.5v-85h-57v84q-136 8 -216 98l47 60q69 -78 169 -88v229q-35 9 -58 16.5t-51.5 22t-45.5 31.5t-29 43.5t-12 59.5q0 73 55 121t141 53v86h57v-88q114 -9 185 -85l-47 -57q-52 59 -138 71v-204 q35 -10 58.5 -18t53 -23.5t46.5 -33.5t29 -46.5t12 -64.5zM140 467q0 -37 29.5 -57t85.5 -36v192q-51 -3 -83 -30t-32 -69zM312 61q62 5 90.5 36t28.5 69q0 14 -3 25.5t-8.5 20.5t-14.5 17t-18.5 14t-22.5 12t-24.5 10t-27.5 9v-213z" />
<glyph horiz-adv-x="465" d="M292 144q60 7 98 58l47 -43q-53 -71 -145 -78v-84h-55v85q-87 12 -140 77.5t-53 159.5q0 93 53 158.5t140 77.5v67h55v-66q92 -8 145 -78l-47 -44q-37 51 -98 59v-349zM118 318.5q0 -65.5 32 -112.5t87 -58v341q-55 -12 -87 -58.5t-32 -112z" />
<glyph horiz-adv-x="465" d="M292 53q60 7 98 58l47 -43q-25 -34 -60 -54t-85 -24v-84h-55v85q-87 12 -140 77.5t-53 158.5t53 159t140 77v68h55v-67q92 -7 145 -78l-47 -43q-37 51 -98 58v-348zM118 227.5q0 -65.5 32 -112.5t87 -59v342q-55 -12 -87 -58.5t-32 -112z" />
<glyph horiz-adv-x="486" d="M444 95l34 -63q-46 -44 -127 -44q-46 0 -93 22q-43 21 -76 21q-39 0 -111 -38l-28 59q60 27 92.5 64t32.5 80q0 28 -14 56h-136v51h100l-3.5 3.5l-3.5 3.5q-16 19 -24.5 30t-20 30t-16.5 38.5t-5 42.5q0 77 62 131t149 54q64 0 113.5 -27.5t76.5 -77.5l-63 -37 q-13 31 -46 54t-74 23q-36 0 -66.5 -14.5t-49 -42t-18.5 -64.5q0 -25 9.5 -49t18.5 -37t27 -35q1 -1 9 -11l12 -15h141v-51h-114q6 -18 6 -40q0 -74 -72 -125q24 9 49 9q31 0 75 -21q37 -18 64 -18q20 0 39 6t31.5 14.5t19.5 17.5z" />
<glyph horiz-adv-x="588" d="M580 627l-214 -313h203v-49h-235v-101h235v-49h-235v-115h-78v115h-235v49h235v101h-235v49h202l-215 313h92l194 -291l195 291h91z" />
<glyph horiz-adv-x="653" d="M390 58q53 0 99.5 25t73.5 66l66 -36q-92 -124 -239 -124q-113 0 -198.5 64t-112.5 170h-50v49h41q-2 19 -2 41t2 43h-41v49h51q27 106 112.5 169t197.5 63q150 0 239 -124l-66 -36q-27 40 -74 65.5t-99 25.5q-80 0 -141 -44t-85 -119h283v-49h-296q-2 -21 -2 -43t2 -41 h296v-49h-283q24 -75 85 -120t141 -45z" />
<glyph d="M182 244q-39 0 -69 17.5t-47.5 46t-26 62t-8.5 69.5t8.5 69.5t26 62t47.5 45.5t69 17t69 -17t47.5 -45.5t26.5 -62t9 -69.5q0 -50 -15 -92.5t-50.5 -72.5t-86.5 -30zM182 587q-33 0 -54.5 -22t-30.5 -53.5t-9 -72.5q0 -64 23 -106.5t71 -42.5t70.5 42.5t22.5 106.5 t-22.5 106t-70.5 42z" />
<glyph horiz-adv-x="220" d="M108 251v303l-62 -65l-33 35l102 103h49v-376h-56z" />
<glyph d="M47 251v42q117 83 166 132.5t49 92.5q0 34 -23 51.5t-57 17.5q-33 0 -61 -14t-44 -35l-31 35q23 29 60 44.5t78 15.5q56 0 95.5 -28.5t39.5 -82.5q0 -53 -47.5 -105t-141.5 -120h191v-46h-274z" />
<glyph d="M180 244q-48 0 -84.5 17t-56.5 45l31 35q41 -51 109 -51q40 0 63.5 18t23.5 48q0 65 -98 65q-32 0 -37 -1v47q6 -1 36 -1q92 0 92 60q0 14 -6.5 26t-18 19t-26.5 11.5t-32 4.5q-61 0 -103 -47l-29 34q52 59 136 59q61 0 98.5 -27.5t37.5 -73.5q0 -19 -8 -35.5 t-20.5 -26.5t-26.5 -16.5t-29 -8.5q33 -3 61.5 -27t28.5 -65q0 -48 -38.5 -78.5t-103.5 -30.5z" />
<glyph d="M276 345v-94h-55v94h-184v41l161 241h78v-236h55v-46h-55zM221 577l-128 -186h128v186z" />
<glyph d="M180 244q-93 0 -139 62l33 36q40 -52 106 -52q39 0 63 22.5t24 55.5q0 35 -23.5 56.5t-61.5 21.5q-52 0 -89 -37l-40 14v204h245v-46h-189v-126q36 34 90 34q52 0 88 -31.5t36 -88.5q0 -37 -18.5 -65.5t-51 -44t-73.5 -15.5z" />
<glyph d="M191 244q-79 0 -117 54.5t-38 139.5q0 84 42 139.5t121 55.5q65 0 110 -44l-27 -39q-34 37 -83 37q-35 0 -60 -20.5t-36 -51t-11 -66.5v-16q10 14 25.5 26.5t38 22t44.5 9.5q56 0 92.5 -32.5t36.5 -90.5q0 -52 -38 -88t-100 -36zM186 446q-27 0 -51.5 -14.5t-40.5 -38.5 q3 -42 26 -72.5t68 -30.5q20 0 36.5 7t26.5 18.5t16 24.5t6 27q0 38 -24.5 58.5t-62.5 20.5z" />
<glyph horiz-adv-x="340" d="M148 251h-63l156 330h-210v46h273v-39z" />
<glyph d="M182 244q-61 0 -102 27t-41 76q0 36 27 62t67 36q-38 9 -63 31.5t-25 57.5q0 48 41 73.5t96.5 25.5t96.5 -25.5t41 -73.5q0 -35 -25 -57.5t-64 -31.5q41 -10 68 -36t27 -62q0 -49 -41.5 -76t-102.5 -27zM182 588q-35 0 -58 -16.5t-23 -44.5q0 -48 81 -64q81 16 81 64 q0 28 -23 44.5t-58 16.5zM182 424q-14 -2 -32 -8.5t-37 -23.5t-19 -40q0 -20 12 -34.5t32 -21.5t44 -7t44 7t32 21.5t12 34.5q0 23 -18.5 40t-36.5 23.5t-33 8.5z" />
<glyph d="M175 633q78 0 116 -55t38 -140q0 -40 -10.5 -74.5t-30 -61.5t-51 -42.5t-72.5 -15.5q-67 0 -109 44l27 39q33 -37 82 -37q35 0 60 20.5t36 50.5t12 68v15q-10 -14 -25.5 -26.5t-37.5 -22t-45 -9.5q-55 0 -92 32t-37 91q0 51 38.5 87.5t100.5 36.5zM179 431 q27 0 51.5 14.5t40.5 38.5q-2 26 -11.5 48t-30.5 38.5t-51 16.5q-40 0 -63 -24t-23 -53q0 -38 24.5 -58.5t62.5 -20.5z" />
<glyph d="M182 -7q-51 0 -86.5 30.5t-50 72.5t-14.5 92t14.5 92t50 72t86.5 30q39 0 69 -17t47.5 -45.5t26.5 -62t9 -69.5q0 -50 -15 -92.5t-50.5 -72.5t-86.5 -30zM182 336q-48 0 -71 -42t-23 -106t23 -106.5t71 -42.5t70.5 42.5t22.5 106.5t-22.5 106t-70.5 42z" />
<glyph horiz-adv-x="220" d="M108 0v303l-62 -65l-33 35l102 103h49v-376h-56z" />
<glyph d="M47 0v42q117 83 166 132.5t49 92.5q0 34 -23 51.5t-57 17.5q-33 0 -61 -14t-44 -35l-31 35q23 29 60 44.5t78 15.5q56 0 95.5 -28.5t39.5 -82.5q0 -53 -47.5 -105t-141.5 -120h191v-46h-274z" />
<glyph d="M180 -7q-48 0 -84.5 17t-56.5 45l31 35q41 -51 109 -51q40 0 63.5 18t23.5 48q0 65 -98 65q-32 0 -37 -1v47q6 -1 36 -1q92 0 92 60q0 28 -23.5 44.5t-59.5 16.5q-61 0 -103 -46l-29 33q52 59 136 59q61 0 98.5 -27.5t37.5 -73.5q0 -37 -25.5 -59t-58.5 -28 q33 -3 61.5 -27t28.5 -65q0 -48 -38.5 -78.5t-103.5 -30.5z" />
<glyph d="M276 94v-94h-55v94h-184v41l161 241h78v-236h55v-46h-55zM221 326l-128 -186h128v186z" />
<glyph d="M180 -7q-93 0 -139 62l33 36q40 -52 106 -52q39 0 63 22.5t24 55.5q0 35 -23.5 56.5t-61.5 21.5q-52 0 -89 -37l-40 14v204h245v-46h-189v-126q36 34 90 34q52 0 88 -31.5t36 -88t-40 -91t-103 -34.5z" />
<glyph d="M191 -7q-79 0 -117 54.5t-38 139.5q0 84 42 139.5t121 55.5q65 0 110 -44l-27 -39q-34 37 -83 37q-52 0 -79.5 -40.5t-27.5 -97.5v-16q8 10 18.5 20t24.5 18.5t31 14t34 5.5q56 0 92.5 -32.5t36.5 -89.5q0 -53 -38 -89t-100 -36zM186 195q-18 0 -35 -6.5t-32 -18.5 t-25 -28q3 -42 26 -72.5t68 -30.5q39 0 62 24t23 53q0 38 -24.5 58.5t-62.5 20.5z" />
<glyph horiz-adv-x="340" d="M148 0h-63l156 330h-210v46h273v-39z" />
<glyph d="M182 -7q-61 0 -102 27t-41 76q0 36 27 62t67 36q-38 9 -63 31.5t-25 57.5q0 48 41 73.5t96.5 25.5t96.5 -25.5t41 -73.5q0 -23 -13 -42t-32 -30t-44 -17q41 -10 68 -36t27 -62q0 -49 -41.5 -76t-102.5 -27zM182 337q-35 0 -58 -16.5t-23 -44.5q0 -48 81 -64q81 16 81 64 q0 19 -11 33t-29 21t-41 7zM182 173q-14 -2 -32 -8.5t-37 -23.5t-19 -40q0 -29 25.5 -46t62.5 -17t62.5 17t25.5 46q0 23 -18.5 40t-36.5 23.5t-33 8.5z" />
<glyph d="M175 382q78 0 116 -55t38 -140q0 -84 -42.5 -139t-121.5 -55q-67 0 -109 44l27 39q33 -37 82 -37q52 0 79.5 40.5t28.5 98.5v15q-16 -23 -45.5 -40.5t-62.5 -17.5q-55 0 -92 32t-37 91q0 51 38.5 87.5t100.5 36.5zM179 180q27 0 51.5 14.5t40.5 38.5q-4 41 -26.5 72 t-66.5 31q-40 0 -63 -24t-23 -53q0 -38 24.5 -58.5t62.5 -20.5z" />
</font>
</defs>
</svg>
